<svg xmlns="http://www.w3.org/2000/svg" width="1920" height="1080" fill="none" viewBox="0 0 1920 1080"><g id="easy clauses"><rect width="1920" height="1080" fill="#fff"/><g id="If n &lt; m, delete clause."><path fill="#000" d="M442.652 345.805H433.436V344.845C434.396 344.845 435.1 344.77 435.548 344.621C435.996 344.45 436.284 344.141 436.412 343.693C436.54 343.223 436.604 342.53 436.604 341.613V329.005C436.604 328.173 436.55 327.522 436.444 327.053C436.337 326.562 436.06 326.221 435.612 326.029C435.185 325.837 434.46 325.741 433.436 325.741V324.781H442.652V325.741C441.649 325.741 440.924 325.837 440.476 326.029C440.028 326.221 439.75 326.562 439.644 327.053C439.558 327.522 439.516 328.173 439.516 329.005V341.613C439.516 342.53 439.58 343.223 439.708 343.693C439.836 344.141 440.124 344.45 440.572 344.621C441.02 344.77 441.713 344.845 442.652 344.845V345.805ZM452.969 345.805H444.361V344.877C445.15 344.877 445.726 344.813 446.089 344.685C446.473 344.535 446.729 344.258 446.857 343.853C446.985 343.447 447.049 342.829 447.049 341.997V331.821C447.049 330.605 447.07 329.613 447.113 328.845C447.177 328.055 447.284 327.394 447.433 326.861C447.582 326.327 447.796 325.815 448.073 325.325C448.5 324.578 449.033 324.002 449.673 323.597C450.334 323.191 451.22 322.989 452.329 322.989C453.033 322.989 453.652 323.074 454.185 323.245C454.718 323.415 455.134 323.671 455.433 324.013C455.753 324.333 455.913 324.738 455.913 325.229C455.913 325.698 455.785 326.05 455.529 326.285C455.273 326.498 454.964 326.605 454.601 326.605C454.196 326.605 453.865 326.477 453.609 326.221C453.353 325.943 453.108 325.655 452.873 325.357C452.66 325.058 452.425 324.791 452.169 324.557C451.934 324.301 451.625 324.173 451.241 324.173C450.644 324.173 450.238 324.45 450.025 325.005C449.812 325.538 449.705 326.477 449.705 327.821V341.997C449.705 342.829 449.79 343.447 449.961 343.853C450.132 344.258 450.452 344.535 450.921 344.685C451.39 344.813 452.073 344.877 452.969 344.877V345.805ZM453.609 332.173H444.617V330.829H453.609V332.173ZM475.523 346.125C474.733 346.125 474.179 345.933 473.859 345.549C473.56 345.143 473.411 344.706 473.411 344.237C473.411 343.981 473.432 343.735 473.475 343.501C473.539 343.245 473.581 343.074 473.603 342.989L475.491 335.597C475.491 335.597 475.523 335.426 475.587 335.085C475.672 334.722 475.715 334.381 475.715 334.061C475.715 333.698 475.651 333.399 475.523 333.165C475.395 332.909 475.149 332.781 474.787 332.781C474.317 332.781 473.805 333.005 473.251 333.453C472.696 333.879 472.141 334.445 471.587 335.149C471.032 335.831 470.509 336.557 470.019 337.325C469.528 338.071 469.101 338.786 468.739 339.469C468.376 340.13 468.109 340.653 467.939 341.037L468.547 337.837C468.845 337.261 469.24 336.567 469.731 335.757C470.243 334.925 470.829 334.114 471.491 333.325C472.152 332.514 472.888 331.842 473.699 331.309C474.531 330.754 475.427 330.477 476.387 330.477C477.176 330.477 477.709 330.711 477.987 331.181C478.285 331.65 478.435 332.173 478.435 332.749C478.435 333.282 478.392 333.751 478.307 334.157C478.243 334.562 478.189 334.882 478.147 335.117L476.355 342.509C476.355 342.509 476.333 342.594 476.291 342.765C476.269 342.914 476.259 343.085 476.259 343.277C476.259 343.682 476.461 343.885 476.867 343.885C477.421 343.885 477.891 343.682 478.275 343.277C478.68 342.871 479 342.519 479.235 342.221L479.907 342.701C479.693 342.999 479.448 343.341 479.171 343.725C478.915 344.109 478.605 344.493 478.243 344.877C477.901 345.239 477.507 345.538 477.059 345.773C476.611 346.007 476.099 346.125 475.523 346.125ZM466.915 345.805H464.291L466.883 333.645C466.883 333.645 466.904 333.527 466.947 333.293C466.989 333.058 467.011 332.823 467.011 332.589C467.011 332.311 466.925 332.098 466.755 331.949C466.584 331.799 466.317 331.725 465.955 331.725C465.741 331.725 465.507 331.735 465.251 331.757C465.016 331.778 464.899 331.789 464.899 331.789V330.925L469.347 330.573H470.051L468.451 337.517H468.803L466.915 345.805ZM509.116 344.525V346.605L490.588 337.645V337.325L509.116 328.301V330.445L494.94 337.485L509.116 344.525ZM539.437 346.125C538.626 346.125 538.072 345.933 537.773 345.549C537.474 345.143 537.325 344.706 537.325 344.237C537.325 343.981 537.346 343.735 537.389 343.501C537.432 343.245 537.464 343.074 537.485 342.989L539.117 336.781C539.224 336.354 539.33 335.885 539.437 335.373C539.565 334.839 539.629 334.402 539.629 334.061C539.629 333.698 539.565 333.399 539.437 333.165C539.309 332.909 539.064 332.781 538.701 332.781C538.296 332.781 537.826 333.005 537.293 333.453C536.781 333.879 536.248 334.445 535.693 335.149C535.138 335.853 534.605 336.621 534.093 337.453C533.581 338.263 533.133 339.053 532.749 339.821C532.365 340.567 532.077 341.218 531.885 341.773L532.973 337.645C533.293 337.026 533.698 336.311 534.189 335.501C534.68 334.69 535.234 333.901 535.853 333.133C536.493 332.365 537.186 331.735 537.933 331.245C538.701 330.733 539.512 330.477 540.365 330.477C541.133 330.477 541.656 330.711 541.933 331.181C542.21 331.65 542.349 332.173 542.349 332.749C542.349 333.154 542.306 333.591 542.221 334.061C542.136 334.53 542.072 334.882 542.029 335.117L540.269 342.509C540.269 342.509 540.248 342.594 540.205 342.765C540.184 342.914 540.173 343.085 540.173 343.277C540.173 343.682 540.376 343.885 540.781 343.885C541.336 343.885 541.805 343.682 542.189 343.277C542.594 342.871 542.925 342.519 543.181 342.221L543.821 342.701C543.608 342.999 543.362 343.341 543.085 343.725C542.829 344.109 542.52 344.493 542.157 344.877C541.816 345.239 541.421 345.538 540.973 345.773C540.525 346.007 540.013 346.125 539.437 346.125ZM522.477 345.805H519.853L522.413 333.645C522.413 333.645 522.424 333.527 522.445 333.293C522.488 333.058 522.509 332.823 522.509 332.589C522.509 332.311 522.434 332.098 522.285 331.949C522.136 331.799 521.869 331.725 521.485 331.725C521.272 331.725 521.048 331.735 520.813 331.757C520.578 331.778 520.461 331.789 520.461 331.789V330.925L524.845 330.573H525.581L524.013 337.517H524.365L522.477 345.805ZM531.021 345.805H528.365C528.6 344.951 528.824 344.098 529.037 343.245C529.272 342.37 529.496 341.506 529.709 340.653C529.922 339.778 530.125 338.903 530.317 338.029C530.53 337.154 530.733 336.269 530.925 335.373C530.925 335.373 530.946 335.223 530.989 334.925C531.053 334.605 531.085 334.317 531.085 334.061C531.085 333.698 531.021 333.399 530.893 333.165C530.765 332.909 530.52 332.781 530.157 332.781C529.624 332.781 529.037 333.079 528.397 333.677C527.757 334.274 527.106 335.042 526.445 335.981C525.805 336.919 525.208 337.922 524.653 338.989C524.098 340.034 523.64 341.005 523.277 341.901L524.077 337.869C524.397 337.25 524.802 336.525 525.293 335.693C525.784 334.861 526.349 334.05 526.989 333.261C527.65 332.471 528.386 331.81 529.197 331.277C530.008 330.743 530.872 330.477 531.789 330.477C532.578 330.477 533.101 330.711 533.357 331.181C533.634 331.65 533.773 332.173 533.773 332.749C533.773 333.218 533.73 333.709 533.645 334.221C533.56 334.733 533.506 335.031 533.485 335.117L532.877 337.517H533.325L531.885 341.773L531.021 345.805ZM546.931 350.029L546.547 349.229C546.953 349.058 547.358 348.834 547.763 348.557C548.169 348.301 548.51 347.917 548.787 347.405C549.065 346.893 549.203 346.21 549.203 345.357C548.862 345.485 548.531 345.549 548.211 345.549C547.593 345.549 547.145 345.378 546.867 345.037C546.59 344.695 546.451 344.29 546.451 343.821C546.451 343.309 546.622 342.871 546.963 342.509C547.305 342.125 547.795 341.933 548.435 341.933C548.969 341.933 549.417 342.05 549.779 342.285C550.142 342.498 550.419 342.818 550.611 343.245C550.803 343.65 550.899 344.151 550.899 344.749C550.899 345.645 550.75 346.402 550.451 347.021C550.174 347.639 549.822 348.141 549.395 348.525C548.969 348.909 548.531 349.218 548.083 349.453C547.635 349.687 547.251 349.879 546.931 350.029ZM566.594 346.061C565.4 346.061 564.386 345.741 563.554 345.101C562.744 344.461 562.136 343.597 561.73 342.509C561.325 341.399 561.122 340.162 561.122 338.797C561.122 337.026 561.453 335.511 562.114 334.253C562.776 332.973 563.661 331.991 564.77 331.309C565.901 330.626 567.138 330.285 568.482 330.285C568.994 330.285 569.496 330.349 569.986 330.477C570.498 330.605 570.989 330.797 571.458 331.053H571.586V326.861C571.586 326.157 571.501 325.698 571.33 325.485C571.181 325.271 570.797 325.165 570.178 325.165C570.029 325.165 569.848 325.175 569.634 325.197C569.442 325.218 569.346 325.229 569.346 325.229V324.333L573.378 323.213H574.242V342.381C574.242 343.213 574.36 343.757 574.594 344.013C574.829 344.247 575.245 344.365 575.842 344.365H576.514V345.229L572.418 345.965H571.682V343.757H571.554C570.957 344.29 570.242 344.813 569.41 345.325C568.6 345.815 567.661 346.061 566.594 346.061ZM568.098 343.757C568.845 343.757 569.474 343.661 569.986 343.469C570.498 343.255 571.032 342.957 571.586 342.573V334.125C571.458 333.463 571.149 332.877 570.658 332.365C570.168 331.831 569.421 331.565 568.418 331.565C567.074 331.565 565.986 332.055 565.154 333.037C564.322 334.018 563.906 335.522 563.906 337.549C563.906 339.746 564.258 341.335 564.962 342.317C565.688 343.277 566.733 343.757 568.098 343.757ZM585.22 346.125C583.94 346.125 582.778 345.826 581.732 345.229C580.708 344.61 579.898 343.714 579.3 342.541C578.703 341.346 578.404 339.895 578.404 338.189C578.404 336.397 578.703 334.925 579.3 333.773C579.919 332.599 580.74 331.725 581.764 331.149C582.788 330.573 583.919 330.285 585.156 330.285C586.906 330.285 588.314 330.893 589.38 332.109C590.447 333.325 591.023 335.053 591.108 337.293H580.708L580.676 336.109H588.1C588.079 335.319 587.94 334.583 587.684 333.901C587.428 333.197 587.055 332.631 586.564 332.205C586.074 331.778 585.444 331.565 584.676 331.565C583.439 331.565 582.511 332.055 581.892 333.037C581.274 333.997 580.964 335.362 580.964 337.133C580.964 338.605 581.199 339.831 581.668 340.813C582.138 341.794 582.756 342.53 583.524 343.021C584.292 343.49 585.114 343.725 585.988 343.725C586.863 343.725 587.567 343.607 588.1 343.373C588.655 343.138 589.124 342.839 589.508 342.477C589.892 342.093 590.255 341.677 590.596 341.229L591.204 341.677C590.927 342.274 590.607 342.85 590.244 343.405C589.882 343.938 589.466 344.407 588.996 344.813C588.548 345.218 588.015 345.538 587.396 345.773C586.778 346.007 586.052 346.125 585.22 346.125ZM600.48 345.805H593.12V344.877C593.824 344.877 594.336 344.813 594.656 344.685C594.976 344.535 595.168 344.301 595.232 343.981C595.317 343.639 595.36 343.17 595.36 342.573V326.509C595.36 325.847 595.232 325.453 594.976 325.325C594.741 325.197 594.421 325.133 594.016 325.133C593.739 325.133 593.493 325.143 593.28 325.165C593.088 325.186 592.992 325.197 592.992 325.197V324.333L597.216 323.213H598.016V342.573C598.016 343.191 598.059 343.671 598.144 344.013C598.251 344.333 598.475 344.557 598.816 344.685C599.157 344.813 599.712 344.877 600.48 344.877V345.805ZM609.127 346.125C607.847 346.125 606.684 345.826 605.639 345.229C604.615 344.61 603.804 343.714 603.207 342.541C602.609 341.346 602.311 339.895 602.311 338.189C602.311 336.397 602.609 334.925 603.207 333.773C603.825 332.599 604.647 331.725 605.671 331.149C606.695 330.573 607.825 330.285 609.063 330.285C610.812 330.285 612.22 330.893 613.287 332.109C614.353 333.325 614.929 335.053 615.015 337.293H604.615L604.583 336.109H612.007C611.985 335.319 611.847 334.583 611.591 333.901C611.335 333.197 610.961 332.631 610.471 332.205C609.98 331.778 609.351 331.565 608.583 331.565C607.345 331.565 606.417 332.055 605.799 333.037C605.18 333.997 604.871 335.362 604.871 337.133C604.871 338.605 605.105 339.831 605.575 340.813C606.044 341.794 606.663 342.53 607.431 343.021C608.199 343.49 609.02 343.725 609.895 343.725C610.769 343.725 611.473 343.607 612.007 343.373C612.561 343.138 613.031 342.839 613.415 342.477C613.799 342.093 614.161 341.677 614.503 341.229L615.111 341.677C614.833 342.274 614.513 342.85 614.151 343.405C613.788 343.938 613.372 344.407 612.903 344.813C612.455 345.218 611.921 345.538 611.303 345.773C610.684 346.007 609.959 346.125 609.127 346.125ZM625.442 342.925L626.05 343.437C625.645 344.013 625.261 344.503 624.898 344.909C624.557 345.293 624.173 345.591 623.746 345.805C623.32 346.018 622.765 346.125 622.082 346.125C621.016 346.125 620.237 345.815 619.746 345.197C619.256 344.557 619.01 343.522 619.01 342.093V332.173H617.25V331.437C617.997 330.967 618.637 330.338 619.17 329.549C619.725 328.738 620.29 327.65 620.866 326.285H621.666V330.829H625.282V332.173H621.666V341.197C621.666 342.327 621.762 343.117 621.954 343.565C622.168 344.013 622.584 344.237 623.202 344.237C623.714 344.237 624.109 344.13 624.386 343.917C624.685 343.703 625.037 343.373 625.442 342.925ZM633.908 346.125C632.628 346.125 631.465 345.826 630.42 345.229C629.396 344.61 628.585 343.714 627.988 342.541C627.391 341.346 627.092 339.895 627.092 338.189C627.092 336.397 627.391 334.925 627.988 333.773C628.607 332.599 629.428 331.725 630.452 331.149C631.476 330.573 632.607 330.285 633.844 330.285C635.593 330.285 637.001 330.893 638.068 332.109C639.135 333.325 639.711 335.053 639.796 337.293H629.396L629.364 336.109H636.788C636.767 335.319 636.628 334.583 636.372 333.901C636.116 333.197 635.743 332.631 635.252 332.205C634.761 331.778 634.132 331.565 633.364 331.565C632.127 331.565 631.199 332.055 630.58 333.037C629.961 333.997 629.652 335.362 629.652 337.133C629.652 338.605 629.887 339.831 630.356 340.813C630.825 341.794 631.444 342.53 632.212 343.021C632.98 343.49 633.801 343.725 634.676 343.725C635.551 343.725 636.255 343.607 636.788 343.373C637.343 343.138 637.812 342.839 638.196 342.477C638.58 342.093 638.943 341.677 639.284 341.229L639.892 341.677C639.615 342.274 639.295 342.85 638.932 343.405C638.569 343.938 638.153 344.407 637.684 344.813C637.236 345.218 636.703 345.538 636.084 345.773C635.465 346.007 634.74 346.125 633.908 346.125ZM661.435 341.069L662.043 341.517C661.638 342.37 661.168 343.149 660.635 343.853C660.123 344.557 659.483 345.111 658.715 345.517C657.947 345.922 656.987 346.125 655.835 346.125C654.512 346.125 653.371 345.805 652.411 345.165C651.451 344.525 650.715 343.639 650.203 342.509C649.691 341.357 649.435 340.045 649.435 338.573C649.435 336.887 649.712 335.426 650.267 334.189C650.843 332.951 651.664 331.991 652.731 331.309C653.819 330.626 655.131 330.285 656.667 330.285C658.182 330.285 659.366 330.615 660.219 331.277C661.094 331.938 661.531 332.738 661.531 333.677C661.531 334.146 661.414 334.509 661.179 334.765C660.966 334.999 660.635 335.117 660.187 335.117C659.718 335.117 659.355 334.999 659.099 334.765C658.864 334.509 658.672 334.199 658.523 333.837C658.374 333.474 658.214 333.111 658.043 332.749C657.894 332.386 657.67 332.087 657.371 331.853C657.094 331.597 656.678 331.469 656.123 331.469C654.822 331.469 653.798 331.949 653.051 332.909C652.326 333.847 651.963 335.234 651.963 337.069C651.963 339.01 652.358 340.61 653.147 341.869C653.958 343.106 655.184 343.725 656.827 343.725C657.872 343.725 658.715 343.511 659.355 343.085C660.016 342.658 660.71 341.986 661.435 341.069ZM670.98 345.805H663.62V344.877C664.324 344.877 664.836 344.813 665.156 344.685C665.476 344.535 665.668 344.301 665.732 343.981C665.817 343.639 665.86 343.17 665.86 342.573V326.509C665.86 325.847 665.732 325.453 665.476 325.325C665.241 325.197 664.921 325.133 664.516 325.133C664.239 325.133 663.993 325.143 663.78 325.165C663.588 325.186 663.492 325.197 663.492 325.197V324.333L667.716 323.213H668.516V342.573C668.516 343.191 668.559 343.671 668.644 344.013C668.751 344.333 668.975 344.557 669.316 344.685C669.657 344.813 670.212 344.877 670.98 344.877V345.805ZM676.747 346.029C675.509 346.029 674.56 345.687 673.899 345.005C673.259 344.322 672.939 343.469 672.939 342.445C672.939 341.591 673.131 340.877 673.515 340.301C673.92 339.703 674.443 339.202 675.083 338.797C675.744 338.391 676.448 338.05 677.195 337.773C677.963 337.495 678.709 337.261 679.435 337.069C680.16 336.877 680.8 336.695 681.355 336.525V335.117C681.355 333.73 681.109 332.749 680.619 332.173C680.149 331.575 679.435 331.277 678.475 331.277C677.557 331.277 676.971 331.469 676.715 331.853C676.459 332.237 676.331 332.909 676.331 333.869C676.331 334.359 676.203 334.733 675.947 334.989C675.712 335.223 675.371 335.341 674.923 335.341C674.603 335.341 674.293 335.223 673.995 334.989C673.717 334.733 673.579 334.338 673.579 333.805C673.579 333.207 673.803 332.642 674.251 332.109C674.72 331.575 675.371 331.138 676.203 330.797C677.056 330.455 678.059 330.285 679.211 330.285C680.96 330.285 682.197 330.69 682.923 331.501C683.648 332.311 684.011 333.549 684.011 335.213V342.477C684.011 343.138 684.085 343.565 684.235 343.757C684.384 343.949 684.629 344.045 684.971 344.045C685.269 344.045 685.536 343.97 685.771 343.821C686.027 343.671 686.261 343.479 686.475 343.245L686.955 343.757C686.421 344.525 685.909 345.09 685.419 345.453C684.949 345.794 684.309 345.965 683.499 345.965C682.752 345.965 682.261 345.751 682.027 345.325C681.813 344.898 681.653 344.29 681.547 343.501L681.355 343.117V337.581C680.395 337.815 679.488 338.093 678.635 338.413C677.781 338.733 677.088 339.149 676.555 339.661C676.021 340.173 675.755 340.845 675.755 341.677C675.755 342.466 675.968 343.095 676.395 343.565C676.821 344.034 677.376 344.269 678.059 344.269C678.613 344.269 679.189 344.13 679.787 343.853C680.405 343.575 681.003 343.181 681.579 342.669L681.835 343.821H681.451C680.96 344.247 680.48 344.631 680.011 344.973C679.563 345.314 679.072 345.581 678.539 345.773C678.027 345.943 677.429 346.029 676.747 346.029ZM694.202 346.125C692.879 346.125 691.844 345.698 691.098 344.845C690.372 343.97 690.01 342.445 690.01 340.269V333.773C690.01 333.197 689.946 332.781 689.818 332.525C689.711 332.247 689.498 332.077 689.178 332.013C688.858 331.927 688.41 331.885 687.834 331.885V330.989L691.962 330.509H692.666V339.853C692.666 340.941 692.783 341.794 693.018 342.413C693.274 343.01 693.615 343.437 694.042 343.693C694.49 343.949 694.991 344.077 695.546 344.077C696.356 344.077 697.05 343.895 697.626 343.533C698.223 343.17 698.842 342.711 699.482 342.157V333.741C699.482 333.165 699.407 332.749 699.258 332.493C699.108 332.237 698.842 332.077 698.458 332.013C698.095 331.927 697.572 331.885 696.89 331.885V330.989L701.37 330.509H702.138V342.253C702.138 343.191 702.266 343.778 702.522 344.013C702.778 344.247 703.29 344.365 704.058 344.365H704.378V345.229L700.314 345.965H699.61V343.501H699.45C698.895 344.055 698.34 344.535 697.786 344.941C697.252 345.325 696.687 345.613 696.09 345.805C695.514 346.018 694.884 346.125 694.202 346.125ZM706.692 346.061L706.596 340.557H707.428C707.769 342.199 708.27 343.351 708.932 344.013C709.593 344.653 710.51 344.973 711.684 344.973C712.494 344.973 713.156 344.813 713.668 344.493C714.18 344.151 714.436 343.607 714.436 342.861C714.436 342.349 714.34 341.922 714.148 341.581C713.977 341.239 713.636 340.898 713.124 340.557C712.612 340.194 711.854 339.767 710.852 339.277C709.87 338.786 709.07 338.317 708.452 337.869C707.833 337.399 707.374 336.887 707.076 336.333C706.777 335.778 706.628 335.106 706.628 334.317C706.628 332.994 707.097 331.991 708.036 331.309C708.996 330.626 710.158 330.285 711.524 330.285C712.334 330.285 712.996 330.381 713.508 330.573C714.02 330.743 714.478 330.925 714.884 331.117H714.916L715.46 330.445H716.1L716.196 335.341H715.332C714.99 333.826 714.51 332.791 713.892 332.237C713.273 331.661 712.473 331.373 711.492 331.373C710.766 331.373 710.148 331.543 709.636 331.885C709.145 332.226 708.9 332.759 708.9 333.485C708.9 334.103 709.188 334.658 709.764 335.149C710.34 335.639 711.3 336.226 712.644 336.909C713.625 337.421 714.446 337.922 715.108 338.413C715.769 338.882 716.27 339.405 716.612 339.981C716.953 340.535 717.124 341.207 717.124 341.997C717.124 342.999 716.878 343.81 716.388 344.429C715.897 345.026 715.236 345.463 714.404 345.741C713.593 346.018 712.708 346.157 711.748 346.157C710.83 346.157 710.094 346.061 709.54 345.869C709.006 345.677 708.526 345.495 708.1 345.325H708.036L707.364 346.061H706.692ZM725.877 346.125C724.597 346.125 723.434 345.826 722.389 345.229C721.365 344.61 720.554 343.714 719.957 342.541C719.359 341.346 719.061 339.895 719.061 338.189C719.061 336.397 719.359 334.925 719.957 333.773C720.575 332.599 721.397 331.725 722.421 331.149C723.445 330.573 724.575 330.285 725.813 330.285C727.562 330.285 728.97 330.893 730.037 332.109C731.103 333.325 731.679 335.053 731.765 337.293H721.365L721.333 336.109H728.757C728.735 335.319 728.597 334.583 728.341 333.901C728.085 333.197 727.711 332.631 727.221 332.205C726.73 331.778 726.101 331.565 725.333 331.565C724.095 331.565 723.167 332.055 722.549 333.037C721.93 333.997 721.621 335.362 721.621 337.133C721.621 338.605 721.855 339.831 722.325 340.813C722.794 341.794 723.413 342.53 724.181 343.021C724.949 343.49 725.77 343.725 726.645 343.725C727.519 343.725 728.223 343.607 728.757 343.373C729.311 343.138 729.781 342.839 730.165 342.477C730.549 342.093 730.911 341.677 731.253 341.229L731.861 341.677C731.583 342.274 731.263 342.85 730.901 343.405C730.538 343.938 730.122 344.407 729.653 344.813C729.205 345.218 728.671 345.538 728.053 345.773C727.434 346.007 726.709 346.125 725.877 346.125ZM736.688 346.061C736.048 346.061 735.568 345.879 735.248 345.517C734.95 345.154 734.8 344.706 734.8 344.173C734.8 343.618 734.971 343.149 735.312 342.765C735.654 342.359 736.123 342.157 736.72 342.157C737.339 342.157 737.819 342.359 738.16 342.765C738.502 343.17 738.672 343.65 738.672 344.205C738.672 344.695 738.502 345.133 738.16 345.517C737.819 345.879 737.328 346.061 736.688 346.061Z"/></g><path id="If n â¥ m, return" fill="#FF383C" d="M483.652 452.805H474.436V451.845C475.396 451.845 476.1 451.77 476.548 451.621C476.996 451.45 477.284 451.141 477.412 450.693C477.54 450.223 477.604 449.53 477.604 448.613V436.005C477.604 435.173 477.55 434.522 477.444 434.053C477.337 433.562 477.06 433.221 476.612 433.029C476.185 432.837 475.46 432.741 474.436 432.741V431.781H483.652V432.741C482.649 432.741 481.924 432.837 481.476 433.029C481.028 433.221 480.75 433.562 480.644 434.053C480.558 434.522 480.516 435.173 480.516 436.005V448.613C480.516 449.53 480.58 450.223 480.708 450.693C480.836 451.141 481.124 451.45 481.572 451.621C482.02 451.77 482.713 451.845 483.652 451.845V452.805ZM493.969 452.805H485.361V451.877C486.15 451.877 486.726 451.813 487.089 451.685C487.473 451.535 487.729 451.258 487.857 450.853C487.985 450.447 488.049 449.829 488.049 448.997V438.821C488.049 437.605 488.07 436.613 488.113 435.845C488.177 435.055 488.284 434.394 488.433 433.861C488.582 433.327 488.796 432.815 489.073 432.325C489.5 431.578 490.033 431.002 490.673 430.597C491.334 430.191 492.22 429.989 493.329 429.989C494.033 429.989 494.652 430.074 495.185 430.245C495.718 430.415 496.134 430.671 496.433 431.013C496.753 431.333 496.913 431.738 496.913 432.229C496.913 432.698 496.785 433.05 496.529 433.285C496.273 433.498 495.964 433.605 495.601 433.605C495.196 433.605 494.865 433.477 494.609 433.221C494.353 432.943 494.108 432.655 493.873 432.357C493.66 432.058 493.425 431.791 493.169 431.557C492.934 431.301 492.625 431.173 492.241 431.173C491.644 431.173 491.238 431.45 491.025 432.005C490.812 432.538 490.705 433.477 490.705 434.821V448.997C490.705 449.829 490.79 450.447 490.961 450.853C491.132 451.258 491.452 451.535 491.921 451.685C492.39 451.813 493.073 451.877 493.969 451.877V452.805ZM494.609 439.173H485.617V437.829H494.609V439.173ZM516.523 453.125C515.733 453.125 515.179 452.933 514.859 452.549C514.56 452.143 514.411 451.706 514.411 451.237C514.411 450.981 514.432 450.735 514.475 450.501C514.539 450.245 514.581 450.074 514.603 449.989L516.491 442.597C516.491 442.597 516.523 442.426 516.587 442.085C516.672 441.722 516.715 441.381 516.715 441.061C516.715 440.698 516.651 440.399 516.523 440.165C516.395 439.909 516.149 439.781 515.787 439.781C515.317 439.781 514.805 440.005 514.251 440.453C513.696 440.879 513.141 441.445 512.587 442.149C512.032 442.831 511.509 443.557 511.019 444.325C510.528 445.071 510.101 445.786 509.739 446.469C509.376 447.13 509.109 447.653 508.939 448.037L509.547 444.837C509.845 444.261 510.24 443.567 510.731 442.757C511.243 441.925 511.829 441.114 512.491 440.325C513.152 439.514 513.888 438.842 514.699 438.309C515.531 437.754 516.427 437.477 517.387 437.477C518.176 437.477 518.709 437.711 518.987 438.181C519.285 438.65 519.435 439.173 519.435 439.749C519.435 440.282 519.392 440.751 519.307 441.157C519.243 441.562 519.189 441.882 519.147 442.117L517.355 449.509C517.355 449.509 517.333 449.594 517.291 449.765C517.269 449.914 517.259 450.085 517.259 450.277C517.259 450.682 517.461 450.885 517.867 450.885C518.421 450.885 518.891 450.682 519.275 450.277C519.68 449.871 520 449.519 520.235 449.221L520.907 449.701C520.693 449.999 520.448 450.341 520.171 450.725C519.915 451.109 519.605 451.493 519.243 451.877C518.901 452.239 518.507 452.538 518.059 452.773C517.611 453.007 517.099 453.125 516.523 453.125ZM507.915 452.805H505.291L507.883 440.645C507.883 440.645 507.904 440.527 507.947 440.293C507.989 440.058 508.011 439.823 508.011 439.589C508.011 439.311 507.925 439.098 507.755 438.949C507.584 438.799 507.317 438.725 506.955 438.725C506.741 438.725 506.507 438.735 506.251 438.757C506.016 438.778 505.899 438.789 505.899 438.789V437.925L510.347 437.573H511.051L509.451 444.517H509.803L507.915 452.805ZM530.948 450.213V447.717L543.012 442.661L530.948 436.965V434.469L546.02 441.989V443.589L530.948 450.213ZM530.948 454.021V451.749H545.988V454.021H530.948ZM576.343 453.125C575.533 453.125 574.978 452.933 574.679 452.549C574.381 452.143 574.231 451.706 574.231 451.237C574.231 450.981 574.253 450.735 574.295 450.501C574.338 450.245 574.37 450.074 574.391 449.989L576.023 443.781C576.13 443.354 576.237 442.885 576.343 442.373C576.471 441.839 576.535 441.402 576.535 441.061C576.535 440.698 576.471 440.399 576.343 440.165C576.215 439.909 575.97 439.781 575.607 439.781C575.202 439.781 574.733 440.005 574.199 440.453C573.687 440.879 573.154 441.445 572.599 442.149C572.045 442.853 571.511 443.621 570.999 444.453C570.487 445.263 570.039 446.053 569.655 446.821C569.271 447.567 568.983 448.218 568.791 448.773L569.879 444.645C570.199 444.026 570.605 443.311 571.095 442.501C571.586 441.69 572.141 440.901 572.759 440.133C573.399 439.365 574.093 438.735 574.839 438.245C575.607 437.733 576.418 437.477 577.271 437.477C578.039 437.477 578.562 437.711 578.839 438.181C579.117 438.65 579.255 439.173 579.255 439.749C579.255 440.154 579.213 440.591 579.127 441.061C579.042 441.53 578.978 441.882 578.935 442.117L577.175 449.509C577.175 449.509 577.154 449.594 577.111 449.765C577.09 449.914 577.079 450.085 577.079 450.277C577.079 450.682 577.282 450.885 577.687 450.885C578.242 450.885 578.711 450.682 579.095 450.277C579.501 449.871 579.831 449.519 580.087 449.221L580.727 449.701C580.514 449.999 580.269 450.341 579.991 450.725C579.735 451.109 579.426 451.493 579.063 451.877C578.722 452.239 578.327 452.538 577.879 452.773C577.431 453.007 576.919 453.125 576.343 453.125ZM559.383 452.805H556.759L559.319 440.645C559.319 440.645 559.33 440.527 559.351 440.293C559.394 440.058 559.415 439.823 559.415 439.589C559.415 439.311 559.341 439.098 559.191 438.949C559.042 438.799 558.775 438.725 558.391 438.725C558.178 438.725 557.954 438.735 557.719 438.757C557.485 438.778 557.367 438.789 557.367 438.789V437.925L561.751 437.573H562.487L560.919 444.517H561.271L559.383 452.805ZM567.927 452.805H565.271C565.506 451.951 565.73 451.098 565.943 450.245C566.178 449.37 566.402 448.506 566.615 447.653C566.829 446.778 567.031 445.903 567.223 445.029C567.437 444.154 567.639 443.269 567.831 442.373C567.831 442.373 567.853 442.223 567.895 441.925C567.959 441.605 567.991 441.317 567.991 441.061C567.991 440.698 567.927 440.399 567.799 440.165C567.671 439.909 567.426 439.781 567.063 439.781C566.53 439.781 565.943 440.079 565.303 440.677C564.663 441.274 564.013 442.042 563.351 442.981C562.711 443.919 562.114 444.922 561.559 445.989C561.005 447.034 560.546 448.005 560.183 448.901L560.983 444.869C561.303 444.25 561.709 443.525 562.199 442.693C562.69 441.861 563.255 441.05 563.895 440.261C564.557 439.471 565.293 438.81 566.103 438.277C566.914 437.743 567.778 437.477 568.695 437.477C569.485 437.477 570.007 437.711 570.263 438.181C570.541 438.65 570.679 439.173 570.679 439.749C570.679 440.218 570.637 440.709 570.551 441.221C570.466 441.733 570.413 442.031 570.391 442.117L569.783 444.517H570.231L568.791 448.773L567.927 452.805ZM583.838 457.029L583.454 456.229C583.859 456.058 584.264 455.834 584.67 455.557C585.075 455.301 585.416 454.917 585.694 454.405C585.971 453.893 586.11 453.21 586.11 452.357C585.768 452.485 585.438 452.549 585.118 452.549C584.499 452.549 584.051 452.378 583.774 452.037C583.496 451.695 583.358 451.29 583.358 450.821C583.358 450.309 583.528 449.871 583.87 449.509C584.211 449.125 584.702 448.933 585.342 448.933C585.875 448.933 586.323 449.05 586.686 449.285C587.048 449.498 587.326 449.818 587.518 450.245C587.71 450.65 587.806 451.151 587.806 451.749C587.806 452.645 587.656 453.402 587.358 454.021C587.08 454.639 586.728 455.141 586.302 455.525C585.875 455.909 585.438 456.218 584.99 456.453C584.542 456.687 584.158 456.879 583.838 457.029ZM605.901 452.805H597.901V451.877C598.605 451.877 599.117 451.823 599.437 451.717C599.778 451.589 599.991 451.375 600.077 451.077C600.183 450.757 600.237 450.298 600.237 449.701V440.901C600.237 440.325 600.183 439.898 600.077 439.621C599.991 439.322 599.661 439.173 599.085 439.173C598.765 439.173 598.519 439.183 598.349 439.205C598.178 439.226 598.093 439.237 598.093 439.237V438.341L602.061 437.381H602.829V440.677H602.925C603.479 439.887 603.97 439.237 604.397 438.725C604.823 438.213 605.239 437.829 605.645 437.573C606.071 437.317 606.541 437.189 607.053 437.189C607.671 437.189 608.13 437.349 608.429 437.669C608.749 437.989 608.909 438.426 608.909 438.981C608.909 439.578 608.759 440.015 608.461 440.293C608.183 440.57 607.863 440.709 607.501 440.709C607.159 440.709 606.85 440.623 606.573 440.453C606.317 440.261 606.093 440.079 605.901 439.909C605.709 439.717 605.549 439.621 605.421 439.621C605.058 439.621 604.642 439.898 604.173 440.453C603.703 441.007 603.277 441.605 602.893 442.245V449.541C602.893 450.202 602.978 450.703 603.149 451.045C603.319 451.386 603.618 451.61 604.045 451.717C604.493 451.823 605.111 451.877 605.901 451.877V452.805ZM616.72 453.125C615.44 453.125 614.278 452.826 613.232 452.229C612.208 451.61 611.398 450.714 610.8 449.541C610.203 448.346 609.904 446.895 609.904 445.189C609.904 443.397 610.203 441.925 610.8 440.773C611.419 439.599 612.24 438.725 613.264 438.149C614.288 437.573 615.419 437.285 616.656 437.285C618.406 437.285 619.814 437.893 620.88 439.109C621.947 440.325 622.523 442.053 622.608 444.293H612.208L612.176 443.109H619.6C619.579 442.319 619.44 441.583 619.184 440.901C618.928 440.197 618.555 439.631 618.064 439.205C617.574 438.778 616.944 438.565 616.176 438.565C614.939 438.565 614.011 439.055 613.392 440.037C612.774 440.997 612.464 442.362 612.464 444.133C612.464 445.605 612.699 446.831 613.168 447.813C613.638 448.794 614.256 449.53 615.024 450.021C615.792 450.49 616.614 450.725 617.488 450.725C618.363 450.725 619.067 450.607 619.6 450.373C620.155 450.138 620.624 449.839 621.008 449.477C621.392 449.093 621.755 448.677 622.096 448.229L622.704 448.677C622.427 449.274 622.107 449.85 621.744 450.405C621.382 450.938 620.966 451.407 620.496 451.813C620.048 452.218 619.515 452.538 618.896 452.773C618.278 453.007 617.552 453.125 616.72 453.125ZM633.036 449.925L633.644 450.437C633.239 451.013 632.855 451.503 632.492 451.909C632.151 452.293 631.767 452.591 631.34 452.805C630.913 453.018 630.359 453.125 629.676 453.125C628.609 453.125 627.831 452.815 627.34 452.197C626.849 451.557 626.604 450.522 626.604 449.093V439.173H624.844V438.437C625.591 437.967 626.231 437.338 626.764 436.549C627.319 435.738 627.884 434.65 628.46 433.285H629.26V437.829H632.876V439.173H629.26V448.197C629.26 449.327 629.356 450.117 629.548 450.565C629.761 451.013 630.177 451.237 630.796 451.237C631.308 451.237 631.703 451.13 631.98 450.917C632.279 450.703 632.631 450.373 633.036 449.925ZM640.858 453.125C639.535 453.125 638.501 452.698 637.754 451.845C637.029 450.97 636.666 449.445 636.666 447.269V440.773C636.666 440.197 636.602 439.781 636.474 439.525C636.367 439.247 636.154 439.077 635.834 439.013C635.514 438.927 635.066 438.885 634.49 438.885V437.989L638.618 437.509H639.322V446.853C639.322 447.941 639.439 448.794 639.674 449.413C639.93 450.01 640.271 450.437 640.698 450.693C641.146 450.949 641.647 451.077 642.202 451.077C643.013 451.077 643.706 450.895 644.282 450.533C644.879 450.17 645.498 449.711 646.138 449.157V440.741C646.138 440.165 646.063 439.749 645.914 439.493C645.765 439.237 645.498 439.077 645.114 439.013C644.751 438.927 644.229 438.885 643.546 438.885V437.989L648.026 437.509H648.794V449.253C648.794 450.191 648.922 450.778 649.178 451.013C649.434 451.247 649.946 451.365 650.714 451.365H651.034V452.229L646.97 452.965H646.266V450.501H646.106C645.551 451.055 644.997 451.535 644.442 451.941C643.909 452.325 643.343 452.613 642.746 452.805C642.17 453.018 641.541 453.125 640.858 453.125ZM660.932 452.805H652.932V451.877C653.636 451.877 654.148 451.823 654.468 451.717C654.809 451.589 655.023 451.375 655.108 451.077C655.215 450.757 655.268 450.298 655.268 449.701V440.901C655.268 440.325 655.215 439.898 655.108 439.621C655.023 439.322 654.692 439.173 654.116 439.173C653.796 439.173 653.551 439.183 653.38 439.205C653.209 439.226 653.124 439.237 653.124 439.237V438.341L657.092 437.381H657.86V440.677H657.956C658.511 439.887 659.001 439.237 659.428 438.725C659.855 438.213 660.271 437.829 660.676 437.573C661.103 437.317 661.572 437.189 662.084 437.189C662.703 437.189 663.161 437.349 663.46 437.669C663.78 437.989 663.94 438.426 663.94 438.981C663.94 439.578 663.791 440.015 663.492 440.293C663.215 440.57 662.895 440.709 662.532 440.709C662.191 440.709 661.881 440.623 661.604 440.453C661.348 440.261 661.124 440.079 660.932 439.909C660.74 439.717 660.58 439.621 660.452 439.621C660.089 439.621 659.673 439.898 659.204 440.453C658.735 441.007 658.308 441.605 657.924 442.245V449.541C657.924 450.202 658.009 450.703 658.18 451.045C658.351 451.386 658.649 451.61 659.076 451.717C659.524 451.823 660.143 451.877 660.932 451.877V452.805ZM681.92 452.805H674.528V451.909C675.296 451.909 675.84 451.845 676.16 451.717C676.501 451.567 676.704 451.322 676.768 450.981C676.853 450.639 676.896 450.17 676.896 449.573V443.781C676.896 442.501 676.747 441.541 676.448 440.901C676.171 440.261 675.808 439.845 675.36 439.653C674.912 439.439 674.443 439.333 673.952 439.333C673.333 439.333 672.779 439.461 672.288 439.717C671.797 439.951 671.349 440.239 670.944 440.581C670.56 440.922 670.197 441.242 669.856 441.541L669.632 439.973H670.112C670.987 439.205 671.808 438.565 672.576 438.053C673.365 437.541 674.261 437.285 675.264 437.285C676.715 437.285 677.792 437.775 678.496 438.757C679.2 439.738 679.552 441.146 679.552 442.981V449.573C679.552 450.17 679.595 450.639 679.68 450.981C679.787 451.322 680.011 451.567 680.352 451.717C680.693 451.845 681.216 451.909 681.92 451.909V452.805ZM672.512 452.805H665.184V451.909C665.909 451.909 666.421 451.845 666.72 451.717C667.04 451.567 667.232 451.322 667.296 450.981C667.381 450.639 667.424 450.17 667.424 449.573V440.581C667.424 440.005 667.307 439.631 667.072 439.461C666.837 439.269 666.507 439.173 666.08 439.173C665.803 439.173 665.589 439.183 665.44 439.205C665.291 439.226 665.216 439.237 665.216 439.237V438.309L669.28 437.381H670.016L669.984 440.325L670.08 440.997V449.573C670.08 450.17 670.123 450.639 670.208 450.981C670.293 451.322 670.507 451.567 670.848 451.717C671.189 451.845 671.744 451.909 672.512 451.909V452.805Z"/><g id="\mathcal{A} \models{} \exists{}x\, F \leftrightarrow{} \textbf{false}" clip-path="url(#clip0_74_6091)"><g id="page1"><path id="Vector" fill="#FF383C" d="M716.628 446.723C716.816 449.083 717.265 450.806 717.453 451.518C717.865 453.204 718.052 454.028 719.663 454.028C721.349 454.028 724.234 452.342 724.234 451.593C724.234 451.406 724.084 451.331 723.897 451.331C723.41 451.331 722.623 451.743 722.51 451.818C722.248 451.968 722.173 451.968 722.098 451.968C721.049 451.968 720.824 450.956 720.375 448.708C720.113 447.472 719.775 445.973 719.476 440.84C719.213 437.019 719.064 433.197 719.064 429.376C719.064 428.477 719.101 427.503 719.101 426.603C719.101 426.004 719.101 425.854 718.689 425.854C718.164 425.854 716.628 426.491 715.954 427.503L715.692 427.915C712.732 434.246 709.959 438.78 708.011 441.814C705.801 445.224 701.904 451.331 699.881 451.331C698.495 451.331 697.333 450.432 696.996 449.083C696.959 449.008 696.884 448.783 696.734 448.783C696.172 448.783 695.348 450.582 695.348 451.631C695.348 453.129 696.959 454.778 698.72 454.778C701.305 454.778 705.613 448.034 706.438 446.723H716.628ZM715.879 430.462V432.635C715.879 434.808 715.954 436.981 716.066 439.154C716.104 439.904 716.254 442.714 716.441 444.662H709.585C708.985 444.662 708.423 444.662 707.449 445.261C710.072 441.215 712.245 437.319 712.47 436.906C714.343 433.572 715.354 431.399 715.842 430.462H715.879Z"/><path id="Vector_2" fill="#FF383C" d="M740.616 426.153C740.616 425.479 740.616 424.805 739.867 424.805C739.117 424.805 739.117 425.479 739.117 426.153V460.922C739.117 461.596 739.117 462.271 739.867 462.271C740.616 462.271 740.616 461.596 740.616 460.922V426.153Z"/><path id="Vector_3" fill="#FF383C" d="M764.112 440.765C764.637 440.765 765.311 440.765 765.311 440.091C765.311 439.379 764.674 439.379 764.112 439.379H742.045C741.52 439.379 740.846 439.379 740.846 440.053C740.846 440.765 741.483 440.765 742.045 440.765H764.112ZM764.112 447.734C764.637 447.734 765.311 447.734 765.311 447.059C765.311 446.348 764.674 446.348 764.112 446.348H742.045C741.52 446.348 740.846 446.348 740.846 447.022C740.846 447.734 741.483 447.734 742.045 447.734H764.112Z"/><path id="Vector_4" fill="#FF383C" d="M796.493 428.252C796.493 427.015 796.38 426.903 795.181 426.903H781.132C780.495 426.903 779.82 426.903 779.82 427.652C779.82 428.401 780.495 428.401 781.132 428.401H794.994V439.154H781.656C781.019 439.154 780.345 439.154 780.345 439.904C780.345 440.653 781.019 440.653 781.656 440.653H794.994V451.406H781.132C780.495 451.406 779.82 451.406 779.82 452.155C779.82 452.904 780.495 452.904 781.132 452.904H795.181C796.38 452.904 796.493 452.792 796.493 451.555V428.252Z"/><path id="Vector_5" fill="#FF383C" d="M816.333 437.618C815.134 437.843 814.684 438.742 814.684 439.454C814.684 440.353 815.396 440.653 815.921 440.653C817.045 440.653 817.831 439.679 817.831 438.667C817.831 437.094 816.033 436.382 814.46 436.382C812.174 436.382 810.9 438.63 810.563 439.342C809.701 436.532 807.378 436.382 806.704 436.382C802.883 436.382 800.859 441.29 800.859 442.114C800.859 442.264 801.009 442.451 801.272 442.451C801.571 442.451 801.646 442.227 801.721 442.077C802.995 437.918 805.505 437.131 806.592 437.131C808.278 437.131 808.615 438.705 808.615 439.604C808.615 440.428 808.39 441.29 807.94 443.088L806.667 448.221C806.105 450.469 805.018 452.53 803.032 452.53C802.845 452.53 801.908 452.53 801.122 452.043C802.47 451.78 802.77 450.656 802.77 450.207C802.77 449.457 802.208 449.008 801.496 449.008C800.597 449.008 799.623 449.795 799.623 450.994C799.623 452.567 801.384 453.279 802.995 453.279C804.793 453.279 806.067 451.855 806.854 450.319C807.453 452.53 809.327 453.279 810.713 453.279C814.534 453.279 816.558 448.371 816.558 447.547C816.558 447.359 816.408 447.209 816.183 447.209C815.846 447.209 815.808 447.397 815.696 447.697C814.684 450.994 812.511 452.53 810.825 452.53C809.514 452.53 808.802 451.556 808.802 450.019C808.802 449.195 808.952 448.596 809.552 446.123L810.863 441.028C811.425 438.78 812.699 437.131 814.422 437.131C814.497 437.131 815.546 437.131 816.333 437.618Z"/><path id="Vector_6" fill="#FF383C" d="M836.795 440.691H840.391C843.239 440.691 843.463 441.327 843.463 442.414C843.463 442.901 843.389 443.426 843.201 444.25C843.126 444.4 843.089 444.587 843.089 444.662C843.089 444.924 843.239 445.074 843.501 445.074C843.801 445.074 843.838 444.924 843.988 444.325L846.161 435.595C846.161 435.445 846.049 435.221 845.786 435.221C845.449 435.221 845.412 435.37 845.262 436.007C844.475 438.817 843.726 439.604 840.466 439.604H837.057L839.492 429.9C839.829 428.589 839.904 428.477 841.44 428.477H846.461C851.144 428.477 851.818 429.863 851.818 432.523C851.818 432.748 851.818 433.572 851.706 434.546C851.669 434.696 851.594 435.183 851.594 435.333C851.594 435.633 851.781 435.745 852.006 435.745C852.268 435.745 852.418 435.595 852.493 434.921L853.28 428.364C853.28 428.252 853.354 427.877 853.354 427.802C853.354 427.39 853.017 427.39 852.343 427.39H834.584C833.872 427.39 833.498 427.39 833.498 428.065C833.498 428.477 833.76 428.477 834.397 428.477C836.72 428.477 836.72 428.739 836.72 429.151C836.72 429.338 836.682 429.488 836.57 429.9L831.512 450.132C831.175 451.443 831.1 451.818 828.477 451.818C827.765 451.818 827.391 451.818 827.391 452.492C827.391 452.904 827.728 452.904 827.953 452.904C828.664 452.904 829.414 452.829 830.126 452.829H834.996C835.82 452.829 836.72 452.904 837.544 452.904C837.881 452.904 838.331 452.904 838.331 452.23C838.331 451.818 838.106 451.818 837.282 451.818C834.322 451.818 834.247 451.556 834.247 450.994C834.247 450.806 834.322 450.507 834.397 450.244L836.795 440.691Z"/><path id="Vector_7" fill="#FF383C" d="M871.099 442.788C873.16 441.215 874.172 439.678 874.471 439.191C876.157 436.606 876.457 434.246 876.457 434.208C876.457 433.759 876.007 433.759 875.708 433.759C875.071 433.759 875.033 433.834 874.883 434.508C874.022 438.18 871.811 441.289 867.578 443.05C867.165 443.2 867.016 443.275 867.016 443.537C867.016 443.8 867.203 443.875 867.578 444.024C871.474 445.635 873.984 448.558 874.921 452.754C875.033 453.204 875.071 453.316 875.708 453.316C876.007 453.316 876.457 453.316 876.457 452.866C876.457 452.791 876.12 450.431 874.546 447.921C873.797 446.797 872.71 445.486 871.099 444.287H896.164C894.103 445.86 893.092 447.396 892.792 447.883C891.106 450.469 890.806 452.829 890.806 452.866C890.806 453.316 891.256 453.316 891.556 453.316C892.193 453.316 892.23 453.241 892.38 452.567C893.242 448.895 895.452 445.748 899.686 444.024C900.135 443.875 900.248 443.8 900.248 443.537C900.248 443.275 900.023 443.163 899.948 443.125C898.3 442.488 893.766 440.615 892.343 434.321C892.23 433.871 892.193 433.759 891.556 433.759C891.256 433.759 890.806 433.759 890.806 434.208C890.806 434.283 891.144 436.644 892.717 439.154C893.467 440.278 894.553 441.589 896.164 442.788H871.099Z"/><path id="Vector_8" fill="#FF383C" d="M920.921 437.881H925.192V436.269H920.734V432.411C920.734 428.514 923.206 427.915 924.443 427.915C924.855 427.915 924.93 427.952 925.155 428.027C924.593 428.402 924.255 429.039 924.255 429.825C924.255 431.324 925.454 431.998 926.428 431.998C927.253 431.998 928.601 431.436 928.601 429.788C928.601 428.252 927.253 426.678 924.593 426.678C921.183 426.678 917.024 428.102 917.024 432.448V436.269H914.252V437.881H917.024V451.293H914.439V452.904C915.301 452.829 918.111 452.829 919.16 452.829C920.246 452.829 923.281 452.829 924.18 452.904V451.293H920.921V437.881Z"/><path id="Vector_9" fill="#FF383C" d="M942.904 441.701C942.904 438.255 940.169 435.932 934.886 435.932C932.788 435.932 928.367 436.119 928.367 439.266C928.367 440.84 929.566 441.514 930.578 441.514C931.702 441.514 932.788 440.727 932.788 439.304C932.788 438.592 932.526 437.917 931.889 437.505C933.125 437.168 934.024 437.168 934.736 437.168C937.284 437.168 938.82 438.592 938.82 441.664V443.163C932.9 443.163 926.943 444.811 926.943 448.97C926.943 452.379 931.289 453.128 933.875 453.128C936.759 453.128 938.595 451.555 939.345 449.906C939.345 451.293 939.345 452.904 943.129 452.904H945.039C945.826 452.904 946.126 452.904 946.126 452.079C946.126 451.293 945.789 451.293 945.264 451.293C942.904 451.255 942.904 450.656 942.904 449.794V441.701ZM938.82 447.696C938.82 451.218 935.673 451.892 934.474 451.892C932.638 451.892 931.102 450.656 931.102 448.932C931.102 445.523 935.148 444.361 938.82 444.174V447.696Z"/><path id="Vector_10" fill="#FF383C" d="M954.286 426.903L947.805 427.203V428.814C950.128 428.814 950.39 428.814 950.39 430.275V451.293H947.805V452.904C948.666 452.829 951.326 452.829 952.338 452.829C953.35 452.829 956.01 452.829 956.871 452.904V451.293H954.286V426.903Z"/><path id="Vector_11" fill="#FF383C" d="M971.992 436.906C971.992 436.194 971.992 435.932 971.43 435.932C971.205 435.932 971.13 435.932 970.568 436.269C970.418 436.381 970.006 436.643 969.819 436.756C968.77 436.156 967.384 435.932 966.035 435.932C964.911 435.932 959.291 435.932 959.291 440.802C959.291 444.736 963.937 445.56 965.098 445.748C966.11 445.935 967.346 446.16 967.496 446.16C968.995 446.497 970.493 447.434 970.493 449.007C970.493 451.892 967.084 451.892 966.297 451.892C964.386 451.892 962.026 451.293 960.977 447.658C960.752 446.909 960.715 446.872 960.078 446.872C959.291 446.872 959.291 446.984 959.291 447.846V452.154C959.291 452.866 959.291 453.128 959.853 453.128C960.115 453.128 960.19 453.128 960.94 452.529L961.914 451.817C963.6 453.128 965.623 453.128 966.297 453.128C968.358 453.128 973.041 452.679 973.041 447.696C973.041 445.898 972.067 444.661 971.318 443.987C969.781 442.713 968.508 442.488 966.484 442.114C964.087 441.701 961.839 441.289 961.839 439.491C961.839 437.056 965.173 437.056 965.96 437.056C970.119 437.056 970.343 439.678 970.418 440.615C970.456 441.102 970.756 441.102 971.205 441.102C971.992 441.102 971.992 440.99 971.992 440.128V436.906Z"/><path id="Vector_12" fill="#FF383C" d="M991.425 444.624C992.287 444.624 992.512 444.624 992.512 443.687C992.512 442.563 992.25 439.753 990.526 437.992C988.953 436.419 986.855 435.932 984.682 435.932C978.837 435.932 975.652 439.753 975.652 444.474C975.652 449.719 979.511 453.128 985.169 453.128C990.826 453.128 992.512 449.157 992.512 448.52C992.512 447.958 991.95 447.958 991.725 447.958C991.126 447.958 991.088 448.071 990.863 448.558C989.889 450.993 987.417 451.78 985.618 451.78C980.186 451.78 980.148 446.722 980.148 444.624H991.425ZM980.148 443.537C980.223 442.001 980.261 440.54 981.047 439.191C981.759 437.992 983.071 437.168 984.682 437.168C988.69 437.168 989.028 441.664 989.065 443.537H980.148Z"/></g></g><g id="If n = m, delete clause."><path fill="#000" d="M451.652 588.805H442.436V587.845C443.396 587.845 444.1 587.77 444.548 587.621C444.996 587.45 445.284 587.141 445.412 586.693C445.54 586.223 445.604 585.53 445.604 584.613V572.005C445.604 571.173 445.55 570.522 445.444 570.053C445.337 569.562 445.06 569.221 444.612 569.029C444.185 568.837 443.46 568.741 442.436 568.741V567.781H451.652V568.741C450.649 568.741 449.924 568.837 449.476 569.029C449.028 569.221 448.75 569.562 448.644 570.053C448.558 570.522 448.516 571.173 448.516 572.005V584.613C448.516 585.53 448.58 586.223 448.708 586.693C448.836 587.141 449.124 587.45 449.572 587.621C450.02 587.77 450.713 587.845 451.652 587.845V588.805ZM461.969 588.805H453.361V587.877C454.15 587.877 454.726 587.813 455.089 587.685C455.473 587.535 455.729 587.258 455.857 586.853C455.985 586.447 456.049 585.829 456.049 584.997V574.821C456.049 573.605 456.07 572.613 456.113 571.845C456.177 571.055 456.284 570.394 456.433 569.861C456.582 569.327 456.796 568.815 457.073 568.325C457.5 567.578 458.033 567.002 458.673 566.597C459.334 566.191 460.22 565.989 461.329 565.989C462.033 565.989 462.652 566.074 463.185 566.245C463.718 566.415 464.134 566.671 464.433 567.013C464.753 567.333 464.913 567.738 464.913 568.229C464.913 568.698 464.785 569.05 464.529 569.285C464.273 569.498 463.964 569.605 463.601 569.605C463.196 569.605 462.865 569.477 462.609 569.221C462.353 568.943 462.108 568.655 461.873 568.357C461.66 568.058 461.425 567.791 461.169 567.557C460.934 567.301 460.625 567.173 460.241 567.173C459.644 567.173 459.238 567.45 459.025 568.005C458.812 568.538 458.705 569.477 458.705 570.821V584.997C458.705 585.829 458.79 586.447 458.961 586.853C459.132 587.258 459.452 587.535 459.921 587.685C460.39 587.813 461.073 587.877 461.969 587.877V588.805ZM462.609 575.173H453.617V573.829H462.609V575.173ZM484.523 589.125C483.733 589.125 483.179 588.933 482.859 588.549C482.56 588.143 482.411 587.706 482.411 587.237C482.411 586.981 482.432 586.735 482.475 586.501C482.539 586.245 482.581 586.074 482.603 585.989L484.491 578.597C484.491 578.597 484.523 578.426 484.587 578.085C484.672 577.722 484.715 577.381 484.715 577.061C484.715 576.698 484.651 576.399 484.523 576.165C484.395 575.909 484.149 575.781 483.787 575.781C483.317 575.781 482.805 576.005 482.251 576.453C481.696 576.879 481.141 577.445 480.587 578.149C480.032 578.831 479.509 579.557 479.019 580.325C478.528 581.071 478.101 581.786 477.739 582.469C477.376 583.13 477.109 583.653 476.939 584.037L477.547 580.837C477.845 580.261 478.24 579.567 478.731 578.757C479.243 577.925 479.829 577.114 480.491 576.325C481.152 575.514 481.888 574.842 482.699 574.309C483.531 573.754 484.427 573.477 485.387 573.477C486.176 573.477 486.709 573.711 486.987 574.181C487.285 574.65 487.435 575.173 487.435 575.749C487.435 576.282 487.392 576.751 487.307 577.157C487.243 577.562 487.189 577.882 487.147 578.117L485.355 585.509C485.355 585.509 485.333 585.594 485.291 585.765C485.269 585.914 485.259 586.085 485.259 586.277C485.259 586.682 485.461 586.885 485.867 586.885C486.421 586.885 486.891 586.682 487.275 586.277C487.68 585.871 488 585.519 488.235 585.221L488.907 585.701C488.693 585.999 488.448 586.341 488.171 586.725C487.915 587.109 487.605 587.493 487.243 587.877C486.901 588.239 486.507 588.538 486.059 588.773C485.611 589.007 485.099 589.125 484.523 589.125ZM475.915 588.805H473.291L475.883 576.645C475.883 576.645 475.904 576.527 475.947 576.293C475.989 576.058 476.011 575.823 476.011 575.589C476.011 575.311 475.925 575.098 475.755 574.949C475.584 574.799 475.317 574.725 474.955 574.725C474.741 574.725 474.507 574.735 474.251 574.757C474.016 574.778 473.899 574.789 473.899 574.789V573.925L478.347 573.573H479.051L477.451 580.517H477.803L475.915 588.805ZM518.372 577.861H499.3V575.685H518.372V577.861ZM518.372 585.445H499.3V583.301H518.372V585.445ZM549.031 589.125C548.22 589.125 547.666 588.933 547.367 588.549C547.068 588.143 546.919 587.706 546.919 587.237C546.919 586.981 546.94 586.735 546.983 586.501C547.026 586.245 547.058 586.074 547.079 585.989L548.711 579.781C548.818 579.354 548.924 578.885 549.031 578.373C549.159 577.839 549.223 577.402 549.223 577.061C549.223 576.698 549.159 576.399 549.031 576.165C548.903 575.909 548.658 575.781 548.295 575.781C547.89 575.781 547.42 576.005 546.887 576.453C546.375 576.879 545.842 577.445 545.287 578.149C544.732 578.853 544.199 579.621 543.687 580.453C543.175 581.263 542.727 582.053 542.343 582.821C541.959 583.567 541.671 584.218 541.479 584.773L542.567 580.645C542.887 580.026 543.292 579.311 543.783 578.501C544.274 577.69 544.828 576.901 545.447 576.133C546.087 575.365 546.78 574.735 547.527 574.245C548.295 573.733 549.106 573.477 549.959 573.477C550.727 573.477 551.25 573.711 551.527 574.181C551.804 574.65 551.943 575.173 551.943 575.749C551.943 576.154 551.9 576.591 551.815 577.061C551.73 577.53 551.666 577.882 551.623 578.117L549.863 585.509C549.863 585.509 549.842 585.594 549.799 585.765C549.778 585.914 549.767 586.085 549.767 586.277C549.767 586.682 549.97 586.885 550.375 586.885C550.93 586.885 551.399 586.682 551.783 586.277C552.188 585.871 552.519 585.519 552.775 585.221L553.415 585.701C553.202 585.999 552.956 586.341 552.679 586.725C552.423 587.109 552.114 587.493 551.751 587.877C551.41 588.239 551.015 588.538 550.567 588.773C550.119 589.007 549.607 589.125 549.031 589.125ZM532.071 588.805H529.447L532.007 576.645C532.007 576.645 532.018 576.527 532.039 576.293C532.082 576.058 532.103 575.823 532.103 575.589C532.103 575.311 532.028 575.098 531.879 574.949C531.73 574.799 531.463 574.725 531.079 574.725C530.866 574.725 530.642 574.735 530.407 574.757C530.172 574.778 530.055 574.789 530.055 574.789V573.925L534.439 573.573H535.175L533.607 580.517H533.959L532.071 588.805ZM540.615 588.805H537.959C538.194 587.951 538.418 587.098 538.631 586.245C538.866 585.37 539.09 584.506 539.303 583.653C539.516 582.778 539.719 581.903 539.911 581.029C540.124 580.154 540.327 579.269 540.519 578.373C540.519 578.373 540.54 578.223 540.583 577.925C540.647 577.605 540.679 577.317 540.679 577.061C540.679 576.698 540.615 576.399 540.487 576.165C540.359 575.909 540.114 575.781 539.751 575.781C539.218 575.781 538.631 576.079 537.991 576.677C537.351 577.274 536.7 578.042 536.039 578.981C535.399 579.919 534.802 580.922 534.247 581.989C533.692 583.034 533.234 584.005 532.871 584.901L533.671 580.869C533.991 580.25 534.396 579.525 534.887 578.693C535.378 577.861 535.943 577.05 536.583 576.261C537.244 575.471 537.98 574.81 538.791 574.277C539.602 573.743 540.466 573.477 541.383 573.477C542.172 573.477 542.695 573.711 542.951 574.181C543.228 574.65 543.367 575.173 543.367 575.749C543.367 576.218 543.324 576.709 543.239 577.221C543.154 577.733 543.1 578.031 543.079 578.117L542.471 580.517H542.919L541.479 584.773L540.615 588.805ZM556.525 593.029L556.141 592.229C556.546 592.058 556.952 591.834 557.357 591.557C557.762 591.301 558.104 590.917 558.381 590.405C558.658 589.893 558.797 589.21 558.797 588.357C558.456 588.485 558.125 588.549 557.805 588.549C557.186 588.549 556.738 588.378 556.461 588.037C556.184 587.695 556.045 587.29 556.045 586.821C556.045 586.309 556.216 585.871 556.557 585.509C556.898 585.125 557.389 584.933 558.029 584.933C558.562 584.933 559.01 585.05 559.373 585.285C559.736 585.498 560.013 585.818 560.205 586.245C560.397 586.65 560.493 587.151 560.493 587.749C560.493 588.645 560.344 589.402 560.045 590.021C559.768 590.639 559.416 591.141 558.989 591.525C558.562 591.909 558.125 592.218 557.677 592.453C557.229 592.687 556.845 592.879 556.525 593.029ZM576.188 589.061C574.993 589.061 573.98 588.741 573.148 588.101C572.337 587.461 571.729 586.597 571.324 585.509C570.919 584.399 570.716 583.162 570.716 581.797C570.716 580.026 571.047 578.511 571.708 577.253C572.369 575.973 573.255 574.991 574.364 574.309C575.495 573.626 576.732 573.285 578.076 573.285C578.588 573.285 579.089 573.349 579.58 573.477C580.092 573.605 580.583 573.797 581.052 574.053H581.18V569.861C581.18 569.157 581.095 568.698 580.924 568.485C580.775 568.271 580.391 568.165 579.772 568.165C579.623 568.165 579.441 568.175 579.228 568.197C579.036 568.218 578.94 568.229 578.94 568.229V567.333L582.972 566.213H583.836V585.381C583.836 586.213 583.953 586.757 584.188 587.013C584.423 587.247 584.839 587.365 585.436 587.365H586.108V588.229L582.012 588.965H581.276V586.757H581.148C580.551 587.29 579.836 587.813 579.004 588.325C578.193 588.815 577.255 589.061 576.188 589.061ZM577.692 586.757C578.439 586.757 579.068 586.661 579.58 586.469C580.092 586.255 580.625 585.957 581.18 585.573V577.125C581.052 576.463 580.743 575.877 580.252 575.365C579.761 574.831 579.015 574.565 578.012 574.565C576.668 574.565 575.58 575.055 574.748 576.037C573.916 577.018 573.5 578.522 573.5 580.549C573.5 582.746 573.852 584.335 574.556 585.317C575.281 586.277 576.327 586.757 577.692 586.757ZM594.814 589.125C593.534 589.125 592.371 588.826 591.326 588.229C590.302 587.61 589.491 586.714 588.894 585.541C588.297 584.346 587.998 582.895 587.998 581.189C587.998 579.397 588.297 577.925 588.894 576.773C589.513 575.599 590.334 574.725 591.358 574.149C592.382 573.573 593.513 573.285 594.75 573.285C596.499 573.285 597.907 573.893 598.974 575.109C600.041 576.325 600.617 578.053 600.702 580.293H590.302L590.27 579.109H597.694C597.673 578.319 597.534 577.583 597.278 576.901C597.022 576.197 596.649 575.631 596.158 575.205C595.667 574.778 595.038 574.565 594.27 574.565C593.033 574.565 592.105 575.055 591.486 576.037C590.867 576.997 590.558 578.362 590.558 580.133C590.558 581.605 590.793 582.831 591.262 583.813C591.731 584.794 592.35 585.53 593.118 586.021C593.886 586.49 594.707 586.725 595.582 586.725C596.457 586.725 597.161 586.607 597.694 586.373C598.249 586.138 598.718 585.839 599.102 585.477C599.486 585.093 599.849 584.677 600.19 584.229L600.798 584.677C600.521 585.274 600.201 585.85 599.838 586.405C599.475 586.938 599.059 587.407 598.59 587.813C598.142 588.218 597.609 588.538 596.99 588.773C596.371 589.007 595.646 589.125 594.814 589.125ZM610.074 588.805H602.714V587.877C603.418 587.877 603.93 587.813 604.25 587.685C604.57 587.535 604.762 587.301 604.826 586.981C604.911 586.639 604.954 586.17 604.954 585.573V569.509C604.954 568.847 604.826 568.453 604.57 568.325C604.335 568.197 604.015 568.133 603.61 568.133C603.333 568.133 603.087 568.143 602.874 568.165C602.682 568.186 602.586 568.197 602.586 568.197V567.333L606.81 566.213H607.61V585.573C607.61 586.191 607.653 586.671 607.738 587.013C607.845 587.333 608.069 587.557 608.41 587.685C608.751 587.813 609.306 587.877 610.074 587.877V588.805ZM618.72 589.125C617.44 589.125 616.278 588.826 615.232 588.229C614.208 587.61 613.398 586.714 612.8 585.541C612.203 584.346 611.904 582.895 611.904 581.189C611.904 579.397 612.203 577.925 612.8 576.773C613.419 575.599 614.24 574.725 615.264 574.149C616.288 573.573 617.419 573.285 618.656 573.285C620.406 573.285 621.814 573.893 622.88 575.109C623.947 576.325 624.523 578.053 624.608 580.293H614.208L614.176 579.109H621.6C621.579 578.319 621.44 577.583 621.184 576.901C620.928 576.197 620.555 575.631 620.064 575.205C619.574 574.778 618.944 574.565 618.176 574.565C616.939 574.565 616.011 575.055 615.392 576.037C614.774 576.997 614.464 578.362 614.464 580.133C614.464 581.605 614.699 582.831 615.168 583.813C615.638 584.794 616.256 585.53 617.024 586.021C617.792 586.49 618.614 586.725 619.488 586.725C620.363 586.725 621.067 586.607 621.6 586.373C622.155 586.138 622.624 585.839 623.008 585.477C623.392 585.093 623.755 584.677 624.096 584.229L624.704 584.677C624.427 585.274 624.107 585.85 623.744 586.405C623.382 586.938 622.966 587.407 622.496 587.813C622.048 588.218 621.515 588.538 620.896 588.773C620.278 589.007 619.552 589.125 618.72 589.125ZM635.036 585.925L635.644 586.437C635.239 587.013 634.855 587.503 634.492 587.909C634.151 588.293 633.767 588.591 633.34 588.805C632.913 589.018 632.359 589.125 631.676 589.125C630.609 589.125 629.831 588.815 629.34 588.197C628.849 587.557 628.604 586.522 628.604 585.093V575.173H626.844V574.437C627.591 573.967 628.231 573.338 628.764 572.549C629.319 571.738 629.884 570.65 630.46 569.285H631.26V573.829H634.876V575.173H631.26V584.197C631.26 585.327 631.356 586.117 631.548 586.565C631.761 587.013 632.177 587.237 632.796 587.237C633.308 587.237 633.703 587.13 633.98 586.917C634.279 586.703 634.631 586.373 635.036 585.925ZM643.502 589.125C642.222 589.125 641.059 588.826 640.014 588.229C638.99 587.61 638.179 586.714 637.582 585.541C636.984 584.346 636.686 582.895 636.686 581.189C636.686 579.397 636.984 577.925 637.582 576.773C638.2 575.599 639.022 574.725 640.046 574.149C641.07 573.573 642.2 573.285 643.438 573.285C645.187 573.285 646.595 573.893 647.662 575.109C648.728 576.325 649.304 578.053 649.39 580.293H638.99L638.958 579.109H646.382C646.36 578.319 646.222 577.583 645.966 576.901C645.71 576.197 645.336 575.631 644.846 575.205C644.355 574.778 643.726 574.565 642.958 574.565C641.72 574.565 640.792 575.055 640.174 576.037C639.555 576.997 639.246 578.362 639.246 580.133C639.246 581.605 639.48 582.831 639.95 583.813C640.419 584.794 641.038 585.53 641.806 586.021C642.574 586.49 643.395 586.725 644.27 586.725C645.144 586.725 645.848 586.607 646.382 586.373C646.936 586.138 647.406 585.839 647.79 585.477C648.174 585.093 648.536 584.677 648.878 584.229L649.486 584.677C649.208 585.274 648.888 585.85 648.526 586.405C648.163 586.938 647.747 587.407 647.278 587.813C646.83 588.218 646.296 588.538 645.678 588.773C645.059 589.007 644.334 589.125 643.502 589.125ZM671.029 584.069L671.637 584.517C671.231 585.37 670.762 586.149 670.229 586.853C669.717 587.557 669.077 588.111 668.309 588.517C667.541 588.922 666.581 589.125 665.429 589.125C664.106 589.125 662.965 588.805 662.005 588.165C661.045 587.525 660.309 586.639 659.797 585.509C659.285 584.357 659.029 583.045 659.029 581.573C659.029 579.887 659.306 578.426 659.861 577.189C660.437 575.951 661.258 574.991 662.325 574.309C663.413 573.626 664.725 573.285 666.261 573.285C667.775 573.285 668.959 573.615 669.813 574.277C670.687 574.938 671.125 575.738 671.125 576.677C671.125 577.146 671.007 577.509 670.773 577.765C670.559 577.999 670.229 578.117 669.781 578.117C669.311 578.117 668.949 577.999 668.693 577.765C668.458 577.509 668.266 577.199 668.117 576.837C667.967 576.474 667.807 576.111 667.637 575.749C667.487 575.386 667.263 575.087 666.965 574.853C666.687 574.597 666.271 574.469 665.717 574.469C664.415 574.469 663.391 574.949 662.645 575.909C661.919 576.847 661.557 578.234 661.557 580.069C661.557 582.01 661.951 583.61 662.741 584.869C663.551 586.106 664.778 586.725 666.421 586.725C667.466 586.725 668.309 586.511 668.949 586.085C669.61 585.658 670.303 584.986 671.029 584.069ZM680.574 588.805H673.214V587.877C673.918 587.877 674.43 587.813 674.75 587.685C675.07 587.535 675.262 587.301 675.326 586.981C675.411 586.639 675.454 586.17 675.454 585.573V569.509C675.454 568.847 675.326 568.453 675.07 568.325C674.835 568.197 674.515 568.133 674.11 568.133C673.833 568.133 673.587 568.143 673.374 568.165C673.182 568.186 673.086 568.197 673.086 568.197V567.333L677.31 566.213H678.11V585.573C678.11 586.191 678.153 586.671 678.238 587.013C678.345 587.333 678.569 587.557 678.91 587.685C679.251 587.813 679.806 587.877 680.574 587.877V588.805ZM686.34 589.029C685.103 589.029 684.154 588.687 683.492 588.005C682.852 587.322 682.532 586.469 682.532 585.445C682.532 584.591 682.724 583.877 683.108 583.301C683.514 582.703 684.036 582.202 684.676 581.797C685.338 581.391 686.042 581.05 686.788 580.773C687.556 580.495 688.303 580.261 689.028 580.069C689.754 579.877 690.394 579.695 690.948 579.525V578.117C690.948 576.73 690.703 575.749 690.212 575.173C689.743 574.575 689.028 574.277 688.068 574.277C687.151 574.277 686.564 574.469 686.308 574.853C686.052 575.237 685.924 575.909 685.924 576.869C685.924 577.359 685.796 577.733 685.54 577.989C685.306 578.223 684.964 578.341 684.516 578.341C684.196 578.341 683.887 578.223 683.588 577.989C683.311 577.733 683.172 577.338 683.172 576.805C683.172 576.207 683.396 575.642 683.844 575.109C684.314 574.575 684.964 574.138 685.796 573.797C686.65 573.455 687.652 573.285 688.804 573.285C690.554 573.285 691.791 573.69 692.516 574.501C693.242 575.311 693.604 576.549 693.604 578.213V585.477C693.604 586.138 693.679 586.565 693.828 586.757C693.978 586.949 694.223 587.045 694.564 587.045C694.863 587.045 695.13 586.97 695.364 586.821C695.62 586.671 695.855 586.479 696.068 586.245L696.548 586.757C696.015 587.525 695.503 588.09 695.012 588.453C694.543 588.794 693.903 588.965 693.092 588.965C692.346 588.965 691.855 588.751 691.62 588.325C691.407 587.898 691.247 587.29 691.14 586.501L690.948 586.117V580.581C689.988 580.815 689.082 581.093 688.228 581.413C687.375 581.733 686.682 582.149 686.148 582.661C685.615 583.173 685.348 583.845 685.348 584.677C685.348 585.466 685.562 586.095 685.988 586.565C686.415 587.034 686.97 587.269 687.652 587.269C688.207 587.269 688.783 587.13 689.38 586.853C689.999 586.575 690.596 586.181 691.172 585.669L691.428 586.821H691.044C690.554 587.247 690.074 587.631 689.604 587.973C689.156 588.314 688.666 588.581 688.132 588.773C687.62 588.943 687.023 589.029 686.34 589.029ZM703.795 589.125C702.473 589.125 701.438 588.698 700.691 587.845C699.966 586.97 699.603 585.445 699.603 583.269V576.773C699.603 576.197 699.539 575.781 699.411 575.525C699.305 575.247 699.091 575.077 698.771 575.013C698.451 574.927 698.003 574.885 697.427 574.885V573.989L701.555 573.509H702.259V582.853C702.259 583.941 702.377 584.794 702.611 585.413C702.867 586.01 703.209 586.437 703.635 586.693C704.083 586.949 704.585 587.077 705.139 587.077C705.95 587.077 706.643 586.895 707.219 586.533C707.817 586.17 708.435 585.711 709.075 585.157V576.741C709.075 576.165 709.001 575.749 708.851 575.493C708.702 575.237 708.435 575.077 708.051 575.013C707.689 574.927 707.166 574.885 706.483 574.885V573.989L710.963 573.509H711.731V585.253C711.731 586.191 711.859 586.778 712.115 587.013C712.371 587.247 712.883 587.365 713.651 587.365H713.971V588.229L709.907 588.965H709.203V586.501H709.043C708.489 587.055 707.934 587.535 707.379 587.941C706.846 588.325 706.281 588.613 705.683 588.805C705.107 589.018 704.478 589.125 703.795 589.125ZM716.285 589.061L716.189 583.557H717.021C717.363 585.199 717.864 586.351 718.525 587.013C719.187 587.653 720.104 587.973 721.277 587.973C722.088 587.973 722.749 587.813 723.261 587.493C723.773 587.151 724.029 586.607 724.029 585.861C724.029 585.349 723.933 584.922 723.741 584.581C723.571 584.239 723.229 583.898 722.717 583.557C722.205 583.194 721.448 582.767 720.445 582.277C719.464 581.786 718.664 581.317 718.045 580.869C717.427 580.399 716.968 579.887 716.669 579.333C716.371 578.778 716.221 578.106 716.221 577.317C716.221 575.994 716.691 574.991 717.629 574.309C718.589 573.626 719.752 573.285 721.117 573.285C721.928 573.285 722.589 573.381 723.101 573.573C723.613 573.743 724.072 573.925 724.477 574.117H724.509L725.053 573.445H725.693L725.789 578.341H724.925C724.584 576.826 724.104 575.791 723.485 575.237C722.867 574.661 722.067 574.373 721.085 574.373C720.36 574.373 719.741 574.543 719.229 574.885C718.739 575.226 718.493 575.759 718.493 576.485C718.493 577.103 718.781 577.658 719.357 578.149C719.933 578.639 720.893 579.226 722.237 579.909C723.219 580.421 724.04 580.922 724.701 581.413C725.363 581.882 725.864 582.405 726.205 582.981C726.547 583.535 726.717 584.207 726.717 584.997C726.717 585.999 726.472 586.81 725.981 587.429C725.491 588.026 724.829 588.463 723.997 588.741C723.187 589.018 722.301 589.157 721.341 589.157C720.424 589.157 719.688 589.061 719.133 588.869C718.6 588.677 718.12 588.495 717.693 588.325H717.629L716.957 589.061H716.285ZM735.47 589.125C734.19 589.125 733.028 588.826 731.982 588.229C730.958 587.61 730.148 586.714 729.55 585.541C728.953 584.346 728.654 582.895 728.654 581.189C728.654 579.397 728.953 577.925 729.55 576.773C730.169 575.599 730.99 574.725 732.014 574.149C733.038 573.573 734.169 573.285 735.406 573.285C737.156 573.285 738.564 573.893 739.63 575.109C740.697 576.325 741.273 578.053 741.358 580.293H730.958L730.926 579.109H738.35C738.329 578.319 738.19 577.583 737.934 576.901C737.678 576.197 737.305 575.631 736.814 575.205C736.324 574.778 735.694 574.565 734.926 574.565C733.689 574.565 732.761 575.055 732.142 576.037C731.524 576.997 731.214 578.362 731.214 580.133C731.214 581.605 731.449 582.831 731.918 583.813C732.388 584.794 733.006 585.53 733.774 586.021C734.542 586.49 735.364 586.725 736.238 586.725C737.113 586.725 737.817 586.607 738.35 586.373C738.905 586.138 739.374 585.839 739.758 585.477C740.142 585.093 740.505 584.677 740.846 584.229L741.454 584.677C741.177 585.274 740.857 585.85 740.494 586.405C740.132 586.938 739.716 587.407 739.246 587.813C738.798 588.218 738.265 588.538 737.646 588.773C737.028 589.007 736.302 589.125 735.47 589.125ZM746.282 589.061C745.642 589.061 745.162 588.879 744.842 588.517C744.543 588.154 744.394 587.706 744.394 587.173C744.394 586.618 744.565 586.149 744.906 585.765C745.247 585.359 745.717 585.157 746.314 585.157C746.933 585.157 747.413 585.359 747.754 585.765C748.095 586.17 748.266 586.65 748.266 587.205C748.266 587.695 748.095 588.133 747.754 588.517C747.413 588.879 746.922 589.061 746.282 589.061Z"/></g><path id="If n â m, return" fill="#FF383C" d="M451.652 695.805H442.436V694.845C443.396 694.845 444.1 694.77 444.548 694.621C444.996 694.45 445.284 694.141 445.412 693.693C445.54 693.223 445.604 692.53 445.604 691.613V679.005C445.604 678.173 445.55 677.522 445.444 677.053C445.337 676.562 445.06 676.221 444.612 676.029C444.185 675.837 443.46 675.741 442.436 675.741V674.781H451.652V675.741C450.649 675.741 449.924 675.837 449.476 676.029C449.028 676.221 448.75 676.562 448.644 677.053C448.558 677.522 448.516 678.173 448.516 679.005V691.613C448.516 692.53 448.58 693.223 448.708 693.693C448.836 694.141 449.124 694.45 449.572 694.621C450.02 694.77 450.713 694.845 451.652 694.845V695.805ZM461.969 695.805H453.361V694.877C454.15 694.877 454.726 694.813 455.089 694.685C455.473 694.535 455.729 694.258 455.857 693.853C455.985 693.447 456.049 692.829 456.049 691.997V681.821C456.049 680.605 456.07 679.613 456.113 678.845C456.177 678.055 456.284 677.394 456.433 676.861C456.582 676.327 456.796 675.815 457.073 675.325C457.5 674.578 458.033 674.002 458.673 673.597C459.334 673.191 460.22 672.989 461.329 672.989C462.033 672.989 462.652 673.074 463.185 673.245C463.718 673.415 464.134 673.671 464.433 674.013C464.753 674.333 464.913 674.738 464.913 675.229C464.913 675.698 464.785 676.05 464.529 676.285C464.273 676.498 463.964 676.605 463.601 676.605C463.196 676.605 462.865 676.477 462.609 676.221C462.353 675.943 462.108 675.655 461.873 675.357C461.66 675.058 461.425 674.791 461.169 674.557C460.934 674.301 460.625 674.173 460.241 674.173C459.644 674.173 459.238 674.45 459.025 675.005C458.812 675.538 458.705 676.477 458.705 677.821V691.997C458.705 692.829 458.79 693.447 458.961 693.853C459.132 694.258 459.452 694.535 459.921 694.685C460.39 694.813 461.073 694.877 461.969 694.877V695.805ZM462.609 682.173H453.617V680.829H462.609V682.173ZM484.523 696.125C483.733 696.125 483.179 695.933 482.859 695.549C482.56 695.143 482.411 694.706 482.411 694.237C482.411 693.981 482.432 693.735 482.475 693.501C482.539 693.245 482.581 693.074 482.603 692.989L484.491 685.597C484.491 685.597 484.523 685.426 484.587 685.085C484.672 684.722 484.715 684.381 484.715 684.061C484.715 683.698 484.651 683.399 484.523 683.165C484.395 682.909 484.149 682.781 483.787 682.781C483.317 682.781 482.805 683.005 482.251 683.453C481.696 683.879 481.141 684.445 480.587 685.149C480.032 685.831 479.509 686.557 479.019 687.325C478.528 688.071 478.101 688.786 477.739 689.469C477.376 690.13 477.109 690.653 476.939 691.037L477.547 687.837C477.845 687.261 478.24 686.567 478.731 685.757C479.243 684.925 479.829 684.114 480.491 683.325C481.152 682.514 481.888 681.842 482.699 681.309C483.531 680.754 484.427 680.477 485.387 680.477C486.176 680.477 486.709 680.711 486.987 681.181C487.285 681.65 487.435 682.173 487.435 682.749C487.435 683.282 487.392 683.751 487.307 684.157C487.243 684.562 487.189 684.882 487.147 685.117L485.355 692.509C485.355 692.509 485.333 692.594 485.291 692.765C485.269 692.914 485.259 693.085 485.259 693.277C485.259 693.682 485.461 693.885 485.867 693.885C486.421 693.885 486.891 693.682 487.275 693.277C487.68 692.871 488 692.519 488.235 692.221L488.907 692.701C488.693 692.999 488.448 693.341 488.171 693.725C487.915 694.109 487.605 694.493 487.243 694.877C486.901 695.239 486.507 695.538 486.059 695.773C485.611 696.007 485.099 696.125 484.523 696.125ZM475.915 695.805H473.291L475.883 683.645C475.883 683.645 475.904 683.527 475.947 683.293C475.989 683.058 476.011 682.823 476.011 682.589C476.011 682.311 475.925 682.098 475.755 681.949C475.584 681.799 475.317 681.725 474.955 681.725C474.741 681.725 474.507 681.735 474.251 681.757C474.016 681.778 473.899 681.789 473.899 681.789V680.925L478.347 680.573H479.051L477.451 687.517H477.803L475.915 695.805ZM518.372 691.869H507.78L503.844 700.925H502.084L506.02 691.869H499.3V689.725H506.98L508.9 685.341H499.3V683.165H509.86L513.796 674.109H515.556L511.588 683.165H518.372V685.341H510.66L508.74 689.725H518.372V691.869ZM549.031 696.125C548.22 696.125 547.666 695.933 547.367 695.549C547.068 695.143 546.919 694.706 546.919 694.237C546.919 693.981 546.94 693.735 546.983 693.501C547.026 693.245 547.058 693.074 547.079 692.989L548.711 686.781C548.818 686.354 548.924 685.885 549.031 685.373C549.159 684.839 549.223 684.402 549.223 684.061C549.223 683.698 549.159 683.399 549.031 683.165C548.903 682.909 548.658 682.781 548.295 682.781C547.89 682.781 547.42 683.005 546.887 683.453C546.375 683.879 545.842 684.445 545.287 685.149C544.732 685.853 544.199 686.621 543.687 687.453C543.175 688.263 542.727 689.053 542.343 689.821C541.959 690.567 541.671 691.218 541.479 691.773L542.567 687.645C542.887 687.026 543.292 686.311 543.783 685.501C544.274 684.69 544.828 683.901 545.447 683.133C546.087 682.365 546.78 681.735 547.527 681.245C548.295 680.733 549.106 680.477 549.959 680.477C550.727 680.477 551.25 680.711 551.527 681.181C551.804 681.65 551.943 682.173 551.943 682.749C551.943 683.154 551.9 683.591 551.815 684.061C551.73 684.53 551.666 684.882 551.623 685.117L549.863 692.509C549.863 692.509 549.842 692.594 549.799 692.765C549.778 692.914 549.767 693.085 549.767 693.277C549.767 693.682 549.97 693.885 550.375 693.885C550.93 693.885 551.399 693.682 551.783 693.277C552.188 692.871 552.519 692.519 552.775 692.221L553.415 692.701C553.202 692.999 552.956 693.341 552.679 693.725C552.423 694.109 552.114 694.493 551.751 694.877C551.41 695.239 551.015 695.538 550.567 695.773C550.119 696.007 549.607 696.125 549.031 696.125ZM532.071 695.805H529.447L532.007 683.645C532.007 683.645 532.018 683.527 532.039 683.293C532.082 683.058 532.103 682.823 532.103 682.589C532.103 682.311 532.028 682.098 531.879 681.949C531.73 681.799 531.463 681.725 531.079 681.725C530.866 681.725 530.642 681.735 530.407 681.757C530.172 681.778 530.055 681.789 530.055 681.789V680.925L534.439 680.573H535.175L533.607 687.517H533.959L532.071 695.805ZM540.615 695.805H537.959C538.194 694.951 538.418 694.098 538.631 693.245C538.866 692.37 539.09 691.506 539.303 690.653C539.516 689.778 539.719 688.903 539.911 688.029C540.124 687.154 540.327 686.269 540.519 685.373C540.519 685.373 540.54 685.223 540.583 684.925C540.647 684.605 540.679 684.317 540.679 684.061C540.679 683.698 540.615 683.399 540.487 683.165C540.359 682.909 540.114 682.781 539.751 682.781C539.218 682.781 538.631 683.079 537.991 683.677C537.351 684.274 536.7 685.042 536.039 685.981C535.399 686.919 534.802 687.922 534.247 688.989C533.692 690.034 533.234 691.005 532.871 691.901L533.671 687.869C533.991 687.25 534.396 686.525 534.887 685.693C535.378 684.861 535.943 684.05 536.583 683.261C537.244 682.471 537.98 681.81 538.791 681.277C539.602 680.743 540.466 680.477 541.383 680.477C542.172 680.477 542.695 680.711 542.951 681.181C543.228 681.65 543.367 682.173 543.367 682.749C543.367 683.218 543.324 683.709 543.239 684.221C543.154 684.733 543.1 685.031 543.079 685.117L542.471 687.517H542.919L541.479 691.773L540.615 695.805ZM556.525 700.029L556.141 699.229C556.546 699.058 556.952 698.834 557.357 698.557C557.762 698.301 558.104 697.917 558.381 697.405C558.658 696.893 558.797 696.21 558.797 695.357C558.456 695.485 558.125 695.549 557.805 695.549C557.186 695.549 556.738 695.378 556.461 695.037C556.184 694.695 556.045 694.29 556.045 693.821C556.045 693.309 556.216 692.871 556.557 692.509C556.898 692.125 557.389 691.933 558.029 691.933C558.562 691.933 559.01 692.05 559.373 692.285C559.736 692.498 560.013 692.818 560.205 693.245C560.397 693.65 560.493 694.151 560.493 694.749C560.493 695.645 560.344 696.402 560.045 697.021C559.768 697.639 559.416 698.141 558.989 698.525C558.562 698.909 558.125 699.218 557.677 699.453C557.229 699.687 556.845 699.879 556.525 700.029ZM578.588 695.805H570.588V694.877C571.292 694.877 571.804 694.823 572.124 694.717C572.465 694.589 572.679 694.375 572.764 694.077C572.871 693.757 572.924 693.298 572.924 692.701V683.901C572.924 683.325 572.871 682.898 572.764 682.621C572.679 682.322 572.348 682.173 571.772 682.173C571.452 682.173 571.207 682.183 571.036 682.205C570.865 682.226 570.78 682.237 570.78 682.237V681.341L574.748 680.381H575.516V683.677H575.612C576.167 682.887 576.657 682.237 577.084 681.725C577.511 681.213 577.927 680.829 578.332 680.573C578.759 680.317 579.228 680.189 579.74 680.189C580.359 680.189 580.817 680.349 581.116 680.669C581.436 680.989 581.596 681.426 581.596 681.981C581.596 682.578 581.447 683.015 581.148 683.293C580.871 683.57 580.551 683.709 580.188 683.709C579.847 683.709 579.537 683.623 579.26 683.453C579.004 683.261 578.78 683.079 578.588 682.909C578.396 682.717 578.236 682.621 578.108 682.621C577.745 682.621 577.329 682.898 576.86 683.453C576.391 684.007 575.964 684.605 575.58 685.245V692.541C575.58 693.202 575.665 693.703 575.836 694.045C576.007 694.386 576.305 694.61 576.732 694.717C577.18 694.823 577.799 694.877 578.588 694.877V695.805ZM589.408 696.125C588.128 696.125 586.965 695.826 585.92 695.229C584.896 694.61 584.085 693.714 583.488 692.541C582.891 691.346 582.592 689.895 582.592 688.189C582.592 686.397 582.891 684.925 583.488 683.773C584.107 682.599 584.928 681.725 585.952 681.149C586.976 680.573 588.107 680.285 589.344 680.285C591.093 680.285 592.501 680.893 593.568 682.109C594.635 683.325 595.211 685.053 595.296 687.293H584.896L584.864 686.109H592.288C592.267 685.319 592.128 684.583 591.872 683.901C591.616 683.197 591.243 682.631 590.752 682.205C590.261 681.778 589.632 681.565 588.864 681.565C587.627 681.565 586.699 682.055 586.08 683.037C585.461 683.997 585.152 685.362 585.152 687.133C585.152 688.605 585.387 689.831 585.856 690.813C586.325 691.794 586.944 692.53 587.712 693.021C588.48 693.49 589.301 693.725 590.176 693.725C591.051 693.725 591.755 693.607 592.288 693.373C592.843 693.138 593.312 692.839 593.696 692.477C594.08 692.093 594.443 691.677 594.784 691.229L595.392 691.677C595.115 692.274 594.795 692.85 594.432 693.405C594.069 693.938 593.653 694.407 593.184 694.813C592.736 695.218 592.203 695.538 591.584 695.773C590.965 696.007 590.24 696.125 589.408 696.125ZM605.724 692.925L606.332 693.437C605.926 694.013 605.542 694.503 605.18 694.909C604.838 695.293 604.454 695.591 604.028 695.805C603.601 696.018 603.046 696.125 602.364 696.125C601.297 696.125 600.518 695.815 600.028 695.197C599.537 694.557 599.292 693.522 599.292 692.093V682.173H597.532V681.437C598.278 680.967 598.918 680.338 599.452 679.549C600.006 678.738 600.572 677.65 601.148 676.285H601.948V680.829H605.564V682.173H601.948V691.197C601.948 692.327 602.044 693.117 602.236 693.565C602.449 694.013 602.865 694.237 603.484 694.237C603.996 694.237 604.39 694.13 604.668 693.917C604.966 693.703 605.318 693.373 605.724 692.925ZM613.545 696.125C612.223 696.125 611.188 695.698 610.441 694.845C609.716 693.97 609.353 692.445 609.353 690.269V683.773C609.353 683.197 609.289 682.781 609.161 682.525C609.055 682.247 608.841 682.077 608.521 682.013C608.201 681.927 607.753 681.885 607.177 681.885V680.989L611.305 680.509H612.009V689.853C612.009 690.941 612.127 691.794 612.361 692.413C612.617 693.01 612.959 693.437 613.385 693.693C613.833 693.949 614.335 694.077 614.889 694.077C615.7 694.077 616.393 693.895 616.969 693.533C617.567 693.17 618.185 692.711 618.825 692.157V683.741C618.825 683.165 618.751 682.749 618.601 682.493C618.452 682.237 618.185 682.077 617.801 682.013C617.439 681.927 616.916 681.885 616.233 681.885V680.989L620.713 680.509H621.481V692.253C621.481 693.191 621.609 693.778 621.865 694.013C622.121 694.247 622.633 694.365 623.401 694.365H623.721V695.229L619.657 695.965H618.953V693.501H618.793C618.239 694.055 617.684 694.535 617.129 694.941C616.596 695.325 616.031 695.613 615.433 695.805C614.857 696.018 614.228 696.125 613.545 696.125ZM633.619 695.805H625.619V694.877C626.323 694.877 626.835 694.823 627.155 694.717C627.497 694.589 627.71 694.375 627.795 694.077C627.902 693.757 627.955 693.298 627.955 692.701V683.901C627.955 683.325 627.902 682.898 627.795 682.621C627.71 682.322 627.379 682.173 626.803 682.173C626.483 682.173 626.238 682.183 626.067 682.205C625.897 682.226 625.811 682.237 625.811 682.237V681.341L629.779 680.381H630.547V683.677H630.643C631.198 682.887 631.689 682.237 632.115 681.725C632.542 681.213 632.958 680.829 633.363 680.573C633.79 680.317 634.259 680.189 634.771 680.189C635.39 680.189 635.849 680.349 636.147 680.669C636.467 680.989 636.627 681.426 636.627 681.981C636.627 682.578 636.478 683.015 636.179 683.293C635.902 683.57 635.582 683.709 635.219 683.709C634.878 683.709 634.569 683.623 634.291 683.453C634.035 683.261 633.811 683.079 633.619 682.909C633.427 682.717 633.267 682.621 633.139 682.621C632.777 682.621 632.361 682.898 631.891 683.453C631.422 684.007 630.995 684.605 630.611 685.245V692.541C630.611 693.202 630.697 693.703 630.867 694.045C631.038 694.386 631.337 694.61 631.763 694.717C632.211 694.823 632.83 694.877 633.619 694.877V695.805ZM654.608 695.805H647.216V694.909C647.984 694.909 648.528 694.845 648.848 694.717C649.189 694.567 649.392 694.322 649.456 693.981C649.541 693.639 649.584 693.17 649.584 692.573V686.781C649.584 685.501 649.434 684.541 649.136 683.901C648.858 683.261 648.496 682.845 648.048 682.653C647.6 682.439 647.13 682.333 646.64 682.333C646.021 682.333 645.466 682.461 644.976 682.717C644.485 682.951 644.037 683.239 643.632 683.581C643.248 683.922 642.885 684.242 642.544 684.541L642.32 682.973H642.8C643.674 682.205 644.496 681.565 645.264 681.053C646.053 680.541 646.949 680.285 647.952 680.285C649.402 680.285 650.48 680.775 651.184 681.757C651.888 682.738 652.24 684.146 652.24 685.981V692.573C652.24 693.17 652.282 693.639 652.368 693.981C652.474 694.322 652.698 694.567 653.04 694.717C653.381 694.845 653.904 694.909 654.608 694.909V695.805ZM645.2 695.805H637.872V694.909C638.597 694.909 639.109 694.845 639.408 694.717C639.728 694.567 639.92 694.322 639.984 693.981C640.069 693.639 640.112 693.17 640.112 692.573V683.581C640.112 683.005 639.994 682.631 639.76 682.461C639.525 682.269 639.194 682.173 638.768 682.173C638.49 682.173 638.277 682.183 638.128 682.205C637.978 682.226 637.904 682.237 637.904 682.237V681.309L641.968 680.381H642.704L642.672 683.325L642.768 683.997V692.573C642.768 693.17 642.81 693.639 642.896 693.981C642.981 694.322 643.194 694.567 643.536 694.717C643.877 694.845 644.432 694.909 645.2 694.909V695.805Z"/><g id="\mathcal{A} \models{} \exists{}x\, F \leftrightarrow{} \textbf{false}_2" clip-path="url(#clip1_74_6091)"><g id="page1_2"><path id="Vector_13" fill="#FF383C" d="M1119.63 729.723C1119.82 732.083 1120.27 733.806 1120.45 734.518C1120.86 736.204 1121.05 737.028 1122.66 737.028C1124.35 737.028 1127.23 735.342 1127.23 734.593C1127.23 734.406 1127.08 734.331 1126.9 734.331C1126.41 734.331 1125.62 734.743 1125.51 734.818C1125.25 734.968 1125.17 734.968 1125.1 734.968C1124.05 734.968 1123.82 733.956 1123.37 731.708C1123.11 730.472 1122.78 728.973 1122.48 723.84C1122.21 720.019 1122.06 716.197 1122.06 712.376C1122.06 711.477 1122.1 710.503 1122.1 709.603C1122.1 709.004 1122.1 708.854 1121.69 708.854C1121.16 708.854 1119.63 709.491 1118.95 710.503L1118.69 710.915C1115.73 717.246 1112.96 721.78 1111.01 724.814C1108.8 728.224 1104.9 734.331 1102.88 734.331C1101.49 734.331 1100.33 733.432 1100 732.083C1099.96 732.008 1099.88 731.783 1099.73 731.783C1099.17 731.783 1098.35 733.582 1098.35 734.631C1098.35 736.129 1099.96 737.778 1101.72 737.778C1104.3 737.778 1108.61 731.034 1109.44 729.723H1119.63ZM1118.88 713.462V715.635C1118.88 717.808 1118.95 719.981 1119.07 722.154C1119.1 722.904 1119.25 725.714 1119.44 727.662H1112.58C1111.99 727.662 1111.42 727.662 1110.45 728.261C1113.07 724.215 1115.24 720.319 1115.47 719.906C1117.34 716.572 1118.35 714.399 1118.84 713.462H1118.88Z"/><path id="Vector_14" fill="#FF383C" d="M1143.62 709.153C1143.62 708.479 1143.62 707.805 1142.87 707.805C1142.12 707.805 1142.12 708.479 1142.12 709.153V743.922C1142.12 744.596 1142.12 745.271 1142.87 745.271C1143.62 745.271 1143.62 744.596 1143.62 743.922V709.153Z"/><path id="Vector_15" fill="#FF383C" d="M1167.11 723.765C1167.64 723.765 1168.31 723.765 1168.31 723.091C1168.31 722.379 1167.67 722.379 1167.11 722.379H1145.04C1144.52 722.379 1143.85 722.379 1143.85 723.053C1143.85 723.765 1144.48 723.765 1145.04 723.765H1167.11ZM1167.11 730.734C1167.64 730.734 1168.31 730.734 1168.31 730.059C1168.31 729.348 1167.67 729.348 1167.11 729.348H1145.04C1144.52 729.348 1143.85 729.348 1143.85 730.022C1143.85 730.734 1144.48 730.734 1145.04 730.734H1167.11Z"/><path id="Vector_16" fill="#FF383C" d="M1199.49 711.252C1199.49 710.015 1199.38 709.903 1198.18 709.903H1184.13C1183.49 709.903 1182.82 709.903 1182.82 710.652C1182.82 711.401 1183.49 711.401 1184.13 711.401H1197.99V722.154H1184.66C1184.02 722.154 1183.34 722.154 1183.34 722.904C1183.34 723.653 1184.02 723.653 1184.66 723.653H1197.99V734.406H1184.13C1183.49 734.406 1182.82 734.406 1182.82 735.155C1182.82 735.904 1183.49 735.904 1184.13 735.904H1198.18C1199.38 735.904 1199.49 735.792 1199.49 734.555V711.252Z"/><path id="Vector_17" fill="#FF383C" d="M1219.33 720.618C1218.13 720.843 1217.68 721.742 1217.68 722.454C1217.68 723.353 1218.4 723.653 1218.92 723.653C1220.04 723.653 1220.83 722.679 1220.83 721.667C1220.83 720.094 1219.03 719.382 1217.46 719.382C1215.17 719.382 1213.9 721.63 1213.56 722.342C1212.7 719.532 1210.38 719.382 1209.7 719.382C1205.88 719.382 1203.86 724.29 1203.86 725.114C1203.86 725.264 1204.01 725.451 1204.27 725.451C1204.57 725.451 1204.65 725.227 1204.72 725.077C1205.99 720.918 1208.51 720.131 1209.59 720.131C1211.28 720.131 1211.61 721.705 1211.61 722.604C1211.61 723.428 1211.39 724.29 1210.94 726.088L1209.67 731.221C1209.1 733.469 1208.02 735.53 1206.03 735.53C1205.85 735.53 1204.91 735.53 1204.12 735.043C1205.47 734.78 1205.77 733.656 1205.77 733.207C1205.77 732.457 1205.21 732.008 1204.5 732.008C1203.6 732.008 1202.62 732.795 1202.62 733.994C1202.62 735.567 1204.38 736.279 1205.99 736.279C1207.79 736.279 1209.07 734.855 1209.85 733.319C1210.45 735.53 1212.33 736.279 1213.71 736.279C1217.53 736.279 1219.56 731.371 1219.56 730.547C1219.56 730.359 1219.41 730.209 1219.18 730.209C1218.85 730.209 1218.81 730.397 1218.7 730.697C1217.68 733.994 1215.51 735.53 1213.83 735.53C1212.51 735.53 1211.8 734.556 1211.8 733.019C1211.8 732.195 1211.95 731.596 1212.55 729.123L1213.86 724.028C1214.42 721.78 1215.7 720.131 1217.42 720.131C1217.5 720.131 1218.55 720.131 1219.33 720.618Z"/><path id="Vector_18" fill="#FF383C" d="M1239.79 723.691H1243.39C1246.24 723.691 1246.46 724.327 1246.46 725.414C1246.46 725.901 1246.39 726.426 1246.2 727.25C1246.13 727.4 1246.09 727.587 1246.09 727.662C1246.09 727.924 1246.24 728.074 1246.5 728.074C1246.8 728.074 1246.84 727.924 1246.99 727.325L1249.16 718.595C1249.16 718.445 1249.05 718.221 1248.79 718.221C1248.45 718.221 1248.41 718.37 1248.26 719.007C1247.48 721.817 1246.73 722.604 1243.47 722.604H1240.06L1242.49 712.9C1242.83 711.589 1242.9 711.477 1244.44 711.477H1249.46C1254.14 711.477 1254.82 712.863 1254.82 715.523C1254.82 715.748 1254.82 716.572 1254.71 717.546C1254.67 717.696 1254.59 718.183 1254.59 718.333C1254.59 718.633 1254.78 718.745 1255.01 718.745C1255.27 718.745 1255.42 718.595 1255.49 717.921L1256.28 711.364C1256.28 711.252 1256.35 710.877 1256.35 710.802C1256.35 710.39 1256.02 710.39 1255.34 710.39H1237.58C1236.87 710.39 1236.5 710.39 1236.5 711.065C1236.5 711.477 1236.76 711.477 1237.4 711.477C1239.72 711.477 1239.72 711.739 1239.72 712.151C1239.72 712.338 1239.68 712.488 1239.57 712.9L1234.51 733.132C1234.17 734.443 1234.1 734.818 1231.48 734.818C1230.77 734.818 1230.39 734.818 1230.39 735.492C1230.39 735.904 1230.73 735.904 1230.95 735.904C1231.66 735.904 1232.41 735.829 1233.13 735.829H1238C1238.82 735.829 1239.72 735.904 1240.54 735.904C1240.88 735.904 1241.33 735.904 1241.33 735.23C1241.33 734.818 1241.11 734.818 1240.28 734.818C1237.32 734.818 1237.25 734.556 1237.25 733.994C1237.25 733.806 1237.32 733.507 1237.4 733.244L1239.79 723.691Z"/><path id="Vector_19" fill="#FF383C" d="M1274.1 725.788C1276.16 724.215 1277.17 722.678 1277.47 722.191C1279.16 719.606 1279.46 717.246 1279.46 717.208C1279.46 716.759 1279.01 716.759 1278.71 716.759C1278.07 716.759 1278.03 716.834 1277.88 717.508C1277.02 721.18 1274.81 724.289 1270.58 726.05C1270.17 726.2 1270.02 726.275 1270.02 726.537C1270.02 726.8 1270.2 726.875 1270.58 727.024C1274.47 728.635 1276.98 731.558 1277.92 735.754C1278.03 736.204 1278.07 736.316 1278.71 736.316C1279.01 736.316 1279.46 736.316 1279.46 735.866C1279.46 735.791 1279.12 733.431 1277.55 730.921C1276.8 729.797 1275.71 728.486 1274.1 727.287H1299.16C1297.1 728.86 1296.09 730.396 1295.79 730.883C1294.11 733.469 1293.81 735.829 1293.81 735.866C1293.81 736.316 1294.26 736.316 1294.56 736.316C1295.19 736.316 1295.23 736.241 1295.38 735.567C1296.24 731.895 1298.45 728.748 1302.69 727.024C1303.14 726.875 1303.25 726.8 1303.25 726.537C1303.25 726.275 1303.02 726.163 1302.95 726.125C1301.3 725.488 1296.77 723.615 1295.34 717.321C1295.23 716.871 1295.19 716.759 1294.56 716.759C1294.26 716.759 1293.81 716.759 1293.81 717.208C1293.81 717.283 1294.14 719.644 1295.72 722.154C1296.47 723.278 1297.55 724.589 1299.16 725.788H1274.1Z"/><path id="Vector_20" fill="#FF383C" d="M1323.92 720.881H1328.19V719.269H1323.73V715.411C1323.73 711.514 1326.21 710.915 1327.44 710.915C1327.85 710.915 1327.93 710.952 1328.15 711.027C1327.59 711.402 1327.26 712.039 1327.26 712.825C1327.26 714.324 1328.45 714.998 1329.43 714.998C1330.25 714.998 1331.6 714.436 1331.6 712.788C1331.6 711.252 1330.25 709.678 1327.59 709.678C1324.18 709.678 1320.02 711.102 1320.02 715.448V719.269H1317.25V720.881H1320.02V734.293H1317.44V735.904C1318.3 735.829 1321.11 735.829 1322.16 735.829C1323.25 735.829 1326.28 735.829 1327.18 735.904V734.293H1323.92V720.881Z"/><path id="Vector_21" fill="#FF383C" d="M1345.9 724.701C1345.9 721.255 1343.17 718.932 1337.89 718.932C1335.79 718.932 1331.37 719.119 1331.37 722.266C1331.37 723.84 1332.57 724.514 1333.58 724.514C1334.7 724.514 1335.79 723.727 1335.79 722.304C1335.79 721.592 1335.53 720.917 1334.89 720.505C1336.13 720.168 1337.02 720.168 1337.74 720.168C1340.28 720.168 1341.82 721.592 1341.82 724.664V726.163C1335.9 726.163 1329.94 727.811 1329.94 731.97C1329.94 735.379 1334.29 736.128 1336.87 736.128C1339.76 736.128 1341.6 734.555 1342.34 732.906C1342.34 734.293 1342.34 735.904 1346.13 735.904H1348.04C1348.83 735.904 1349.13 735.904 1349.13 735.079C1349.13 734.293 1348.79 734.293 1348.26 734.293C1345.9 734.255 1345.9 733.656 1345.9 732.794V724.701ZM1341.82 730.696C1341.82 734.218 1338.67 734.892 1337.47 734.892C1335.64 734.892 1334.1 733.656 1334.1 731.932C1334.1 728.523 1338.15 727.361 1341.82 727.174V730.696Z"/><path id="Vector_22" fill="#FF383C" d="M1357.29 709.903L1350.8 710.203V711.814C1353.13 711.814 1353.39 711.814 1353.39 713.275V734.293H1350.8V735.904C1351.67 735.829 1354.33 735.829 1355.34 735.829C1356.35 735.829 1359.01 735.829 1359.87 735.904V734.293H1357.29V709.903Z"/><path id="Vector_23" fill="#FF383C" d="M1374.99 719.906C1374.99 719.194 1374.99 718.932 1374.43 718.932C1374.21 718.932 1374.13 718.932 1373.57 719.269C1373.42 719.381 1373.01 719.643 1372.82 719.756C1371.77 719.156 1370.38 718.932 1369.03 718.932C1367.91 718.932 1362.29 718.932 1362.29 723.802C1362.29 727.736 1366.94 728.56 1368.1 728.748C1369.11 728.935 1370.35 729.16 1370.5 729.16C1371.99 729.497 1373.49 730.434 1373.49 732.007C1373.49 734.892 1370.08 734.892 1369.3 734.892C1367.39 734.892 1365.03 734.293 1363.98 730.658C1363.75 729.909 1363.71 729.872 1363.08 729.872C1362.29 729.872 1362.29 729.984 1362.29 730.846V735.154C1362.29 735.866 1362.29 736.128 1362.85 736.128C1363.12 736.128 1363.19 736.128 1363.94 735.529L1364.91 734.817C1366.6 736.128 1368.62 736.128 1369.3 736.128C1371.36 736.128 1376.04 735.679 1376.04 730.696C1376.04 728.898 1375.07 727.661 1374.32 726.987C1372.78 725.713 1371.51 725.488 1369.48 725.114C1367.09 724.701 1364.84 724.289 1364.84 722.491C1364.84 720.056 1368.17 720.056 1368.96 720.056C1373.12 720.056 1373.34 722.678 1373.42 723.615C1373.46 724.102 1373.76 724.102 1374.21 724.102C1374.99 724.102 1374.99 723.99 1374.99 723.128V719.906Z"/><path id="Vector_24" fill="#FF383C" d="M1394.43 727.624C1395.29 727.624 1395.51 727.624 1395.51 726.687C1395.51 725.563 1395.25 722.753 1393.53 720.992C1391.95 719.419 1389.85 718.932 1387.68 718.932C1381.84 718.932 1378.65 722.753 1378.65 727.474C1378.65 732.719 1382.51 736.128 1388.17 736.128C1393.83 736.128 1395.51 732.157 1395.51 731.52C1395.51 730.958 1394.95 730.958 1394.73 730.958C1394.13 730.958 1394.09 731.071 1393.86 731.558C1392.89 733.993 1390.42 734.78 1388.62 734.78C1383.19 734.78 1383.15 729.722 1383.15 727.624H1394.43ZM1383.15 726.537C1383.22 725.001 1383.26 723.54 1384.05 722.191C1384.76 720.992 1386.07 720.168 1387.68 720.168C1391.69 720.168 1392.03 724.664 1392.07 726.537H1383.15Z"/></g></g></g><defs><clipPath id="clip0_74_6091"><rect width="297.165" height="37.466" fill="#fff" transform="translate(695.348 424.805)"/></clipPath><clipPath id="clip1_74_6091"><rect width="297.165" height="37.466" fill="#fff" transform="translate(1098.35 707.805)"/></clipPath></defs></svg>