<svg width="1920" height="1080" viewBox="0 0 1920 1080" fill="none" xmlns="http://www.w3.org/2000/svg">
<g id="dyadics">
<rect width="1920" height="1080" fill="white"/>
<g id="Dyadic_rational 1" clip-path="url(#clip0_34_275)">
<g id="Vector">
<path d="M474.866 797.724H1445.45H474.866Z" fill="white"/>
<path d="M474.866 797.724H1445.45" stroke="black" stroke-width="3"/>
</g>
<g id="Vector_2">
<path d="M489.572 797.724V326.75V797.724ZM504.277 679.981V797.724V679.981ZM518.983 621.109V797.724V621.109ZM533.689 679.981V797.724V679.981ZM548.395 797.724V562.237V797.724ZM563.101 679.981V797.724V679.981ZM577.807 621.109V797.724V621.109ZM592.513 679.981V797.724V679.981ZM607.219 797.724V503.365V797.724ZM621.924 679.981V797.724V679.981ZM636.63 621.109V797.724V621.109ZM651.336 679.981V797.724V679.981ZM666.042 562.237V797.724V562.237ZM680.748 679.981V797.724V679.981ZM695.454 621.109V797.724V621.109ZM710.16 679.981V797.724V679.981ZM724.866 797.724V444.493V797.724ZM739.572 679.981V797.724V679.981ZM754.277 621.109V797.724V621.109ZM768.983 679.981V797.724V679.981ZM783.689 562.237V797.724V562.237ZM798.395 679.981V797.724V679.981ZM813.101 621.109V797.724V621.109ZM827.807 679.981V797.724V679.981ZM842.513 797.724V503.365V797.724ZM857.219 679.981V797.724V679.981ZM871.924 621.109V797.724V621.109ZM886.63 679.981V797.724V679.981ZM901.336 562.237V797.724V562.237ZM916.042 679.981V797.724V679.981ZM930.748 621.109V797.724V621.109ZM945.454 679.981V797.724V679.981ZM960.16 797.724V385.622V797.724ZM974.866 679.981V797.724V679.981ZM989.572 621.109V797.724V621.109ZM1004.28 679.981V797.724V679.981ZM1018.98 797.724V562.237V797.724ZM1033.69 679.981V797.724V679.981ZM1048.4 621.109V797.724V621.109ZM1063.1 679.981V797.724V679.981ZM1077.81 797.724V503.365V797.724ZM1092.51 679.981V797.724V679.981ZM1107.22 621.109V797.724V621.109ZM1121.92 679.981V797.724V679.981ZM1136.63 562.237V797.724V562.237ZM1151.34 679.981V797.724V679.981ZM1166.04 621.109V797.724V621.109ZM1180.75 679.981V797.724V679.981ZM1195.45 797.724V444.493V797.724ZM1210.16 679.981V797.724V679.981ZM1224.87 621.109V797.724V621.109ZM1239.57 679.981V797.724V679.981ZM1254.28 562.237V797.724V562.237ZM1268.98 679.981V797.724V679.981ZM1283.69 621.109V797.724V621.109ZM1298.4 679.981V797.724V679.981ZM1313.1 797.724V503.365V797.724ZM1327.81 679.981V797.724V679.981ZM1342.51 621.109V797.724V621.109ZM1357.22 679.981V797.724V679.981ZM1371.92 562.237V797.724V562.237ZM1386.63 679.981V797.724V679.981ZM1401.34 621.109V797.724V621.109ZM1416.04 679.981V797.724V679.981ZM1430.75 797.724V326.75V797.724ZM496.924 738.525V797.724V738.525ZM511.63 738.525V797.724V738.525ZM526.336 738.525V797.724V738.525ZM541.042 738.525V797.724V738.525ZM555.748 738.525V797.724V738.525ZM570.454 738.525V797.724V738.525ZM585.16 738.525V797.724V738.525ZM599.866 738.525V797.724V738.525ZM614.572 738.525V797.724V738.525ZM629.277 738.525V797.724V738.525ZM643.983 738.525V797.724V738.525ZM658.689 738.525V797.724V738.525ZM673.395 738.525V797.724V738.525ZM688.101 738.525V797.724V738.525ZM702.807 738.525V797.724V738.525ZM717.513 738.525V797.724V738.525ZM732.219 738.525V797.724V738.525ZM746.924 738.525V797.724V738.525ZM761.63 738.525V797.724V738.525ZM776.336 738.525V797.724V738.525ZM791.042 738.525V797.724V738.525ZM805.748 738.525V797.724V738.525ZM820.454 738.525V797.724V738.525ZM835.16 738.525V797.724V738.525ZM849.866 738.525V797.724V738.525ZM864.572 738.525V797.724V738.525ZM879.277 738.525V797.724V738.525ZM893.983 738.525V797.724V738.525ZM908.689 738.525V797.724V738.525ZM923.395 738.525V797.724V738.525ZM938.101 738.525V797.724V738.525ZM952.807 738.525V797.724V738.525ZM967.513 738.852V798.051V738.852ZM982.219 738.852V798.051V738.852ZM996.924 738.852V798.051V738.852ZM1011.63 738.852V798.051V738.852ZM1026.34 738.525V797.724V738.525ZM1041.04 738.525V797.724V738.525ZM1055.75 738.525V797.724V738.525ZM1070.45 738.525V797.724V738.525ZM1085.16 738.525V797.724V738.525ZM1099.87 738.525V797.724V738.525ZM1114.57 738.525V797.724V738.525ZM1129.28 738.525V797.724V738.525ZM1143.98 738.525V797.724V738.525ZM1158.69 738.525V797.724V738.525ZM1173.4 738.525V797.724V738.525ZM1188.1 738.525V797.724V738.525ZM1202.81 738.525V797.724V738.525ZM1217.51 738.525V797.724V738.525ZM1232.22 738.525V797.724V738.525ZM1246.92 738.525V797.724V738.525ZM1261.63 738.525V797.724V738.525ZM1276.34 738.525V797.724V738.525ZM1291.04 738.525V797.724V738.525ZM1305.75 738.525V797.724V738.525ZM1320.45 738.525V797.724V738.525ZM1335.16 738.525V797.724V738.525ZM1349.87 738.525V797.724V738.525ZM1364.57 738.525V797.724V738.525ZM1379.28 738.525V797.724V738.525ZM1393.98 738.525V797.724V738.525ZM1408.69 738.525V797.724V738.525ZM1423.4 738.525V797.724V738.525Z" fill="white"/>
<path d="M489.572 797.724V326.75M504.277 679.981V797.724M518.983 621.109V797.724M533.689 679.981V797.724M548.395 797.724V562.237M563.101 679.981V797.724M577.807 621.109V797.724M592.513 679.981V797.724M607.219 797.724V503.365M621.924 679.981V797.724M636.63 621.109V797.724M651.336 679.981V797.724M666.042 562.237V797.724M680.748 679.981V797.724M695.454 621.109V797.724M710.16 679.981V797.724M724.866 797.724V444.493M739.572 679.981V797.724M754.277 621.109V797.724M768.983 679.981V797.724M783.689 562.237V797.724M798.395 679.981V797.724M813.101 621.109V797.724M827.807 679.981V797.724M842.513 797.724V503.365M857.219 679.981V797.724M871.924 621.109V797.724M886.63 679.981V797.724M901.336 562.237V797.724M916.042 679.981V797.724M930.748 621.109V797.724M945.454 679.981V797.724M960.16 797.724V385.622M974.866 679.981V797.724M989.572 621.109V797.724M1004.28 679.981V797.724M1018.98 797.724V562.237M1033.69 679.981V797.724M1048.4 621.109V797.724M1063.1 679.981V797.724M1077.81 797.724V503.365M1092.51 679.981V797.724M1107.22 621.109V797.724M1121.92 679.981V797.724M1136.63 562.237V797.724M1151.34 679.981V797.724M1166.04 621.109V797.724M1180.75 679.981V797.724M1195.45 797.724V444.493M1210.16 679.981V797.724M1224.87 621.109V797.724M1239.57 679.981V797.724M1254.28 562.237V797.724M1268.98 679.981V797.724M1283.69 621.109V797.724M1298.4 679.981V797.724M1313.1 797.724V503.365M1327.81 679.981V797.724M1342.51 621.109V797.724M1357.22 679.981V797.724M1371.92 562.237V797.724M1386.63 679.981V797.724M1401.34 621.109V797.724M1416.04 679.981V797.724M1430.75 797.724V326.75M496.924 738.525V797.724M511.63 738.525V797.724M526.336 738.525V797.724M541.042 738.525V797.724M555.748 738.525V797.724M570.454 738.525V797.724M585.16 738.525V797.724M599.866 738.525V797.724M614.572 738.525V797.724M629.277 738.525V797.724M643.983 738.525V797.724M658.689 738.525V797.724M673.395 738.525V797.724M688.101 738.525V797.724M702.807 738.525V797.724M717.513 738.525V797.724M732.219 738.525V797.724M746.924 738.525V797.724M761.63 738.525V797.724M776.336 738.525V797.724M791.042 738.525V797.724M805.748 738.525V797.724M820.454 738.525V797.724M835.16 738.525V797.724M849.866 738.525V797.724M864.572 738.525V797.724M879.277 738.525V797.724M893.983 738.525V797.724M908.689 738.525V797.724M923.395 738.525V797.724M938.101 738.525V797.724M952.807 738.525V797.724M967.513 738.852V798.051M982.219 738.852V798.051M996.924 738.852V798.051M1011.63 738.852V798.051M1026.34 738.525V797.724M1041.04 738.525V797.724M1055.75 738.525V797.724M1070.45 738.525V797.724M1085.16 738.525V797.724M1099.87 738.525V797.724M1114.57 738.525V797.724M1129.28 738.525V797.724M1143.98 738.525V797.724M1158.69 738.525V797.724M1173.4 738.525V797.724M1188.1 738.525V797.724M1202.81 738.525V797.724M1217.51 738.525V797.724M1232.22 738.525V797.724M1246.92 738.525V797.724M1261.63 738.525V797.724M1276.34 738.525V797.724M1291.04 738.525V797.724M1305.75 738.525V797.724M1320.45 738.525V797.724M1335.16 738.525V797.724M1349.87 738.525V797.724M1364.57 738.525V797.724M1379.28 738.525V797.724M1393.98 738.525V797.724M1408.69 738.525V797.724M1423.4 738.525V797.724" stroke="black"/>
</g>
<path id="0." d="M488.872 321.216C485.032 321.216 481.768 320.384 479.08 318.72C476.392 316.992 474.216 314.656 472.552 311.712C470.888 308.768 469.672 305.376 468.904 301.536C468.136 297.696 467.752 293.664 467.752 289.44C467.752 283.36 468.552 278.016 470.152 273.408C471.816 268.736 474.216 265.088 477.352 262.464C480.552 259.84 484.456 258.528 489.064 258.528C493.224 258.528 496.872 259.776 500.008 262.272C503.144 264.704 505.608 268.256 507.4 272.928C509.192 277.536 510.088 283.136 510.088 289.728C510.088 293.824 509.672 297.76 508.84 301.536C508.072 305.312 506.824 308.672 505.096 311.616C503.432 314.56 501.256 316.896 498.568 318.624C495.88 320.352 492.648 321.216 488.872 321.216ZM488.872 317.76C492.648 317.76 495.56 315.488 497.608 310.944C499.72 306.4 500.776 299.52 500.776 290.304C500.776 280.576 499.752 273.408 497.704 268.8C495.72 264.128 492.744 261.792 488.776 261.792C485 261.792 482.088 264.096 480.04 268.704C477.992 273.312 476.968 280.384 476.968 289.92C476.968 299.2 477.992 306.176 480.04 310.848C482.088 315.456 485.032 317.76 488.872 317.76ZM524.307 320.928C522.387 320.928 520.947 320.384 519.987 319.296C519.091 318.208 518.643 316.864 518.643 315.264C518.643 313.6 519.155 312.192 520.179 311.04C521.203 309.824 522.611 309.216 524.403 309.216C526.259 309.216 527.699 309.824 528.723 311.04C529.747 312.256 530.259 313.696 530.259 315.36C530.259 316.832 529.747 318.144 528.723 319.296C527.699 320.384 526.227 320.928 524.307 320.928Z" fill="black"/>
<path id=".1" d="M931.84 376.8C930.24 376.8 929.04 376.347 928.24 375.44C927.493 374.533 927.12 373.413 927.12 372.08C927.12 370.693 927.547 369.52 928.4 368.56C929.253 367.547 930.427 367.04 931.92 367.04C933.467 367.04 934.667 367.547 935.52 368.56C936.373 369.573 936.8 370.773 936.8 372.16C936.8 373.387 936.373 374.48 935.52 375.44C934.667 376.347 933.44 376.8 931.84 376.8ZM975.849 376.16H948.169V373.92C951.956 373.92 954.623 373.52 956.169 372.72C957.716 371.92 958.489 370.533 958.489 368.56V334.72C958.489 333.333 958.303 332.347 957.929 331.76C957.556 331.12 956.863 330.8 955.849 330.8C955.316 330.8 954.569 330.853 953.609 330.96C952.649 331.067 951.636 331.227 950.569 331.44C949.503 331.6 948.543 331.813 947.689 332.08V329.44L963.209 325.04H965.529V368.56C965.529 370.533 966.329 371.92 967.929 372.72C969.529 373.52 972.169 373.92 975.849 373.92V376.16Z" fill="black"/>
<path id=".01" d="M685.904 433.672C684.624 433.672 683.664 433.309 683.024 432.584C682.427 431.859 682.128 430.963 682.128 429.896C682.128 428.787 682.469 427.848 683.152 427.08C683.835 426.269 684.773 425.864 685.968 425.864C687.205 425.864 688.165 426.269 688.848 427.08C689.531 427.891 689.872 428.851 689.872 429.96C689.872 430.941 689.531 431.816 688.848 432.584C688.165 433.309 687.184 433.672 685.904 433.672ZM709.655 433.864C707.095 433.864 704.919 433.309 703.127 432.2C701.335 431.048 699.885 429.491 698.775 427.528C697.666 425.565 696.855 423.304 696.343 420.744C695.831 418.184 695.575 415.496 695.575 412.68C695.575 408.627 696.109 405.064 697.175 401.992C698.285 398.877 699.885 396.445 701.975 394.696C704.109 392.947 706.711 392.072 709.783 392.072C712.557 392.072 714.989 392.904 717.079 394.568C719.17 396.189 720.813 398.557 722.007 401.672C723.202 404.744 723.799 408.477 723.799 412.872C723.799 415.603 723.522 418.227 722.967 420.744C722.455 423.261 721.623 425.501 720.471 427.464C719.362 429.427 717.911 430.984 716.119 432.136C714.327 433.288 712.173 433.864 709.655 433.864ZM709.655 431.56C712.173 431.56 714.114 430.045 715.479 427.016C716.887 423.987 717.591 419.4 717.591 413.256C717.591 406.771 716.909 401.992 715.543 398.92C714.221 395.805 712.237 394.248 709.591 394.248C707.074 394.248 705.133 395.784 703.767 398.856C702.402 401.928 701.719 406.643 701.719 413C701.719 419.187 702.402 423.837 703.767 426.952C705.133 430.024 707.095 431.56 709.655 431.56ZM752.799 433.16H730.655V431.368C733.684 431.368 735.818 431.048 737.055 430.408C738.292 429.768 738.911 428.659 738.911 427.08V400.008C738.911 398.899 738.762 398.109 738.463 397.64C738.164 397.128 737.61 396.872 736.799 396.872C736.372 396.872 735.775 396.915 735.007 397C734.239 397.085 733.428 397.213 732.575 397.384C731.722 397.512 730.954 397.683 730.271 397.896V395.784L742.687 392.264H744.543V427.08C744.543 428.659 745.183 429.768 746.463 430.408C747.743 431.048 749.855 431.368 752.799 431.368V433.16Z" fill="black"/>
<path id=".11" d="M1153.9 433.672C1152.62 433.672 1151.66 433.309 1151.02 432.584C1150.43 431.859 1150.13 430.963 1150.13 429.896C1150.13 428.787 1150.47 427.848 1151.15 427.08C1151.83 426.269 1152.77 425.864 1153.97 425.864C1155.21 425.864 1156.17 426.269 1156.85 427.08C1157.53 427.891 1157.87 428.851 1157.87 429.96C1157.87 430.941 1157.53 431.816 1156.85 432.584C1156.17 433.309 1155.18 433.672 1153.9 433.672ZM1189.11 433.16H1166.97V431.368C1170 431.368 1172.13 431.048 1173.37 430.408C1174.6 429.768 1175.22 428.659 1175.22 427.08V400.008C1175.22 398.899 1175.07 398.109 1174.78 397.64C1174.48 397.128 1173.92 396.872 1173.11 396.872C1172.68 396.872 1172.09 396.915 1171.32 397C1170.55 397.085 1169.74 397.213 1168.89 397.384C1168.03 397.512 1167.27 397.683 1166.58 397.896V395.784L1179 392.264H1180.86V427.08C1180.86 428.659 1181.5 429.768 1182.78 430.408C1184.06 431.048 1186.17 431.368 1189.11 431.368V433.16ZM1220.8 433.16H1198.65V431.368C1201.68 431.368 1203.82 431.048 1205.05 430.408C1206.29 429.768 1206.91 428.659 1206.91 427.08V400.008C1206.91 398.899 1206.76 398.109 1206.46 397.64C1206.16 397.128 1205.61 396.872 1204.8 396.872C1204.37 396.872 1203.77 396.915 1203.01 397C1202.24 397.085 1201.43 397.213 1200.57 397.384C1199.72 397.512 1198.95 397.683 1198.27 397.896V395.784L1210.69 392.264H1212.54V427.08C1212.54 428.659 1213.18 429.768 1214.46 430.408C1215.74 431.048 1217.85 431.368 1220.8 431.368V433.16Z" fill="black"/>
<path id=".001" d="M564.968 499.544C564.008 499.544 563.288 499.272 562.808 498.728C562.36 498.184 562.136 497.512 562.136 496.712C562.136 495.88 562.392 495.176 562.904 494.6C563.416 493.992 564.12 493.688 565.016 493.688C565.944 493.688 566.664 493.992 567.176 494.6C567.688 495.208 567.944 495.928 567.944 496.76C567.944 497.496 567.688 498.152 567.176 498.728C566.664 499.272 565.928 499.544 564.968 499.544ZM582.782 499.688C580.862 499.688 579.23 499.272 577.886 498.44C576.542 497.576 575.454 496.408 574.622 494.936C573.79 493.464 573.182 491.768 572.798 489.848C572.414 487.928 572.222 485.912 572.222 483.8C572.222 480.76 572.622 478.088 573.422 475.784C574.254 473.448 575.454 471.624 577.022 470.312C578.622 469 580.574 468.344 582.878 468.344C584.958 468.344 586.782 468.968 588.35 470.216C589.918 471.432 591.15 473.208 592.046 475.544C592.942 477.848 593.39 480.648 593.39 483.944C593.39 485.992 593.182 487.96 592.766 489.848C592.382 491.736 591.758 493.416 590.894 494.888C590.062 496.36 588.974 497.528 587.63 498.392C586.286 499.256 584.67 499.688 582.782 499.688ZM582.782 497.96C584.67 497.96 586.126 496.824 587.15 494.552C588.206 492.28 588.734 488.84 588.734 484.232C588.734 479.368 588.222 475.784 587.198 473.48C586.206 471.144 584.718 469.976 582.734 469.976C580.846 469.976 579.39 471.128 578.366 473.432C577.342 475.736 576.83 479.272 576.83 484.04C576.83 488.68 577.342 492.168 578.366 494.504C579.39 496.808 580.862 497.96 582.782 497.96ZM606.547 499.688C604.627 499.688 602.995 499.272 601.651 498.44C600.307 497.576 599.219 496.408 598.387 494.936C597.555 493.464 596.947 491.768 596.563 489.848C596.179 487.928 595.987 485.912 595.987 483.8C595.987 480.76 596.387 478.088 597.187 475.784C598.019 473.448 599.219 471.624 600.787 470.312C602.387 469 604.339 468.344 606.643 468.344C608.723 468.344 610.547 468.968 612.115 470.216C613.683 471.432 614.915 473.208 615.811 475.544C616.707 477.848 617.155 480.648 617.155 483.944C617.155 485.992 616.947 487.96 616.531 489.848C616.147 491.736 615.523 493.416 614.659 494.888C613.827 496.36 612.739 497.528 611.395 498.392C610.051 499.256 608.435 499.688 606.547 499.688ZM606.547 497.96C608.435 497.96 609.891 496.824 610.915 494.552C611.971 492.28 612.499 488.84 612.499 484.232C612.499 479.368 611.987 475.784 610.963 473.48C609.971 471.144 608.483 469.976 606.499 469.976C604.611 469.976 603.155 471.128 602.131 473.432C601.107 475.736 600.595 479.272 600.595 484.04C600.595 488.68 601.107 492.168 602.131 494.504C603.155 496.808 604.627 497.96 606.547 497.96ZM638.905 499.16H622.297V497.816C624.569 497.816 626.169 497.576 627.097 497.096C628.025 496.616 628.489 495.784 628.489 494.6V474.296C628.489 473.464 628.377 472.872 628.153 472.52C627.929 472.136 627.513 471.944 626.905 471.944C626.585 471.944 626.137 471.976 625.561 472.04C624.985 472.104 624.377 472.2 623.737 472.328C623.097 472.424 622.521 472.552 622.009 472.712V471.128L631.321 468.488H632.713V494.6C632.713 495.784 633.193 496.616 634.153 497.096C635.113 497.576 636.697 497.816 638.905 497.816V499.16Z" fill="black"/>
<path id=".011" d="M801.968 499.544C801.008 499.544 800.288 499.272 799.808 498.728C799.36 498.184 799.136 497.512 799.136 496.712C799.136 495.88 799.392 495.176 799.904 494.6C800.416 493.992 801.12 493.688 802.016 493.688C802.944 493.688 803.664 493.992 804.176 494.6C804.688 495.208 804.944 495.928 804.944 496.76C804.944 497.496 804.688 498.152 804.176 498.728C803.664 499.272 802.928 499.544 801.968 499.544ZM819.782 499.688C817.862 499.688 816.23 499.272 814.886 498.44C813.542 497.576 812.454 496.408 811.622 494.936C810.79 493.464 810.182 491.768 809.798 489.848C809.414 487.928 809.222 485.912 809.222 483.8C809.222 480.76 809.622 478.088 810.422 475.784C811.254 473.448 812.454 471.624 814.022 470.312C815.622 469 817.574 468.344 819.878 468.344C821.958 468.344 823.782 468.968 825.35 470.216C826.918 471.432 828.15 473.208 829.046 475.544C829.942 477.848 830.39 480.648 830.39 483.944C830.39 485.992 830.182 487.96 829.766 489.848C829.382 491.736 828.758 493.416 827.894 494.888C827.062 496.36 825.974 497.528 824.63 498.392C823.286 499.256 821.67 499.688 819.782 499.688ZM819.782 497.96C821.67 497.96 823.126 496.824 824.15 494.552C825.206 492.28 825.734 488.84 825.734 484.232C825.734 479.368 825.222 475.784 824.198 473.48C823.206 471.144 821.718 469.976 819.734 469.976C817.846 469.976 816.39 471.128 815.366 473.432C814.342 475.736 813.83 479.272 813.83 484.04C813.83 488.68 814.342 492.168 815.366 494.504C816.39 496.808 817.862 497.96 819.782 497.96ZM852.139 499.16H835.531V497.816C837.803 497.816 839.403 497.576 840.331 497.096C841.259 496.616 841.723 495.784 841.723 494.6V474.296C841.723 473.464 841.611 472.872 841.387 472.52C841.163 472.136 840.747 471.944 840.139 471.944C839.819 471.944 839.371 471.976 838.795 472.04C838.219 472.104 837.611 472.2 836.971 472.328C836.331 472.424 835.755 472.552 835.243 472.712V471.128L844.555 468.488H845.947V494.6C845.947 495.784 846.427 496.616 847.387 497.096C848.347 497.576 849.931 497.816 852.139 497.816V499.16ZM875.905 499.16H859.297V497.816C861.569 497.816 863.169 497.576 864.097 497.096C865.025 496.616 865.489 495.784 865.489 494.6V474.296C865.489 473.464 865.377 472.872 865.153 472.52C864.929 472.136 864.513 471.944 863.905 471.944C863.585 471.944 863.137 471.976 862.561 472.04C861.985 472.104 861.377 472.2 860.737 472.328C860.097 472.424 859.521 472.552 859.009 472.712V471.128L868.321 468.488H869.713V494.6C869.713 495.784 870.193 496.616 871.153 497.096C872.113 497.576 873.697 497.816 875.905 497.816V499.16Z" fill="black"/>
<path id=".101" d="M1035.97 499.544C1035.01 499.544 1034.29 499.272 1033.81 498.728C1033.36 498.184 1033.14 497.512 1033.14 496.712C1033.14 495.88 1033.39 495.176 1033.9 494.6C1034.42 493.992 1035.12 493.688 1036.02 493.688C1036.94 493.688 1037.66 493.992 1038.18 494.6C1038.69 495.208 1038.94 495.928 1038.94 496.76C1038.94 497.496 1038.69 498.152 1038.18 498.728C1037.66 499.272 1036.93 499.544 1035.97 499.544ZM1062.37 499.16H1045.77V497.816C1048.04 497.816 1049.64 497.576 1050.57 497.096C1051.49 496.616 1051.96 495.784 1051.96 494.6V474.296C1051.96 473.464 1051.85 472.872 1051.62 472.52C1051.4 472.136 1050.98 471.944 1050.37 471.944C1050.05 471.944 1049.61 471.976 1049.03 472.04C1048.45 472.104 1047.85 472.2 1047.21 472.328C1046.57 472.424 1045.99 472.552 1045.48 472.712V471.128L1054.79 468.488H1056.18V494.6C1056.18 495.784 1056.66 496.616 1057.62 497.096C1058.58 497.576 1060.17 497.816 1062.37 497.816V499.16ZM1077.55 499.688C1075.63 499.688 1074 499.272 1072.65 498.44C1071.31 497.576 1070.22 496.408 1069.39 494.936C1068.56 493.464 1067.95 491.768 1067.56 489.848C1067.18 487.928 1066.99 485.912 1066.99 483.8C1066.99 480.76 1067.39 478.088 1068.19 475.784C1069.02 473.448 1070.22 471.624 1071.79 470.312C1073.39 469 1075.34 468.344 1077.64 468.344C1079.72 468.344 1081.55 468.968 1083.12 470.216C1084.68 471.432 1085.92 473.208 1086.81 475.544C1087.71 477.848 1088.16 480.648 1088.16 483.944C1088.16 485.992 1087.95 487.96 1087.53 489.848C1087.15 491.736 1086.52 493.416 1085.66 494.888C1084.83 496.36 1083.74 497.528 1082.4 498.392C1081.05 499.256 1079.44 499.688 1077.55 499.688ZM1077.55 497.96C1079.44 497.96 1080.89 496.824 1081.92 494.552C1082.97 492.28 1083.5 488.84 1083.5 484.232C1083.5 479.368 1082.99 475.784 1081.96 473.48C1080.97 471.144 1079.48 469.976 1077.5 469.976C1075.61 469.976 1074.16 471.128 1073.13 473.432C1072.11 475.736 1071.6 479.272 1071.6 484.04C1071.6 488.68 1072.11 492.168 1073.13 494.504C1074.16 496.808 1075.63 497.96 1077.55 497.96ZM1109.9 499.16H1093.3V497.816C1095.57 497.816 1097.17 497.576 1098.1 497.096C1099.02 496.616 1099.49 495.784 1099.49 494.6V474.296C1099.49 473.464 1099.38 472.872 1099.15 472.52C1098.93 472.136 1098.51 471.944 1097.9 471.944C1097.58 471.944 1097.14 471.976 1096.56 472.04C1095.98 472.104 1095.38 472.2 1094.74 472.328C1094.1 472.424 1093.52 472.552 1093.01 472.712V471.128L1102.32 468.488H1103.71V494.6C1103.71 495.784 1104.19 496.616 1105.15 497.096C1106.11 497.576 1107.7 497.816 1109.9 497.816V499.16Z" fill="black"/>
<path id=".0101" d="M747.032 557.416C746.392 557.416 745.912 557.235 745.592 556.872C745.293 556.509 745.144 556.061 745.144 555.528C745.144 554.973 745.315 554.504 745.656 554.12C745.997 553.715 746.467 553.512 747.064 553.512C747.683 553.512 748.163 553.715 748.504 554.12C748.845 554.525 749.016 555.005 749.016 555.56C749.016 556.051 748.845 556.488 748.504 556.872C748.163 557.235 747.672 557.416 747.032 557.416ZM758.908 557.512C757.628 557.512 756.54 557.235 755.644 556.68C754.748 556.104 754.022 555.325 753.468 554.344C752.913 553.363 752.508 552.232 752.252 550.952C751.996 549.672 751.868 548.328 751.868 546.92C751.868 544.893 752.134 543.112 752.668 541.576C753.222 540.019 754.022 538.803 755.068 537.928C756.134 537.053 757.436 536.616 758.972 536.616C760.358 536.616 761.574 537.032 762.62 537.864C763.665 538.675 764.486 539.859 765.084 541.416C765.681 542.952 765.98 544.819 765.98 547.016C765.98 548.381 765.841 549.693 765.564 550.952C765.308 552.211 764.892 553.331 764.316 554.312C763.761 555.293 763.036 556.072 762.14 556.648C761.244 557.224 760.166 557.512 758.908 557.512ZM758.908 556.36C760.166 556.36 761.137 555.603 761.82 554.088C762.524 552.573 762.876 550.28 762.876 547.208C762.876 543.965 762.534 541.576 761.852 540.04C761.19 538.483 760.198 537.704 758.876 537.704C757.617 537.704 756.646 538.472 755.964 540.008C755.281 541.544 754.94 543.901 754.94 547.08C754.94 550.173 755.281 552.499 755.964 554.056C756.646 555.592 757.628 556.36 758.908 556.36ZM780.479 557.16H769.407V556.264C770.922 556.264 771.989 556.104 772.607 555.784C773.226 555.464 773.535 554.909 773.535 554.12V540.584C773.535 540.029 773.461 539.635 773.311 539.4C773.162 539.144 772.885 539.016 772.479 539.016C772.266 539.016 771.967 539.037 771.583 539.08C771.199 539.123 770.794 539.187 770.367 539.272C769.941 539.336 769.557 539.421 769.215 539.528V538.472L775.423 536.712H776.351V554.12C776.351 554.909 776.671 555.464 777.311 555.784C777.951 556.104 779.007 556.264 780.479 556.264V557.16ZM790.595 557.512C789.315 557.512 788.227 557.235 787.331 556.68C786.435 556.104 785.71 555.325 785.155 554.344C784.6 553.363 784.195 552.232 783.939 550.952C783.683 549.672 783.555 548.328 783.555 546.92C783.555 544.893 783.822 543.112 784.355 541.576C784.91 540.019 785.71 538.803 786.755 537.928C787.822 537.053 789.123 536.616 790.659 536.616C792.046 536.616 793.262 537.032 794.307 537.864C795.352 538.675 796.174 539.859 796.771 541.416C797.368 542.952 797.667 544.819 797.667 547.016C797.667 548.381 797.528 549.693 797.251 550.952C796.995 552.211 796.579 553.331 796.003 554.312C795.448 555.293 794.723 556.072 793.827 556.648C792.931 557.224 791.854 557.512 790.595 557.512ZM790.595 556.36C791.854 556.36 792.824 555.603 793.507 554.088C794.211 552.573 794.563 550.28 794.563 547.208C794.563 543.965 794.222 541.576 793.539 540.04C792.878 538.483 791.886 537.704 790.563 537.704C789.304 537.704 788.334 538.472 787.651 540.008C786.968 541.544 786.627 543.901 786.627 547.08C786.627 550.173 786.968 552.499 787.651 554.056C788.334 555.592 789.315 556.36 790.595 556.36ZM812.167 557.16H801.095V556.264C802.61 556.264 803.676 556.104 804.295 555.784C804.914 555.464 805.223 554.909 805.223 554.12V540.584C805.223 540.029 805.148 539.635 804.999 539.4C804.85 539.144 804.572 539.016 804.167 539.016C803.954 539.016 803.655 539.037 803.271 539.08C802.887 539.123 802.482 539.187 802.055 539.272C801.628 539.336 801.244 539.421 800.903 539.528V538.472L807.111 536.712H808.039V554.12C808.039 554.909 808.359 555.464 808.999 555.784C809.639 556.104 810.695 556.264 812.167 556.264V557.16Z" fill="black"/>
<path id=".111" d="M1269.97 499.544C1269.01 499.544 1268.29 499.272 1267.81 498.728C1267.36 498.184 1267.14 497.512 1267.14 496.712C1267.14 495.88 1267.39 495.176 1267.9 494.6C1268.42 493.992 1269.12 493.688 1270.02 493.688C1270.94 493.688 1271.66 493.992 1272.18 494.6C1272.69 495.208 1272.94 495.928 1272.94 496.76C1272.94 497.496 1272.69 498.152 1272.18 498.728C1271.66 499.272 1270.93 499.544 1269.97 499.544ZM1296.37 499.16H1279.77V497.816C1282.04 497.816 1283.64 497.576 1284.57 497.096C1285.49 496.616 1285.96 495.784 1285.96 494.6V474.296C1285.96 473.464 1285.85 472.872 1285.62 472.52C1285.4 472.136 1284.98 471.944 1284.37 471.944C1284.05 471.944 1283.61 471.976 1283.03 472.04C1282.45 472.104 1281.85 472.2 1281.21 472.328C1280.57 472.424 1279.99 472.552 1279.48 472.712V471.128L1288.79 468.488H1290.18V494.6C1290.18 495.784 1290.66 496.616 1291.62 497.096C1292.58 497.576 1294.17 497.816 1296.37 497.816V499.16ZM1320.14 499.16H1303.53V497.816C1305.8 497.816 1307.4 497.576 1308.33 497.096C1309.26 496.616 1309.72 495.784 1309.72 494.6V474.296C1309.72 473.464 1309.61 472.872 1309.39 472.52C1309.16 472.136 1308.75 471.944 1308.14 471.944C1307.82 471.944 1307.37 471.976 1306.8 472.04C1306.22 472.104 1305.61 472.2 1304.97 472.328C1304.33 472.424 1303.76 472.552 1303.24 472.712V471.128L1312.56 468.488H1313.95V494.6C1313.95 495.784 1314.43 496.616 1315.39 497.096C1316.35 497.576 1317.93 497.816 1320.14 497.816V499.16ZM1343.9 499.16H1327.3V497.816C1329.57 497.816 1331.17 497.576 1332.1 497.096C1333.02 496.616 1333.49 495.784 1333.49 494.6V474.296C1333.49 473.464 1333.38 472.872 1333.15 472.52C1332.93 472.136 1332.51 471.944 1331.9 471.944C1331.58 471.944 1331.14 471.976 1330.56 472.04C1329.98 472.104 1329.38 472.2 1328.74 472.328C1328.1 472.424 1327.52 472.552 1327.01 472.712V471.128L1336.32 468.488H1337.71V494.6C1337.71 495.784 1338.19 496.616 1339.15 497.096C1340.11 497.576 1341.7 497.816 1343.9 497.816V499.16Z" fill="black"/>
<line id="Line 1" x1="1430.66" y1="796.16" x2="1430.66" y2="326.16" stroke="white" stroke-width="3"/>
</g>
<path id="(adapted from wikipedia)" d="M659.024 943.168L658 944.96C652.837 942.315 648.699 938.496 645.584 933.504C642.512 928.555 640.976 922.56 640.976 915.52C640.976 908.523 642.512 902.571 645.584 897.664C648.699 892.715 652.837 888.939 658 886.336L659.024 888C654.373 891.115 651.067 894.891 649.104 899.328C647.184 903.765 646.224 909.163 646.224 915.52C646.224 921.963 647.184 927.424 649.104 931.904C651.067 936.341 654.373 940.096 659.024 943.168ZM671.041 933.504C668.567 933.504 666.668 932.821 665.345 931.456C664.065 930.091 663.425 928.384 663.425 926.336C663.425 924.629 663.809 923.2 664.577 922.048C665.388 920.853 666.433 919.851 667.713 919.04C669.036 918.229 670.444 917.547 671.937 916.992C673.473 916.437 674.967 915.968 676.417 915.584C677.868 915.2 679.148 914.837 680.257 914.496V911.68C680.257 908.907 679.767 906.944 678.785 905.792C677.847 904.597 676.417 904 674.497 904C672.663 904 671.489 904.384 670.977 905.152C670.465 905.92 670.209 907.264 670.209 909.184C670.209 910.165 669.953 910.912 669.441 911.424C668.972 911.893 668.289 912.128 667.393 912.128C666.753 912.128 666.135 911.893 665.537 911.424C664.983 910.912 664.705 910.123 664.705 909.056C664.705 907.861 665.153 906.731 666.049 905.664C666.988 904.597 668.289 903.723 669.953 903.04C671.66 902.357 673.665 902.016 675.969 902.016C679.468 902.016 681.943 902.827 683.393 904.448C684.844 906.069 685.569 908.544 685.569 911.872V926.4C685.569 927.723 685.719 928.576 686.017 928.96C686.316 929.344 686.807 929.536 687.489 929.536C688.087 929.536 688.62 929.387 689.089 929.088C689.601 928.789 690.071 928.405 690.497 927.936L691.457 928.96C690.391 930.496 689.367 931.627 688.385 932.352C687.447 933.035 686.167 933.376 684.545 933.376C683.052 933.376 682.071 932.949 681.601 932.096C681.175 931.243 680.855 930.027 680.641 928.448L680.257 927.68V916.608C678.337 917.077 676.524 917.632 674.817 918.272C673.111 918.912 671.724 919.744 670.657 920.768C669.591 921.792 669.057 923.136 669.057 924.8C669.057 926.379 669.484 927.637 670.337 928.576C671.191 929.515 672.3 929.984 673.665 929.984C674.775 929.984 675.927 929.707 677.121 929.152C678.359 928.597 679.553 927.808 680.705 926.784L681.217 929.088H680.449C679.468 929.941 678.508 930.709 677.569 931.392C676.673 932.075 675.692 932.608 674.625 932.992C673.601 933.333 672.407 933.504 671.041 933.504ZM704.799 933.568C702.41 933.568 700.383 932.928 698.719 931.648C697.098 930.368 695.882 928.64 695.071 926.464C694.261 924.245 693.855 921.771 693.855 919.04C693.855 915.499 694.517 912.469 695.839 909.952C697.162 907.392 698.933 905.429 701.151 904.064C703.413 902.699 705.887 902.016 708.575 902.016C709.599 902.016 710.602 902.144 711.583 902.4C712.607 902.656 713.589 903.04 714.527 903.552H714.783V895.168C714.783 893.76 714.613 892.843 714.271 892.416C713.973 891.989 713.205 891.776 711.967 891.776C711.669 891.776 711.306 891.797 710.879 891.84C710.495 891.883 710.303 891.904 710.303 891.904V890.112L718.367 887.872H720.095V926.208C720.095 927.872 720.33 928.96 720.799 929.472C721.269 929.941 722.101 930.176 723.295 930.176H724.639V931.904L716.447 933.376H714.975V928.96H714.719C713.525 930.027 712.095 931.072 710.431 932.096C708.81 933.077 706.933 933.568 704.799 933.568ZM707.807 928.96C709.301 928.96 710.559 928.768 711.583 928.384C712.607 927.957 713.674 927.36 714.783 926.592V909.696C714.527 908.373 713.909 907.2 712.927 906.176C711.946 905.109 710.453 904.576 708.447 904.576C705.759 904.576 703.583 905.557 701.919 907.52C700.255 909.483 699.423 912.491 699.423 916.544C699.423 920.939 700.127 924.117 701.535 926.08C702.986 928 705.077 928.96 707.807 928.96ZM736.291 933.504C733.817 933.504 731.918 932.821 730.595 931.456C729.315 930.091 728.675 928.384 728.675 926.336C728.675 924.629 729.059 923.2 729.827 922.048C730.638 920.853 731.683 919.851 732.963 919.04C734.286 918.229 735.694 917.547 737.187 916.992C738.723 916.437 740.217 915.968 741.667 915.584C743.118 915.2 744.398 914.837 745.507 914.496V911.68C745.507 908.907 745.017 906.944 744.035 905.792C743.097 904.597 741.667 904 739.747 904C737.913 904 736.739 904.384 736.227 905.152C735.715 905.92 735.459 907.264 735.459 909.184C735.459 910.165 735.203 910.912 734.691 911.424C734.222 911.893 733.539 912.128 732.643 912.128C732.003 912.128 731.385 911.893 730.787 911.424C730.233 910.912 729.955 910.123 729.955 909.056C729.955 907.861 730.403 906.731 731.299 905.664C732.238 904.597 733.539 903.723 735.203 903.04C736.91 902.357 738.915 902.016 741.219 902.016C744.718 902.016 747.193 902.827 748.643 904.448C750.094 906.069 750.819 908.544 750.819 911.872V926.4C750.819 927.723 750.969 928.576 751.267 928.96C751.566 929.344 752.057 929.536 752.739 929.536C753.337 929.536 753.87 929.387 754.339 929.088C754.851 928.789 755.321 928.405 755.747 927.936L756.707 928.96C755.641 930.496 754.617 931.627 753.635 932.352C752.697 933.035 751.417 933.376 749.795 933.376C748.302 933.376 747.321 932.949 746.851 932.096C746.425 931.243 746.105 930.027 745.891 928.448L745.507 927.68V916.608C743.587 917.077 741.774 917.632 740.067 918.272C738.361 918.912 736.974 919.744 735.907 920.768C734.841 921.792 734.307 923.136 734.307 924.8C734.307 926.379 734.734 927.637 735.587 928.576C736.441 929.515 737.55 929.984 738.915 929.984C740.025 929.984 741.177 929.707 742.371 929.152C743.609 928.597 744.803 927.808 745.955 926.784L746.467 929.088H745.699C744.718 929.941 743.758 930.709 742.819 931.392C741.923 932.075 740.942 932.608 739.875 932.992C738.851 933.333 737.657 933.504 736.291 933.504ZM774.593 947.136H758.401V945.344C760.407 945.344 761.687 945.003 762.241 944.32C762.796 943.68 763.073 942.464 763.073 940.672V908.992C763.073 907.755 762.924 906.901 762.625 906.432C762.369 905.963 761.708 905.728 760.641 905.728C760.215 905.728 759.767 905.749 759.297 905.792C758.828 905.835 758.593 905.856 758.593 905.856V904L766.657 902.208H768.257V907.584H768.449C769.985 905.792 771.543 904.427 773.121 903.488C774.743 902.507 776.492 902.016 778.369 902.016C780.503 902.016 782.359 902.635 783.937 903.872C785.559 905.067 786.817 906.752 787.713 908.928C788.652 911.061 789.121 913.536 789.121 916.352C789.121 919.979 788.481 923.093 787.201 925.696C785.964 928.256 784.279 930.24 782.145 931.648C780.012 933.013 777.665 933.696 775.105 933.696C773.911 933.696 772.759 933.547 771.649 933.248C770.583 932.992 769.58 932.544 768.641 931.904H768.385V940.288C768.385 941.653 768.556 942.699 768.897 943.424C769.239 944.149 769.857 944.64 770.753 944.896C771.649 945.152 772.929 945.28 774.593 945.28V947.136ZM775.425 931.2C777.687 931.2 779.564 930.133 781.057 928C782.551 925.867 783.297 922.581 783.297 918.144C783.297 914.091 782.636 911.125 781.313 909.248C779.991 907.328 778.135 906.368 775.745 906.368C774.039 906.368 772.524 906.816 771.201 907.712C769.921 908.608 768.983 909.461 768.385 910.272V926.976C768.812 927.403 769.345 927.957 769.985 928.64C770.625 929.323 771.393 929.92 772.289 930.432C773.185 930.944 774.231 931.2 775.425 931.2ZM810.12 927.296L811.336 928.32C810.526 929.472 809.758 930.453 809.032 931.264C808.35 932.032 807.582 932.629 806.728 933.056C805.875 933.483 804.766 933.696 803.4 933.696C801.267 933.696 799.71 933.077 798.728 931.84C797.747 930.56 797.256 928.491 797.256 925.632V905.792H793.736V904.32C795.23 903.381 796.51 902.123 797.576 900.544C798.686 898.923 799.816 896.747 800.968 894.016H802.568V903.104H809.8V905.792H802.568V923.84C802.568 926.101 802.76 927.68 803.144 928.576C803.571 929.472 804.403 929.92 805.64 929.92C806.664 929.92 807.454 929.707 808.008 929.28C808.606 928.853 809.31 928.192 810.12 927.296ZM827.051 933.696C824.491 933.696 822.166 933.099 820.075 931.904C818.027 930.667 816.406 928.875 815.211 926.528C814.017 924.139 813.419 921.237 813.419 917.824C813.419 914.24 814.017 911.296 815.211 908.992C816.449 906.645 818.091 904.896 820.139 903.744C822.187 902.592 824.449 902.016 826.923 902.016C830.422 902.016 833.238 903.232 835.371 905.664C837.505 908.096 838.657 911.552 838.827 916.032H818.027L817.963 913.664H832.811C832.769 912.085 832.491 910.613 831.979 909.248C831.467 907.84 830.721 906.709 829.739 905.856C828.758 905.003 827.499 904.576 825.963 904.576C823.489 904.576 821.633 905.557 820.395 907.52C819.158 909.44 818.539 912.171 818.539 915.712C818.539 918.656 819.009 921.109 819.947 923.072C820.886 925.035 822.123 926.507 823.659 927.488C825.195 928.427 826.838 928.896 828.587 928.896C830.337 928.896 831.745 928.661 832.811 928.192C833.921 927.723 834.859 927.125 835.627 926.4C836.395 925.632 837.121 924.8 837.803 923.904L839.019 924.8C838.465 925.995 837.825 927.147 837.099 928.256C836.374 929.323 835.542 930.261 834.603 931.072C833.707 931.883 832.641 932.523 831.403 932.992C830.166 933.461 828.715 933.696 827.051 933.696ZM853.987 933.568C851.598 933.568 849.571 932.928 847.907 931.648C846.286 930.368 845.07 928.64 844.259 926.464C843.448 924.245 843.043 921.771 843.043 919.04C843.043 915.499 843.704 912.469 845.027 909.952C846.35 907.392 848.12 905.429 850.339 904.064C852.6 902.699 855.075 902.016 857.763 902.016C858.787 902.016 859.79 902.144 860.771 902.4C861.795 902.656 862.776 903.04 863.715 903.552H863.971V895.168C863.971 893.76 863.8 892.843 863.459 892.416C863.16 891.989 862.392 891.776 861.155 891.776C860.856 891.776 860.494 891.797 860.067 891.84C859.683 891.883 859.491 891.904 859.491 891.904V890.112L867.555 887.872H869.283V926.208C869.283 927.872 869.518 928.96 869.987 929.472C870.456 929.941 871.288 930.176 872.483 930.176H873.827V931.904L865.635 933.376H864.163V928.96H863.907C862.712 930.027 861.283 931.072 859.619 932.096C857.998 933.077 856.12 933.568 853.987 933.568ZM856.995 928.96C858.488 928.96 859.747 928.768 860.771 928.384C861.795 927.957 862.862 927.36 863.971 926.592V909.696C863.715 908.373 863.096 907.2 862.115 906.176C861.134 905.109 859.64 904.576 857.635 904.576C854.947 904.576 852.771 905.557 851.107 907.52C849.443 909.483 848.611 912.491 848.611 916.544C848.611 920.939 849.315 924.117 850.723 926.08C852.174 928 854.264 928.96 856.995 928.96ZM908.861 933.056H891.645V931.2C893.224 931.2 894.376 931.072 895.101 930.816C895.869 930.517 896.381 929.963 896.637 929.152C896.893 928.341 897.021 927.104 897.021 925.44V905.088C897.021 902.656 897.064 900.672 897.149 899.136C897.277 897.557 897.491 896.235 897.789 895.168C898.088 894.101 898.515 893.077 899.069 892.096C899.923 890.603 900.989 889.451 902.269 888.64C903.592 887.829 905.363 887.424 907.581 887.424C908.989 887.424 910.227 887.595 911.293 887.936C912.36 888.277 913.192 888.789 913.789 889.472C914.429 890.112 914.749 890.923 914.749 891.904C914.749 892.843 914.493 893.547 913.981 894.016C913.469 894.443 912.851 894.656 912.125 894.656C911.315 894.656 910.653 894.4 910.141 893.888C909.629 893.333 909.139 892.757 908.669 892.16C908.243 891.563 907.773 891.029 907.261 890.56C906.792 890.048 906.173 889.792 905.405 889.792C904.211 889.792 903.4 890.347 902.973 891.456C902.547 892.523 902.333 894.4 902.333 897.088V925.44C902.333 927.104 902.504 928.341 902.845 929.152C903.187 929.963 903.827 930.517 904.765 930.816C905.704 931.072 907.069 931.2 908.861 931.2V933.056ZM910.141 905.792H892.157V903.104H910.141V905.792ZM927.974 933.056H911.974V931.2C913.382 931.2 914.406 931.093 915.046 930.88C915.729 930.624 916.156 930.197 916.326 929.6C916.54 928.96 916.646 928.043 916.646 926.848V909.248C916.646 908.096 916.54 907.243 916.326 906.688C916.156 906.091 915.494 905.792 914.342 905.792C913.702 905.792 913.212 905.813 912.87 905.856C912.529 905.899 912.358 905.92 912.358 905.92V904.128L920.294 902.208H921.83V908.8H922.022C923.132 907.221 924.113 905.92 924.966 904.896C925.82 903.872 926.652 903.104 927.462 902.592C928.316 902.08 929.254 901.824 930.278 901.824C931.516 901.824 932.433 902.144 933.03 902.784C933.67 903.424 933.99 904.299 933.99 905.408C933.99 906.603 933.692 907.477 933.094 908.032C932.54 908.587 931.9 908.864 931.174 908.864C930.492 908.864 929.873 908.693 929.318 908.352C928.806 907.968 928.358 907.605 927.974 907.264C927.59 906.88 927.27 906.688 927.014 906.688C926.289 906.688 925.457 907.243 924.518 908.352C923.58 909.461 922.726 910.656 921.958 911.936V926.528C921.958 927.851 922.129 928.853 922.47 929.536C922.812 930.219 923.409 930.667 924.262 930.88C925.158 931.093 926.396 931.2 927.974 931.2V933.056ZM950.318 933.696C945.838 933.696 942.318 932.309 939.758 929.536C937.241 926.72 935.982 922.731 935.982 917.568C935.982 914.453 936.579 911.744 937.774 909.44C938.969 907.093 940.633 905.28 942.766 904C944.942 902.677 947.459 902.016 950.318 902.016C954.713 902.016 958.169 903.381 960.686 906.112C963.246 908.843 964.526 912.576 964.526 917.312C964.526 920.896 963.907 923.904 962.67 926.336C961.475 928.768 959.811 930.603 957.678 931.84C955.545 933.077 953.091 933.696 950.318 933.696ZM950.574 931.136C952.323 931.136 953.795 930.731 954.99 929.92C956.185 929.109 957.081 927.723 957.678 925.76C958.318 923.797 958.638 921.088 958.638 917.632C958.638 913.707 957.913 910.528 956.462 908.096C955.054 905.664 952.921 904.448 950.062 904.448C947.63 904.448 945.667 905.472 944.174 907.52C942.681 909.568 941.934 912.64 941.934 916.736C941.934 921.813 942.681 925.504 944.174 927.808C945.71 930.069 947.843 931.179 950.574 931.136ZM1001.88 933.056H986.713V931.2C988.249 931.2 989.358 931.051 990.041 930.752C990.724 930.453 991.15 929.899 991.321 929.088C991.534 928.277 991.641 927.125 991.641 925.632V912.96C991.641 910.229 991.15 908.416 990.169 907.52C989.23 906.581 988.014 906.112 986.521 906.112C985.326 906.112 984.196 906.368 983.129 906.88C982.105 907.392 981.166 907.989 980.313 908.672C979.46 909.355 978.734 909.995 978.137 910.592L977.625 907.392H978.585C980.334 905.899 982.02 904.64 983.641 903.616C985.262 902.549 987.161 902.016 989.337 902.016C991.257 902.016 992.793 902.571 993.945 903.68C995.14 904.789 996.036 906.176 996.633 907.84C996.718 907.968 996.782 908.117 996.825 908.288C996.868 908.416 996.91 908.565 996.953 908.736V925.632C996.953 927.083 997.038 928.213 997.209 929.024C997.422 929.835 997.87 930.411 998.553 930.752C999.236 931.051 1000.34 931.2 1001.88 931.2V933.056ZM983.321 933.056H968.729V931.2C970.094 931.2 971.076 931.093 971.673 930.88C972.313 930.624 972.718 930.176 972.889 929.536C973.102 928.853 973.209 927.872 973.209 926.592V908.672C973.209 907.52 972.974 906.752 972.505 906.368C972.078 905.984 971.417 905.792 970.521 905.792C970.052 905.792 969.646 905.813 969.305 905.856C968.964 905.899 968.793 905.92 968.793 905.92V904.064L976.793 902.208H978.329V908.096L978.521 909.504V926.848C978.521 928.043 978.649 928.96 978.905 929.6C979.161 930.197 979.63 930.624 980.313 930.88C980.996 931.093 981.998 931.2 983.321 931.2V933.056ZM1019.74 933.056H1005.27V931.2C1006.72 931.2 1007.77 931.008 1008.41 930.624C1009.05 930.24 1009.43 929.643 1009.56 928.832C1009.73 927.979 1009.82 926.912 1009.82 925.632V913.344C1009.82 911.381 1009.56 909.888 1009.05 908.864C1008.58 907.84 1007.92 907.136 1007.06 906.752C1006.25 906.325 1005.34 906.112 1004.31 906.112C1002.9 906.112 1001.52 906.624 1000.15 907.648C998.788 908.629 997.55 909.589 996.441 910.528L995.737 907.328H996.697C998.446 905.579 1000.15 904.256 1001.82 903.36C1003.48 902.464 1005.17 902.016 1006.87 902.016C1009.39 902.016 1011.4 902.805 1012.89 904.384C1014.38 905.963 1015.13 908.693 1015.13 912.576V925.632C1015.13 926.955 1015.19 928.043 1015.32 928.896C1015.49 929.707 1015.9 930.304 1016.54 930.688C1017.22 931.029 1018.29 931.2 1019.74 931.2V933.056ZM1070.74 933.44H1067.67L1060.56 913.92L1059.67 912.128L1058.64 909.312C1058.13 907.904 1057.64 906.88 1057.17 906.24C1056.74 905.557 1056.23 905.131 1055.64 904.96C1055.04 904.747 1054.27 904.64 1053.33 904.64V902.784H1066.71V904.64C1065.51 904.64 1064.68 904.789 1064.21 905.088C1063.74 905.344 1063.51 905.728 1063.51 906.24C1063.51 906.624 1063.55 907.051 1063.64 907.52C1063.76 907.947 1063.91 908.395 1064.08 908.864L1069.27 922.88L1070.42 926.592H1070.8L1072.08 922.88L1077.14 908.544C1077.18 908.373 1077.25 908.096 1077.33 907.712C1077.46 907.285 1077.52 906.795 1077.52 906.24C1077.52 905.643 1077.22 905.237 1076.63 905.024C1076.03 904.768 1075.13 904.64 1073.94 904.64V902.784H1085.01V904.64C1083.77 904.64 1082.84 904.939 1082.2 905.536C1081.56 906.091 1080.92 907.2 1080.28 908.864L1070.74 933.44ZM1053.14 933.44H1050.2L1040.6 909.312C1040.04 907.989 1039.53 907.008 1039.06 906.368C1038.59 905.685 1038.06 905.237 1037.46 905.024C1036.86 904.768 1036.09 904.64 1035.16 904.64V902.784H1048.92V904.64C1047.64 904.64 1046.74 904.789 1046.23 905.088C1045.76 905.344 1045.52 905.728 1045.52 906.24C1045.52 906.667 1045.59 907.072 1045.72 907.456C1045.89 907.84 1046.06 908.267 1046.23 908.736L1051.8 922.88L1052.95 926.592H1053.4L1054.74 922.88L1059.6 910.592L1061.72 914.816H1060.63L1053.14 933.44ZM1100.63 933.056H1086.23V931.264C1087.68 931.264 1088.7 931.136 1089.3 930.88C1089.94 930.581 1090.32 930.091 1090.45 929.408C1090.62 928.725 1090.71 927.787 1090.71 926.592V908.736C1090.71 907.371 1090.47 906.539 1090 906.24C1089.54 905.899 1088.83 905.728 1087.89 905.728C1087.47 905.728 1087.08 905.749 1086.74 905.792C1086.44 905.835 1086.29 905.856 1086.29 905.856V904L1094.36 902.208H1096.02V926.592C1096.02 927.829 1096.11 928.789 1096.28 929.472C1096.45 930.155 1096.85 930.624 1097.49 930.88C1098.18 931.136 1099.22 931.264 1100.63 931.264V933.056ZM1093.46 897.216C1092.39 897.216 1091.52 896.853 1090.84 896.128C1090.15 895.403 1089.81 894.549 1089.81 893.568C1089.81 892.587 1090.13 891.755 1090.77 891.072C1091.46 890.347 1092.35 889.984 1093.46 889.984C1094.57 889.984 1095.44 890.347 1096.08 891.072C1096.77 891.755 1097.11 892.587 1097.11 893.568C1097.11 894.549 1096.77 895.403 1096.08 896.128C1095.44 896.853 1094.57 897.216 1093.46 897.216ZM1118.88 933.056H1104.35V931.2C1106.27 931.2 1107.49 930.944 1108 930.432C1108.55 929.877 1108.83 928.725 1108.83 926.976V894.976C1108.83 893.611 1108.66 892.736 1108.32 892.352C1108.02 891.925 1107.34 891.712 1106.27 891.712C1105.84 891.712 1105.37 891.733 1104.86 891.776C1104.35 891.819 1104.09 891.84 1104.09 891.84V890.112L1112.41 887.872H1114.14V916.096H1114.53L1122.78 907.904C1122.91 907.776 1123.12 907.541 1123.42 907.2C1123.76 906.816 1123.93 906.368 1123.93 905.856C1123.93 905.429 1123.72 905.131 1123.29 904.96C1122.87 904.789 1122.04 904.704 1120.8 904.704V902.784H1134.62V904.704C1133.6 904.704 1132.68 904.811 1131.87 905.024C1131.1 905.195 1130.31 905.557 1129.5 906.112C1128.69 906.624 1127.69 907.371 1126.49 908.352C1125.34 909.333 1123.87 910.613 1122.08 912.192L1118.88 914.816L1130.14 927.488C1131.17 928.64 1132 929.493 1132.64 930.048C1133.32 930.56 1133.98 930.88 1134.62 931.008C1135.26 931.136 1136.03 931.2 1136.93 931.2V933.056H1122.78V931.2C1123.72 931.2 1124.36 931.157 1124.7 931.072C1125.09 930.944 1125.28 930.731 1125.28 930.432C1125.28 930.133 1125.19 929.856 1125.02 929.6C1124.89 929.301 1124.75 929.067 1124.57 928.896L1114.53 917.504H1114.14V927.232C1114.14 928.853 1114.42 929.92 1114.97 930.432C1115.57 930.944 1116.87 931.2 1118.88 931.2V933.056ZM1153.57 933.056H1139.17V931.264C1140.62 931.264 1141.64 931.136 1142.24 930.88C1142.88 930.581 1143.26 930.091 1143.39 929.408C1143.56 928.725 1143.65 927.787 1143.65 926.592V908.736C1143.65 907.371 1143.41 906.539 1142.94 906.24C1142.47 905.899 1141.77 905.728 1140.83 905.728C1140.4 905.728 1140.02 905.749 1139.68 905.792C1139.38 905.835 1139.23 905.856 1139.23 905.856V904L1147.29 902.208H1148.96V926.592C1148.96 927.829 1149.04 928.789 1149.21 929.472C1149.39 930.155 1149.79 930.624 1150.43 930.88C1151.11 931.136 1152.16 931.264 1153.57 931.264V933.056ZM1146.4 897.216C1145.33 897.216 1144.46 896.853 1143.77 896.128C1143.09 895.403 1142.75 894.549 1142.75 893.568C1142.75 892.587 1143.07 891.755 1143.71 891.072C1144.39 890.347 1145.29 889.984 1146.4 889.984C1147.51 889.984 1148.38 890.347 1149.02 891.072C1149.71 891.755 1150.05 892.587 1150.05 893.568C1150.05 894.549 1149.71 895.403 1149.02 896.128C1148.38 896.853 1147.51 897.216 1146.4 897.216ZM1172.97 947.136H1156.78V945.344C1158.78 945.344 1160.06 945.003 1160.62 944.32C1161.17 943.68 1161.45 942.464 1161.45 940.672V908.992C1161.45 907.755 1161.3 906.901 1161 906.432C1160.74 905.963 1160.08 905.728 1159.02 905.728C1158.59 905.728 1158.14 905.749 1157.67 905.792C1157.2 905.835 1156.97 905.856 1156.97 905.856V904L1165.03 902.208H1166.63V907.584H1166.82C1168.36 905.792 1169.92 904.427 1171.5 903.488C1173.12 902.507 1174.87 902.016 1176.74 902.016C1178.88 902.016 1180.73 902.635 1182.31 903.872C1183.93 905.067 1185.19 906.752 1186.09 908.928C1187.03 911.061 1187.5 913.536 1187.5 916.352C1187.5 919.979 1186.86 923.093 1185.58 925.696C1184.34 928.256 1182.65 930.24 1180.52 931.648C1178.39 933.013 1176.04 933.696 1173.48 933.696C1172.29 933.696 1171.13 933.547 1170.02 933.248C1168.96 932.992 1167.96 932.544 1167.02 931.904H1166.76V940.288C1166.76 941.653 1166.93 942.699 1167.27 943.424C1167.61 944.149 1168.23 944.64 1169.13 944.896C1170.02 945.152 1171.3 945.28 1172.97 945.28V947.136ZM1173.8 931.2C1176.06 931.2 1177.94 930.133 1179.43 928C1180.93 925.867 1181.67 922.581 1181.67 918.144C1181.67 914.091 1181.01 911.125 1179.69 909.248C1178.37 907.328 1176.51 906.368 1174.12 906.368C1172.41 906.368 1170.9 906.816 1169.58 907.712C1168.3 908.608 1167.36 909.461 1166.76 910.272V926.976C1167.19 927.403 1167.72 927.957 1168.36 928.64C1169 929.323 1169.77 929.92 1170.66 930.432C1171.56 930.944 1172.61 931.2 1173.8 931.2ZM1205.55 933.696C1202.99 933.696 1200.67 933.099 1198.58 931.904C1196.53 930.667 1194.91 928.875 1193.71 926.528C1192.52 924.139 1191.92 921.237 1191.92 917.824C1191.92 914.24 1192.52 911.296 1193.71 908.992C1194.95 906.645 1196.59 904.896 1198.64 903.744C1200.69 902.592 1202.95 902.016 1205.42 902.016C1208.92 902.016 1211.74 903.232 1213.87 905.664C1216 908.096 1217.16 911.552 1217.33 916.032H1196.53L1196.46 913.664H1211.31C1211.27 912.085 1210.99 910.613 1210.48 909.248C1209.97 907.84 1209.22 906.709 1208.24 905.856C1207.26 905.003 1206 904.576 1204.46 904.576C1201.99 904.576 1200.13 905.557 1198.9 907.52C1197.66 909.44 1197.04 912.171 1197.04 915.712C1197.04 918.656 1197.51 921.109 1198.45 923.072C1199.39 925.035 1200.62 926.507 1202.16 927.488C1203.7 928.427 1205.34 928.896 1207.09 928.896C1208.84 928.896 1210.24 928.661 1211.31 928.192C1212.42 927.723 1213.36 927.125 1214.13 926.4C1214.9 925.632 1215.62 924.8 1216.3 923.904L1217.52 924.8C1216.96 925.995 1216.32 927.147 1215.6 928.256C1214.87 929.323 1214.04 930.261 1213.1 931.072C1212.21 931.883 1211.14 932.523 1209.9 932.992C1208.67 933.461 1207.22 933.696 1205.55 933.696ZM1232.49 933.568C1230.1 933.568 1228.07 932.928 1226.41 931.648C1224.79 930.368 1223.57 928.64 1222.76 926.464C1221.95 924.245 1221.54 921.771 1221.54 919.04C1221.54 915.499 1222.2 912.469 1223.53 909.952C1224.85 907.392 1226.62 905.429 1228.84 904.064C1231.1 902.699 1233.57 902.016 1236.26 902.016C1237.29 902.016 1238.29 902.144 1239.27 902.4C1240.29 902.656 1241.28 903.04 1242.21 903.552H1242.47V895.168C1242.47 893.76 1242.3 892.843 1241.96 892.416C1241.66 891.989 1240.89 891.776 1239.65 891.776C1239.36 891.776 1238.99 891.797 1238.57 891.84C1238.18 891.883 1237.99 891.904 1237.99 891.904V890.112L1246.05 887.872H1247.78V926.208C1247.78 927.872 1248.02 928.96 1248.49 929.472C1248.96 929.941 1249.79 930.176 1250.98 930.176H1252.33V931.904L1244.13 933.376H1242.66V928.96H1242.41C1241.21 930.027 1239.78 931.072 1238.12 932.096C1236.5 933.077 1234.62 933.568 1232.49 933.568ZM1235.49 928.96C1236.99 928.96 1238.25 928.768 1239.27 928.384C1240.29 927.957 1241.36 927.36 1242.47 926.592V909.696C1242.21 908.373 1241.6 907.2 1240.61 906.176C1239.63 905.109 1238.14 904.576 1236.13 904.576C1233.45 904.576 1231.27 905.557 1229.61 907.52C1227.94 909.483 1227.11 912.491 1227.11 916.544C1227.11 920.939 1227.81 924.117 1229.22 926.08C1230.67 928 1232.76 928.96 1235.49 928.96ZM1270.38 933.056H1255.98V931.264C1257.43 931.264 1258.45 931.136 1259.05 930.88C1259.69 930.581 1260.07 930.091 1260.2 929.408C1260.37 928.725 1260.46 927.787 1260.46 926.592V908.736C1260.46 907.371 1260.22 906.539 1259.75 906.24C1259.29 905.899 1258.58 905.728 1257.64 905.728C1257.22 905.728 1256.83 905.749 1256.49 905.792C1256.19 905.835 1256.04 905.856 1256.04 905.856V904L1264.11 902.208H1265.77V926.592C1265.77 927.829 1265.86 928.789 1266.03 929.472C1266.2 930.155 1266.6 930.624 1267.24 930.88C1267.93 931.136 1268.97 931.264 1270.38 931.264V933.056ZM1263.21 897.216C1262.14 897.216 1261.27 896.853 1260.59 896.128C1259.9 895.403 1259.56 894.549 1259.56 893.568C1259.56 892.587 1259.88 891.755 1260.52 891.072C1261.21 890.347 1262.1 889.984 1263.21 889.984C1264.32 889.984 1265.19 890.347 1265.83 891.072C1266.52 891.755 1266.86 892.587 1266.86 893.568C1266.86 894.549 1266.52 895.403 1265.83 896.128C1265.19 896.853 1264.32 897.216 1263.21 897.216ZM1282.23 933.504C1279.75 933.504 1277.86 932.821 1276.53 931.456C1275.25 930.091 1274.61 928.384 1274.61 926.336C1274.61 924.629 1275 923.2 1275.76 922.048C1276.58 920.853 1277.62 919.851 1278.9 919.04C1280.22 918.229 1281.63 917.547 1283.12 916.992C1284.66 916.437 1286.15 915.968 1287.6 915.584C1289.06 915.2 1290.34 914.837 1291.44 914.496V911.68C1291.44 908.907 1290.95 906.944 1289.97 905.792C1289.03 904.597 1287.6 904 1285.68 904C1283.85 904 1282.68 904.384 1282.16 905.152C1281.65 905.92 1281.4 907.264 1281.4 909.184C1281.4 910.165 1281.14 910.912 1280.63 911.424C1280.16 911.893 1279.48 912.128 1278.58 912.128C1277.94 912.128 1277.32 911.893 1276.72 911.424C1276.17 910.912 1275.89 910.123 1275.89 909.056C1275.89 907.861 1276.34 906.731 1277.24 905.664C1278.18 904.597 1279.48 903.723 1281.14 903.04C1282.85 902.357 1284.85 902.016 1287.16 902.016C1290.66 902.016 1293.13 902.827 1294.58 904.448C1296.03 906.069 1296.76 908.544 1296.76 911.872V926.4C1296.76 927.723 1296.91 928.576 1297.2 928.96C1297.5 929.344 1297.99 929.536 1298.68 929.536C1299.27 929.536 1299.81 929.387 1300.28 929.088C1300.79 928.789 1301.26 928.405 1301.68 927.936L1302.64 928.96C1301.58 930.496 1300.55 931.627 1299.57 932.352C1298.63 933.035 1297.35 933.376 1295.73 933.376C1294.24 933.376 1293.26 932.949 1292.79 932.096C1292.36 931.243 1292.04 930.027 1291.83 928.448L1291.44 927.68V916.608C1289.52 917.077 1287.71 917.632 1286 918.272C1284.3 918.912 1282.91 919.744 1281.84 920.768C1280.78 921.792 1280.24 923.136 1280.24 924.8C1280.24 926.379 1280.67 927.637 1281.52 928.576C1282.38 929.515 1283.49 929.984 1284.85 929.984C1285.96 929.984 1287.11 929.707 1288.31 929.152C1289.55 928.597 1290.74 927.808 1291.89 926.784L1292.4 929.088H1291.64C1290.66 929.941 1289.7 930.709 1288.76 931.392C1287.86 932.075 1286.88 932.608 1285.81 932.992C1284.79 933.333 1283.59 933.504 1282.23 933.504ZM1305.94 944.96L1304.91 943.168C1309.61 940.096 1312.91 936.341 1314.83 931.904C1316.75 927.424 1317.71 921.963 1317.71 915.52C1317.71 909.163 1316.75 903.765 1314.83 899.328C1312.91 894.891 1309.61 891.115 1304.91 888L1305.94 886.336C1311.1 888.939 1315.22 892.715 1318.29 897.664C1321.41 902.571 1322.96 908.523 1322.96 915.52C1322.96 922.56 1321.41 928.555 1318.29 933.504C1315.22 938.496 1311.1 942.315 1305.94 944.96Z" fill="black"/>
</g>
<defs>
<clipPath id="clip0_34_275">
<rect width="1000" height="574" fill="white" transform="translate(460.16 253.16)"/>
</clipPath>
</defs>
</svg>
