<svg width="1920" height="1080" viewBox="0 0 1920 1080" fill="none" xmlns="http://www.w3.org/2000/svg">
<g id="what">
<rect width="1920" height="1080" fill="white"/>
<path id="w?/?" d="M588.119 530.152H583.511L572.855 500.872L571.511 498.184L569.975 493.96C569.207 491.848 568.471 490.312 567.767 489.352C567.127 488.328 566.359 487.688 565.463 487.432C564.567 487.112 563.415 486.952 562.007 486.952V484.168H582.071V486.952C580.279 486.952 579.031 487.176 578.327 487.624C577.623 488.008 577.271 488.584 577.271 489.352C577.271 489.928 577.335 490.568 577.463 491.272C577.655 491.912 577.879 492.584 578.135 493.288L585.911 514.312L587.639 519.88H588.215L590.135 514.312L597.719 492.808C597.783 492.552 597.879 492.136 598.007 491.56C598.199 490.92 598.295 490.184 598.295 489.352C598.295 488.456 597.847 487.848 596.951 487.528C596.055 487.144 594.711 486.952 592.919 486.952V484.168H609.527V486.952C607.671 486.952 606.263 487.4 605.303 488.296C604.343 489.128 603.383 490.792 602.423 493.288L588.119 530.152ZM561.719 530.152H557.303L542.903 493.96C542.071 491.976 541.303 490.504 540.599 489.544C539.895 488.52 539.095 487.848 538.199 487.528C537.303 487.144 536.151 486.952 534.743 486.952V484.168H555.383V486.952C553.463 486.952 552.119 487.176 551.351 487.624C550.647 488.008 550.295 488.584 550.295 489.352C550.295 489.992 550.391 490.6 550.583 491.176C550.839 491.752 551.095 492.392 551.351 493.096L559.703 514.312L561.431 519.88H562.103L564.119 514.312L571.415 495.88L574.583 502.216H572.951L561.719 530.152ZM629.785 513.256H625.945V510.76C625.945 508.264 626.297 506.056 627.001 504.136C627.705 502.216 628.601 500.424 629.689 498.76C630.777 497.096 631.833 495.4 632.857 493.672C633.945 491.88 634.841 489.896 635.545 487.72C636.249 485.48 636.601 482.888 636.601 479.944C636.601 476.168 635.705 473.416 633.913 471.688C632.121 469.896 629.689 469 626.617 469C623.801 469 621.721 469.512 620.377 470.536C619.033 471.496 618.361 472.712 618.361 474.184C618.361 475.208 618.521 476.008 618.841 476.584C619.225 477.16 619.577 477.768 619.897 478.408C620.217 478.984 620.377 479.88 620.377 481.096C620.377 482.568 619.929 483.656 619.033 484.36C618.201 485 617.209 485.32 616.057 485.32C614.521 485.32 613.305 484.776 612.409 483.688C611.577 482.536 611.161 480.84 611.161 478.6C611.161 475.976 611.833 473.672 613.177 471.688C614.585 469.704 616.505 468.168 618.937 467.08C621.433 465.928 624.281 465.352 627.481 465.352C630.617 465.352 633.529 465.864 636.217 466.888C638.905 467.848 641.081 469.384 642.745 471.496C644.409 473.608 645.241 476.328 645.241 479.656C645.241 482.472 644.697 485.064 643.609 487.432C642.585 489.8 641.305 492.008 639.769 494.056C638.297 496.104 636.793 498.088 635.257 500.008C633.721 501.864 632.409 503.752 631.321 505.672C630.297 507.592 629.785 509.608 629.785 511.72V513.256ZM627.961 530.344C626.105 530.344 624.697 529.864 623.737 528.904C622.841 527.88 622.393 526.568 622.393 524.968C622.393 523.432 622.873 522.12 623.833 521.032C624.857 519.88 626.265 519.304 628.057 519.304C629.721 519.304 631.033 519.88 631.993 521.032C632.953 522.184 633.433 523.496 633.433 524.968C633.433 526.504 632.953 527.784 631.993 528.808C631.033 529.832 629.689 530.344 627.961 530.344ZM656.582 538.12H651.206L676.262 461.512H681.542L656.582 538.12ZM706.379 513.256H702.539V510.76C702.539 508.264 702.891 506.056 703.595 504.136C704.299 502.216 705.195 500.424 706.283 498.76C707.371 497.096 708.427 495.4 709.451 493.672C710.539 491.88 711.435 489.896 712.139 487.72C712.843 485.48 713.195 482.888 713.195 479.944C713.195 476.168 712.299 473.416 710.507 471.688C708.715 469.896 706.283 469 703.211 469C700.395 469 698.315 469.512 696.971 470.536C695.627 471.496 694.955 472.712 694.955 474.184C694.955 475.208 695.115 476.008 695.435 476.584C695.819 477.16 696.171 477.768 696.491 478.408C696.811 478.984 696.971 479.88 696.971 481.096C696.971 482.568 696.523 483.656 695.627 484.36C694.795 485 693.803 485.32 692.651 485.32C691.115 485.32 689.899 484.776 689.003 483.688C688.171 482.536 687.755 480.84 687.755 478.6C687.755 475.976 688.427 473.672 689.771 471.688C691.179 469.704 693.099 468.168 695.531 467.08C698.027 465.928 700.875 465.352 704.075 465.352C707.211 465.352 710.123 465.864 712.811 466.888C715.499 467.848 717.675 469.384 719.339 471.496C721.003 473.608 721.835 476.328 721.835 479.656C721.835 482.472 721.291 485.064 720.203 487.432C719.179 489.8 717.899 492.008 716.363 494.056C714.891 496.104 713.387 498.088 711.851 500.008C710.315 501.864 709.003 503.752 707.915 505.672C706.891 507.592 706.379 509.608 706.379 511.72V513.256ZM704.555 530.344C702.699 530.344 701.291 529.864 700.331 528.904C699.435 527.88 698.987 526.568 698.987 524.968C698.987 523.432 699.467 522.12 700.427 521.032C701.451 519.88 702.859 519.304 704.651 519.304C706.315 519.304 707.627 519.88 708.587 521.032C709.547 522.184 710.027 523.496 710.027 524.968C710.027 526.504 709.547 527.784 708.587 528.808C707.627 529.832 706.283 530.344 704.555 530.344Z" fill="black"/>
</g>
</svg>
