<svg width="1920" height="1080" viewBox="0 0 1920 1080" fill="none" xmlns="http://www.w3.org/2000/svg">
<g id="exists-qf-formula">
<rect width="1920" height="1080" fill="white"/>
<path id="conjunction of atomic formulas" d="M204.024 226.872L204.632 227.32C204.226 228.173 203.757 228.952 203.224 229.656C202.712 230.36 202.072 230.915 201.304 231.32C200.536 231.725 199.576 231.928 198.424 231.928C197.101 231.928 195.96 231.608 195 230.968C194.04 230.328 193.304 229.443 192.792 228.312C192.28 227.16 192.024 225.848 192.024 224.376C192.024 222.691 192.301 221.229 192.856 219.992C193.432 218.755 194.253 217.795 195.32 217.112C196.408 216.429 197.72 216.088 199.256 216.088C200.77 216.088 201.954 216.419 202.808 217.08C203.682 217.741 204.12 218.541 204.12 219.48C204.12 219.949 204.002 220.312 203.768 220.568C203.554 220.803 203.224 220.92 202.776 220.92C202.306 220.92 201.944 220.803 201.688 220.568C201.453 220.312 201.261 220.003 201.112 219.64C200.962 219.277 200.802 218.915 200.632 218.552C200.482 218.189 200.258 217.891 199.96 217.656C199.682 217.4 199.266 217.272 198.712 217.272C197.41 217.272 196.386 217.752 195.64 218.712C194.914 219.651 194.552 221.037 194.552 222.872C194.552 224.813 194.946 226.413 195.736 227.672C196.546 228.909 197.773 229.528 199.416 229.528C200.461 229.528 201.304 229.315 201.944 228.888C202.605 228.461 203.298 227.789 204.024 226.872ZM213.505 231.928C211.265 231.928 209.505 231.235 208.225 229.848C206.966 228.44 206.337 226.445 206.337 223.864C206.337 222.307 206.636 220.952 207.233 219.8C207.83 218.627 208.662 217.72 209.729 217.08C210.817 216.419 212.076 216.088 213.505 216.088C215.702 216.088 217.43 216.771 218.689 218.136C219.969 219.501 220.609 221.368 220.609 223.736C220.609 225.528 220.3 227.032 219.681 228.248C219.084 229.464 218.252 230.381 217.185 231C216.118 231.619 214.892 231.928 213.505 231.928ZM213.633 230.648C214.508 230.648 215.244 230.445 215.841 230.04C216.438 229.635 216.886 228.941 217.185 227.96C217.505 226.979 217.665 225.624 217.665 223.896C217.665 221.933 217.302 220.344 216.577 219.128C215.873 217.912 214.806 217.304 213.377 217.304C212.161 217.304 211.18 217.816 210.433 218.84C209.686 219.864 209.313 221.4 209.313 223.448C209.313 225.987 209.686 227.832 210.433 228.984C211.201 230.115 212.268 230.669 213.633 230.648ZM239.447 231.608H232.055V230.712C232.823 230.712 233.367 230.648 233.687 230.52C234.028 230.371 234.231 230.125 234.295 229.784C234.38 229.443 234.423 228.973 234.423 228.376V222.584C234.423 221.304 234.273 220.344 233.975 219.704C233.697 219.064 233.335 218.648 232.887 218.456C232.439 218.243 231.969 218.136 231.479 218.136C230.86 218.136 230.305 218.264 229.815 218.52C229.324 218.755 228.876 219.043 228.471 219.384C228.087 219.725 227.724 220.045 227.383 220.344L227.159 218.776H227.639C228.513 218.008 229.335 217.368 230.103 216.856C230.892 216.344 231.788 216.088 232.791 216.088C234.241 216.088 235.319 216.579 236.023 217.56C236.727 218.541 237.079 219.949 237.079 221.784V228.376C237.079 228.973 237.121 229.443 237.207 229.784C237.313 230.125 237.537 230.371 237.879 230.52C238.22 230.648 238.743 230.712 239.447 230.712V231.608ZM230.039 231.608H222.711V230.712C223.436 230.712 223.948 230.648 224.247 230.52C224.567 230.371 224.759 230.125 224.823 229.784C224.908 229.443 224.951 228.973 224.951 228.376V219.384C224.951 218.808 224.833 218.435 224.599 218.264C224.364 218.072 224.033 217.976 223.607 217.976C223.329 217.976 223.116 217.987 222.967 218.008C222.817 218.029 222.743 218.04 222.743 218.04V217.112L226.807 216.184H227.543L227.511 219.128L227.607 219.8V228.376C227.607 228.973 227.649 229.443 227.735 229.784C227.82 230.125 228.033 230.371 228.375 230.52C228.716 230.648 229.271 230.712 230.039 230.712V231.608ZM240.476 239.128C239.431 239.128 238.609 238.915 238.012 238.488C237.393 238.083 237.084 237.528 237.084 236.824C237.084 236.419 237.212 236.088 237.468 235.832C237.724 235.597 238.065 235.48 238.492 235.48C238.876 235.48 239.196 235.587 239.452 235.8C239.687 236.035 239.9 236.301 240.092 236.6C240.284 236.899 240.497 237.155 240.732 237.368C240.967 237.603 241.265 237.72 241.628 237.72C242.417 237.72 242.897 237.293 243.068 236.44C243.239 235.608 243.324 234.339 243.324 232.632V219.672C243.324 218.968 243.228 218.509 243.036 218.296C242.865 218.061 242.492 217.944 241.916 217.944C241.66 217.944 241.436 217.965 241.244 218.008C241.052 218.029 240.956 218.04 240.956 218.04V217.08L245.116 216.184H245.98V231.672C245.98 233.357 245.777 234.744 245.372 235.832C244.988 236.941 244.391 237.763 243.58 238.296C242.769 238.851 241.735 239.128 240.476 239.128ZM244.572 213.688C244.039 213.688 243.591 213.507 243.228 213.144C242.887 212.781 242.716 212.355 242.716 211.864C242.716 211.373 242.876 210.957 243.196 210.616C243.537 210.253 243.996 210.072 244.572 210.072C245.127 210.072 245.575 210.253 245.916 210.616C246.279 210.957 246.46 211.373 246.46 211.864C246.46 212.355 246.279 212.781 245.916 213.144C245.575 213.507 245.127 213.688 244.572 213.688ZM255.634 231.928C254.312 231.928 253.277 231.501 252.53 230.648C251.805 229.773 251.442 228.248 251.442 226.072V219.576C251.442 219 251.378 218.584 251.25 218.328C251.144 218.051 250.93 217.88 250.61 217.816C250.29 217.731 249.842 217.688 249.266 217.688V216.792L253.394 216.312H254.098V225.656C254.098 226.744 254.216 227.597 254.45 228.216C254.706 228.813 255.048 229.24 255.474 229.496C255.922 229.752 256.424 229.88 256.978 229.88C257.789 229.88 258.482 229.699 259.058 229.336C259.656 228.973 260.274 228.515 260.914 227.96V219.544C260.914 218.968 260.84 218.552 260.69 218.296C260.541 218.04 260.274 217.88 259.89 217.816C259.528 217.731 259.005 217.688 258.322 217.688V216.792L262.802 216.312H263.57V228.056C263.57 228.995 263.698 229.581 263.954 229.816C264.21 230.051 264.722 230.168 265.49 230.168H265.81V231.032L261.746 231.768H261.042V229.304H260.882C260.328 229.859 259.773 230.339 259.218 230.744C258.685 231.128 258.12 231.416 257.522 231.608C256.946 231.821 256.317 231.928 255.634 231.928ZM284.54 231.608H277.148V230.712C277.916 230.712 278.46 230.648 278.78 230.52C279.122 230.371 279.324 230.125 279.388 229.784C279.474 229.443 279.516 228.973 279.516 228.376V222.584C279.516 221.304 279.367 220.344 279.068 219.704C278.791 219.064 278.428 218.648 277.98 218.456C277.532 218.243 277.063 218.136 276.572 218.136C275.954 218.136 275.399 218.264 274.908 218.52C274.418 218.755 273.97 219.043 273.564 219.384C273.18 219.725 272.818 220.045 272.476 220.344L272.252 218.776H272.732C273.607 218.008 274.428 217.368 275.196 216.856C275.986 216.344 276.882 216.088 277.884 216.088C279.335 216.088 280.412 216.579 281.116 217.56C281.82 218.541 282.172 219.949 282.172 221.784V228.376C282.172 228.973 282.215 229.443 282.3 229.784C282.407 230.125 282.631 230.371 282.972 230.52C283.314 230.648 283.836 230.712 284.54 230.712V231.608ZM275.132 231.608H267.804V230.712C268.53 230.712 269.042 230.648 269.34 230.52C269.66 230.371 269.852 230.125 269.916 229.784C270.002 229.443 270.044 228.973 270.044 228.376V219.384C270.044 218.808 269.927 218.435 269.692 218.264C269.458 218.072 269.127 217.976 268.7 217.976C268.423 217.976 268.21 217.987 268.06 218.008C267.911 218.029 267.836 218.04 267.836 218.04V217.112L271.9 216.184H272.636L272.604 219.128L272.7 219.8V228.376C272.7 228.973 272.743 229.443 272.828 229.784C272.914 230.125 273.127 230.371 273.468 230.52C273.81 230.648 274.364 230.712 275.132 230.712V231.608ZM298.274 226.872L298.882 227.32C298.476 228.173 298.007 228.952 297.474 229.656C296.962 230.36 296.322 230.915 295.554 231.32C294.786 231.725 293.826 231.928 292.674 231.928C291.351 231.928 290.21 231.608 289.25 230.968C288.29 230.328 287.554 229.443 287.042 228.312C286.53 227.16 286.274 225.848 286.274 224.376C286.274 222.691 286.551 221.229 287.106 219.992C287.682 218.755 288.503 217.795 289.57 217.112C290.658 216.429 291.97 216.088 293.506 216.088C295.02 216.088 296.204 216.419 297.058 217.08C297.932 217.741 298.37 218.541 298.37 219.48C298.37 219.949 298.252 220.312 298.018 220.568C297.804 220.803 297.474 220.92 297.026 220.92C296.556 220.92 296.194 220.803 295.938 220.568C295.703 220.312 295.511 220.003 295.362 219.64C295.212 219.277 295.052 218.915 294.882 218.552C294.732 218.189 294.508 217.891 294.21 217.656C293.932 217.4 293.516 217.272 292.962 217.272C291.66 217.272 290.636 217.752 289.89 218.712C289.164 219.651 288.802 221.037 288.802 222.872C288.802 224.813 289.196 226.413 289.986 227.672C290.796 228.909 292.023 229.528 293.666 229.528C294.711 229.528 295.554 229.315 296.194 228.888C296.855 228.461 297.548 227.789 298.274 226.872ZM308.875 228.728L309.483 229.24C309.078 229.816 308.694 230.307 308.331 230.712C307.99 231.096 307.606 231.395 307.179 231.608C306.752 231.821 306.198 231.928 305.515 231.928C304.448 231.928 303.67 231.619 303.179 231C302.688 230.36 302.443 229.325 302.443 227.896V217.976H300.683V217.24C301.43 216.771 302.07 216.141 302.603 215.352C303.158 214.541 303.723 213.453 304.299 212.088H305.099V216.632H308.715V217.976H305.099V227C305.099 228.131 305.195 228.92 305.387 229.368C305.6 229.816 306.016 230.04 306.635 230.04C307.147 230.04 307.542 229.933 307.819 229.72C308.118 229.507 308.47 229.176 308.875 228.728ZM317.817 231.608H310.617V230.712C311.342 230.712 311.854 230.648 312.153 230.52C312.473 230.371 312.665 230.125 312.729 229.784C312.814 229.443 312.857 228.973 312.857 228.376V219.448C312.857 218.765 312.739 218.349 312.505 218.2C312.27 218.029 311.918 217.944 311.449 217.944C311.235 217.944 311.043 217.955 310.873 217.976C310.723 217.997 310.649 218.008 310.649 218.008V217.08L314.681 216.184H315.513V228.376C315.513 228.995 315.555 229.475 315.641 229.816C315.726 230.157 315.929 230.392 316.249 230.52C316.59 230.648 317.113 230.712 317.817 230.712V231.608ZM314.233 213.688C313.699 213.688 313.262 213.507 312.921 213.144C312.579 212.781 312.409 212.355 312.409 211.864C312.409 211.373 312.569 210.957 312.889 210.616C313.23 210.253 313.678 210.072 314.233 210.072C314.787 210.072 315.225 210.253 315.545 210.616C315.886 210.957 316.057 211.373 316.057 211.864C316.057 212.355 315.886 212.781 315.545 213.144C315.225 213.507 314.787 213.688 314.233 213.688ZM326.974 231.928C324.734 231.928 322.974 231.235 321.694 229.848C320.435 228.44 319.806 226.445 319.806 223.864C319.806 222.307 320.104 220.952 320.702 219.8C321.299 218.627 322.131 217.72 323.198 217.08C324.286 216.419 325.544 216.088 326.974 216.088C329.171 216.088 330.899 216.771 332.158 218.136C333.438 219.501 334.078 221.368 334.078 223.736C334.078 225.528 333.768 227.032 333.15 228.248C332.552 229.464 331.72 230.381 330.654 231C329.587 231.619 328.36 231.928 326.974 231.928ZM327.102 230.648C327.976 230.648 328.712 230.445 329.31 230.04C329.907 229.635 330.355 228.941 330.654 227.96C330.974 226.979 331.134 225.624 331.134 223.896C331.134 221.933 330.771 220.344 330.046 219.128C329.342 217.912 328.275 217.304 326.846 217.304C325.63 217.304 324.648 217.816 323.902 218.84C323.155 219.864 322.782 221.4 322.782 223.448C322.782 225.987 323.155 227.832 323.902 228.984C324.67 230.115 325.736 230.669 327.102 230.648ZM352.915 231.608H345.523V230.712C346.291 230.712 346.835 230.648 347.155 230.52C347.497 230.371 347.699 230.125 347.763 229.784C347.849 229.443 347.891 228.973 347.891 228.376V222.584C347.891 221.304 347.742 220.344 347.443 219.704C347.166 219.064 346.803 218.648 346.355 218.456C345.907 218.243 345.438 218.136 344.947 218.136C344.329 218.136 343.774 218.264 343.283 218.52C342.793 218.755 342.345 219.043 341.939 219.384C341.555 219.725 341.193 220.045 340.851 220.344L340.627 218.776H341.107C341.982 218.008 342.803 217.368 343.571 216.856C344.361 216.344 345.257 216.088 346.259 216.088C347.71 216.088 348.787 216.579 349.491 217.56C350.195 218.541 350.547 219.949 350.547 221.784V228.376C350.547 228.973 350.59 229.443 350.675 229.784C350.782 230.125 351.006 230.371 351.347 230.52C351.689 230.648 352.211 230.712 352.915 230.712V231.608ZM343.507 231.608H336.179V230.712C336.905 230.712 337.417 230.648 337.715 230.52C338.035 230.371 338.227 230.125 338.291 229.784C338.377 229.443 338.419 228.973 338.419 228.376V219.384C338.419 218.808 338.302 218.435 338.067 218.264C337.833 218.072 337.502 217.976 337.075 217.976C336.798 217.976 336.585 217.987 336.435 218.008C336.286 218.029 336.211 218.04 336.211 218.04V217.112L340.275 216.184H341.011L340.979 219.128L341.075 219.8V228.376C341.075 228.973 341.118 229.443 341.203 229.784C341.289 230.125 341.502 230.371 341.843 230.52C342.185 230.648 342.739 230.712 343.507 230.712V231.608ZM369.38 231.928C367.14 231.928 365.38 231.235 364.1 229.848C362.841 228.44 362.212 226.445 362.212 223.864C362.212 222.307 362.511 220.952 363.108 219.8C363.705 218.627 364.537 217.72 365.604 217.08C366.692 216.419 367.951 216.088 369.38 216.088C371.577 216.088 373.305 216.771 374.564 218.136C375.844 219.501 376.484 221.368 376.484 223.736C376.484 225.528 376.175 227.032 375.556 228.248C374.959 229.464 374.127 230.381 373.06 231C371.993 231.619 370.767 231.928 369.38 231.928ZM369.508 230.648C370.383 230.648 371.119 230.445 371.716 230.04C372.313 229.635 372.761 228.941 373.06 227.96C373.38 226.979 373.54 225.624 373.54 223.896C373.54 221.933 373.177 220.344 372.452 219.128C371.748 217.912 370.681 217.304 369.252 217.304C368.036 217.304 367.055 217.816 366.308 218.84C365.561 219.864 365.188 221.4 365.188 223.448C365.188 225.987 365.561 227.832 366.308 228.984C367.076 230.115 368.143 230.669 369.508 230.648ZM386.746 231.608H378.138V230.68C378.927 230.68 379.503 230.616 379.866 230.488C380.25 230.339 380.506 230.061 380.634 229.656C380.762 229.251 380.826 228.632 380.826 227.8V217.624C380.826 216.408 380.847 215.416 380.89 214.648C380.954 213.859 381.06 213.197 381.21 212.664C381.359 212.131 381.572 211.619 381.85 211.128C382.276 210.381 382.81 209.805 383.45 209.4C384.111 208.995 384.996 208.792 386.106 208.792C386.81 208.792 387.428 208.877 387.962 209.048C388.495 209.219 388.911 209.475 389.21 209.816C389.53 210.136 389.69 210.541 389.69 211.032C389.69 211.501 389.562 211.853 389.306 212.088C389.05 212.301 388.74 212.408 388.378 212.408C387.972 212.408 387.642 212.28 387.386 212.024C387.13 211.747 386.884 211.459 386.65 211.16C386.436 210.861 386.202 210.595 385.946 210.36C385.711 210.104 385.402 209.976 385.018 209.976C384.42 209.976 384.015 210.253 383.802 210.808C383.588 211.341 383.482 212.28 383.482 213.624V227.8C383.482 228.632 383.567 229.251 383.738 229.656C383.908 230.061 384.228 230.339 384.698 230.488C385.167 230.616 385.85 230.68 386.746 230.68V231.608ZM387.386 217.976H378.394V216.632H387.386V217.976ZM401.523 231.832C400.286 231.832 399.336 231.491 398.675 230.808C398.035 230.125 397.715 229.272 397.715 228.248C397.715 227.395 397.907 226.68 398.291 226.104C398.696 225.507 399.219 225.005 399.859 224.6C400.52 224.195 401.224 223.853 401.971 223.576C402.739 223.299 403.486 223.064 404.211 222.872C404.936 222.68 405.576 222.499 406.131 222.328V220.92C406.131 219.533 405.886 218.552 405.395 217.976C404.926 217.379 404.211 217.08 403.251 217.08C402.334 217.08 401.747 217.272 401.491 217.656C401.235 218.04 401.107 218.712 401.107 219.672C401.107 220.163 400.979 220.536 400.723 220.792C400.488 221.027 400.147 221.144 399.699 221.144C399.379 221.144 399.07 221.027 398.771 220.792C398.494 220.536 398.355 220.141 398.355 219.608C398.355 219.011 398.579 218.445 399.027 217.912C399.496 217.379 400.147 216.941 400.979 216.6C401.832 216.259 402.835 216.088 403.987 216.088C405.736 216.088 406.974 216.493 407.699 217.304C408.424 218.115 408.787 219.352 408.787 221.016V228.28C408.787 228.941 408.862 229.368 409.011 229.56C409.16 229.752 409.406 229.848 409.747 229.848C410.046 229.848 410.312 229.773 410.547 229.624C410.803 229.475 411.038 229.283 411.251 229.048L411.731 229.56C411.198 230.328 410.686 230.893 410.195 231.256C409.726 231.597 409.086 231.768 408.275 231.768C407.528 231.768 407.038 231.555 406.803 231.128C406.59 230.701 406.43 230.093 406.323 229.304L406.131 228.92V223.384C405.171 223.619 404.264 223.896 403.411 224.216C402.558 224.536 401.864 224.952 401.331 225.464C400.798 225.976 400.531 226.648 400.531 227.48C400.531 228.269 400.744 228.899 401.171 229.368C401.598 229.837 402.152 230.072 402.835 230.072C403.39 230.072 403.966 229.933 404.563 229.656C405.182 229.379 405.779 228.984 406.355 228.472L406.611 229.624H406.227C405.736 230.051 405.256 230.435 404.787 230.776C404.339 231.117 403.848 231.384 403.315 231.576C402.803 231.747 402.206 231.832 401.523 231.832ZM421.25 228.728L421.858 229.24C421.453 229.816 421.069 230.307 420.706 230.712C420.365 231.096 419.981 231.395 419.554 231.608C419.127 231.821 418.573 231.928 417.89 231.928C416.823 231.928 416.045 231.619 415.554 231C415.063 230.36 414.818 229.325 414.818 227.896V217.976H413.058V217.24C413.805 216.771 414.445 216.141 414.978 215.352C415.533 214.541 416.098 213.453 416.674 212.088H417.474V216.632H421.09V217.976H417.474V227C417.474 228.131 417.57 228.92 417.762 229.368C417.975 229.816 418.391 230.04 419.01 230.04C419.522 230.04 419.917 229.933 420.194 229.72C420.493 229.507 420.845 229.176 421.25 228.728ZM430.068 231.928C427.828 231.928 426.068 231.235 424.788 229.848C423.529 228.44 422.9 226.445 422.9 223.864C422.9 222.307 423.198 220.952 423.796 219.8C424.393 218.627 425.225 217.72 426.292 217.08C427.38 216.419 428.638 216.088 430.068 216.088C432.265 216.088 433.993 216.771 435.252 218.136C436.532 219.501 437.172 221.368 437.172 223.736C437.172 225.528 436.862 227.032 436.244 228.248C435.646 229.464 434.814 230.381 433.748 231C432.681 231.619 431.454 231.928 430.068 231.928ZM430.196 230.648C431.07 230.648 431.806 230.445 432.404 230.04C433.001 229.635 433.449 228.941 433.748 227.96C434.068 226.979 434.228 225.624 434.228 223.896C434.228 221.933 433.865 220.344 433.14 219.128C432.436 217.912 431.369 217.304 429.94 217.304C428.724 217.304 427.742 217.816 426.996 218.84C426.249 219.864 425.876 221.4 425.876 223.448C425.876 225.987 426.249 227.832 426.996 228.984C427.764 230.115 428.83 230.669 430.196 230.648ZM455.849 231.608H448.265V230.68C449.033 230.68 449.588 230.605 449.929 230.456C450.27 230.307 450.484 230.029 450.569 229.624C450.676 229.219 450.729 228.643 450.729 227.896V221.56C450.729 220.195 450.484 219.288 449.993 218.84C449.524 218.371 448.916 218.136 448.169 218.136C447.572 218.136 447.006 218.264 446.473 218.52C445.961 218.776 445.492 219.075 445.065 219.416C444.638 219.757 444.276 220.077 443.977 220.376L443.721 218.776H444.201C445.076 218.029 445.918 217.4 446.729 216.888C447.54 216.355 448.489 216.088 449.577 216.088C450.537 216.088 451.305 216.365 451.881 216.92C452.478 217.475 452.926 218.168 453.225 219C453.268 219.064 453.3 219.139 453.321 219.224C453.342 219.288 453.364 219.363 453.385 219.448V227.896C453.385 228.621 453.428 229.187 453.513 229.592C453.62 229.997 453.844 230.285 454.185 230.456C454.526 230.605 455.081 230.68 455.849 230.68V231.608ZM446.569 231.608H439.273V230.68C439.956 230.68 440.446 230.627 440.745 230.52C441.065 230.392 441.268 230.168 441.353 229.848C441.46 229.507 441.513 229.016 441.513 228.376V219.416C441.513 218.84 441.396 218.456 441.161 218.264C440.948 218.072 440.617 217.976 440.169 217.976C439.934 217.976 439.732 217.987 439.561 218.008C439.39 218.029 439.305 218.04 439.305 218.04V217.112L443.305 216.184H444.073V219.128L444.169 219.832V228.504C444.169 229.101 444.233 229.56 444.361 229.88C444.489 230.179 444.724 230.392 445.065 230.52C445.406 230.627 445.908 230.68 446.569 230.68V231.608ZM464.777 231.608H457.545V230.68C458.27 230.68 458.793 230.584 459.113 230.392C459.433 230.2 459.625 229.901 459.689 229.496C459.774 229.069 459.817 228.536 459.817 227.896V221.752C459.817 220.771 459.689 220.024 459.433 219.512C459.198 219 458.868 218.648 458.441 218.456C458.036 218.243 457.577 218.136 457.065 218.136C456.361 218.136 455.668 218.392 454.985 218.904C454.302 219.395 453.684 219.875 453.129 220.344L452.777 218.744H453.257C454.132 217.869 454.985 217.208 455.817 216.76C456.649 216.312 457.492 216.088 458.345 216.088C459.604 216.088 460.606 216.483 461.353 217.272C462.1 218.061 462.473 219.427 462.473 221.368V227.896C462.473 228.557 462.505 229.101 462.569 229.528C462.654 229.933 462.857 230.232 463.177 230.424C463.518 230.595 464.052 230.68 464.777 230.68V231.608ZM473.723 231.608H466.523V230.712C467.248 230.712 467.76 230.648 468.059 230.52C468.379 230.371 468.571 230.125 468.635 229.784C468.72 229.443 468.763 228.973 468.763 228.376V219.448C468.763 218.765 468.646 218.349 468.411 218.2C468.176 218.029 467.824 217.944 467.355 217.944C467.142 217.944 466.95 217.955 466.779 217.976C466.63 217.997 466.555 218.008 466.555 218.008V217.08L470.587 216.184H471.419V228.376C471.419 228.995 471.462 229.475 471.547 229.816C471.632 230.157 471.835 230.392 472.155 230.52C472.496 230.648 473.019 230.712 473.723 230.712V231.608ZM470.139 213.688C469.606 213.688 469.168 213.507 468.827 213.144C468.486 212.781 468.315 212.355 468.315 211.864C468.315 211.373 468.475 210.957 468.795 210.616C469.136 210.253 469.584 210.072 470.139 210.072C470.694 210.072 471.131 210.253 471.451 210.616C471.792 210.957 471.963 211.373 471.963 211.864C471.963 212.355 471.792 212.781 471.451 213.144C471.131 213.507 470.694 213.688 470.139 213.688ZM487.68 226.872L488.288 227.32C487.883 228.173 487.413 228.952 486.88 229.656C486.368 230.36 485.728 230.915 484.96 231.32C484.192 231.725 483.232 231.928 482.08 231.928C480.757 231.928 479.616 231.608 478.656 230.968C477.696 230.328 476.96 229.443 476.448 228.312C475.936 227.16 475.68 225.848 475.68 224.376C475.68 222.691 475.957 221.229 476.512 219.992C477.088 218.755 477.909 217.795 478.976 217.112C480.064 216.429 481.376 216.088 482.912 216.088C484.427 216.088 485.611 216.419 486.464 217.08C487.339 217.741 487.776 218.541 487.776 219.48C487.776 219.949 487.659 220.312 487.424 220.568C487.211 220.803 486.88 220.92 486.432 220.92C485.963 220.92 485.6 220.803 485.344 220.568C485.109 220.312 484.917 220.003 484.768 219.64C484.619 219.277 484.459 218.915 484.288 218.552C484.139 218.189 483.915 217.891 483.616 217.656C483.339 217.4 482.923 217.272 482.368 217.272C481.067 217.272 480.043 217.752 479.296 218.712C478.571 219.651 478.208 221.037 478.208 222.872C478.208 224.813 478.603 226.413 479.392 227.672C480.203 228.909 481.429 229.528 483.072 229.528C484.117 229.528 484.96 229.315 485.6 228.888C486.261 228.461 486.955 227.789 487.68 226.872ZM505.621 231.608H497.013V230.68C497.802 230.68 498.378 230.616 498.741 230.488C499.125 230.339 499.381 230.061 499.509 229.656C499.637 229.251 499.701 228.632 499.701 227.8V217.624C499.701 216.408 499.722 215.416 499.765 214.648C499.829 213.859 499.935 213.197 500.085 212.664C500.234 212.131 500.447 211.619 500.725 211.128C501.151 210.381 501.685 209.805 502.325 209.4C502.986 208.995 503.871 208.792 504.981 208.792C505.685 208.792 506.303 208.877 506.837 209.048C507.37 209.219 507.786 209.475 508.085 209.816C508.405 210.136 508.565 210.541 508.565 211.032C508.565 211.501 508.437 211.853 508.181 212.088C507.925 212.301 507.615 212.408 507.253 212.408C506.847 212.408 506.517 212.28 506.261 212.024C506.005 211.747 505.759 211.459 505.525 211.16C505.311 210.861 505.077 210.595 504.821 210.36C504.586 210.104 504.277 209.976 503.893 209.976C503.295 209.976 502.89 210.253 502.677 210.808C502.463 211.341 502.357 212.28 502.357 213.624V227.8C502.357 228.632 502.442 229.251 502.613 229.656C502.783 230.061 503.103 230.339 503.573 230.488C504.042 230.616 504.725 230.68 505.621 230.68V231.608ZM506.261 217.976H497.269V216.632H506.261V217.976ZM514.505 231.928C512.265 231.928 510.505 231.235 509.225 229.848C507.966 228.44 507.337 226.445 507.337 223.864C507.337 222.307 507.636 220.952 508.233 219.8C508.83 218.627 509.662 217.72 510.729 217.08C511.817 216.419 513.076 216.088 514.505 216.088C516.702 216.088 518.43 216.771 519.689 218.136C520.969 219.501 521.609 221.368 521.609 223.736C521.609 225.528 521.3 227.032 520.681 228.248C520.084 229.464 519.252 230.381 518.185 231C517.118 231.619 515.892 231.928 514.505 231.928ZM514.633 230.648C515.508 230.648 516.244 230.445 516.841 230.04C517.438 229.635 517.886 228.941 518.185 227.96C518.505 226.979 518.665 225.624 518.665 223.896C518.665 221.933 518.302 220.344 517.577 219.128C516.873 217.912 515.806 217.304 514.377 217.304C513.161 217.304 512.18 217.816 511.433 218.84C510.686 219.864 510.313 221.4 510.313 223.448C510.313 225.987 510.686 227.832 511.433 228.984C512.201 230.115 513.268 230.669 514.633 230.648ZM531.615 231.608H523.615V230.68C524.319 230.68 524.831 230.627 525.151 230.52C525.492 230.392 525.705 230.179 525.791 229.88C525.897 229.56 525.951 229.101 525.951 228.504V219.704C525.951 219.128 525.897 218.701 525.791 218.424C525.705 218.125 525.375 217.976 524.799 217.976C524.479 217.976 524.233 217.987 524.063 218.008C523.892 218.029 523.807 218.04 523.807 218.04V217.144L527.775 216.184H528.543V219.48H528.639C529.193 218.691 529.684 218.04 530.111 217.528C530.537 217.016 530.953 216.632 531.359 216.376C531.785 216.12 532.255 215.992 532.767 215.992C533.385 215.992 533.844 216.152 534.143 216.472C534.463 216.792 534.623 217.229 534.623 217.784C534.623 218.381 534.473 218.819 534.175 219.096C533.897 219.373 533.577 219.512 533.215 219.512C532.873 219.512 532.564 219.427 532.287 219.256C532.031 219.064 531.807 218.883 531.615 218.712C531.423 218.52 531.263 218.424 531.135 218.424C530.772 218.424 530.356 218.701 529.887 219.256C529.417 219.811 528.991 220.408 528.607 221.048V228.344C528.607 229.005 528.692 229.507 528.863 229.848C529.033 230.189 529.332 230.413 529.759 230.52C530.207 230.627 530.825 230.68 531.615 230.68V231.608ZM552.443 231.608H544.859V230.68C545.627 230.68 546.181 230.605 546.523 230.456C546.864 230.307 547.077 230.029 547.163 229.624C547.269 229.219 547.323 228.643 547.323 227.896V221.56C547.323 220.195 547.077 219.288 546.587 218.84C546.117 218.371 545.509 218.136 544.763 218.136C544.165 218.136 543.6 218.264 543.067 218.52C542.555 218.776 542.085 219.075 541.659 219.416C541.232 219.757 540.869 220.077 540.571 220.376L540.315 218.776H540.795C541.669 218.029 542.512 217.4 543.323 216.888C544.133 216.355 545.083 216.088 546.171 216.088C547.131 216.088 547.899 216.365 548.475 216.92C549.072 217.475 549.52 218.168 549.819 219C549.861 219.064 549.893 219.139 549.915 219.224C549.936 219.288 549.957 219.363 549.979 219.448V227.896C549.979 228.621 550.021 229.187 550.107 229.592C550.213 229.997 550.437 230.285 550.779 230.456C551.12 230.605 551.675 230.68 552.443 230.68V231.608ZM543.163 231.608H535.867V230.68C536.549 230.68 537.04 230.627 537.339 230.52C537.659 230.392 537.861 230.168 537.947 229.848C538.053 229.507 538.107 229.016 538.107 228.376V219.416C538.107 218.84 537.989 218.456 537.755 218.264C537.541 218.072 537.211 217.976 536.763 217.976C536.528 217.976 536.325 217.987 536.155 218.008C535.984 218.029 535.899 218.04 535.899 218.04V217.112L539.899 216.184H540.667V219.128L540.763 219.832V228.504C540.763 229.101 540.827 229.56 540.955 229.88C541.083 230.179 541.317 230.392 541.659 230.52C542 230.627 542.501 230.68 543.163 230.68V231.608ZM561.371 231.608H554.139V230.68C554.864 230.68 555.387 230.584 555.707 230.392C556.027 230.2 556.219 229.901 556.283 229.496C556.368 229.069 556.411 228.536 556.411 227.896V221.752C556.411 220.771 556.283 220.024 556.027 219.512C555.792 219 555.461 218.648 555.035 218.456C554.629 218.243 554.171 218.136 553.659 218.136C552.955 218.136 552.261 218.392 551.579 218.904C550.896 219.395 550.277 219.875 549.723 220.344L549.371 218.744H549.851C550.725 217.869 551.579 217.208 552.411 216.76C553.243 216.312 554.085 216.088 554.939 216.088C556.197 216.088 557.2 216.483 557.947 217.272C558.693 218.061 559.067 219.427 559.067 221.368V227.896C559.067 228.557 559.099 229.101 559.163 229.528C559.248 229.933 559.451 230.232 559.771 230.424C560.112 230.595 560.645 230.68 561.371 230.68V231.608ZM569.197 231.928C567.874 231.928 566.839 231.501 566.093 230.648C565.367 229.773 565.005 228.248 565.005 226.072V219.576C565.005 219 564.941 218.584 564.813 218.328C564.706 218.051 564.493 217.88 564.173 217.816C563.853 217.731 563.405 217.688 562.829 217.688V216.792L566.957 216.312H567.661V225.656C567.661 226.744 567.778 227.597 568.013 228.216C568.269 228.813 568.61 229.24 569.037 229.496C569.485 229.752 569.986 229.88 570.541 229.88C571.351 229.88 572.045 229.699 572.621 229.336C573.218 228.973 573.837 228.515 574.477 227.96V219.544C574.477 218.968 574.402 218.552 574.253 218.296C574.103 218.04 573.837 217.88 573.453 217.816C573.09 217.731 572.567 217.688 571.885 217.688V216.792L576.365 216.312H577.133V228.056C577.133 228.995 577.261 229.581 577.517 229.816C577.773 230.051 578.285 230.168 579.053 230.168H579.373V231.032L575.309 231.768H574.605V229.304H574.445C573.89 229.859 573.335 230.339 572.781 230.744C572.247 231.128 571.682 231.416 571.085 231.608C570.509 231.821 569.879 231.928 569.197 231.928ZM588.663 231.608H581.303V230.68C582.007 230.68 582.519 230.616 582.839 230.488C583.159 230.339 583.351 230.104 583.415 229.784C583.5 229.443 583.543 228.973 583.543 228.376V212.312C583.543 211.651 583.415 211.256 583.159 211.128C582.924 211 582.604 210.936 582.199 210.936C581.921 210.936 581.676 210.947 581.463 210.968C581.271 210.989 581.175 211 581.175 211V210.136L585.399 209.016H586.199V228.376C586.199 228.995 586.241 229.475 586.327 229.816C586.433 230.136 586.657 230.36 586.999 230.488C587.34 230.616 587.895 230.68 588.663 230.68V231.608ZM594.429 231.832C593.192 231.832 592.243 231.491 591.581 230.808C590.941 230.125 590.621 229.272 590.621 228.248C590.621 227.395 590.813 226.68 591.197 226.104C591.603 225.507 592.125 225.005 592.765 224.6C593.427 224.195 594.131 223.853 594.877 223.576C595.645 223.299 596.392 223.064 597.117 222.872C597.843 222.68 598.483 222.499 599.037 222.328V220.92C599.037 219.533 598.792 218.552 598.301 217.976C597.832 217.379 597.117 217.08 596.157 217.08C595.24 217.08 594.653 217.272 594.397 217.656C594.141 218.04 594.013 218.712 594.013 219.672C594.013 220.163 593.885 220.536 593.629 220.792C593.395 221.027 593.053 221.144 592.605 221.144C592.285 221.144 591.976 221.027 591.677 220.792C591.4 220.536 591.261 220.141 591.261 219.608C591.261 219.011 591.485 218.445 591.933 217.912C592.403 217.379 593.053 216.941 593.885 216.6C594.739 216.259 595.741 216.088 596.893 216.088C598.643 216.088 599.88 216.493 600.605 217.304C601.331 218.115 601.693 219.352 601.693 221.016V228.28C601.693 228.941 601.768 229.368 601.917 229.56C602.067 229.752 602.312 229.848 602.653 229.848C602.952 229.848 603.219 229.773 603.453 229.624C603.709 229.475 603.944 229.283 604.157 229.048L604.637 229.56C604.104 230.328 603.592 230.893 603.101 231.256C602.632 231.597 601.992 231.768 601.181 231.768C600.435 231.768 599.944 231.555 599.709 231.128C599.496 230.701 599.336 230.093 599.229 229.304L599.037 228.92V223.384C598.077 223.619 597.171 223.896 596.317 224.216C595.464 224.536 594.771 224.952 594.237 225.464C593.704 225.976 593.437 226.648 593.437 227.48C593.437 228.269 593.651 228.899 594.077 229.368C594.504 229.837 595.059 230.072 595.741 230.072C596.296 230.072 596.872 229.933 597.469 229.656C598.088 229.379 598.685 228.984 599.261 228.472L599.517 229.624H599.133C598.643 230.051 598.163 230.435 597.693 230.776C597.245 231.117 596.755 231.384 596.221 231.576C595.709 231.747 595.112 231.832 594.429 231.832ZM606.124 231.864L606.028 226.36H606.86C607.202 228.003 607.703 229.155 608.364 229.816C609.026 230.456 609.943 230.776 611.116 230.776C611.927 230.776 612.588 230.616 613.1 230.296C613.612 229.955 613.868 229.411 613.868 228.664C613.868 228.152 613.772 227.725 613.58 227.384C613.41 227.043 613.068 226.701 612.556 226.36C612.044 225.997 611.287 225.571 610.284 225.08C609.303 224.589 608.503 224.12 607.884 223.672C607.266 223.203 606.807 222.691 606.508 222.136C606.21 221.581 606.06 220.909 606.06 220.12C606.06 218.797 606.53 217.795 607.468 217.112C608.428 216.429 609.591 216.088 610.956 216.088C611.767 216.088 612.428 216.184 612.94 216.376C613.452 216.547 613.911 216.728 614.316 216.92H614.348L614.892 216.248H615.532L615.628 221.144H614.764C614.423 219.629 613.943 218.595 613.324 218.04C612.706 217.464 611.906 217.176 610.924 217.176C610.199 217.176 609.58 217.347 609.068 217.688C608.578 218.029 608.332 218.563 608.332 219.288C608.332 219.907 608.62 220.461 609.196 220.952C609.772 221.443 610.732 222.029 612.076 222.712C613.058 223.224 613.879 223.725 614.54 224.216C615.202 224.685 615.703 225.208 616.044 225.784C616.386 226.339 616.556 227.011 616.556 227.8C616.556 228.803 616.311 229.613 615.82 230.232C615.33 230.829 614.668 231.267 613.836 231.544C613.026 231.821 612.14 231.96 611.18 231.96C610.263 231.96 609.527 231.864 608.972 231.672C608.439 231.48 607.959 231.299 607.532 231.128H607.468L606.796 231.864H606.124Z" fill="#0088FF"/>
<g id="\exists{}x\, F(x)" clip-path="url(#clip0_66_3557)">
<g id="page1">
<path id="Vector" d="M129.345 106.894C129.345 104.422 129.12 104.197 126.722 104.197H98.6226C97.3488 104.197 96 104.197 96 105.695C96 107.194 97.3488 107.194 98.6226 107.194H126.347V128.699H99.6717C98.3978 128.699 97.049 128.699 97.049 130.198C97.049 131.697 98.3978 131.697 99.6717 131.697H126.347V153.202H98.6226C97.3488 153.202 96 153.202 96 154.701C96 156.199 97.3488 156.199 98.6226 156.199H126.722C129.12 156.199 129.345 155.975 129.345 153.502V106.894Z" fill="black"/>
<path id="Vector_2" d="M169.025 125.627C166.627 126.077 165.728 127.875 165.728 129.299C165.728 131.097 167.152 131.697 168.201 131.697C170.449 131.697 172.022 129.748 172.022 127.725C172.022 124.578 168.426 123.154 165.278 123.154C160.708 123.154 158.16 127.65 157.486 129.074C155.762 123.454 151.116 123.154 149.768 123.154C142.125 123.154 138.078 132.97 138.078 134.619C138.078 134.919 138.378 135.293 138.902 135.293C139.502 135.293 139.652 134.844 139.802 134.544C142.349 126.227 147.37 124.653 149.543 124.653C152.915 124.653 153.589 127.8 153.589 129.598C153.589 131.247 153.14 132.97 152.24 136.567L149.693 146.833C148.569 151.329 146.396 155.45 142.424 155.45C142.05 155.45 140.176 155.45 138.603 154.476C141.3 153.951 141.9 151.703 141.9 150.804C141.9 149.305 140.776 148.406 139.352 148.406C137.554 148.406 135.605 149.98 135.605 152.378C135.605 155.525 139.127 156.949 142.349 156.949C145.946 156.949 148.494 154.101 150.067 151.029C151.266 155.45 155.013 156.949 157.785 156.949C165.428 156.949 169.475 147.132 169.475 145.484C169.475 145.109 169.175 144.81 168.725 144.81C168.051 144.81 167.976 145.184 167.751 145.784C165.728 152.378 161.382 155.45 158.01 155.45C155.387 155.45 153.964 153.502 153.964 150.429C153.964 148.781 154.263 147.582 155.462 142.637L158.085 132.446C159.209 127.95 161.757 124.653 165.204 124.653C165.353 124.653 167.451 124.653 169.025 125.627Z" fill="black"/>
<path id="Vector_3" d="M209.944 131.77H217.137C222.832 131.77 223.281 133.044 223.281 135.217C223.281 136.191 223.132 137.24 222.757 138.889C222.607 139.188 222.532 139.563 222.532 139.713C222.532 140.238 222.832 140.537 223.356 140.537C223.956 140.537 224.031 140.238 224.331 139.039L228.677 121.579C228.677 121.28 228.452 120.83 227.927 120.83C227.253 120.83 227.178 121.13 226.878 122.404C225.305 128.024 223.806 129.597 217.287 129.597H210.468L215.339 110.19C216.013 107.567 216.163 107.342 219.235 107.342H229.276C238.643 107.342 239.991 110.115 239.991 115.435C239.991 115.885 239.991 117.533 239.766 119.481C239.692 119.781 239.542 120.755 239.542 121.055C239.542 121.654 239.916 121.879 240.366 121.879C240.89 121.879 241.19 121.579 241.34 120.231L242.914 107.118C242.914 106.893 243.063 106.144 243.063 105.994C243.063 105.169 242.389 105.169 241.04 105.169H205.523C204.099 105.169 203.35 105.169 203.35 106.518C203.35 107.342 203.874 107.342 205.148 107.342C209.794 107.342 209.794 107.867 209.794 108.691C209.794 109.066 209.719 109.366 209.494 110.19L199.378 150.653C198.704 153.276 198.554 154.025 193.309 154.025C191.885 154.025 191.136 154.025 191.136 155.374C191.136 156.198 191.81 156.198 192.26 156.198C193.683 156.198 195.182 156.048 196.606 156.048H206.347C207.995 156.048 209.794 156.198 211.442 156.198C212.117 156.198 213.016 156.198 213.016 154.849C213.016 154.025 212.566 154.025 210.918 154.025C204.998 154.025 204.848 153.5 204.848 152.376C204.848 152.002 204.998 151.402 205.148 150.878L209.944 131.77Z" fill="black"/>
<path id="Vector_4" d="M269.728 174.407C269.728 174.182 269.728 174.033 268.454 172.759C260.961 165.191 256.765 152.827 256.765 137.541C256.765 123.004 260.287 110.49 268.979 101.649C269.728 100.974 269.728 100.824 269.728 100.599C269.728 100.15 269.354 100 269.054 100C268.08 100 261.935 105.395 258.264 112.738C254.442 120.307 252.719 128.324 252.719 137.541C252.719 144.21 253.768 153.127 257.664 161.144C262.085 170.136 268.23 175.007 269.054 175.007C269.354 175.007 269.728 174.857 269.728 174.407Z" fill="black"/>
<path id="Vector_5" d="M309.424 125.627C307.027 126.077 306.127 127.875 306.127 129.299C306.127 131.097 307.551 131.697 308.6 131.697C310.848 131.697 312.422 129.748 312.422 127.725C312.422 124.578 308.825 123.154 305.678 123.154C301.107 123.154 298.559 127.65 297.885 129.074C296.162 123.454 291.516 123.154 290.167 123.154C282.524 123.154 278.478 132.97 278.478 134.619C278.478 134.919 278.777 135.293 279.302 135.293C279.901 135.293 280.051 134.844 280.201 134.544C282.749 126.227 287.769 124.653 289.942 124.653C293.314 124.653 293.989 127.8 293.989 129.598C293.989 131.247 293.539 132.97 292.64 136.567L290.092 146.833C288.968 151.329 286.795 155.45 282.824 155.45C282.449 155.45 280.576 155.45 279.002 154.476C281.7 153.951 282.299 151.703 282.299 150.804C282.299 149.305 281.175 148.406 279.751 148.406C277.953 148.406 276.005 149.98 276.005 152.378C276.005 155.525 279.527 156.949 282.749 156.949C286.345 156.949 288.893 154.101 290.467 151.029C291.666 155.45 295.412 156.949 298.185 156.949C305.828 156.949 309.874 147.132 309.874 145.484C309.874 145.109 309.574 144.81 309.125 144.81C308.45 144.81 308.375 145.184 308.151 145.784C306.127 152.378 301.781 155.45 298.409 155.45C295.787 155.45 294.363 153.502 294.363 150.429C294.363 148.781 294.663 147.582 295.862 142.637L298.484 132.446C299.608 127.95 302.156 124.653 305.603 124.653C305.753 124.653 307.851 124.653 309.424 125.627Z" fill="black"/>
<path id="Vector_6" d="M336.731 137.541C336.731 131.846 335.982 122.554 331.786 113.862C327.365 104.871 321.22 100 320.396 100C320.096 100 319.722 100.15 319.722 100.599C319.722 100.824 319.722 100.974 320.996 102.248C328.489 109.816 332.685 122.18 332.685 137.466C332.685 152.003 329.163 164.516 320.471 173.358C319.722 174.033 319.722 174.182 319.722 174.407C319.722 174.857 320.096 175.007 320.396 175.007C321.37 175.007 327.515 169.612 331.186 162.268C335.008 154.625 336.731 146.533 336.731 137.541Z" fill="black"/>
</g>
</g>
</g>
<defs>
<clipPath id="clip0_66_3557">
<rect width="240.732" height="75.0067" fill="white" transform="translate(96 100)"/>
</clipPath>
</defs>
</svg>
