<svg width="1920" height="1080" viewBox="0 0 1920 1080" fill="none" xmlns="http://www.w3.org/2000/svg">
<g id="truth-in-fields">
<rect width="1920" height="1080" fill="white"/>
<line id="Line 17" x1="652.82" y1="394.2" x2="652.82" y2="789.2" stroke="black"/>
<path id="&#226;&#132;&#164;/2" d="M741.384 451.2H702.216V448.512L728.712 411.84H705.352V409.152H741.896V411.84L715.016 448.512H741.384V451.2ZM732.168 411.84L705.544 448.512H711.752L738.12 411.84H732.168ZM748.708 456.896H745.124L761.828 405.824H765.348L748.708 456.896ZM795.218 451.2H770.002V449.024L779.73 439.296C781.864 437.12 783.634 435.158 785.042 433.408C786.45 431.616 787.496 429.824 788.178 428.032C788.904 426.24 789.266 424.235 789.266 422.016C789.266 419.627 788.541 417.728 787.09 416.32C785.682 414.87 783.741 414.144 781.266 414.144C779.176 414.144 777.384 414.592 775.89 415.488C774.44 416.384 773.117 418.027 771.922 420.416L770.386 419.776C771.368 416.662 772.925 414.251 775.058 412.544C777.192 410.838 779.816 409.984 782.93 409.984C785.362 409.984 787.496 410.454 789.33 411.392C791.165 412.288 792.594 413.568 793.618 415.232C794.685 416.854 795.218 418.795 795.218 421.056C795.218 422.934 794.813 424.747 794.002 426.496C793.234 428.203 792.061 429.974 790.482 431.808C788.946 433.643 787.048 435.712 784.786 438.016L776.338 446.016V446.336L780.818 446.144H789.714C791.421 446.144 792.616 445.76 793.298 444.992C793.981 444.224 794.685 442.88 795.41 440.96H797.266L795.218 451.2Z" fill="black"/>
<path id="&#226;&#132;&#164;/3" d="M881.384 451.2H842.216V448.512L868.712 411.84H845.352V409.152H881.896V411.84L855.016 448.512H881.384V451.2ZM872.168 411.84L845.544 448.512H851.752L878.12 411.84H872.168ZM888.708 456.896H885.124L901.828 405.824H905.348L888.708 456.896ZM918.514 452.032C916.594 452.032 915.122 451.84 914.098 451.456C913.074 451.115 912.349 450.688 911.922 450.176C911.538 449.622 911.346 449.067 911.346 448.512C911.346 447.83 911.56 447.19 911.986 446.592C912.413 445.995 913.032 445.696 913.842 445.696C914.482 445.696 915.144 445.867 915.826 446.208C916.552 446.507 917.298 446.87 918.066 447.296C918.834 447.68 919.602 448.043 920.37 448.384C921.181 448.683 921.992 448.832 922.802 448.832C924.168 448.832 925.448 448.598 926.642 448.128C927.837 447.616 928.818 446.784 929.586 445.632C930.354 444.438 930.738 442.795 930.738 440.704C930.738 438.784 930.205 437.12 929.138 435.712C928.072 434.304 926.642 433.216 924.85 432.448C923.101 431.638 921.202 431.232 919.154 431.232H917.874V428.8H919.09C920.541 428.8 921.949 428.438 923.314 427.712C924.68 426.987 925.789 425.963 926.642 424.64C927.538 423.318 927.986 421.803 927.986 420.096C927.986 418.219 927.389 416.768 926.194 415.744C925.042 414.678 923.464 414.144 921.458 414.144C919.538 414.144 917.938 414.592 916.658 415.488C915.378 416.342 914.184 417.622 913.074 419.328L911.602 418.496C912.797 415.723 914.376 413.611 916.338 412.16C918.301 410.71 920.584 409.984 923.186 409.984C926.472 409.984 929.01 410.816 930.802 412.48C932.594 414.102 933.49 416.128 933.49 418.56C933.49 420.779 932.829 422.571 931.506 423.936C930.226 425.302 928.584 426.624 926.578 427.904V428.096C928.285 428.608 929.842 429.355 931.25 430.336C932.701 431.275 933.853 432.448 934.706 433.856C935.56 435.222 935.986 436.864 935.986 438.784C935.986 441.686 935.176 444.139 933.554 446.144C931.933 448.107 929.8 449.579 927.154 450.56C924.509 451.542 921.629 452.032 918.514 452.032Z" fill="black"/>
<path id="&#226;&#132;&#164;/5" d="M1021.38 451.2H982.216V448.512L1008.71 411.84H985.352V409.152H1021.9V411.84L995.016 448.512H1021.38V451.2ZM1012.17 411.84L985.544 448.512H991.752L1018.12 411.84H1012.17ZM1028.71 456.896H1025.12L1041.83 405.824H1045.35L1028.71 456.896ZM1058.71 452.032C1056.23 452.032 1054.38 451.734 1053.14 451.136C1051.94 450.539 1051.35 449.643 1051.35 448.448C1051.35 447.723 1051.56 447.083 1051.99 446.528C1052.46 445.974 1053.1 445.696 1053.91 445.696C1054.55 445.696 1055.16 445.867 1055.76 446.208C1056.4 446.507 1057.04 446.87 1057.68 447.296C1058.36 447.68 1059.11 448.043 1059.92 448.384C1060.73 448.683 1061.65 448.832 1062.67 448.832C1064.21 448.832 1065.62 448.534 1066.9 447.936C1068.22 447.339 1069.27 446.379 1070.03 445.056C1070.84 443.734 1071.25 441.963 1071.25 439.744C1071.25 437.355 1070.78 435.435 1069.84 433.984C1068.9 432.534 1067.64 431.424 1066.07 430.656C1064.49 429.888 1062.7 429.355 1060.69 429.056C1058.73 428.758 1056.68 428.587 1054.55 428.544L1053.78 427.584L1057.75 410.88H1075.28L1074.26 416.064H1059.22L1057.49 423.36C1059.62 423.531 1061.61 423.808 1063.44 424.192C1065.32 424.534 1067 425.024 1068.5 425.664C1070.03 426.304 1071.36 427.158 1072.47 428.224C1073.58 429.248 1074.43 430.507 1075.03 432C1075.62 433.451 1075.92 435.179 1075.92 437.184C1075.92 439.659 1075.5 441.835 1074.64 443.712C1073.83 445.547 1072.66 447.083 1071.12 448.32C1069.59 449.558 1067.77 450.496 1065.68 451.136C1063.59 451.734 1061.27 452.032 1058.71 452.032Z" fill="black"/>
<path id="&#226;&#132;&#164;/7" d="M1161.38 451.2H1122.22V448.512L1148.71 411.84H1125.35V409.152H1161.9V411.84L1135.02 448.512H1161.38V451.2ZM1152.17 411.84L1125.54 448.512H1131.75L1158.12 411.84H1152.17ZM1168.71 456.896H1165.12L1181.83 405.824H1185.35L1168.71 456.896ZM1202.29 451.712H1197.23L1212.34 416.064H1198.07C1196.87 416.064 1195.95 416.171 1195.31 416.384C1194.67 416.598 1194.14 417.046 1193.71 417.728C1193.33 418.411 1192.84 419.456 1192.24 420.864L1190.26 420.672L1192.82 410.88H1217.27V412.864L1202.29 451.712Z" fill="black"/>
<line id="Line 18" x1="230.32" y1="490.7" x2="1474.32" y2="490.7" stroke="black"/>
<path id="&#226;&#139;&#175;" d="M1469.34 643.184C1467.22 643.184 1465.5 641.456 1465.5 639.344C1465.5 637.232 1467.22 635.504 1469.34 635.504C1471.51 635.504 1473.18 637.232 1473.18 639.344C1473.18 641.456 1471.51 643.184 1469.34 643.184ZM1430.42 643.248C1428.25 643.248 1426.58 641.456 1426.58 639.408C1426.58 637.296 1428.31 635.568 1430.42 635.568C1432.41 635.568 1434.26 637.168 1434.26 639.408C1434.26 641.52 1432.54 643.248 1430.42 643.248ZM1450.01 643.248C1447.9 643.248 1446.17 641.52 1446.17 639.408C1446.17 637.232 1447.96 635.568 1450.01 635.568C1451.99 635.568 1453.85 637.168 1453.85 639.408C1453.85 641.52 1452.12 643.248 1450.01 643.248Z" fill="black"/>
<g id="Group_22">
<path id="10 = 0" d="M257.584 657.2H235.44V655.408C238.47 655.408 240.603 655.088 241.84 654.448C243.078 653.808 243.696 652.699 243.696 651.12V624.048C243.696 622.939 243.547 622.15 243.248 621.68C242.95 621.168 242.395 620.912 241.584 620.912C241.158 620.912 240.56 620.955 239.792 621.04C239.024 621.126 238.214 621.254 237.36 621.424C236.507 621.552 235.739 621.723 235.056 621.936V619.824L247.472 616.304H249.328V651.12C249.328 652.699 249.968 653.808 251.248 654.448C252.528 655.088 254.64 655.408 257.584 655.408V657.2ZM277.816 657.904C275.256 657.904 273.08 657.35 271.288 656.24C269.496 655.088 268.045 653.531 266.936 651.568C265.826 649.606 265.016 647.344 264.504 644.784C263.992 642.224 263.736 639.536 263.736 636.72C263.736 632.667 264.269 629.104 265.336 626.032C266.445 622.918 268.045 620.486 270.136 618.736C272.269 616.987 274.872 616.112 277.944 616.112C280.717 616.112 283.149 616.944 285.24 618.608C287.33 620.23 288.973 622.598 290.168 625.712C291.362 628.784 291.96 632.518 291.96 636.912C291.96 639.643 291.682 642.267 291.128 644.784C290.616 647.302 289.784 649.542 288.632 651.504C287.522 653.467 286.072 655.024 284.28 656.176C282.488 657.328 280.333 657.904 277.816 657.904ZM277.816 655.6C280.333 655.6 282.274 654.086 283.64 651.056C285.048 648.027 285.752 643.44 285.752 637.296C285.752 630.811 285.069 626.032 283.704 622.96C282.381 619.846 280.397 618.288 277.752 618.288C275.234 618.288 273.293 619.824 271.928 622.896C270.562 625.968 269.88 630.683 269.88 637.04C269.88 643.227 270.562 647.878 271.928 650.992C273.293 654.064 275.256 655.6 277.816 655.6ZM350.87 635.312H312.726V630.96H350.87V635.312ZM350.87 650.48H312.726V646.192H350.87V650.48ZM385.691 657.904C383.131 657.904 380.955 657.35 379.163 656.24C377.371 655.088 375.92 653.531 374.811 651.568C373.701 649.606 372.891 647.344 372.379 644.784C371.867 642.224 371.611 639.536 371.611 636.72C371.611 632.667 372.144 629.104 373.211 626.032C374.32 622.918 375.92 620.486 378.011 618.736C380.144 616.987 382.747 616.112 385.819 616.112C388.592 616.112 391.024 616.944 393.115 618.608C395.205 620.23 396.848 622.598 398.043 625.712C399.237 628.784 399.835 632.518 399.835 636.912C399.835 639.643 399.557 642.267 399.003 644.784C398.491 647.302 397.659 649.542 396.507 651.504C395.397 653.467 393.947 655.024 392.155 656.176C390.363 657.328 388.208 657.904 385.691 657.904ZM385.691 655.6C388.208 655.6 390.149 654.086 391.515 651.056C392.923 648.027 393.627 643.44 393.627 637.296C393.627 630.811 392.944 626.032 391.579 622.96C390.256 619.846 388.272 618.288 385.627 618.288C383.109 618.288 381.168 619.824 379.803 622.896C378.437 625.968 377.755 630.683 377.755 637.04C377.755 643.227 378.437 647.878 379.803 650.992C381.168 654.064 383.131 655.6 385.691 655.6Z" fill="black"/>
<path id="1" d="M761.584 657.2H739.44V655.408C742.47 655.408 744.603 655.088 745.84 654.448C747.078 653.808 747.696 652.699 747.696 651.12V624.048C747.696 622.939 747.547 622.15 747.248 621.68C746.95 621.168 746.395 620.912 745.584 620.912C745.158 620.912 744.56 620.955 743.792 621.04C743.024 621.126 742.214 621.254 741.36 621.424C740.507 621.552 739.739 621.723 739.056 621.936V619.824L751.472 616.304H753.328V651.12C753.328 652.699 753.968 653.808 755.248 654.448C756.528 655.088 758.64 655.408 761.584 655.408V657.2Z" fill="black"/>
<path id="0" d="M890.128 657.904C887.568 657.904 885.392 657.35 883.6 656.24C881.808 655.088 880.358 653.531 879.248 651.568C878.139 649.606 877.328 647.344 876.816 644.784C876.304 642.224 876.048 639.536 876.048 636.72C876.048 632.667 876.582 629.104 877.648 626.032C878.758 622.918 880.358 620.486 882.448 618.736C884.582 616.987 887.184 616.112 890.256 616.112C893.03 616.112 895.462 616.944 897.552 618.608C899.643 620.23 901.286 622.598 902.48 625.712C903.675 628.784 904.272 632.518 904.272 636.912C904.272 639.643 903.995 642.267 903.44 644.784C902.928 647.302 902.096 649.542 900.944 651.504C899.835 653.467 898.384 655.024 896.592 656.176C894.8 657.328 892.646 657.904 890.128 657.904ZM890.128 655.6C892.646 655.6 894.587 654.086 895.952 651.056C897.36 648.027 898.064 643.44 898.064 637.296C898.064 630.811 897.382 626.032 896.016 622.96C894.694 619.846 892.71 618.288 890.064 618.288C887.547 618.288 885.606 619.824 884.24 622.896C882.875 625.968 882.192 630.683 882.192 637.04C882.192 643.227 882.875 647.878 884.24 650.992C885.606 654.064 887.568 655.6 890.128 655.6Z" fill="black"/>
<path id="1_2" d="M1041.58 657.2H1019.44V655.408C1022.47 655.408 1024.6 655.088 1025.84 654.448C1027.08 653.808 1027.7 652.699 1027.7 651.12V624.048C1027.7 622.939 1027.55 622.15 1027.25 621.68C1026.95 621.168 1026.39 620.912 1025.58 620.912C1025.16 620.912 1024.56 620.955 1023.79 621.04C1023.02 621.126 1022.21 621.254 1021.36 621.424C1020.51 621.552 1019.74 621.723 1019.06 621.936V619.824L1031.47 616.304H1033.33V651.12C1033.33 652.699 1033.97 653.808 1035.25 654.448C1036.53 655.088 1038.64 655.408 1041.58 655.408V657.2Z" fill="black"/>
<path id="0_2" d="M1170.13 657.904C1167.57 657.904 1165.39 657.35 1163.6 656.24C1161.81 655.088 1160.36 653.531 1159.25 651.568C1158.14 649.606 1157.33 647.344 1156.82 644.784C1156.3 642.224 1156.05 639.536 1156.05 636.72C1156.05 632.667 1156.58 629.104 1157.65 626.032C1158.76 622.918 1160.36 620.486 1162.45 618.736C1164.58 616.987 1167.18 616.112 1170.26 616.112C1173.03 616.112 1175.46 616.944 1177.55 618.608C1179.64 620.23 1181.29 622.598 1182.48 625.712C1183.67 628.784 1184.27 632.518 1184.27 636.912C1184.27 639.643 1183.99 642.267 1183.44 644.784C1182.93 647.302 1182.1 649.542 1180.94 651.504C1179.83 653.467 1178.38 655.024 1176.59 656.176C1174.8 657.328 1172.65 657.904 1170.13 657.904ZM1170.13 655.6C1172.65 655.6 1174.59 654.086 1175.95 651.056C1177.36 648.027 1178.06 643.44 1178.06 637.296C1178.06 630.811 1177.38 626.032 1176.02 622.96C1174.69 619.846 1172.71 618.288 1170.06 618.288C1167.55 618.288 1165.61 619.824 1164.24 622.896C1162.87 625.968 1162.19 630.683 1162.19 637.04C1162.19 643.227 1162.87 647.878 1164.24 650.992C1165.61 654.064 1167.57 655.6 1170.13 655.6Z" fill="black"/>
<path id="0_3" d="M1310.13 657.904C1307.57 657.904 1305.39 657.35 1303.6 656.24C1301.81 655.088 1300.36 653.531 1299.25 651.568C1298.14 649.606 1297.33 647.344 1296.82 644.784C1296.3 642.224 1296.05 639.536 1296.05 636.72C1296.05 632.667 1296.58 629.104 1297.65 626.032C1298.76 622.918 1300.36 620.486 1302.45 618.736C1304.58 616.987 1307.18 616.112 1310.26 616.112C1313.03 616.112 1315.46 616.944 1317.55 618.608C1319.64 620.23 1321.29 622.598 1322.48 625.712C1323.67 628.784 1324.27 632.518 1324.27 636.912C1324.27 639.643 1323.99 642.267 1323.44 644.784C1322.93 647.302 1322.1 649.542 1320.94 651.504C1319.83 653.467 1318.38 655.024 1316.59 656.176C1314.8 657.328 1312.65 657.904 1310.13 657.904ZM1310.13 655.6C1312.65 655.6 1314.59 654.086 1315.95 651.056C1317.36 648.027 1318.06 643.44 1318.06 637.296C1318.06 630.811 1317.38 626.032 1316.02 622.96C1314.69 619.846 1312.71 618.288 1310.06 618.288C1307.55 618.288 1305.61 619.824 1304.24 622.896C1302.87 625.968 1302.19 630.683 1302.19 637.04C1302.19 643.227 1302.87 647.878 1304.24 650.992C1305.61 654.064 1307.57 655.6 1310.13 655.6Z" fill="black"/>
<path id="0_4" d="M1590.13 657.904C1587.57 657.904 1585.39 657.35 1583.6 656.24C1581.81 655.088 1580.36 653.531 1579.25 651.568C1578.14 649.606 1577.33 647.344 1576.82 644.784C1576.3 642.224 1576.05 639.536 1576.05 636.72C1576.05 632.667 1576.58 629.104 1577.65 626.032C1578.76 622.918 1580.36 620.486 1582.45 618.736C1584.58 616.987 1587.18 616.112 1590.26 616.112C1593.03 616.112 1595.46 616.944 1597.55 618.608C1599.64 620.23 1601.29 622.598 1602.48 625.712C1603.67 628.784 1604.27 632.518 1604.27 636.912C1604.27 639.643 1603.99 642.267 1603.44 644.784C1602.93 647.302 1602.1 649.542 1600.94 651.504C1599.83 653.467 1598.38 655.024 1596.59 656.176C1594.8 657.328 1592.65 657.904 1590.13 657.904ZM1590.13 655.6C1592.65 655.6 1594.59 654.086 1595.95 651.056C1597.36 648.027 1598.06 643.44 1598.06 637.296C1598.06 630.811 1597.38 626.032 1596.02 622.96C1594.69 619.846 1592.71 618.288 1590.06 618.288C1587.55 618.288 1585.61 619.824 1584.24 622.896C1582.87 625.968 1582.19 630.683 1582.19 637.04C1582.19 643.227 1582.87 647.878 1584.24 650.992C1585.61 654.064 1587.57 655.6 1590.13 655.6Z" fill="black"/>
</g>
<path id="3 = 0" d="M488.264 570.032C486.344 570.032 484.872 569.84 483.848 569.456C482.824 569.115 482.099 568.688 481.672 568.176C481.288 567.622 481.096 567.067 481.096 566.512C481.096 565.83 481.31 565.19 481.736 564.592C482.163 563.995 482.782 563.696 483.592 563.696C484.232 563.696 484.894 563.867 485.576 564.208C486.302 564.507 487.048 564.87 487.816 565.296C488.584 565.68 489.352 566.043 490.12 566.384C490.931 566.683 491.742 566.832 492.552 566.832C493.918 566.832 495.198 566.598 496.392 566.128C497.587 565.616 498.568 564.784 499.336 563.632C500.104 562.438 500.488 560.795 500.488 558.704C500.488 556.784 499.955 555.12 498.888 553.712C497.822 552.304 496.392 551.216 494.6 550.448C492.851 549.638 490.952 549.232 488.904 549.232H487.624V546.8H488.84C490.291 546.8 491.699 546.438 493.064 545.712C494.43 544.987 495.539 543.963 496.392 542.64C497.288 541.318 497.736 539.803 497.736 538.096C497.736 536.219 497.139 534.768 495.944 533.744C494.792 532.678 493.214 532.144 491.208 532.144C489.288 532.144 487.688 532.592 486.408 533.488C485.128 534.342 483.934 535.622 482.824 537.328L481.352 536.496C482.547 533.723 484.126 531.611 486.088 530.16C488.051 528.71 490.334 527.984 492.936 527.984C496.222 527.984 498.76 528.816 500.552 530.48C502.344 532.102 503.24 534.128 503.24 536.56C503.24 538.779 502.579 540.571 501.256 541.936C499.976 543.302 498.334 544.624 496.328 545.904V546.096C498.035 546.608 499.592 547.355 501 548.336C502.451 549.275 503.603 550.448 504.456 551.856C505.31 553.222 505.736 554.864 505.736 556.784C505.736 559.686 504.926 562.139 503.304 564.144C501.683 566.107 499.55 567.579 496.904 568.56C494.259 569.542 491.379 570.032 488.264 570.032ZM566.182 547.312H528.038V542.96H566.182V547.312ZM566.182 562.48H528.038V558.192H566.182V562.48ZM601.003 569.904C598.443 569.904 596.267 569.35 594.475 568.24C592.683 567.088 591.233 565.531 590.123 563.568C589.014 561.606 588.203 559.344 587.691 556.784C587.179 554.224 586.923 551.536 586.923 548.72C586.923 544.667 587.457 541.104 588.523 538.032C589.633 534.918 591.233 532.486 593.323 530.736C595.457 528.987 598.059 528.112 601.131 528.112C603.905 528.112 606.337 528.944 608.427 530.608C610.518 532.23 612.161 534.598 613.355 537.712C614.55 540.784 615.147 544.518 615.147 548.912C615.147 551.643 614.87 554.267 614.315 556.784C613.803 559.302 612.971 561.542 611.819 563.504C610.71 565.467 609.259 567.024 607.467 568.176C605.675 569.328 603.521 569.904 601.003 569.904ZM601.003 567.6C603.521 567.6 605.462 566.086 606.827 563.056C608.235 560.027 608.939 555.44 608.939 549.296C608.939 542.811 608.257 538.032 606.891 534.96C605.569 531.846 603.585 530.288 600.939 530.288C598.422 530.288 596.481 531.824 595.115 534.896C593.75 537.968 593.067 542.683 593.067 549.04C593.067 555.227 593.75 559.878 595.115 562.992C596.481 566.064 598.443 567.6 601.003 567.6Z" fill="black"/>
<path id="02" d="M750.128 569.904C747.568 569.904 745.392 569.35 743.6 568.24C741.808 567.088 740.358 565.531 739.248 563.568C738.139 561.606 737.328 559.344 736.816 556.784C736.304 554.224 736.048 551.536 736.048 548.72C736.048 544.667 736.582 541.104 737.648 538.032C738.758 534.918 740.358 532.486 742.448 530.736C744.582 528.987 747.184 528.112 750.256 528.112C753.03 528.112 755.462 528.944 757.552 530.608C759.643 532.23 761.286 534.598 762.48 537.712C763.675 540.784 764.272 544.518 764.272 548.912C764.272 551.643 763.995 554.267 763.44 556.784C762.928 559.302 762.096 561.542 760.944 563.504C759.835 565.467 758.384 567.024 756.592 568.176C754.8 569.328 752.646 569.904 750.128 569.904ZM750.128 567.6C752.646 567.6 754.587 566.086 755.952 563.056C757.36 560.027 758.064 555.44 758.064 549.296C758.064 542.811 757.382 538.032 756.016 534.96C754.694 531.846 752.71 530.288 750.064 530.288C747.547 530.288 745.606 531.824 744.24 534.896C742.875 537.968 742.192 542.683 742.192 549.04C742.192 555.227 742.875 559.878 744.24 562.992C745.606 566.064 747.568 567.6 750.128 567.6Z" fill="black"/>
<path id="12" d="M901.584 569.2H879.44V567.408C882.47 567.408 884.603 567.088 885.84 566.448C887.078 565.808 887.696 564.699 887.696 563.12V536.048C887.696 534.939 887.547 534.15 887.248 533.68C886.95 533.168 886.395 532.912 885.584 532.912C885.158 532.912 884.56 532.955 883.792 533.04C883.024 533.126 882.214 533.254 881.36 533.424C880.507 533.552 879.739 533.723 879.056 533.936V531.824L891.472 528.304H893.328V563.12C893.328 564.699 893.968 565.808 895.248 566.448C896.528 567.088 898.64 567.408 901.584 567.408V569.2Z" fill="black"/>
<path id="03" d="M1171.13 569.904C1168.57 569.904 1166.39 569.35 1164.6 568.24C1162.81 567.088 1161.36 565.531 1160.25 563.568C1159.14 561.606 1158.33 559.344 1157.82 556.784C1157.3 554.224 1157.05 551.536 1157.05 548.72C1157.05 544.667 1157.58 541.104 1158.65 538.032C1159.76 534.918 1161.36 532.486 1163.45 530.736C1165.58 528.987 1168.18 528.112 1171.26 528.112C1174.03 528.112 1176.46 528.944 1178.55 530.608C1180.64 532.23 1182.29 534.598 1183.48 537.712C1184.67 540.784 1185.27 544.518 1185.27 548.912C1185.27 551.643 1184.99 554.267 1184.44 556.784C1183.93 559.302 1183.1 561.542 1181.94 563.504C1180.83 565.467 1179.38 567.024 1177.59 568.176C1175.8 569.328 1173.65 569.904 1171.13 569.904ZM1171.13 567.6C1173.65 567.6 1175.59 566.086 1176.95 563.056C1178.36 560.027 1179.06 555.44 1179.06 549.296C1179.06 542.811 1178.38 538.032 1177.02 534.96C1175.69 531.846 1173.71 530.288 1171.06 530.288C1168.55 530.288 1166.61 531.824 1165.24 534.896C1163.87 537.968 1163.19 542.683 1163.19 549.04C1163.19 555.227 1163.87 559.878 1165.24 562.992C1166.61 566.064 1168.57 567.6 1171.13 567.6Z" fill="black"/>
<path id="04" d="M1311.13 569.904C1308.57 569.904 1306.39 569.35 1304.6 568.24C1302.81 567.088 1301.36 565.531 1300.25 563.568C1299.14 561.606 1298.33 559.344 1297.82 556.784C1297.3 554.224 1297.05 551.536 1297.05 548.72C1297.05 544.667 1297.58 541.104 1298.65 538.032C1299.76 534.918 1301.36 532.486 1303.45 530.736C1305.58 528.987 1308.18 528.112 1311.26 528.112C1314.03 528.112 1316.46 528.944 1318.55 530.608C1320.64 532.23 1322.29 534.598 1323.48 537.712C1324.67 540.784 1325.27 544.518 1325.27 548.912C1325.27 551.643 1324.99 554.267 1324.44 556.784C1323.93 559.302 1323.1 561.542 1321.94 563.504C1320.83 565.467 1319.38 567.024 1317.59 568.176C1315.8 569.328 1313.65 569.904 1311.13 569.904ZM1311.13 567.6C1313.65 567.6 1315.59 566.086 1316.95 563.056C1318.36 560.027 1319.06 555.44 1319.06 549.296C1319.06 542.811 1318.38 538.032 1317.02 534.96C1315.69 531.846 1313.71 530.288 1311.06 530.288C1308.55 530.288 1306.61 531.824 1305.24 534.896C1303.87 537.968 1303.19 542.683 1303.19 549.04C1303.19 555.227 1303.87 559.878 1305.24 562.992C1306.61 566.064 1308.57 567.6 1311.13 567.6Z" fill="black"/>
<path id="05" d="M1590.13 569.904C1587.57 569.904 1585.39 569.35 1583.6 568.24C1581.81 567.088 1580.36 565.531 1579.25 563.568C1578.14 561.606 1577.33 559.344 1576.82 556.784C1576.3 554.224 1576.05 551.536 1576.05 548.72C1576.05 544.667 1576.58 541.104 1577.65 538.032C1578.76 534.918 1580.36 532.486 1582.45 530.736C1584.58 528.987 1587.18 528.112 1590.26 528.112C1593.03 528.112 1595.46 528.944 1597.55 530.608C1599.64 532.23 1601.29 534.598 1602.48 537.712C1603.67 540.784 1604.27 544.518 1604.27 548.912C1604.27 551.643 1603.99 554.267 1603.44 556.784C1602.93 559.302 1602.1 561.542 1600.94 563.504C1599.83 565.467 1598.38 567.024 1596.59 568.176C1594.8 569.328 1592.65 569.904 1590.13 569.904ZM1590.13 567.6C1592.65 567.6 1594.59 566.086 1595.95 563.056C1597.36 560.027 1598.06 555.44 1598.06 549.296C1598.06 542.811 1597.38 538.032 1596.02 534.96C1594.69 531.846 1592.71 530.288 1590.06 530.288C1587.55 530.288 1585.61 531.824 1584.24 534.896C1582.87 537.968 1582.19 542.683 1582.19 549.04C1582.19 555.227 1582.87 559.878 1584.24 562.992C1585.61 566.064 1587.57 567.6 1590.13 567.6Z" fill="black"/>
<g id="Group_21">
<path id="10 = 0 &#226;&#136;&#167; 3 = 0" d="M257.584 737.2H235.44V735.408C238.47 735.408 240.603 735.088 241.84 734.448C243.078 733.808 243.696 732.699 243.696 731.12V704.048C243.696 702.939 243.547 702.15 243.248 701.68C242.95 701.168 242.395 700.912 241.584 700.912C241.158 700.912 240.56 700.955 239.792 701.04C239.024 701.126 238.214 701.254 237.36 701.424C236.507 701.552 235.739 701.723 235.056 701.936V699.824L247.472 696.304H249.328V731.12C249.328 732.699 249.968 733.808 251.248 734.448C252.528 735.088 254.64 735.408 257.584 735.408V737.2ZM277.816 737.904C275.256 737.904 273.08 737.35 271.288 736.24C269.496 735.088 268.045 733.531 266.936 731.568C265.826 729.606 265.016 727.344 264.504 724.784C263.992 722.224 263.736 719.536 263.736 716.72C263.736 712.667 264.269 709.104 265.336 706.032C266.445 702.918 268.045 700.486 270.136 698.736C272.269 696.987 274.872 696.112 277.944 696.112C280.717 696.112 283.149 696.944 285.24 698.608C287.33 700.23 288.973 702.598 290.168 705.712C291.362 708.784 291.96 712.518 291.96 716.912C291.96 719.643 291.682 722.267 291.128 724.784C290.616 727.302 289.784 729.542 288.632 731.504C287.522 733.467 286.072 735.024 284.28 736.176C282.488 737.328 280.333 737.904 277.816 737.904ZM277.816 735.6C280.333 735.6 282.274 734.086 283.64 731.056C285.048 728.027 285.752 723.44 285.752 717.296C285.752 710.811 285.069 706.032 283.704 702.96C282.381 699.846 280.397 698.288 277.752 698.288C275.234 698.288 273.293 699.824 271.928 702.896C270.562 705.968 269.88 710.683 269.88 717.04C269.88 723.227 270.562 727.878 271.928 730.992C273.293 734.064 275.256 735.6 277.816 735.6ZM350.87 716.272H312.726V711.92H350.87V716.272ZM350.87 729.328H312.726V725.04H350.87V729.328ZM385.691 737.904C383.131 737.904 380.955 737.35 379.163 736.24C377.371 735.088 375.92 733.531 374.811 731.568C373.701 729.606 372.891 727.344 372.379 724.784C371.867 722.224 371.611 719.536 371.611 716.72C371.611 712.667 372.144 709.104 373.211 706.032C374.32 702.918 375.92 700.486 378.011 698.736C380.144 696.987 382.747 696.112 385.819 696.112C388.592 696.112 391.024 696.944 393.115 698.608C395.205 700.23 396.848 702.598 398.043 705.712C399.237 708.784 399.835 712.518 399.835 716.912C399.835 719.643 399.557 722.267 399.003 724.784C398.491 727.302 397.659 729.542 396.507 731.504C395.397 733.467 393.947 735.024 392.155 736.176C390.363 737.328 388.208 737.904 385.691 737.904ZM385.691 735.6C388.208 735.6 390.149 734.086 391.515 731.056C392.923 728.027 393.627 723.44 393.627 717.296C393.627 710.811 392.944 706.032 391.579 702.96C390.256 699.846 388.272 698.288 385.627 698.288C383.109 698.288 381.168 699.824 379.803 702.896C378.437 705.968 377.755 710.683 377.755 717.04C377.755 723.227 378.437 727.878 379.803 730.992C381.168 734.064 383.131 735.6 385.691 735.6ZM419.897 737.2L437.881 700.08H441.081L459.065 737.2H453.753L439.481 706.608L425.209 737.2H419.897ZM488.327 738.032C486.407 738.032 484.935 737.84 483.911 737.456C482.887 737.115 482.161 736.688 481.735 736.176C481.351 735.622 481.159 735.067 481.159 734.512C481.159 733.83 481.372 733.19 481.799 732.592C482.225 731.995 482.844 731.696 483.655 731.696C484.295 731.696 484.956 731.867 485.639 732.208C486.364 732.507 487.111 732.87 487.879 733.296C488.647 733.68 489.415 734.043 490.183 734.384C490.993 734.683 491.804 734.832 492.615 734.832C493.98 734.832 495.26 734.598 496.455 734.128C497.649 733.616 498.631 732.784 499.399 731.632C500.167 730.438 500.551 728.795 500.551 726.704C500.551 724.784 500.017 723.12 498.951 721.712C497.884 720.304 496.455 719.216 494.663 718.448C492.913 717.638 491.015 717.232 488.967 717.232H487.687V714.8H488.903C490.353 714.8 491.761 714.438 493.127 713.712C494.492 712.987 495.601 711.963 496.455 710.64C497.351 709.318 497.799 707.803 497.799 706.096C497.799 704.219 497.201 702.768 496.007 701.744C494.855 700.678 493.276 700.144 491.271 700.144C489.351 700.144 487.751 700.592 486.471 701.488C485.191 702.342 483.996 703.622 482.887 705.328L481.415 704.496C482.609 701.723 484.188 699.611 486.151 698.16C488.113 696.71 490.396 695.984 492.999 695.984C496.284 695.984 498.823 696.816 500.615 698.48C502.407 700.102 503.303 702.128 503.303 704.56C503.303 706.779 502.641 708.571 501.319 709.936C500.039 711.302 498.396 712.624 496.391 713.904V714.096C498.097 714.608 499.655 715.355 501.063 716.336C502.513 717.275 503.665 718.448 504.519 719.856C505.372 721.222 505.799 722.864 505.799 724.784C505.799 727.686 504.988 730.139 503.367 732.144C501.745 734.107 499.612 735.579 496.967 736.56C494.321 737.542 491.441 738.032 488.327 738.032ZM566.245 716.272H528.101V711.92H566.245V716.272ZM566.245 729.328H528.101V725.04H566.245V729.328ZM601.066 737.904C598.506 737.904 596.33 737.35 594.538 736.24C592.746 735.088 591.295 733.531 590.186 731.568C589.076 729.606 588.266 727.344 587.754 724.784C587.242 722.224 586.986 719.536 586.986 716.72C586.986 712.667 587.519 709.104 588.586 706.032C589.695 702.918 591.295 700.486 593.386 698.736C595.519 696.987 598.122 696.112 601.194 696.112C603.967 696.112 606.399 696.944 608.49 698.608C610.58 700.23 612.223 702.598 613.418 705.712C614.612 708.784 615.21 712.518 615.21 716.912C615.21 719.643 614.932 722.267 614.378 724.784C613.866 727.302 613.034 729.542 611.882 731.504C610.772 733.467 609.322 735.024 607.53 736.176C605.738 737.328 603.583 737.904 601.066 737.904ZM601.066 735.6C603.583 735.6 605.524 734.086 606.89 731.056C608.298 728.027 609.002 723.44 609.002 717.296C609.002 710.811 608.319 706.032 606.954 702.96C605.631 699.846 603.647 698.288 601.002 698.288C598.484 698.288 596.543 699.824 595.178 702.896C593.812 705.968 593.13 710.683 593.13 717.04C593.13 723.227 593.812 727.878 595.178 730.992C596.543 734.064 598.506 735.6 601.066 735.6Z" fill="black"/>
<path id="0_5" d="M750.128 737.904C747.568 737.904 745.392 737.35 743.6 736.24C741.808 735.088 740.358 733.531 739.248 731.568C738.139 729.606 737.328 727.344 736.816 724.784C736.304 722.224 736.048 719.536 736.048 716.72C736.048 712.667 736.582 709.104 737.648 706.032C738.758 702.918 740.358 700.486 742.448 698.736C744.582 696.987 747.184 696.112 750.256 696.112C753.03 696.112 755.462 696.944 757.552 698.608C759.643 700.23 761.286 702.598 762.48 705.712C763.675 708.784 764.272 712.518 764.272 716.912C764.272 719.643 763.995 722.267 763.44 724.784C762.928 727.302 762.096 729.542 760.944 731.504C759.835 733.467 758.384 735.024 756.592 736.176C754.8 737.328 752.646 737.904 750.128 737.904ZM750.128 735.6C752.646 735.6 754.587 734.086 755.952 731.056C757.36 728.027 758.064 723.44 758.064 717.296C758.064 710.811 757.382 706.032 756.016 702.96C754.694 699.846 752.71 698.288 750.064 698.288C747.547 698.288 745.606 699.824 744.24 702.896C742.875 705.968 742.192 710.683 742.192 717.04C742.192 723.227 742.875 727.878 744.24 730.992C745.606 734.064 747.568 735.6 750.128 735.6Z" fill="black"/>
<path id="0_6" d="M890.128 737.904C887.568 737.904 885.392 737.35 883.6 736.24C881.808 735.088 880.358 733.531 879.248 731.568C878.139 729.606 877.328 727.344 876.816 724.784C876.304 722.224 876.048 719.536 876.048 716.72C876.048 712.667 876.582 709.104 877.648 706.032C878.758 702.918 880.358 700.486 882.448 698.736C884.582 696.987 887.184 696.112 890.256 696.112C893.03 696.112 895.462 696.944 897.552 698.608C899.643 700.23 901.286 702.598 902.48 705.712C903.675 708.784 904.272 712.518 904.272 716.912C904.272 719.643 903.995 722.267 903.44 724.784C902.928 727.302 902.096 729.542 900.944 731.504C899.835 733.467 898.384 735.024 896.592 736.176C894.8 737.328 892.646 737.904 890.128 737.904ZM890.128 735.6C892.646 735.6 894.587 734.086 895.952 731.056C897.36 728.027 898.064 723.44 898.064 717.296C898.064 710.811 897.382 706.032 896.016 702.96C894.694 699.846 892.71 698.288 890.064 698.288C887.547 698.288 885.606 699.824 884.24 702.896C882.875 705.968 882.192 710.683 882.192 717.04C882.192 723.227 882.875 727.878 884.24 730.992C885.606 734.064 887.568 735.6 890.128 735.6Z" fill="black"/>
<path id="0_7" d="M1030.13 737.904C1027.57 737.904 1025.39 737.35 1023.6 736.24C1021.81 735.088 1020.36 733.531 1019.25 731.568C1018.14 729.606 1017.33 727.344 1016.82 724.784C1016.3 722.224 1016.05 719.536 1016.05 716.72C1016.05 712.667 1016.58 709.104 1017.65 706.032C1018.76 702.918 1020.36 700.486 1022.45 698.736C1024.58 696.987 1027.18 696.112 1030.26 696.112C1033.03 696.112 1035.46 696.944 1037.55 698.608C1039.64 700.23 1041.29 702.598 1042.48 705.712C1043.67 708.784 1044.27 712.518 1044.27 716.912C1044.27 719.643 1043.99 722.267 1043.44 724.784C1042.93 727.302 1042.1 729.542 1040.94 731.504C1039.83 733.467 1038.38 735.024 1036.59 736.176C1034.8 737.328 1032.65 737.904 1030.13 737.904ZM1030.13 735.6C1032.65 735.6 1034.59 734.086 1035.95 731.056C1037.36 728.027 1038.06 723.44 1038.06 717.296C1038.06 710.811 1037.38 706.032 1036.02 702.96C1034.69 699.846 1032.71 698.288 1030.06 698.288C1027.55 698.288 1025.61 699.824 1024.24 702.896C1022.87 705.968 1022.19 710.683 1022.19 717.04C1022.19 723.227 1022.87 727.878 1024.24 730.992C1025.61 734.064 1027.57 735.6 1030.13 735.6Z" fill="black"/>
<path id="0_8" d="M1170.13 737.904C1167.57 737.904 1165.39 737.35 1163.6 736.24C1161.81 735.088 1160.36 733.531 1159.25 731.568C1158.14 729.606 1157.33 727.344 1156.82 724.784C1156.3 722.224 1156.05 719.536 1156.05 716.72C1156.05 712.667 1156.58 709.104 1157.65 706.032C1158.76 702.918 1160.36 700.486 1162.45 698.736C1164.58 696.987 1167.18 696.112 1170.26 696.112C1173.03 696.112 1175.46 696.944 1177.55 698.608C1179.64 700.23 1181.29 702.598 1182.48 705.712C1183.67 708.784 1184.27 712.518 1184.27 716.912C1184.27 719.643 1183.99 722.267 1183.44 724.784C1182.93 727.302 1182.1 729.542 1180.94 731.504C1179.83 733.467 1178.38 735.024 1176.59 736.176C1174.8 737.328 1172.65 737.904 1170.13 737.904ZM1170.13 735.6C1172.65 735.6 1174.59 734.086 1175.95 731.056C1177.36 728.027 1178.06 723.44 1178.06 717.296C1178.06 710.811 1177.38 706.032 1176.02 702.96C1174.69 699.846 1172.71 698.288 1170.06 698.288C1167.55 698.288 1165.61 699.824 1164.24 702.896C1162.87 705.968 1162.19 710.683 1162.19 717.04C1162.19 723.227 1162.87 727.878 1164.24 730.992C1165.61 734.064 1167.57 735.6 1170.13 735.6Z" fill="black"/>
<path id="0_9" d="M1310.13 737.904C1307.57 737.904 1305.39 737.35 1303.6 736.24C1301.81 735.088 1300.36 733.531 1299.25 731.568C1298.14 729.606 1297.33 727.344 1296.82 724.784C1296.3 722.224 1296.05 719.536 1296.05 716.72C1296.05 712.667 1296.58 709.104 1297.65 706.032C1298.76 702.918 1300.36 700.486 1302.45 698.736C1304.58 696.987 1307.18 696.112 1310.26 696.112C1313.03 696.112 1315.46 696.944 1317.55 698.608C1319.64 700.23 1321.29 702.598 1322.48 705.712C1323.67 708.784 1324.27 712.518 1324.27 716.912C1324.27 719.643 1323.99 722.267 1323.44 724.784C1322.93 727.302 1322.1 729.542 1320.94 731.504C1319.83 733.467 1318.38 735.024 1316.59 736.176C1314.8 737.328 1312.65 737.904 1310.13 737.904ZM1310.13 735.6C1312.65 735.6 1314.59 734.086 1315.95 731.056C1317.36 728.027 1318.06 723.44 1318.06 717.296C1318.06 710.811 1317.38 706.032 1316.02 702.96C1314.69 699.846 1312.71 698.288 1310.06 698.288C1307.55 698.288 1305.61 699.824 1304.24 702.896C1302.87 705.968 1302.19 710.683 1302.19 717.04C1302.19 723.227 1302.87 727.878 1304.24 730.992C1305.61 734.064 1307.57 735.6 1310.13 735.6Z" fill="black"/>
<path id="0_10" d="M1590.13 737.904C1587.57 737.904 1585.39 737.35 1583.6 736.24C1581.81 735.088 1580.36 733.531 1579.25 731.568C1578.14 729.606 1577.33 727.344 1576.82 724.784C1576.3 722.224 1576.05 719.536 1576.05 716.72C1576.05 712.667 1576.58 709.104 1577.65 706.032C1578.76 702.918 1580.36 700.486 1582.45 698.736C1584.58 696.987 1587.18 696.112 1590.26 696.112C1593.03 696.112 1595.46 696.944 1597.55 698.608C1599.64 700.23 1601.29 702.598 1602.48 705.712C1603.67 708.784 1604.27 712.518 1604.27 716.912C1604.27 719.643 1603.99 722.267 1603.44 724.784C1602.93 727.302 1602.1 729.542 1600.94 731.504C1599.83 733.467 1598.38 735.024 1596.59 736.176C1594.8 737.328 1592.65 737.904 1590.13 737.904ZM1590.13 735.6C1592.65 735.6 1594.59 734.086 1595.95 731.056C1597.36 728.027 1598.06 723.44 1598.06 717.296C1598.06 710.811 1597.38 706.032 1596.02 702.96C1594.69 699.846 1592.71 698.288 1590.06 698.288C1587.55 698.288 1585.61 699.824 1584.24 702.896C1582.87 705.968 1582.19 710.683 1582.19 717.04C1582.19 723.227 1582.87 727.878 1584.24 730.992C1585.61 734.064 1587.57 735.6 1590.13 735.6Z" fill="black"/>
</g>
<path id="&#226;&#132;&#164;/11" d="M1285.38 451.2H1246.22V448.512L1272.71 411.84H1249.35V409.152H1285.9V411.84L1259.02 448.512H1285.38V451.2ZM1276.17 411.84L1249.54 448.512H1255.75L1282.12 411.84H1276.17ZM1292.71 456.896H1289.12L1305.83 405.824H1309.35L1292.71 456.896ZM1338.83 451.2H1316.69V449.408C1319.72 449.408 1321.85 449.088 1323.09 448.448C1324.33 447.808 1324.95 446.699 1324.95 445.12V418.048C1324.95 416.939 1324.8 416.15 1324.5 415.68C1324.2 415.168 1323.64 414.912 1322.83 414.912C1322.41 414.912 1321.81 414.955 1321.04 415.04C1320.27 415.126 1319.46 415.254 1318.61 415.424C1317.76 415.552 1316.99 415.723 1316.31 415.936V413.824L1328.72 410.304H1330.58V445.12C1330.58 446.699 1331.22 447.808 1332.5 448.448C1333.78 449.088 1335.89 449.408 1338.83 449.408V451.2ZM1370.52 451.2H1348.38V449.408C1351.41 449.408 1353.54 449.088 1354.78 448.448C1356.02 447.808 1356.63 446.699 1356.63 445.12V418.048C1356.63 416.939 1356.48 416.15 1356.19 415.68C1355.89 415.168 1355.33 414.912 1354.52 414.912C1354.1 414.912 1353.5 414.955 1352.73 415.04C1351.96 415.126 1351.15 415.254 1350.3 415.424C1349.44 415.552 1348.68 415.723 1347.99 415.936V413.824L1360.41 410.304H1362.27V445.12C1362.27 446.699 1362.91 447.808 1364.19 448.448C1365.47 449.088 1367.58 449.408 1370.52 449.408V451.2Z" fill="black"/>
<path id="&#226;&#132;&#154;" d="M1589.45 452.16C1586.33 452.16 1583.45 451.606 1580.81 450.496C1578.21 449.344 1575.97 447.766 1574.09 445.76C1572.21 443.712 1570.74 441.366 1569.67 438.72C1568.65 436.032 1568.14 433.174 1568.14 430.144C1568.14 426.006 1569.03 422.294 1570.82 419.008C1572.66 415.723 1575.2 413.142 1578.44 411.264C1581.68 409.344 1585.44 408.384 1589.7 408.384C1593.84 408.384 1597.47 409.344 1600.58 411.264C1603.74 413.142 1606.19 415.723 1607.94 419.008C1609.69 422.294 1610.57 426.006 1610.57 430.144C1610.57 434.283 1609.67 438.016 1607.88 441.344C1606.13 444.672 1603.68 447.318 1600.52 449.28C1597.36 451.2 1593.67 452.16 1589.45 452.16ZM1605 455.36C1603.34 455.36 1601.93 455.04 1600.78 454.4C1599.62 453.803 1598.6 453.056 1597.7 452.16C1596.85 451.264 1596.02 450.368 1595.21 449.472C1594.44 448.576 1593.61 447.83 1592.71 447.232C1591.82 446.592 1590.75 446.272 1589.51 446.272C1588.23 446.272 1587.14 446.592 1586.25 447.232C1585.35 447.83 1584.54 448.576 1583.82 449.472L1580.68 448.832C1581.79 447.254 1583.07 445.974 1584.52 444.992C1586.01 443.968 1587.74 443.456 1589.7 443.456C1591.24 443.456 1592.56 443.776 1593.67 444.416C1594.82 445.014 1595.85 445.76 1596.74 446.656C1597.64 447.552 1598.49 448.448 1599.3 449.344C1600.16 450.24 1601.03 450.987 1601.93 451.584C1602.82 452.224 1603.85 452.544 1605 452.544C1605.85 452.544 1606.69 452.48 1607.5 452.352C1608.31 452.267 1609.12 452.16 1609.93 452.032L1610.31 454.784C1609.42 454.912 1608.52 455.04 1607.62 455.168C1606.73 455.296 1605.85 455.36 1605 455.36ZM1578.76 412.416V446.848L1576.01 445.568V414.848L1578.76 412.416ZM1589.45 449.408C1593.2 449.408 1596.42 448.534 1599.11 446.784C1601.84 444.992 1603.93 442.646 1605.38 439.744C1606.88 436.8 1607.62 433.6 1607.62 430.144C1607.62 426.731 1606.88 423.595 1605.38 420.736C1603.93 417.835 1601.84 415.51 1599.11 413.76C1596.42 412.011 1593.2 411.136 1589.45 411.136C1585.65 411.136 1582.37 411.947 1579.59 413.568C1576.86 415.19 1574.75 417.43 1573.26 420.288C1571.81 423.104 1571.08 426.39 1571.08 430.144C1571.08 433.6 1571.81 436.8 1573.26 439.744C1574.75 442.646 1576.86 444.992 1579.59 446.784C1582.37 448.534 1585.65 449.408 1589.45 449.408ZM1602.7 446.144L1599.94 447.36V412.416L1602.7 414.08V446.144Z" fill="black"/>
<path id="all_fields_of_char__0" d="M1570.34 319.424C1569.11 319.424 1568.16 319.083 1567.5 318.4C1566.86 317.718 1566.54 316.864 1566.54 315.84C1566.54 314.987 1566.73 314.272 1567.11 313.696C1567.52 313.099 1568.04 312.598 1568.68 312.192C1569.34 311.787 1570.05 311.446 1570.79 311.168C1571.56 310.891 1572.31 310.656 1573.03 310.464C1573.76 310.272 1574.4 310.091 1574.95 309.92V308.512C1574.95 307.126 1574.71 306.144 1574.22 305.568C1573.75 304.971 1573.03 304.672 1572.07 304.672C1571.15 304.672 1570.57 304.864 1570.31 305.248C1570.06 305.632 1569.93 306.304 1569.93 307.264C1569.93 307.755 1569.8 308.128 1569.54 308.384C1569.31 308.619 1568.97 308.736 1568.52 308.736C1568.2 308.736 1567.89 308.619 1567.59 308.384C1567.31 308.128 1567.18 307.734 1567.18 307.2C1567.18 306.603 1567.4 306.038 1567.85 305.504C1568.32 304.971 1568.97 304.534 1569.8 304.192C1570.65 303.851 1571.66 303.68 1572.81 303.68C1574.56 303.68 1575.79 304.086 1576.52 304.896C1577.25 305.707 1577.61 306.944 1577.61 308.608V315.872C1577.61 316.534 1577.68 316.96 1577.83 317.152C1577.98 317.344 1578.23 317.44 1578.57 317.44C1578.87 317.44 1579.13 317.366 1579.37 317.216C1579.62 317.067 1579.86 316.875 1580.07 316.64L1580.55 317.152C1580.02 317.92 1579.51 318.486 1579.02 318.848C1578.55 319.19 1577.91 319.36 1577.1 319.36C1576.35 319.36 1575.86 319.147 1575.62 318.72C1575.41 318.294 1575.25 317.686 1575.14 316.896L1574.95 316.512V310.976C1573.99 311.211 1573.09 311.488 1572.23 311.808C1571.38 312.128 1570.69 312.544 1570.15 313.056C1569.62 313.568 1569.35 314.24 1569.35 315.072C1569.35 315.862 1569.57 316.491 1569.99 316.96C1570.42 317.43 1570.97 317.664 1571.66 317.664C1572.21 317.664 1572.79 317.526 1573.38 317.248C1574 316.971 1574.6 316.576 1575.18 316.064L1575.43 317.216H1575.05C1574.56 317.643 1574.08 318.027 1573.61 318.368C1573.16 318.71 1572.67 318.976 1572.14 319.168C1571.62 319.339 1571.03 319.424 1570.34 319.424ZM1589.02 319.2H1581.66V318.272C1582.36 318.272 1582.87 318.208 1583.19 318.08C1583.51 317.931 1583.7 317.696 1583.77 317.376C1583.85 317.035 1583.9 316.566 1583.9 315.968V299.904C1583.9 299.243 1583.77 298.848 1583.51 298.72C1583.28 298.592 1582.96 298.528 1582.55 298.528C1582.27 298.528 1582.03 298.539 1581.82 298.56C1581.62 298.582 1581.53 298.592 1581.53 298.592V297.728L1585.75 296.608H1586.55V315.968C1586.55 316.587 1586.59 317.067 1586.68 317.408C1586.79 317.728 1587.01 317.952 1587.35 318.08C1587.69 318.208 1588.25 318.272 1589.02 318.272V319.2ZM1598.08 319.2H1590.72V318.272C1591.42 318.272 1591.93 318.208 1592.25 318.08C1592.57 317.931 1592.77 317.696 1592.83 317.376C1592.92 317.035 1592.96 316.566 1592.96 315.968V299.904C1592.96 299.243 1592.83 298.848 1592.57 298.72C1592.34 298.592 1592.02 298.528 1591.61 298.528C1591.34 298.528 1591.09 298.539 1590.88 298.56C1590.69 298.582 1590.59 298.592 1590.59 298.592V297.728L1594.81 296.608H1595.61V315.968C1595.61 316.587 1595.66 317.067 1595.74 317.408C1595.85 317.728 1596.07 317.952 1596.41 318.08C1596.76 318.208 1597.31 318.272 1598.08 318.272V319.2ZM1615.09 319.2H1606.93V318.304C1607.72 318.304 1608.29 318.24 1608.66 318.112C1609.04 317.963 1609.3 317.686 1609.42 317.28C1609.55 316.854 1609.62 316.224 1609.62 315.392V305.568H1607.18V304.224H1609.62C1609.62 303.392 1609.65 302.667 1609.71 302.048C1609.8 301.408 1609.92 300.822 1610.1 300.288C1610.27 299.755 1610.5 299.254 1610.8 298.784C1611.23 298.102 1611.92 297.515 1612.88 297.024C1613.84 296.512 1615.09 296.256 1616.62 296.256C1617.56 296.256 1618.38 296.352 1619.09 296.544C1619.79 296.715 1620.34 296.992 1620.72 297.376C1621.12 297.76 1621.33 298.251 1621.33 298.848C1621.33 299.296 1621.19 299.659 1620.91 299.936C1620.66 300.192 1620.28 300.32 1619.79 300.32C1619.32 300.32 1618.96 300.16 1618.7 299.84C1618.45 299.499 1618.21 299.094 1618 298.624C1617.81 298.155 1617.53 297.835 1617.17 297.664C1616.83 297.494 1616.38 297.408 1615.82 297.408C1614.71 297.408 1613.85 297.75 1613.23 298.432C1612.63 299.115 1612.34 300.342 1612.34 302.112V304.224H1618.7V305.568H1612.34V315.392C1612.34 316.203 1612.41 316.822 1612.56 317.248C1612.71 317.675 1612.98 317.963 1613.36 318.112C1613.76 318.24 1614.34 318.304 1615.09 318.304V319.2ZM1624.55 319.2H1617.19V318.272C1617.89 318.272 1618.4 318.198 1618.72 318.048C1619.04 317.899 1619.24 317.654 1619.3 317.312C1619.38 316.971 1619.43 316.523 1619.43 315.968V307.264C1619.43 306.603 1619.31 306.144 1619.08 305.888C1618.86 305.632 1618.5 305.504 1617.99 305.504H1617.09V304.288L1621.25 303.936H1622.08V315.968C1622.08 316.566 1622.13 317.035 1622.21 317.376C1622.32 317.718 1622.54 317.952 1622.88 318.08C1623.22 318.208 1623.78 318.272 1624.55 318.272V319.2ZM1633.19 319.52C1631.91 319.52 1630.75 319.222 1629.71 318.624C1628.68 318.006 1627.87 317.11 1627.27 315.936C1626.68 314.742 1626.38 313.291 1626.38 311.584C1626.38 309.792 1626.68 308.32 1627.27 307.168C1627.89 305.995 1628.71 305.12 1629.74 304.544C1630.76 303.968 1631.89 303.68 1633.13 303.68C1634.88 303.68 1636.29 304.288 1637.35 305.504C1638.42 306.72 1639 308.448 1639.08 310.688H1628.68L1628.65 309.504H1636.07C1636.05 308.715 1635.91 307.979 1635.66 307.296C1635.4 306.592 1635.03 306.027 1634.54 305.6C1634.05 305.174 1633.42 304.96 1632.65 304.96C1631.41 304.96 1630.48 305.451 1629.87 306.432C1629.25 307.392 1628.94 308.758 1628.94 310.528C1628.94 312 1629.17 313.227 1629.64 314.208C1630.11 315.19 1630.73 315.926 1631.5 316.416C1632.27 316.886 1633.09 317.12 1633.96 317.12C1634.84 317.12 1635.54 317.003 1636.07 316.768C1636.63 316.534 1637.1 316.235 1637.48 315.872C1637.87 315.488 1638.23 315.072 1638.57 314.624L1639.18 315.072C1638.9 315.67 1638.58 316.246 1638.22 316.8C1637.85 317.334 1637.44 317.803 1636.97 318.208C1636.52 318.614 1635.99 318.934 1635.37 319.168C1634.75 319.403 1634.03 319.52 1633.19 319.52ZM1648.45 319.2H1641.09V318.272C1641.8 318.272 1642.31 318.208 1642.63 318.08C1642.95 317.931 1643.14 317.696 1643.2 317.376C1643.29 317.035 1643.33 316.566 1643.33 315.968V299.904C1643.33 299.243 1643.2 298.848 1642.95 298.72C1642.71 298.592 1642.39 298.528 1641.99 298.528C1641.71 298.528 1641.47 298.539 1641.25 298.56C1641.06 298.582 1640.96 298.592 1640.96 298.592V297.728L1645.19 296.608H1645.99V315.968C1645.99 316.587 1646.03 317.067 1646.12 317.408C1646.22 317.728 1646.45 317.952 1646.79 318.08C1647.13 318.208 1647.68 318.272 1648.45 318.272V319.2ZM1655.72 319.456C1654.53 319.456 1653.52 319.136 1652.68 318.496C1651.87 317.856 1651.26 316.992 1650.86 315.904C1650.45 314.795 1650.25 313.558 1650.25 312.192C1650.25 310.422 1650.58 308.907 1651.24 307.648C1651.9 306.368 1652.79 305.387 1653.9 304.704C1655.03 304.022 1656.27 303.68 1657.61 303.68C1658.12 303.68 1658.62 303.744 1659.12 303.872C1659.63 304 1660.12 304.192 1660.59 304.448H1660.72V300.256C1660.72 299.552 1660.63 299.094 1660.46 298.88C1660.31 298.667 1659.93 298.56 1659.31 298.56C1659.16 298.56 1658.98 298.571 1658.76 298.592C1658.57 298.614 1658.48 298.624 1658.48 298.624V297.728L1662.51 296.608H1663.37V315.776C1663.37 316.608 1663.49 317.152 1663.72 317.408C1663.96 317.643 1664.37 317.76 1664.97 317.76H1665.64V318.624L1661.55 319.36H1660.81V317.152H1660.68C1660.09 317.686 1659.37 318.208 1658.54 318.72C1657.73 319.211 1656.79 319.456 1655.72 319.456ZM1657.23 317.152C1657.97 317.152 1658.6 317.056 1659.12 316.864C1659.63 316.651 1660.16 316.352 1660.72 315.968V307.52C1660.59 306.859 1660.28 306.272 1659.79 305.76C1659.3 305.227 1658.55 304.96 1657.55 304.96C1656.2 304.96 1655.12 305.451 1654.28 306.432C1653.45 307.414 1653.04 308.918 1653.04 310.944C1653.04 313.142 1653.39 314.731 1654.09 315.712C1654.82 316.672 1655.86 317.152 1657.23 317.152ZM1667.79 319.456L1667.69 313.952H1668.53C1668.87 315.595 1669.37 316.747 1670.03 317.408C1670.69 318.048 1671.61 318.368 1672.78 318.368C1673.59 318.368 1674.25 318.208 1674.77 317.888C1675.28 317.547 1675.53 317.003 1675.53 316.256C1675.53 315.744 1675.44 315.318 1675.25 314.976C1675.07 314.635 1674.73 314.294 1674.22 313.952C1673.71 313.59 1672.95 313.163 1671.95 312.672C1670.97 312.182 1670.17 311.712 1669.55 311.264C1668.93 310.795 1668.47 310.283 1668.17 309.728C1667.87 309.174 1667.73 308.502 1667.73 307.712C1667.73 306.39 1668.19 305.387 1669.13 304.704C1670.09 304.022 1671.26 303.68 1672.62 303.68C1673.43 303.68 1674.09 303.776 1674.61 303.968C1675.12 304.139 1675.58 304.32 1675.98 304.512H1676.01L1676.56 303.84H1677.2L1677.29 308.736H1676.43C1676.09 307.222 1675.61 306.187 1674.99 305.632C1674.37 305.056 1673.57 304.768 1672.59 304.768C1671.86 304.768 1671.25 304.939 1670.73 305.28C1670.24 305.622 1670 306.155 1670 306.88C1670 307.499 1670.29 308.054 1670.86 308.544C1671.44 309.035 1672.4 309.622 1673.74 310.304C1674.72 310.816 1675.54 311.318 1676.21 311.808C1676.87 312.278 1677.37 312.8 1677.71 313.376C1678.05 313.931 1678.22 314.603 1678.22 315.392C1678.22 316.395 1677.98 317.206 1677.49 317.824C1676.99 318.422 1676.33 318.859 1675.5 319.136C1674.69 319.414 1673.81 319.552 1672.85 319.552C1671.93 319.552 1671.19 319.456 1670.64 319.264C1670.1 319.072 1669.62 318.891 1669.2 318.72H1669.13L1668.46 319.456H1667.79ZM1573.58 359.52C1571.34 359.52 1569.58 358.827 1568.3 357.44C1567.04 356.032 1566.41 354.038 1566.41 351.456C1566.41 349.899 1566.71 348.544 1567.3 347.392C1567.9 346.219 1568.73 345.312 1569.8 344.672C1570.89 344.011 1572.15 343.68 1573.58 343.68C1575.77 343.68 1577.5 344.363 1578.76 345.728C1580.04 347.094 1580.68 348.96 1580.68 351.328C1580.68 353.12 1580.37 354.624 1579.75 355.84C1579.15 357.056 1578.32 357.974 1577.26 358.592C1576.19 359.211 1574.96 359.52 1573.58 359.52ZM1573.7 358.24C1574.58 358.24 1575.31 358.038 1575.91 357.632C1576.51 357.227 1576.96 356.534 1577.26 355.552C1577.58 354.571 1577.74 353.216 1577.74 351.488C1577.74 349.526 1577.37 347.936 1576.65 346.72C1575.94 345.504 1574.88 344.896 1573.45 344.896C1572.23 344.896 1571.25 345.408 1570.5 346.432C1569.76 347.456 1569.38 348.992 1569.38 351.04C1569.38 353.579 1569.76 355.424 1570.5 356.576C1571.27 357.707 1572.34 358.262 1573.7 358.24ZM1590.94 359.2H1582.33V358.272C1583.12 358.272 1583.7 358.208 1584.06 358.08C1584.45 357.931 1584.7 357.654 1584.83 357.248C1584.96 356.843 1585.02 356.224 1585.02 355.392V345.216C1585.02 344 1585.04 343.008 1585.09 342.24C1585.15 341.451 1585.26 340.79 1585.41 340.256C1585.56 339.723 1585.77 339.211 1586.05 338.72C1586.47 337.974 1587.01 337.398 1587.65 336.992C1588.31 336.587 1589.19 336.384 1590.3 336.384C1591.01 336.384 1591.62 336.47 1592.16 336.64C1592.69 336.811 1593.11 337.067 1593.41 337.408C1593.73 337.728 1593.89 338.134 1593.89 338.624C1593.89 339.094 1593.76 339.446 1593.5 339.68C1593.25 339.894 1592.94 340 1592.57 340C1592.17 340 1591.84 339.872 1591.58 339.616C1591.33 339.339 1591.08 339.051 1590.85 338.752C1590.63 338.454 1590.4 338.187 1590.14 337.952C1589.91 337.696 1589.6 337.568 1589.21 337.568C1588.62 337.568 1588.21 337.846 1588 338.4C1587.78 338.934 1587.68 339.872 1587.68 341.216V355.392C1587.68 356.224 1587.76 356.843 1587.93 357.248C1588.1 357.654 1588.42 357.931 1588.89 358.08C1589.36 358.208 1590.05 358.272 1590.94 358.272V359.2ZM1591.58 345.568H1582.59V344.224H1591.58V345.568ZM1613.75 354.464L1614.36 354.912C1613.95 355.766 1613.48 356.544 1612.95 357.248C1612.44 357.952 1611.8 358.507 1611.03 358.912C1610.26 359.318 1609.3 359.52 1608.15 359.52C1606.83 359.52 1605.69 359.2 1604.73 358.56C1603.77 357.92 1603.03 357.035 1602.52 355.904C1602.01 354.752 1601.75 353.44 1601.75 351.968C1601.75 350.283 1602.03 348.822 1602.58 347.584C1603.16 346.347 1603.98 345.387 1605.05 344.704C1606.14 344.022 1607.45 343.68 1608.98 343.68C1610.5 343.68 1611.68 344.011 1612.54 344.672C1613.41 345.334 1613.85 346.134 1613.85 347.072C1613.85 347.542 1613.73 347.904 1613.5 348.16C1613.28 348.395 1612.95 348.512 1612.5 348.512C1612.03 348.512 1611.67 348.395 1611.42 348.16C1611.18 347.904 1610.99 347.595 1610.84 347.232C1610.69 346.87 1610.53 346.507 1610.36 346.144C1610.21 345.782 1609.99 345.483 1609.69 345.248C1609.41 344.992 1608.99 344.864 1608.44 344.864C1607.14 344.864 1606.11 345.344 1605.37 346.304C1604.64 347.243 1604.28 348.63 1604.28 350.464C1604.28 352.406 1604.67 354.006 1605.46 355.264C1606.27 356.502 1607.5 357.12 1609.14 357.12C1610.19 357.12 1611.03 356.907 1611.67 356.48C1612.33 356.054 1613.03 355.382 1613.75 354.464ZM1632.77 359.2H1625.41V358.272C1626.16 358.272 1626.69 358.198 1627.01 358.048C1627.33 357.899 1627.53 357.664 1627.62 357.344C1627.7 357.024 1627.74 356.608 1627.74 356.096V350.56C1627.74 349.686 1627.68 348.886 1627.55 348.16C1627.42 347.414 1627.15 346.827 1626.72 346.4C1626.32 345.952 1625.68 345.728 1624.8 345.728C1624.14 345.728 1623.47 345.91 1622.78 346.272C1622.1 346.614 1621.32 347.211 1620.45 348.064L1620.48 346.304H1620.93C1621.93 345.366 1622.83 344.694 1623.62 344.288C1624.43 343.883 1625.26 343.68 1626.11 343.68C1627.03 343.68 1627.77 343.862 1628.32 344.224C1628.9 344.587 1629.33 345.067 1629.63 345.664C1629.93 346.24 1630.13 346.88 1630.24 347.584C1630.35 348.267 1630.4 348.939 1630.4 349.6V355.968C1630.4 356.822 1630.54 357.419 1630.82 357.76C1631.12 358.102 1631.77 358.272 1632.77 358.272V359.2ZM1623.2 359.2H1615.94V358.272C1616.77 358.272 1617.34 358.155 1617.66 357.92C1618.01 357.686 1618.18 357.12 1618.18 356.224V339.84C1618.18 339.286 1618.02 338.934 1617.7 338.784C1617.4 338.635 1617.04 338.56 1616.61 338.56C1616.35 338.56 1616.13 338.571 1615.94 338.592C1615.77 338.614 1615.68 338.624 1615.68 338.624V337.728L1619.97 336.608H1620.83V356.096C1620.83 356.651 1620.88 357.088 1620.96 357.408C1621.05 357.728 1621.26 357.952 1621.6 358.08C1621.94 358.208 1622.48 358.272 1623.2 358.272V359.2ZM1638.47 359.424C1637.23 359.424 1636.28 359.083 1635.62 358.4C1634.98 357.718 1634.66 356.864 1634.66 355.84C1634.66 354.987 1634.85 354.272 1635.24 353.696C1635.64 353.099 1636.17 352.598 1636.81 352.192C1637.47 351.787 1638.17 351.446 1638.92 351.168C1639.69 350.891 1640.43 350.656 1641.16 350.464C1641.88 350.272 1642.52 350.091 1643.08 349.92V348.512C1643.08 347.126 1642.83 346.144 1642.34 345.568C1641.87 344.971 1641.16 344.672 1640.2 344.672C1639.28 344.672 1638.69 344.864 1638.44 345.248C1638.18 345.632 1638.05 346.304 1638.05 347.264C1638.05 347.755 1637.93 348.128 1637.67 348.384C1637.43 348.619 1637.09 348.736 1636.65 348.736C1636.33 348.736 1636.02 348.619 1635.72 348.384C1635.44 348.128 1635.3 347.734 1635.3 347.2C1635.3 346.603 1635.53 346.038 1635.97 345.504C1636.44 344.971 1637.09 344.534 1637.93 344.192C1638.78 343.851 1639.78 343.68 1640.93 343.68C1642.68 343.68 1643.92 344.086 1644.65 344.896C1645.37 345.707 1645.73 346.944 1645.73 348.608V355.872C1645.73 356.534 1645.81 356.96 1645.96 357.152C1646.11 357.344 1646.35 357.44 1646.69 357.44C1646.99 357.44 1647.26 357.366 1647.49 357.216C1647.75 357.067 1647.98 356.875 1648.2 356.64L1648.68 357.152C1648.14 357.92 1647.63 358.486 1647.14 358.848C1646.67 359.19 1646.03 359.36 1645.22 359.36C1644.47 359.36 1643.98 359.147 1643.75 358.72C1643.54 358.294 1643.38 357.686 1643.27 356.896L1643.08 356.512V350.976C1642.12 351.211 1641.21 351.488 1640.36 351.808C1639.5 352.128 1638.81 352.544 1638.28 353.056C1637.74 353.568 1637.48 354.24 1637.48 355.072C1637.48 355.862 1637.69 356.491 1638.12 356.96C1638.54 357.43 1639.1 357.664 1639.78 357.664C1640.34 357.664 1640.91 357.526 1641.51 357.248C1642.13 356.971 1642.73 356.576 1643.3 356.064L1643.56 357.216H1643.17C1642.68 357.643 1642.2 358.027 1641.73 358.368C1641.29 358.71 1640.79 358.976 1640.26 359.168C1639.75 359.339 1639.15 359.424 1638.47 359.424ZM1657.75 359.2H1649.75V358.272C1650.45 358.272 1650.96 358.219 1651.28 358.112C1651.63 357.984 1651.84 357.771 1651.92 357.472C1652.03 357.152 1652.08 356.694 1652.08 356.096V347.296C1652.08 346.72 1652.03 346.294 1651.92 346.016C1651.84 345.718 1651.51 345.568 1650.93 345.568C1650.61 345.568 1650.37 345.579 1650.2 345.6C1650.03 345.622 1649.94 345.632 1649.94 345.632V344.736L1653.91 343.776H1654.68V347.072H1654.77C1655.33 346.283 1655.82 345.632 1656.24 345.12C1656.67 344.608 1657.09 344.224 1657.49 343.968C1657.92 343.712 1658.39 343.584 1658.9 343.584C1659.52 343.584 1659.98 343.744 1660.28 344.064C1660.6 344.384 1660.76 344.822 1660.76 345.376C1660.76 345.974 1660.61 346.411 1660.31 346.688C1660.03 346.966 1659.71 347.104 1659.35 347.104C1659.01 347.104 1658.7 347.019 1658.42 346.848C1658.16 346.656 1657.94 346.475 1657.75 346.304C1657.56 346.112 1657.4 346.016 1657.27 346.016C1656.91 346.016 1656.49 346.294 1656.02 346.848C1655.55 347.403 1655.12 348 1654.74 348.64V355.936C1654.74 356.598 1654.83 357.099 1655 357.44C1655.17 357.782 1655.47 358.006 1655.89 358.112C1656.34 358.219 1656.96 358.272 1657.75 358.272V359.2ZM1662.75 359.456C1662.11 359.456 1661.63 359.275 1661.31 358.912C1661.02 358.55 1660.87 358.102 1660.87 357.568C1660.87 357.014 1661.04 356.544 1661.38 356.16C1661.72 355.755 1662.19 355.552 1662.79 355.552C1663.41 355.552 1663.89 355.755 1664.23 356.16C1664.57 356.566 1664.74 357.046 1664.74 357.6C1664.74 358.091 1664.57 358.528 1664.23 358.912C1663.89 359.275 1663.39 359.456 1662.75 359.456ZM1682.16 359.552C1680.88 359.552 1679.79 359.275 1678.9 358.72C1678 358.144 1677.28 357.366 1676.72 356.384C1676.17 355.403 1675.76 354.272 1675.51 352.992C1675.25 351.712 1675.12 350.368 1675.12 348.96C1675.12 346.934 1675.39 345.152 1675.92 343.616C1676.48 342.059 1677.28 340.843 1678.32 339.968C1679.39 339.094 1680.69 338.656 1682.23 338.656C1683.61 338.656 1684.83 339.072 1685.87 339.904C1686.92 340.715 1687.74 341.899 1688.34 343.456C1688.94 344.992 1689.23 346.859 1689.23 349.056C1689.23 350.422 1689.1 351.734 1688.82 352.992C1688.56 354.251 1688.15 355.371 1687.57 356.352C1687.02 357.334 1686.29 358.112 1685.39 358.688C1684.5 359.264 1683.42 359.552 1682.16 359.552ZM1682.16 358.4C1683.42 358.4 1684.39 357.643 1685.07 356.128C1685.78 354.614 1686.13 352.32 1686.13 349.248C1686.13 346.006 1685.79 343.616 1685.11 342.08C1684.44 340.523 1683.45 339.744 1682.13 339.744C1680.87 339.744 1679.9 340.512 1679.22 342.048C1678.54 343.584 1678.19 345.942 1678.19 349.12C1678.19 352.214 1678.54 354.539 1679.22 356.096C1679.9 357.632 1680.88 358.4 1682.16 358.4Z" fill="black"/>
<path id="all_fields_of_char__3" d="M846.344 319.424C845.107 319.424 844.158 319.083 843.496 318.4C842.856 317.718 842.536 316.864 842.536 315.84C842.536 314.987 842.728 314.272 843.112 313.696C843.518 313.099 844.04 312.598 844.68 312.192C845.342 311.787 846.046 311.446 846.792 311.168C847.56 310.891 848.307 310.656 849.032 310.464C849.758 310.272 850.398 310.091 850.952 309.92V308.512C850.952 307.126 850.707 306.144 850.216 305.568C849.747 304.971 849.032 304.672 848.072 304.672C847.155 304.672 846.568 304.864 846.312 305.248C846.056 305.632 845.928 306.304 845.928 307.264C845.928 307.755 845.8 308.128 845.544 308.384C845.31 308.619 844.968 308.736 844.52 308.736C844.2 308.736 843.891 308.619 843.592 308.384C843.315 308.128 843.176 307.734 843.176 307.2C843.176 306.603 843.4 306.038 843.848 305.504C844.318 304.971 844.968 304.534 845.8 304.192C846.654 303.851 847.656 303.68 848.808 303.68C850.558 303.68 851.795 304.086 852.52 304.896C853.246 305.707 853.608 306.944 853.608 308.608V315.872C853.608 316.534 853.683 316.96 853.832 317.152C853.982 317.344 854.227 317.44 854.568 317.44C854.867 317.44 855.134 317.366 855.368 317.216C855.624 317.067 855.859 316.875 856.072 316.64L856.552 317.152C856.019 317.92 855.507 318.486 855.016 318.848C854.547 319.19 853.907 319.36 853.096 319.36C852.35 319.36 851.859 319.147 851.624 318.72C851.411 318.294 851.251 317.686 851.144 316.896L850.952 316.512V310.976C849.992 311.211 849.086 311.488 848.232 311.808C847.379 312.128 846.686 312.544 846.152 313.056C845.619 313.568 845.352 314.24 845.352 315.072C845.352 315.862 845.566 316.491 845.992 316.96C846.419 317.43 846.974 317.664 847.656 317.664C848.211 317.664 848.787 317.526 849.384 317.248C850.003 316.971 850.6 316.576 851.176 316.064L851.432 317.216H851.048C850.558 317.643 850.078 318.027 849.608 318.368C849.16 318.71 848.67 318.976 848.136 319.168C847.624 319.339 847.027 319.424 846.344 319.424ZM865.015 319.2H857.655V318.272C858.359 318.272 858.871 318.208 859.191 318.08C859.511 317.931 859.703 317.696 859.767 317.376C859.853 317.035 859.895 316.566 859.895 315.968V299.904C859.895 299.243 859.767 298.848 859.511 298.72C859.277 298.592 858.957 298.528 858.551 298.528C858.274 298.528 858.029 298.539 857.815 298.56C857.623 298.582 857.527 298.592 857.527 298.592V297.728L861.751 296.608H862.551V315.968C862.551 316.587 862.594 317.067 862.679 317.408C862.786 317.728 863.01 317.952 863.351 318.08C863.693 318.208 864.247 318.272 865.015 318.272V319.2ZM874.078 319.2H866.718V318.272C867.422 318.272 867.934 318.208 868.254 318.08C868.574 317.931 868.766 317.696 868.83 317.376C868.915 317.035 868.958 316.566 868.958 315.968V299.904C868.958 299.243 868.83 298.848 868.574 298.72C868.339 298.592 868.019 298.528 867.614 298.528C867.336 298.528 867.091 298.539 866.878 298.56C866.686 298.582 866.59 298.592 866.59 298.592V297.728L870.814 296.608H871.614V315.968C871.614 316.587 871.656 317.067 871.742 317.408C871.848 317.728 872.072 317.952 872.414 318.08C872.755 318.208 873.31 318.272 874.078 318.272V319.2ZM891.088 319.2H882.928V318.304C883.717 318.304 884.293 318.24 884.656 318.112C885.04 317.963 885.296 317.686 885.424 317.28C885.552 316.854 885.616 316.224 885.616 315.392V305.568H883.184V304.224H885.616C885.616 303.392 885.648 302.667 885.712 302.048C885.797 301.408 885.925 300.822 886.096 300.288C886.266 299.755 886.501 299.254 886.8 298.784C887.226 298.102 887.92 297.515 888.88 297.024C889.84 296.512 891.088 296.256 892.624 296.256C893.562 296.256 894.384 296.352 895.088 296.544C895.792 296.715 896.336 296.992 896.72 297.376C897.125 297.76 897.328 298.251 897.328 298.848C897.328 299.296 897.189 299.659 896.912 299.936C896.656 300.192 896.282 300.32 895.792 300.32C895.322 300.32 894.96 300.16 894.704 299.84C894.448 299.499 894.213 299.094 894 298.624C893.808 298.155 893.53 297.835 893.168 297.664C892.826 297.494 892.378 297.408 891.824 297.408C890.714 297.408 889.85 297.75 889.232 298.432C888.634 299.115 888.336 300.342 888.336 302.112V304.224H894.704V305.568H888.336V315.392C888.336 316.203 888.41 316.822 888.56 317.248C888.709 317.675 888.976 317.963 889.36 318.112C889.765 318.24 890.341 318.304 891.088 318.304V319.2ZM900.547 319.2H893.187V318.272C893.891 318.272 894.403 318.198 894.723 318.048C895.043 317.899 895.235 317.654 895.299 317.312C895.385 316.971 895.427 316.523 895.427 315.968V307.264C895.427 306.603 895.31 306.144 895.075 305.888C894.862 305.632 894.499 305.504 893.987 305.504H893.091V304.288L897.251 303.936H898.083V315.968C898.083 316.566 898.126 317.035 898.211 317.376C898.318 317.718 898.542 317.952 898.883 318.08C899.225 318.208 899.779 318.272 900.547 318.272V319.2ZM909.193 319.52C907.913 319.52 906.75 319.222 905.705 318.624C904.681 318.006 903.87 317.11 903.273 315.936C902.676 314.742 902.377 313.291 902.377 311.584C902.377 309.792 902.676 308.32 903.273 307.168C903.892 305.995 904.713 305.12 905.737 304.544C906.761 303.968 907.892 303.68 909.129 303.68C910.878 303.68 912.286 304.288 913.353 305.504C914.42 306.72 914.996 308.448 915.081 310.688H904.681L904.649 309.504H912.073C912.052 308.715 911.913 307.979 911.657 307.296C911.401 306.592 911.028 306.027 910.537 305.6C910.046 305.174 909.417 304.96 908.649 304.96C907.412 304.96 906.484 305.451 905.865 306.432C905.246 307.392 904.937 308.758 904.937 310.528C904.937 312 905.172 313.227 905.641 314.208C906.11 315.19 906.729 315.926 907.497 316.416C908.265 316.886 909.086 317.12 909.961 317.12C910.836 317.12 911.54 317.003 912.073 316.768C912.628 316.534 913.097 316.235 913.481 315.872C913.865 315.488 914.228 315.072 914.569 314.624L915.177 315.072C914.9 315.67 914.58 316.246 914.217 316.8C913.854 317.334 913.438 317.803 912.969 318.208C912.521 318.614 911.988 318.934 911.369 319.168C910.75 319.403 910.025 319.52 909.193 319.52ZM924.453 319.2H917.093V318.272C917.797 318.272 918.309 318.208 918.629 318.08C918.949 317.931 919.141 317.696 919.205 317.376C919.29 317.035 919.333 316.566 919.333 315.968V299.904C919.333 299.243 919.205 298.848 918.949 298.72C918.714 298.592 918.394 298.528 917.989 298.528C917.711 298.528 917.466 298.539 917.253 298.56C917.061 298.582 916.965 298.592 916.965 298.592V297.728L921.189 296.608H921.989V315.968C921.989 316.587 922.031 317.067 922.117 317.408C922.223 317.728 922.447 317.952 922.789 318.08C923.13 318.208 923.685 318.272 924.453 318.272V319.2ZM931.723 319.456C930.529 319.456 929.515 319.136 928.683 318.496C927.873 317.856 927.265 316.992 926.859 315.904C926.454 314.795 926.251 313.558 926.251 312.192C926.251 310.422 926.582 308.907 927.243 307.648C927.905 306.368 928.79 305.387 929.899 304.704C931.03 304.022 932.267 303.68 933.611 303.68C934.123 303.68 934.625 303.744 935.115 303.872C935.627 304 936.118 304.192 936.587 304.448H936.715V300.256C936.715 299.552 936.63 299.094 936.459 298.88C936.31 298.667 935.926 298.56 935.307 298.56C935.158 298.56 934.977 298.571 934.763 298.592C934.571 298.614 934.475 298.624 934.475 298.624V297.728L938.507 296.608H939.371V315.776C939.371 316.608 939.489 317.152 939.723 317.408C939.958 317.643 940.374 317.76 940.971 317.76H941.643V318.624L937.547 319.36H936.811V317.152H936.683C936.086 317.686 935.371 318.208 934.539 318.72C933.729 319.211 932.79 319.456 931.723 319.456ZM933.227 317.152C933.974 317.152 934.603 317.056 935.115 316.864C935.627 316.651 936.161 316.352 936.715 315.968V307.52C936.587 306.859 936.278 306.272 935.787 305.76C935.297 305.227 934.55 304.96 933.547 304.96C932.203 304.96 931.115 305.451 930.283 306.432C929.451 307.414 929.035 308.918 929.035 310.944C929.035 313.142 929.387 314.731 930.091 315.712C930.817 316.672 931.862 317.152 933.227 317.152ZM943.789 319.456L943.693 313.952H944.525C944.867 315.595 945.368 316.747 946.029 317.408C946.691 318.048 947.608 318.368 948.781 318.368C949.592 318.368 950.253 318.208 950.765 317.888C951.277 317.547 951.533 317.003 951.533 316.256C951.533 315.744 951.437 315.318 951.245 314.976C951.075 314.635 950.733 314.294 950.221 313.952C949.709 313.59 948.952 313.163 947.949 312.672C946.968 312.182 946.168 311.712 945.549 311.264C944.931 310.795 944.472 310.283 944.173 309.728C943.875 309.174 943.725 308.502 943.725 307.712C943.725 306.39 944.195 305.387 945.133 304.704C946.093 304.022 947.256 303.68 948.621 303.68C949.432 303.68 950.093 303.776 950.605 303.968C951.117 304.139 951.576 304.32 951.981 304.512H952.013L952.557 303.84H953.197L953.293 308.736H952.429C952.088 307.222 951.608 306.187 950.989 305.632C950.371 305.056 949.571 304.768 948.589 304.768C947.864 304.768 947.245 304.939 946.733 305.28C946.243 305.622 945.997 306.155 945.997 306.88C945.997 307.499 946.285 308.054 946.861 308.544C947.437 309.035 948.397 309.622 949.741 310.304C950.723 310.816 951.544 311.318 952.205 311.808C952.867 312.278 953.368 312.8 953.709 313.376C954.051 313.931 954.221 314.603 954.221 315.392C954.221 316.395 953.976 317.206 953.485 317.824C952.995 318.422 952.333 318.859 951.501 319.136C950.691 319.414 949.805 319.552 948.845 319.552C947.928 319.552 947.192 319.456 946.637 319.264C946.104 319.072 945.624 318.891 945.197 318.72H945.133L944.461 319.456H943.789ZM849.576 359.52C847.336 359.52 845.576 358.827 844.296 357.44C843.038 356.032 842.408 354.038 842.408 351.456C842.408 349.899 842.707 348.544 843.304 347.392C843.902 346.219 844.734 345.312 845.8 344.672C846.888 344.011 848.147 343.68 849.576 343.68C851.774 343.68 853.502 344.363 854.76 345.728C856.04 347.094 856.68 348.96 856.68 351.328C856.68 353.12 856.371 354.624 855.752 355.84C855.155 357.056 854.323 357.974 853.256 358.592C852.19 359.211 850.963 359.52 849.576 359.52ZM849.704 358.24C850.579 358.24 851.315 358.038 851.912 357.632C852.51 357.227 852.958 356.534 853.256 355.552C853.576 354.571 853.736 353.216 853.736 351.488C853.736 349.526 853.374 347.936 852.648 346.72C851.944 345.504 850.878 344.896 849.448 344.896C848.232 344.896 847.251 345.408 846.504 346.432C845.758 347.456 845.384 348.992 845.384 351.04C845.384 353.579 845.758 355.424 846.504 356.576C847.272 357.707 848.339 358.262 849.704 358.24ZM866.942 359.2H858.334V358.272C859.123 358.272 859.699 358.208 860.062 358.08C860.446 357.931 860.702 357.654 860.83 357.248C860.958 356.843 861.022 356.224 861.022 355.392V345.216C861.022 344 861.043 343.008 861.086 342.24C861.15 341.451 861.256 340.79 861.406 340.256C861.555 339.723 861.768 339.211 862.046 338.72C862.472 337.974 863.006 337.398 863.646 336.992C864.307 336.587 865.192 336.384 866.302 336.384C867.006 336.384 867.624 336.47 868.158 336.64C868.691 336.811 869.107 337.067 869.406 337.408C869.726 337.728 869.886 338.134 869.886 338.624C869.886 339.094 869.758 339.446 869.502 339.68C869.246 339.894 868.936 340 868.574 340C868.168 340 867.838 339.872 867.582 339.616C867.326 339.339 867.08 339.051 866.846 338.752C866.632 338.454 866.398 338.187 866.142 337.952C865.907 337.696 865.598 337.568 865.214 337.568C864.616 337.568 864.211 337.846 863.998 338.4C863.784 338.934 863.678 339.872 863.678 341.216V355.392C863.678 356.224 863.763 356.843 863.934 357.248C864.104 357.654 864.424 357.931 864.894 358.08C865.363 358.208 866.046 358.272 866.942 358.272V359.2ZM867.582 345.568H858.59V344.224H867.582V345.568ZM889.751 354.464L890.359 354.912C889.954 355.766 889.485 356.544 888.951 357.248C888.439 357.952 887.799 358.507 887.031 358.912C886.263 359.318 885.303 359.52 884.151 359.52C882.829 359.52 881.687 359.2 880.727 358.56C879.767 357.92 879.031 357.035 878.519 355.904C878.007 354.752 877.751 353.44 877.751 351.968C877.751 350.283 878.029 348.822 878.583 347.584C879.159 346.347 879.981 345.387 881.047 344.704C882.135 344.022 883.447 343.68 884.983 343.68C886.498 343.68 887.682 344.011 888.535 344.672C889.41 345.334 889.847 346.134 889.847 347.072C889.847 347.542 889.73 347.904 889.495 348.16C889.282 348.395 888.951 348.512 888.503 348.512C888.034 348.512 887.671 348.395 887.415 348.16C887.181 347.904 886.989 347.595 886.839 347.232C886.69 346.87 886.53 346.507 886.359 346.144C886.21 345.782 885.986 345.483 885.687 345.248C885.41 344.992 884.994 344.864 884.439 344.864C883.138 344.864 882.114 345.344 881.367 346.304C880.642 347.243 880.279 348.63 880.279 350.464C880.279 352.406 880.674 354.006 881.463 355.264C882.274 356.502 883.501 357.12 885.143 357.12C886.189 357.12 887.031 356.907 887.671 356.48C888.333 356.054 889.026 355.382 889.751 354.464ZM908.769 359.2H901.409V358.272C902.155 358.272 902.689 358.198 903.009 358.048C903.329 357.899 903.531 357.664 903.617 357.344C903.702 357.024 903.745 356.608 903.745 356.096V350.56C903.745 349.686 903.681 348.886 903.553 348.16C903.425 347.414 903.147 346.827 902.721 346.4C902.315 345.952 901.675 345.728 900.801 345.728C900.139 345.728 899.467 345.91 898.785 346.272C898.102 346.614 897.323 347.211 896.449 348.064L896.481 346.304H896.929C897.931 345.366 898.827 344.694 899.617 344.288C900.427 343.883 901.259 343.68 902.113 343.68C903.03 343.68 903.766 343.862 904.321 344.224C904.897 344.587 905.334 345.067 905.633 345.664C905.931 346.24 906.134 346.88 906.241 347.584C906.347 348.267 906.401 348.939 906.401 349.6V355.968C906.401 356.822 906.539 357.419 906.817 357.76C907.115 358.102 907.766 358.272 908.769 358.272V359.2ZM899.201 359.2H891.937V358.272C892.769 358.272 893.345 358.155 893.665 357.92C894.006 357.686 894.177 357.12 894.177 356.224V339.84C894.177 339.286 894.017 338.934 893.697 338.784C893.398 338.635 893.035 338.56 892.609 338.56C892.353 338.56 892.129 338.571 891.937 338.592C891.766 338.614 891.681 338.624 891.681 338.624V337.728L895.969 336.608H896.833V356.096C896.833 356.651 896.875 357.088 896.961 357.408C897.046 357.728 897.259 357.952 897.601 358.08C897.942 358.208 898.475 358.272 899.201 358.272V359.2ZM914.469 359.424C913.232 359.424 912.283 359.083 911.621 358.4C910.981 357.718 910.661 356.864 910.661 355.84C910.661 354.987 910.853 354.272 911.237 353.696C911.643 353.099 912.165 352.598 912.805 352.192C913.467 351.787 914.171 351.446 914.917 351.168C915.685 350.891 916.432 350.656 917.157 350.464C917.883 350.272 918.523 350.091 919.077 349.92V348.512C919.077 347.126 918.832 346.144 918.341 345.568C917.872 344.971 917.157 344.672 916.197 344.672C915.28 344.672 914.693 344.864 914.437 345.248C914.181 345.632 914.053 346.304 914.053 347.264C914.053 347.755 913.925 348.128 913.669 348.384C913.435 348.619 913.093 348.736 912.645 348.736C912.325 348.736 912.016 348.619 911.717 348.384C911.44 348.128 911.301 347.734 911.301 347.2C911.301 346.603 911.525 346.038 911.973 345.504C912.443 344.971 913.093 344.534 913.925 344.192C914.779 343.851 915.781 343.68 916.933 343.68C918.683 343.68 919.92 344.086 920.645 344.896C921.371 345.707 921.733 346.944 921.733 348.608V355.872C921.733 356.534 921.808 356.96 921.957 357.152C922.107 357.344 922.352 357.44 922.693 357.44C922.992 357.44 923.259 357.366 923.493 357.216C923.749 357.067 923.984 356.875 924.197 356.64L924.677 357.152C924.144 357.92 923.632 358.486 923.141 358.848C922.672 359.19 922.032 359.36 921.221 359.36C920.475 359.36 919.984 359.147 919.749 358.72C919.536 358.294 919.376 357.686 919.269 356.896L919.077 356.512V350.976C918.117 351.211 917.211 351.488 916.357 351.808C915.504 352.128 914.811 352.544 914.277 353.056C913.744 353.568 913.477 354.24 913.477 355.072C913.477 355.862 913.691 356.491 914.117 356.96C914.544 357.43 915.099 357.664 915.781 357.664C916.336 357.664 916.912 357.526 917.509 357.248C918.128 356.971 918.725 356.576 919.301 356.064L919.557 357.216H919.173C918.683 357.643 918.203 358.027 917.733 358.368C917.285 358.71 916.795 358.976 916.261 359.168C915.749 359.339 915.152 359.424 914.469 359.424ZM933.748 359.2H925.748V358.272C926.452 358.272 926.964 358.219 927.284 358.112C927.626 357.984 927.839 357.771 927.924 357.472C928.031 357.152 928.084 356.694 928.084 356.096V347.296C928.084 346.72 928.031 346.294 927.924 346.016C927.839 345.718 927.508 345.568 926.932 345.568C926.612 345.568 926.367 345.579 926.196 345.6C926.026 345.622 925.94 345.632 925.94 345.632V344.736L929.908 343.776H930.676V347.072H930.772C931.327 346.283 931.818 345.632 932.244 345.12C932.671 344.608 933.087 344.224 933.492 343.968C933.919 343.712 934.388 343.584 934.9 343.584C935.519 343.584 935.978 343.744 936.276 344.064C936.596 344.384 936.756 344.822 936.756 345.376C936.756 345.974 936.607 346.411 936.308 346.688C936.031 346.966 935.711 347.104 935.348 347.104C935.007 347.104 934.698 347.019 934.42 346.848C934.164 346.656 933.94 346.475 933.748 346.304C933.556 346.112 933.396 346.016 933.268 346.016C932.906 346.016 932.49 346.294 932.02 346.848C931.551 347.403 931.124 348 930.74 348.64V355.936C930.74 356.598 930.826 357.099 930.996 357.44C931.167 357.782 931.466 358.006 931.892 358.112C932.34 358.219 932.959 358.272 933.748 358.272V359.2ZM938.755 359.456C938.115 359.456 937.635 359.275 937.315 358.912C937.016 358.55 936.867 358.102 936.867 357.568C936.867 357.014 937.037 356.544 937.379 356.16C937.72 355.755 938.189 355.552 938.787 355.552C939.405 355.552 939.885 355.755 940.227 356.16C940.568 356.566 940.739 357.046 940.739 357.6C940.739 358.091 940.568 358.528 940.227 358.912C939.885 359.275 939.395 359.456 938.755 359.456ZM955.73 359.616C954.77 359.616 954.034 359.52 953.522 359.328C953.01 359.158 952.647 358.944 952.434 358.688C952.242 358.411 952.146 358.134 952.146 357.856C952.146 357.515 952.252 357.195 952.466 356.896C952.679 356.598 952.988 356.448 953.394 356.448C953.714 356.448 954.044 356.534 954.386 356.704C954.748 356.854 955.122 357.035 955.506 357.248C955.89 357.44 956.274 357.622 956.658 357.792C957.063 357.942 957.468 358.016 957.874 358.016C958.556 358.016 959.196 357.899 959.794 357.664C960.391 357.408 960.882 356.992 961.266 356.416C961.65 355.819 961.842 354.998 961.842 353.952C961.842 352.992 961.575 352.16 961.042 351.456C960.508 350.752 959.794 350.208 958.898 349.824C958.023 349.419 957.074 349.216 956.05 349.216H955.41V348H956.018C956.743 348 957.447 347.819 958.13 347.456C958.812 347.094 959.367 346.582 959.794 345.92C960.242 345.259 960.466 344.502 960.466 343.648C960.466 342.71 960.167 341.984 959.57 341.472C958.994 340.939 958.204 340.672 957.202 340.672C956.242 340.672 955.442 340.896 954.802 341.344C954.162 341.771 953.564 342.411 953.01 343.264L952.274 342.848C952.871 341.462 953.66 340.406 954.642 339.68C955.623 338.955 956.764 338.592 958.066 338.592C959.708 338.592 960.978 339.008 961.874 339.84C962.77 340.651 963.218 341.664 963.218 342.88C963.218 343.99 962.887 344.886 962.226 345.568C961.586 346.251 960.764 346.912 959.762 347.552V347.648C960.615 347.904 961.394 348.278 962.098 348.768C962.823 349.238 963.399 349.824 963.826 350.528C964.252 351.211 964.466 352.032 964.466 352.992C964.466 354.443 964.06 355.67 963.25 356.672C962.439 357.654 961.372 358.39 960.05 358.88C958.727 359.371 957.287 359.616 955.73 359.616Z" fill="black"/>
<path id="wtf5" d="M1030.13 569.904C1027.57 569.904 1025.39 569.35 1023.6 568.24C1021.81 567.088 1020.36 565.531 1019.25 563.568C1018.14 561.606 1017.33 559.344 1016.82 556.784C1016.3 554.224 1016.05 551.536 1016.05 548.72C1016.05 544.667 1016.58 541.104 1017.65 538.032C1018.76 534.918 1020.36 532.486 1022.45 530.736C1024.58 528.987 1027.18 528.112 1030.26 528.112C1033.03 528.112 1035.46 528.944 1037.55 530.608C1039.64 532.23 1041.29 534.598 1042.48 537.712C1043.67 540.784 1044.27 544.518 1044.27 548.912C1044.27 551.643 1043.99 554.267 1043.44 556.784C1042.93 559.302 1042.1 561.542 1040.94 563.504C1039.83 565.467 1038.38 567.024 1036.59 568.176C1034.8 569.328 1032.65 569.904 1030.13 569.904ZM1030.13 567.6C1032.65 567.6 1034.59 566.086 1035.95 563.056C1037.36 560.027 1038.06 555.44 1038.06 549.296C1038.06 542.811 1037.38 538.032 1036.02 534.96C1034.69 531.846 1032.71 530.288 1030.06 530.288C1027.55 530.288 1025.61 531.824 1024.24 534.896C1022.87 537.968 1022.19 542.683 1022.19 549.04C1022.19 555.227 1022.87 559.878 1024.24 562.992C1025.61 566.064 1027.57 567.6 1030.13 567.6Z" fill="black"/>
</g>
</svg>
