<svg width="1920" height="1080" viewBox="0 0 1920 1080" fill="none" xmlns="http://www.w3.org/2000/svg">
<g id="DLO">
<rect width="1920" height="1080" fill="white"/>
<g id="Group 25">
<path id="&#206;&#181;" d="M960.696 313.4C958.456 313.4 956.184 312.952 953.88 312.056C951.576 311.16 949.656 309.784 948.12 307.928C946.648 306.008 945.912 303.576 945.912 300.632C945.912 298.264 946.52 296.184 947.736 294.392C948.952 292.536 950.712 290.68 953.016 288.824V288.152L955.128 287.48C956.216 286.904 957.816 286.296 959.928 285.656C962.104 285.016 964.088 284.632 965.88 284.504C966.2 284.504 966.52 284.92 966.84 285.752C967.224 286.584 967.416 287.704 967.416 289.112C967.416 289.944 967.224 290.68 966.84 291.32C966.52 291.896 966.2 292.184 965.88 292.184C964.088 292.184 962.328 292.024 960.6 291.704C958.936 291.384 957.24 290.904 955.512 290.264C954.68 291.096 953.848 292.152 953.016 293.432C952.184 294.648 951.768 296.184 951.768 298.04C951.768 299.896 952.248 301.4 953.208 302.552C954.168 303.64 955.384 304.44 956.856 304.952C958.392 305.464 959.928 305.72 961.464 305.72C964.728 305.72 967.192 305.208 968.856 304.184C970.584 303.16 972.056 302.104 973.272 301.016H974.136C974.648 301.592 975.032 302.232 975.288 302.936C975.608 303.64 975.768 304.408 975.768 305.24C975.768 307.288 975 308.92 973.464 310.136C971.992 311.288 970.104 312.12 967.8 312.632C965.496 313.144 963.128 313.4 960.696 313.4ZM955.896 287.768L953.784 289.304C951.608 287.32 949.944 285.56 948.792 284.024C947.64 282.488 947.064 280.472 947.064 277.976C947.064 275.864 947.608 274.04 948.696 272.504C949.784 270.968 951.224 269.72 953.016 268.76C954.808 267.8 956.76 267.096 958.872 266.648C961.048 266.136 963.192 265.88 965.304 265.88C967.928 265.88 970.104 266.136 971.832 266.648C973.624 267.16 975.16 267.768 976.44 268.472V270.104L973.752 275.672C972.344 274.968 970.84 274.36 969.24 273.848C967.64 273.336 965.72 273.08 963.48 273.08C962.072 273.08 960.504 273.272 958.776 273.656C957.048 274.04 955.544 274.712 954.264 275.672C953.048 276.632 952.44 277.944 952.44 279.608C952.44 280.952 952.792 282.424 953.496 284.024C954.264 285.56 955.064 286.808 955.896 287.768Z" fill="black"/>
<line id="Line 28" x1="942.431" y1="346.489" x2="769.226" y2="446.489" stroke="black"/>
<line id="Line 29" x1="1151.93" y1="446.489" x2="978.726" y2="346.489" stroke="black"/>
<path id="0" d="M768.76 510.848C765.88 510.848 763.432 510.224 761.416 508.976C759.4 507.68 757.768 505.928 756.52 503.72C755.272 501.512 754.36 498.968 753.784 496.088C753.208 493.208 752.92 490.184 752.92 487.016C752.92 482.456 753.52 478.448 754.72 474.992C755.968 471.488 757.768 468.752 760.12 466.784C762.52 464.816 765.448 463.832 768.904 463.832C772.024 463.832 774.76 464.768 777.112 466.64C779.464 468.464 781.312 471.128 782.656 474.632C784 478.088 784.672 482.288 784.672 487.232C784.672 490.304 784.36 493.256 783.736 496.088C783.16 498.92 782.224 501.44 780.928 503.648C779.68 505.856 778.048 507.608 776.032 508.904C774.016 510.2 771.592 510.848 768.76 510.848ZM768.76 508.256C771.592 508.256 773.776 506.552 775.312 503.144C776.896 499.736 777.688 494.576 777.688 487.664C777.688 480.368 776.92 474.992 775.384 471.536C773.896 468.032 771.664 466.28 768.688 466.28C765.856 466.28 763.672 468.008 762.136 471.464C760.6 474.92 759.832 480.224 759.832 487.376C759.832 494.336 760.6 499.568 762.136 503.072C763.672 506.528 765.88 508.256 768.76 508.256Z" fill="black"/>
<path id="1" d="M1164.65 510.056H1139.74V508.04C1143.14 508.04 1145.54 507.68 1146.94 506.96C1148.33 506.24 1149.02 504.992 1149.02 503.216V472.76C1149.02 471.512 1148.86 470.624 1148.52 470.096C1148.18 469.52 1147.56 469.232 1146.65 469.232C1146.17 469.232 1145.5 469.28 1144.63 469.376C1143.77 469.472 1142.86 469.616 1141.9 469.808C1140.94 469.952 1140.07 470.144 1139.3 470.384V468.008L1153.27 464.048H1155.36V503.216C1155.36 504.992 1156.08 506.24 1157.52 506.96C1158.96 507.68 1161.34 508.04 1164.65 508.04V510.056Z" fill="black"/>
<line id="Line 30" x1="751.409" y1="536.306" x2="676.409" y2="666.21" stroke="black"/>
<line id="Line 34" x1="652.833" y1="726.143" x2="635.468" y2="824.624" stroke="black"/>
<line id="Line 38" x1="716.848" y1="823.624" x2="699.484" y2="725.143" stroke="black"/>
<line id="Line 39" x1="902.848" y1="823.624" x2="885.484" y2="725.143" stroke="black"/>
<line id="Line 40" x1="1099.85" y1="823.624" x2="1082.48" y2="725.143" stroke="black"/>
<line id="Line 41" x1="1284.85" y1="823.624" x2="1267.48" y2="725.143" stroke="black"/>
<line id="Line 35" x1="838.833" y1="725.143" x2="821.468" y2="823.624" stroke="black"/>
<line id="Line 36" x1="1035.83" y1="725.143" x2="1018.47" y2="823.624" stroke="black"/>
<line id="Line 37" x1="1221.83" y1="725.143" x2="1204.47" y2="823.624" stroke="black"/>
<line id="Line 32" x1="1134.41" y1="536.306" x2="1059.41" y2="666.21" stroke="black"/>
<line id="Line 31" x1="861.543" y1="666.21" x2="786.543" y2="536.306" stroke="black"/>
<line id="Line 33" x1="1244.54" y1="666.21" x2="1169.54" y2="536.306" stroke="black"/>
<path id="00" d="M663.832 709.584C661.912 709.584 660.28 709.168 658.936 708.336C657.592 707.472 656.504 706.304 655.672 704.832C654.84 703.36 654.232 701.664 653.848 699.744C653.464 697.824 653.272 695.808 653.272 693.696C653.272 690.656 653.672 687.984 654.472 685.68C655.304 683.344 656.504 681.52 658.072 680.208C659.672 678.896 661.624 678.24 663.928 678.24C666.008 678.24 667.832 678.864 669.4 680.112C670.968 681.328 672.2 683.104 673.096 685.44C673.992 687.744 674.44 690.544 674.44 693.84C674.44 695.888 674.232 697.856 673.816 699.744C673.432 701.632 672.808 703.312 671.944 704.784C671.112 706.256 670.024 707.424 668.68 708.288C667.336 709.152 665.72 709.584 663.832 709.584ZM663.832 707.856C665.72 707.856 667.176 706.72 668.2 704.448C669.256 702.176 669.784 698.736 669.784 694.128C669.784 689.264 669.272 685.68 668.248 683.376C667.256 681.04 665.768 679.872 663.784 679.872C661.896 679.872 660.44 681.024 659.416 683.328C658.392 685.632 657.88 689.168 657.88 693.936C657.88 698.576 658.392 702.064 659.416 704.4C660.44 706.704 661.912 707.856 663.832 707.856ZM687.597 709.584C685.677 709.584 684.045 709.168 682.701 708.336C681.357 707.472 680.269 706.304 679.437 704.832C678.605 703.36 677.997 701.664 677.613 699.744C677.229 697.824 677.037 695.808 677.037 693.696C677.037 690.656 677.437 687.984 678.237 685.68C679.069 683.344 680.269 681.52 681.837 680.208C683.437 678.896 685.389 678.24 687.693 678.24C689.773 678.24 691.597 678.864 693.165 680.112C694.733 681.328 695.965 683.104 696.861 685.44C697.757 687.744 698.205 690.544 698.205 693.84C698.205 695.888 697.997 697.856 697.581 699.744C697.197 701.632 696.573 703.312 695.709 704.784C694.877 706.256 693.789 707.424 692.445 708.288C691.101 709.152 689.485 709.584 687.597 709.584ZM687.597 707.856C689.485 707.856 690.941 706.72 691.965 704.448C693.021 702.176 693.549 698.736 693.549 694.128C693.549 689.264 693.037 685.68 692.013 683.376C691.021 681.04 689.533 679.872 687.549 679.872C685.661 679.872 684.205 681.024 683.181 683.328C682.157 685.632 681.645 689.168 681.645 693.936C681.645 698.576 682.157 702.064 683.181 704.4C684.205 706.704 685.677 707.856 687.597 707.856Z" fill="black"/>
<path id="01" d="M849.832 709.584C847.912 709.584 846.28 709.168 844.936 708.336C843.592 707.472 842.504 706.304 841.672 704.832C840.84 703.36 840.232 701.664 839.848 699.744C839.464 697.824 839.272 695.808 839.272 693.696C839.272 690.656 839.672 687.984 840.472 685.68C841.304 683.344 842.504 681.52 844.072 680.208C845.672 678.896 847.624 678.24 849.928 678.24C852.008 678.24 853.832 678.864 855.4 680.112C856.968 681.328 858.2 683.104 859.096 685.44C859.992 687.744 860.44 690.544 860.44 693.84C860.44 695.888 860.232 697.856 859.816 699.744C859.432 701.632 858.808 703.312 857.944 704.784C857.112 706.256 856.024 707.424 854.68 708.288C853.336 709.152 851.72 709.584 849.832 709.584ZM849.832 707.856C851.72 707.856 853.176 706.72 854.2 704.448C855.256 702.176 855.784 698.736 855.784 694.128C855.784 689.264 855.272 685.68 854.248 683.376C853.256 681.04 851.768 679.872 849.784 679.872C847.896 679.872 846.44 681.024 845.416 683.328C844.392 685.632 843.88 689.168 843.88 693.936C843.88 698.576 844.392 702.064 845.416 704.4C846.44 706.704 847.912 707.856 849.832 707.856ZM882.189 709.056H865.581V707.712C867.853 707.712 869.453 707.472 870.381 706.992C871.309 706.512 871.773 705.68 871.773 704.496V684.192C871.773 683.36 871.661 682.768 871.437 682.416C871.213 682.032 870.797 681.84 870.189 681.84C869.869 681.84 869.421 681.872 868.845 681.936C868.269 682 867.661 682.096 867.021 682.224C866.381 682.32 865.805 682.448 865.293 682.608V681.024L874.605 678.384H875.997V704.496C875.997 705.68 876.477 706.512 877.437 706.992C878.397 707.472 879.981 707.712 882.189 707.712V709.056Z" fill="black"/>
<path id="10" d="M1055.42 709.056H1038.82V707.712C1041.09 707.712 1042.69 707.472 1043.62 706.992C1044.54 706.512 1045.01 705.68 1045.01 704.496V684.192C1045.01 683.36 1044.9 682.768 1044.67 682.416C1044.45 682.032 1044.03 681.84 1043.42 681.84C1043.1 681.84 1042.66 681.872 1042.08 681.936C1041.5 682 1040.9 682.096 1040.26 682.224C1039.62 682.32 1039.04 682.448 1038.53 682.608V681.024L1047.84 678.384H1049.23V704.496C1049.23 705.68 1049.71 706.512 1050.67 706.992C1051.63 707.472 1053.22 707.712 1055.42 707.712V709.056ZM1070.6 709.584C1068.68 709.584 1067.05 709.168 1065.7 708.336C1064.36 707.472 1063.27 706.304 1062.44 704.832C1061.61 703.36 1061 701.664 1060.61 699.744C1060.23 697.824 1060.04 695.808 1060.04 693.696C1060.04 690.656 1060.44 687.984 1061.24 685.68C1062.07 683.344 1063.27 681.52 1064.84 680.208C1066.44 678.896 1068.39 678.24 1070.69 678.24C1072.77 678.24 1074.6 678.864 1076.17 680.112C1077.73 681.328 1078.97 683.104 1079.86 685.44C1080.76 687.744 1081.21 690.544 1081.21 693.84C1081.21 695.888 1081 697.856 1080.58 699.744C1080.2 701.632 1079.57 703.312 1078.71 704.784C1077.88 706.256 1076.79 707.424 1075.45 708.288C1074.1 709.152 1072.49 709.584 1070.6 709.584ZM1070.6 707.856C1072.49 707.856 1073.94 706.72 1074.97 704.448C1076.02 702.176 1076.55 698.736 1076.55 694.128C1076.55 689.264 1076.04 685.68 1075.01 683.376C1074.02 681.04 1072.53 679.872 1070.55 679.872C1068.66 679.872 1067.21 681.024 1066.18 683.328C1065.16 685.632 1064.65 689.168 1064.65 693.936C1064.65 698.576 1065.16 702.064 1066.18 704.4C1067.21 706.704 1068.68 707.856 1070.6 707.856Z" fill="black"/>
<path id="11" d="M1241.42 709.056H1224.82V707.712C1227.09 707.712 1228.69 707.472 1229.62 706.992C1230.54 706.512 1231.01 705.68 1231.01 704.496V684.192C1231.01 683.36 1230.9 682.768 1230.67 682.416C1230.45 682.032 1230.03 681.84 1229.42 681.84C1229.1 681.84 1228.66 681.872 1228.08 681.936C1227.5 682 1226.9 682.096 1226.26 682.224C1225.62 682.32 1225.04 682.448 1224.53 682.608V681.024L1233.84 678.384H1235.23V704.496C1235.23 705.68 1235.71 706.512 1236.67 706.992C1237.63 707.472 1239.22 707.712 1241.42 707.712V709.056ZM1265.19 709.056H1248.58V707.712C1250.85 707.712 1252.45 707.472 1253.38 706.992C1254.31 706.512 1254.77 705.68 1254.77 704.496V684.192C1254.77 683.36 1254.66 682.768 1254.44 682.416C1254.21 682.032 1253.8 681.84 1253.19 681.84C1252.87 681.84 1252.42 681.872 1251.85 681.936C1251.27 682 1250.66 682.096 1250.02 682.224C1249.38 682.32 1248.81 682.448 1248.29 682.608V681.024L1257.61 678.384H1259V704.496C1259 705.68 1259.48 706.512 1260.44 706.992C1261.4 707.472 1262.98 707.712 1265.19 707.712V709.056Z" fill="black"/>
<path id="000" d="M622.904 844.32C621.944 844.32 621.128 844.112 620.456 843.696C619.784 843.264 619.24 842.68 618.824 841.944C618.408 841.208 618.104 840.36 617.912 839.4C617.72 838.44 617.624 837.432 617.624 836.376C617.624 834.856 617.824 833.52 618.224 832.368C618.64 831.2 619.24 830.288 620.024 829.632C620.824 828.976 621.8 828.648 622.952 828.648C623.992 828.648 624.904 828.96 625.688 829.584C626.472 830.192 627.088 831.08 627.536 832.248C627.984 833.4 628.208 834.8 628.208 836.448C628.208 837.472 628.104 838.456 627.896 839.4C627.704 840.344 627.392 841.184 626.96 841.92C626.544 842.656 626 843.24 625.328 843.672C624.656 844.104 623.848 844.32 622.904 844.32ZM622.904 843.456C623.848 843.456 624.576 842.888 625.088 841.752C625.616 840.616 625.88 838.896 625.88 836.592C625.88 834.16 625.624 832.368 625.112 831.216C624.616 830.048 623.872 829.464 622.88 829.464C621.936 829.464 621.208 830.04 620.696 831.192C620.184 832.344 619.928 834.112 619.928 836.496C619.928 838.816 620.184 840.56 620.696 841.728C621.208 842.88 621.944 843.456 622.904 843.456ZM634.786 844.32C633.826 844.32 633.01 844.112 632.338 843.696C631.666 843.264 631.122 842.68 630.706 841.944C630.29 841.208 629.986 840.36 629.794 839.4C629.602 838.44 629.506 837.432 629.506 836.376C629.506 834.856 629.706 833.52 630.106 832.368C630.522 831.2 631.122 830.288 631.906 829.632C632.706 828.976 633.682 828.648 634.834 828.648C635.874 828.648 636.786 828.96 637.57 829.584C638.354 830.192 638.97 831.08 639.418 832.248C639.866 833.4 640.09 834.8 640.09 836.448C640.09 837.472 639.986 838.456 639.778 839.4C639.586 840.344 639.274 841.184 638.842 841.92C638.426 842.656 637.882 843.24 637.21 843.672C636.538 844.104 635.73 844.32 634.786 844.32ZM634.786 843.456C635.73 843.456 636.458 842.888 636.97 841.752C637.498 840.616 637.762 838.896 637.762 836.592C637.762 834.16 637.506 832.368 636.994 831.216C636.498 830.048 635.754 829.464 634.762 829.464C633.818 829.464 633.09 830.04 632.578 831.192C632.066 832.344 631.81 834.112 631.81 836.496C631.81 838.816 632.066 840.56 632.578 841.728C633.09 842.88 633.826 843.456 634.786 843.456ZM646.669 844.32C645.709 844.32 644.893 844.112 644.221 843.696C643.549 843.264 643.005 842.68 642.589 841.944C642.173 841.208 641.869 840.36 641.677 839.4C641.485 838.44 641.389 837.432 641.389 836.376C641.389 834.856 641.589 833.52 641.989 832.368C642.405 831.2 643.005 830.288 643.789 829.632C644.589 828.976 645.565 828.648 646.717 828.648C647.757 828.648 648.669 828.96 649.453 829.584C650.237 830.192 650.853 831.08 651.301 832.248C651.749 833.4 651.973 834.8 651.973 836.448C651.973 837.472 651.869 838.456 651.661 839.4C651.469 840.344 651.157 841.184 650.725 841.92C650.309 842.656 649.765 843.24 649.093 843.672C648.421 844.104 647.613 844.32 646.669 844.32ZM646.669 843.456C647.613 843.456 648.341 842.888 648.853 841.752C649.381 840.616 649.645 838.896 649.645 836.592C649.645 834.16 649.389 832.368 648.877 831.216C648.381 830.048 647.637 829.464 646.645 829.464C645.701 829.464 644.973 830.04 644.461 831.192C643.949 832.344 643.693 834.112 643.693 836.496C643.693 838.816 643.949 840.56 644.461 841.728C644.973 842.88 645.709 843.456 646.669 843.456Z" fill="black"/>
<path id="001" d="M704.904 844.32C703.944 844.32 703.128 844.112 702.456 843.696C701.784 843.264 701.24 842.68 700.824 841.944C700.408 841.208 700.104 840.36 699.912 839.4C699.72 838.44 699.624 837.432 699.624 836.376C699.624 834.856 699.824 833.52 700.224 832.368C700.64 831.2 701.24 830.288 702.024 829.632C702.824 828.976 703.8 828.648 704.952 828.648C705.992 828.648 706.904 828.96 707.688 829.584C708.472 830.192 709.088 831.08 709.536 832.248C709.984 833.4 710.208 834.8 710.208 836.448C710.208 837.472 710.104 838.456 709.896 839.4C709.704 840.344 709.392 841.184 708.96 841.92C708.544 842.656 708 843.24 707.328 843.672C706.656 844.104 705.848 844.32 704.904 844.32ZM704.904 843.456C705.848 843.456 706.576 842.888 707.088 841.752C707.616 840.616 707.88 838.896 707.88 836.592C707.88 834.16 707.624 832.368 707.112 831.216C706.616 830.048 705.872 829.464 704.88 829.464C703.936 829.464 703.208 830.04 702.696 831.192C702.184 832.344 701.928 834.112 701.928 836.496C701.928 838.816 702.184 840.56 702.696 841.728C703.208 842.88 703.944 843.456 704.904 843.456ZM716.786 844.32C715.826 844.32 715.01 844.112 714.338 843.696C713.666 843.264 713.122 842.68 712.706 841.944C712.29 841.208 711.986 840.36 711.794 839.4C711.602 838.44 711.506 837.432 711.506 836.376C711.506 834.856 711.706 833.52 712.106 832.368C712.522 831.2 713.122 830.288 713.906 829.632C714.706 828.976 715.682 828.648 716.834 828.648C717.874 828.648 718.786 828.96 719.57 829.584C720.354 830.192 720.97 831.08 721.418 832.248C721.866 833.4 722.09 834.8 722.09 836.448C722.09 837.472 721.986 838.456 721.778 839.4C721.586 840.344 721.274 841.184 720.842 841.92C720.426 842.656 719.882 843.24 719.21 843.672C718.538 844.104 717.73 844.32 716.786 844.32ZM716.786 843.456C717.73 843.456 718.458 842.888 718.97 841.752C719.498 840.616 719.762 838.896 719.762 836.592C719.762 834.16 719.506 832.368 718.994 831.216C718.498 830.048 717.754 829.464 716.762 829.464C715.818 829.464 715.09 830.04 714.578 831.192C714.066 832.344 713.81 834.112 713.81 836.496C713.81 838.816 714.066 840.56 714.578 841.728C715.09 842.88 715.826 843.456 716.786 843.456ZM732.965 844.056H724.661V843.384C725.797 843.384 726.597 843.264 727.061 843.024C727.525 842.784 727.757 842.368 727.757 841.776V831.624C727.757 831.208 727.701 830.912 727.589 830.736C727.477 830.544 727.269 830.448 726.965 830.448C726.805 830.448 726.581 830.464 726.293 830.496C726.005 830.528 725.701 830.576 725.381 830.64C725.061 830.688 724.773 830.752 724.517 830.832V830.04L729.173 828.72H729.869V841.776C729.869 842.368 730.109 842.784 730.589 843.024C731.069 843.264 731.861 843.384 732.965 843.384V844.056Z" fill="black"/>
<path id="010" d="M808.904 844.32C807.944 844.32 807.128 844.112 806.456 843.696C805.784 843.264 805.24 842.68 804.824 841.944C804.408 841.208 804.104 840.36 803.912 839.4C803.72 838.44 803.624 837.432 803.624 836.376C803.624 834.856 803.824 833.52 804.224 832.368C804.64 831.2 805.24 830.288 806.024 829.632C806.824 828.976 807.8 828.648 808.952 828.648C809.992 828.648 810.904 828.96 811.688 829.584C812.472 830.192 813.088 831.08 813.536 832.248C813.984 833.4 814.208 834.8 814.208 836.448C814.208 837.472 814.104 838.456 813.896 839.4C813.704 840.344 813.392 841.184 812.96 841.92C812.544 842.656 812 843.24 811.328 843.672C810.656 844.104 809.848 844.32 808.904 844.32ZM808.904 843.456C809.848 843.456 810.576 842.888 811.088 841.752C811.616 840.616 811.88 838.896 811.88 836.592C811.88 834.16 811.624 832.368 811.112 831.216C810.616 830.048 809.872 829.464 808.88 829.464C807.936 829.464 807.208 830.04 806.696 831.192C806.184 832.344 805.928 834.112 805.928 836.496C805.928 838.816 806.184 840.56 806.696 841.728C807.208 842.88 807.944 843.456 808.904 843.456ZM825.082 844.056H816.778V843.384C817.914 843.384 818.714 843.264 819.178 843.024C819.642 842.784 819.874 842.368 819.874 841.776V831.624C819.874 831.208 819.818 830.912 819.706 830.736C819.594 830.544 819.386 830.448 819.082 830.448C818.922 830.448 818.698 830.464 818.41 830.496C818.122 830.528 817.818 830.576 817.498 830.64C817.178 830.688 816.89 830.752 816.634 830.832V830.04L821.29 828.72H821.986V841.776C821.986 842.368 822.226 842.784 822.706 843.024C823.186 843.264 823.978 843.384 825.082 843.384V844.056ZM832.669 844.32C831.709 844.32 830.893 844.112 830.221 843.696C829.549 843.264 829.005 842.68 828.589 841.944C828.173 841.208 827.869 840.36 827.677 839.4C827.485 838.44 827.389 837.432 827.389 836.376C827.389 834.856 827.589 833.52 827.989 832.368C828.405 831.2 829.005 830.288 829.789 829.632C830.589 828.976 831.565 828.648 832.717 828.648C833.757 828.648 834.669 828.96 835.453 829.584C836.237 830.192 836.853 831.08 837.301 832.248C837.749 833.4 837.973 834.8 837.973 836.448C837.973 837.472 837.869 838.456 837.661 839.4C837.469 840.344 837.157 841.184 836.725 841.92C836.309 842.656 835.765 843.24 835.093 843.672C834.421 844.104 833.613 844.32 832.669 844.32ZM832.669 843.456C833.613 843.456 834.341 842.888 834.853 841.752C835.381 840.616 835.645 838.896 835.645 836.592C835.645 834.16 835.389 832.368 834.877 831.216C834.381 830.048 833.637 829.464 832.645 829.464C831.701 829.464 830.973 830.04 830.461 831.192C829.949 832.344 829.693 834.112 829.693 836.496C829.693 838.816 829.949 840.56 830.461 841.728C830.973 842.88 831.709 843.456 832.669 843.456Z" fill="black"/>
<path id="011" d="M890.904 844.32C889.944 844.32 889.128 844.112 888.456 843.696C887.784 843.264 887.24 842.68 886.824 841.944C886.408 841.208 886.104 840.36 885.912 839.4C885.72 838.44 885.624 837.432 885.624 836.376C885.624 834.856 885.824 833.52 886.224 832.368C886.64 831.2 887.24 830.288 888.024 829.632C888.824 828.976 889.8 828.648 890.952 828.648C891.992 828.648 892.904 828.96 893.688 829.584C894.472 830.192 895.088 831.08 895.536 832.248C895.984 833.4 896.208 834.8 896.208 836.448C896.208 837.472 896.104 838.456 895.896 839.4C895.704 840.344 895.392 841.184 894.96 841.92C894.544 842.656 894 843.24 893.328 843.672C892.656 844.104 891.848 844.32 890.904 844.32ZM890.904 843.456C891.848 843.456 892.576 842.888 893.088 841.752C893.616 840.616 893.88 838.896 893.88 836.592C893.88 834.16 893.624 832.368 893.112 831.216C892.616 830.048 891.872 829.464 890.88 829.464C889.936 829.464 889.208 830.04 888.696 831.192C888.184 832.344 887.928 834.112 887.928 836.496C887.928 838.816 888.184 840.56 888.696 841.728C889.208 842.88 889.944 843.456 890.904 843.456ZM907.082 844.056H898.778V843.384C899.914 843.384 900.714 843.264 901.178 843.024C901.642 842.784 901.874 842.368 901.874 841.776V831.624C901.874 831.208 901.818 830.912 901.706 830.736C901.594 830.544 901.386 830.448 901.082 830.448C900.922 830.448 900.698 830.464 900.41 830.496C900.122 830.528 899.818 830.576 899.498 830.64C899.178 830.688 898.89 830.752 898.634 830.832V830.04L903.29 828.72H903.986V841.776C903.986 842.368 904.226 842.784 904.706 843.024C905.186 843.264 905.978 843.384 907.082 843.384V844.056ZM918.965 844.056H910.661V843.384C911.797 843.384 912.597 843.264 913.061 843.024C913.525 842.784 913.757 842.368 913.757 841.776V831.624C913.757 831.208 913.701 830.912 913.589 830.736C913.477 830.544 913.269 830.448 912.965 830.448C912.805 830.448 912.581 830.464 912.293 830.496C912.005 830.528 911.701 830.576 911.381 830.64C911.061 830.688 910.773 830.752 910.517 830.832V830.04L915.173 828.72H915.869V841.776C915.869 842.368 916.109 842.784 916.589 843.024C917.069 843.264 917.861 843.384 918.965 843.384V844.056Z" fill="black"/>
<path id="100" d="M1010.2 844.056H1001.9V843.384C1003.03 843.384 1003.83 843.264 1004.3 843.024C1004.76 842.784 1004.99 842.368 1004.99 841.776V831.624C1004.99 831.208 1004.94 830.912 1004.82 830.736C1004.71 830.544 1004.5 830.448 1004.2 830.448C1004.04 830.448 1003.82 830.464 1003.53 830.496C1003.24 830.528 1002.94 830.576 1002.62 830.64C1002.3 830.688 1002.01 830.752 1001.75 830.832V830.04L1006.41 828.72H1007.1V841.776C1007.1 842.368 1007.34 842.784 1007.82 843.024C1008.3 843.264 1009.1 843.384 1010.2 843.384V844.056ZM1017.79 844.32C1016.83 844.32 1016.01 844.112 1015.34 843.696C1014.67 843.264 1014.12 842.68 1013.71 841.944C1013.29 841.208 1012.99 840.36 1012.79 839.4C1012.6 838.44 1012.51 837.432 1012.51 836.376C1012.51 834.856 1012.71 833.52 1013.11 832.368C1013.52 831.2 1014.12 830.288 1014.91 829.632C1015.71 828.976 1016.68 828.648 1017.83 828.648C1018.87 828.648 1019.79 828.96 1020.57 829.584C1021.35 830.192 1021.97 831.08 1022.42 832.248C1022.87 833.4 1023.09 834.8 1023.09 836.448C1023.09 837.472 1022.99 838.456 1022.78 839.4C1022.59 840.344 1022.27 841.184 1021.84 841.92C1021.43 842.656 1020.88 843.24 1020.21 843.672C1019.54 844.104 1018.73 844.32 1017.79 844.32ZM1017.79 843.456C1018.73 843.456 1019.46 842.888 1019.97 841.752C1020.5 840.616 1020.76 838.896 1020.76 836.592C1020.76 834.16 1020.51 832.368 1019.99 831.216C1019.5 830.048 1018.75 829.464 1017.76 829.464C1016.82 829.464 1016.09 830.04 1015.58 831.192C1015.07 832.344 1014.81 834.112 1014.81 836.496C1014.81 838.816 1015.07 840.56 1015.58 841.728C1016.09 842.88 1016.83 843.456 1017.79 843.456ZM1029.67 844.32C1028.71 844.32 1027.89 844.112 1027.22 843.696C1026.55 843.264 1026.01 842.68 1025.59 841.944C1025.17 841.208 1024.87 840.36 1024.68 839.4C1024.49 838.44 1024.39 837.432 1024.39 836.376C1024.39 834.856 1024.59 833.52 1024.99 832.368C1025.41 831.2 1026.01 830.288 1026.79 829.632C1027.59 828.976 1028.57 828.648 1029.72 828.648C1030.76 828.648 1031.67 828.96 1032.45 829.584C1033.24 830.192 1033.85 831.08 1034.3 832.248C1034.75 833.4 1034.97 834.8 1034.97 836.448C1034.97 837.472 1034.87 838.456 1034.66 839.4C1034.47 840.344 1034.16 841.184 1033.73 841.92C1033.31 842.656 1032.77 843.24 1032.09 843.672C1031.42 844.104 1030.61 844.32 1029.67 844.32ZM1029.67 843.456C1030.61 843.456 1031.34 842.888 1031.85 841.752C1032.38 840.616 1032.65 838.896 1032.65 836.592C1032.65 834.16 1032.39 832.368 1031.88 831.216C1031.38 830.048 1030.64 829.464 1029.65 829.464C1028.7 829.464 1027.97 830.04 1027.46 831.192C1026.95 832.344 1026.69 834.112 1026.69 836.496C1026.69 838.816 1026.95 840.56 1027.46 841.728C1027.97 842.88 1028.71 843.456 1029.67 843.456Z" fill="black"/>
<path id="101" d="M1092.2 844.056H1083.9V843.384C1085.03 843.384 1085.83 843.264 1086.3 843.024C1086.76 842.784 1086.99 842.368 1086.99 841.776V831.624C1086.99 831.208 1086.94 830.912 1086.82 830.736C1086.71 830.544 1086.5 830.448 1086.2 830.448C1086.04 830.448 1085.82 830.464 1085.53 830.496C1085.24 830.528 1084.94 830.576 1084.62 830.64C1084.3 830.688 1084.01 830.752 1083.75 830.832V830.04L1088.41 828.72H1089.1V841.776C1089.1 842.368 1089.34 842.784 1089.82 843.024C1090.3 843.264 1091.1 843.384 1092.2 843.384V844.056ZM1099.79 844.32C1098.83 844.32 1098.01 844.112 1097.34 843.696C1096.67 843.264 1096.12 842.68 1095.71 841.944C1095.29 841.208 1094.99 840.36 1094.79 839.4C1094.6 838.44 1094.51 837.432 1094.51 836.376C1094.51 834.856 1094.71 833.52 1095.11 832.368C1095.52 831.2 1096.12 830.288 1096.91 829.632C1097.71 828.976 1098.68 828.648 1099.83 828.648C1100.87 828.648 1101.79 828.96 1102.57 829.584C1103.35 830.192 1103.97 831.08 1104.42 832.248C1104.87 833.4 1105.09 834.8 1105.09 836.448C1105.09 837.472 1104.99 838.456 1104.78 839.4C1104.59 840.344 1104.27 841.184 1103.84 841.92C1103.43 842.656 1102.88 843.24 1102.21 843.672C1101.54 844.104 1100.73 844.32 1099.79 844.32ZM1099.79 843.456C1100.73 843.456 1101.46 842.888 1101.97 841.752C1102.5 840.616 1102.76 838.896 1102.76 836.592C1102.76 834.16 1102.51 832.368 1101.99 831.216C1101.5 830.048 1100.75 829.464 1099.76 829.464C1098.82 829.464 1098.09 830.04 1097.58 831.192C1097.07 832.344 1096.81 834.112 1096.81 836.496C1096.81 838.816 1097.07 840.56 1097.58 841.728C1098.09 842.88 1098.83 843.456 1099.79 843.456ZM1115.97 844.056H1107.66V843.384C1108.8 843.384 1109.6 843.264 1110.06 843.024C1110.53 842.784 1110.76 842.368 1110.76 841.776V831.624C1110.76 831.208 1110.7 830.912 1110.59 830.736C1110.48 830.544 1110.27 830.448 1109.97 830.448C1109.81 830.448 1109.58 830.464 1109.29 830.496C1109.01 830.528 1108.7 830.576 1108.38 830.64C1108.06 830.688 1107.77 830.752 1107.52 830.832V830.04L1112.17 828.72H1112.87V841.776C1112.87 842.368 1113.11 842.784 1113.59 843.024C1114.07 843.264 1114.86 843.384 1115.97 843.384V844.056Z" fill="black"/>
<path id="110" d="M1196.2 844.056H1187.9V843.384C1189.03 843.384 1189.83 843.264 1190.3 843.024C1190.76 842.784 1190.99 842.368 1190.99 841.776V831.624C1190.99 831.208 1190.94 830.912 1190.82 830.736C1190.71 830.544 1190.5 830.448 1190.2 830.448C1190.04 830.448 1189.82 830.464 1189.53 830.496C1189.24 830.528 1188.94 830.576 1188.62 830.64C1188.3 830.688 1188.01 830.752 1187.75 830.832V830.04L1192.41 828.72H1193.1V841.776C1193.1 842.368 1193.34 842.784 1193.82 843.024C1194.3 843.264 1195.1 843.384 1196.2 843.384V844.056ZM1208.08 844.056H1199.78V843.384C1200.91 843.384 1201.71 843.264 1202.18 843.024C1202.64 842.784 1202.87 842.368 1202.87 841.776V831.624C1202.87 831.208 1202.82 830.912 1202.71 830.736C1202.59 830.544 1202.39 830.448 1202.08 830.448C1201.92 830.448 1201.7 830.464 1201.41 830.496C1201.12 830.528 1200.82 830.576 1200.5 830.64C1200.18 830.688 1199.89 830.752 1199.63 830.832V830.04L1204.29 828.72H1204.99V841.776C1204.99 842.368 1205.23 842.784 1205.71 843.024C1206.19 843.264 1206.98 843.384 1208.08 843.384V844.056ZM1215.67 844.32C1214.71 844.32 1213.89 844.112 1213.22 843.696C1212.55 843.264 1212.01 842.68 1211.59 841.944C1211.17 841.208 1210.87 840.36 1210.68 839.4C1210.49 838.44 1210.39 837.432 1210.39 836.376C1210.39 834.856 1210.59 833.52 1210.99 832.368C1211.41 831.2 1212.01 830.288 1212.79 829.632C1213.59 828.976 1214.57 828.648 1215.72 828.648C1216.76 828.648 1217.67 828.96 1218.45 829.584C1219.24 830.192 1219.85 831.08 1220.3 832.248C1220.75 833.4 1220.97 834.8 1220.97 836.448C1220.97 837.472 1220.87 838.456 1220.66 839.4C1220.47 840.344 1220.16 841.184 1219.73 841.92C1219.31 842.656 1218.77 843.24 1218.09 843.672C1217.42 844.104 1216.61 844.32 1215.67 844.32ZM1215.67 843.456C1216.61 843.456 1217.34 842.888 1217.85 841.752C1218.38 840.616 1218.65 838.896 1218.65 836.592C1218.65 834.16 1218.39 832.368 1217.88 831.216C1217.38 830.048 1216.64 829.464 1215.65 829.464C1214.7 829.464 1213.97 830.04 1213.46 831.192C1212.95 832.344 1212.69 834.112 1212.69 836.496C1212.69 838.816 1212.95 840.56 1213.46 841.728C1213.97 842.88 1214.71 843.456 1215.67 843.456Z" fill="black"/>
<path id="111" d="M1277.2 844.056H1268.9V843.384C1270.03 843.384 1270.83 843.264 1271.3 843.024C1271.76 842.784 1271.99 842.368 1271.99 841.776V831.624C1271.99 831.208 1271.94 830.912 1271.82 830.736C1271.71 830.544 1271.5 830.448 1271.2 830.448C1271.04 830.448 1270.82 830.464 1270.53 830.496C1270.24 830.528 1269.94 830.576 1269.62 830.64C1269.3 830.688 1269.01 830.752 1268.75 830.832V830.04L1273.41 828.72H1274.1V841.776C1274.1 842.368 1274.34 842.784 1274.82 843.024C1275.3 843.264 1276.1 843.384 1277.2 843.384V844.056ZM1289.08 844.056H1280.78V843.384C1281.91 843.384 1282.71 843.264 1283.18 843.024C1283.64 842.784 1283.87 842.368 1283.87 841.776V831.624C1283.87 831.208 1283.82 830.912 1283.71 830.736C1283.59 830.544 1283.39 830.448 1283.08 830.448C1282.92 830.448 1282.7 830.464 1282.41 830.496C1282.12 830.528 1281.82 830.576 1281.5 830.64C1281.18 830.688 1280.89 830.752 1280.63 830.832V830.04L1285.29 828.72H1285.99V841.776C1285.99 842.368 1286.23 842.784 1286.71 843.024C1287.19 843.264 1287.98 843.384 1289.08 843.384V844.056ZM1300.97 844.056H1292.66V843.384C1293.8 843.384 1294.6 843.264 1295.06 843.024C1295.53 842.784 1295.76 842.368 1295.76 841.776V831.624C1295.76 831.208 1295.7 830.912 1295.59 830.736C1295.48 830.544 1295.27 830.448 1294.97 830.448C1294.81 830.448 1294.58 830.464 1294.29 830.496C1294.01 830.528 1293.7 830.576 1293.38 830.64C1293.06 830.688 1292.77 830.752 1292.52 830.832V830.04L1297.17 828.72H1297.87V841.776C1297.87 842.368 1298.11 842.784 1298.59 843.024C1299.07 843.264 1299.86 843.384 1300.97 843.384V844.056Z" fill="black"/>
</g>
</g>
</svg>
