<svg width="1920" height="1080" viewBox="0 0 1920 1080" fill="none" xmlns="http://www.w3.org/2000/svg">
<g id="false-in-R">
<rect width="1920" height="1080" fill="white"/>
<path id="Arrow 9" d="M960.746 158.013C960.356 157.622 959.722 157.622 959.332 158.013L952.968 164.377C952.577 164.768 952.577 165.401 952.968 165.791C953.358 166.182 953.992 166.182 954.382 165.791L960.039 160.134L965.696 165.791C966.086 166.182 966.72 166.182 967.11 165.791C967.501 165.401 967.501 164.768 967.11 164.377L960.746 158.013ZM960.039 960.72L961.039 960.72L961.039 158.72L960.039 158.72L959.039 158.72L959.039 960.72L960.039 960.72Z" fill="black"/>
<path id="Arrow 10" d="M1606.75 540.427C1607.14 540.037 1607.14 539.404 1606.75 539.013L1600.38 532.649C1599.99 532.259 1599.36 532.259 1598.97 532.649C1598.58 533.04 1598.58 533.673 1598.97 534.063L1604.62 539.72L1598.97 545.377C1598.58 545.768 1598.58 546.401 1598.97 546.791C1599.36 547.182 1599.99 547.182 1600.38 546.791L1606.75 540.427ZM311.039 539.72V540.72H1606.04V539.72V538.72H311.039V539.72Z" fill="black"/>
<path id="y" d="M945.167 136.8C944.314 136.8 943.503 136.608 942.735 136.224C941.967 135.883 941.348 135.371 940.879 134.688C940.41 134.048 940.175 133.302 940.175 132.448C940.175 131.552 940.431 130.87 940.943 130.4C941.412 129.931 941.988 129.696 942.671 129.696C943.311 129.696 943.866 129.867 944.335 130.208C944.804 130.55 945.21 130.955 945.551 131.424C945.892 131.894 946.191 132.299 946.447 132.64C946.746 132.982 947.023 133.152 947.279 133.152C947.663 133.152 948.26 132.726 949.071 131.872C949.882 131.019 950.756 129.974 951.695 128.736C952.634 127.499 953.487 126.304 954.255 125.152C955.066 124.043 955.642 123.232 955.983 122.72L958.671 117.664H960.079L967.439 105.824C968.207 104.587 968.74 103.542 969.039 102.688C969.38 101.792 969.551 101.088 969.551 100.576C969.551 99.7655 969.295 99.0615 968.783 98.4642C968.271 97.8669 967.738 97.2482 967.183 96.6082C966.671 95.9682 966.415 95.2429 966.415 94.4322C966.415 93.7069 966.65 93.1095 967.119 92.6402C967.588 92.1282 968.271 91.8722 969.167 91.8722C970.276 91.8722 971.236 92.2989 972.047 93.1522C972.858 93.9629 973.263 95.2642 973.263 97.0562C973.263 98.2082 973.05 99.4669 972.623 100.832C972.196 102.155 971.492 103.734 970.511 105.568C969.7 107.062 968.74 108.704 967.631 110.496C966.522 112.246 965.412 113.931 964.303 115.552C963.194 117.174 962.234 118.56 961.423 119.712C960.655 120.864 960.186 121.547 960.015 121.76C957.711 125.046 955.706 127.798 953.999 130.016C952.335 132.278 950.799 133.963 949.391 135.072C948.026 136.224 946.618 136.8 945.167 136.8ZM959.759 118.688L955.791 124.32L951.951 100.768C951.78 99.7015 951.567 98.7202 951.311 97.8242C951.098 96.8855 950.692 96.1389 950.095 95.5842C949.498 95.0295 948.559 94.7522 947.279 94.7522C946.98 94.7522 946.682 94.7735 946.383 94.8162C946.127 94.8162 945.85 94.8375 945.551 94.8802V93.0242L954.127 92.3202H955.087C955.556 93.1309 955.94 93.9415 956.239 94.7522C956.538 95.5629 956.794 96.5442 957.007 97.6962C957.22 98.8055 957.455 100.214 957.711 101.92L959.119 111.264L959.759 118.688Z" fill="black"/>
<path id="x" d="M1648.71 560.36C1647.13 560.36 1645.96 559.784 1645.19 558.632C1644.47 557.48 1643.85 555.859 1643.34 553.768L1641.61 546.664L1640.9 545.576L1638.92 539.112C1638.36 537.32 1637.81 535.912 1637.26 534.888C1636.74 533.864 1636.08 533.139 1635.27 532.712C1634.5 532.286 1633.48 532.072 1632.2 532.072C1631.86 532.072 1631.52 532.094 1631.18 532.136C1630.88 532.136 1630.51 532.179 1630.09 532.264V530.344L1638.79 529.32H1639.75C1640.52 530.216 1641.2 531.347 1641.8 532.712C1642.44 534.078 1642.97 535.635 1643.4 537.384L1644.3 541.288L1644.94 542.504L1646.47 547.496C1647.37 550.355 1648.18 552.446 1648.9 553.768C1649.63 555.091 1650.52 555.752 1651.59 555.752C1652.44 555.752 1653.21 555.411 1653.9 554.728C1654.62 554.046 1655.37 553.192 1656.14 552.168L1657.48 553.192C1657.05 553.875 1656.54 554.643 1655.94 555.496C1655.35 556.307 1654.68 557.096 1653.96 557.864C1653.23 558.59 1652.42 559.187 1651.53 559.656C1650.67 560.126 1649.74 560.36 1648.71 560.36ZM1629.38 560.296C1628.02 560.296 1627.06 559.976 1626.5 559.336C1625.95 558.654 1625.67 557.95 1625.67 557.224C1625.67 556.499 1625.91 555.859 1626.38 555.304C1626.8 554.75 1627.42 554.472 1628.23 554.472C1628.87 554.472 1629.55 554.622 1630.28 554.92C1631.05 555.176 1631.69 555.304 1632.2 555.304C1632.28 555.304 1632.48 555.262 1632.78 555.176C1633.07 555.048 1633.5 554.728 1634.06 554.216C1634.61 553.704 1635.29 552.851 1636.1 551.656L1641.1 544.424L1642.38 547.304H1641.48L1637.38 553.96C1636.36 555.624 1635.25 557.096 1634.06 558.376C1632.86 559.656 1631.3 560.296 1629.38 560.296ZM1649.03 536.936L1644.74 543.72L1643.53 540.648H1644.36L1647.5 535.272C1648.05 534.291 1648.69 533.331 1649.42 532.392C1650.18 531.454 1651.08 530.664 1652.1 530.024C1653.13 529.384 1654.3 529.064 1655.62 529.064C1656.73 529.064 1657.52 529.32 1657.99 529.832C1658.5 530.302 1658.76 530.963 1658.76 531.816C1658.76 532.883 1658.46 533.672 1657.86 534.184C1657.27 534.654 1656.6 534.888 1655.88 534.888C1655.28 534.888 1654.68 534.782 1654.09 534.568C1653.53 534.355 1652.98 534.248 1652.42 534.248C1651.74 534.248 1651.14 534.483 1650.63 534.952C1650.12 535.379 1649.59 536.04 1649.03 536.936Z" fill="black"/>
<g id="Group_28">
<circle id="Ellipse 1" cx="960.039" cy="539.72" r="271.5" stroke="black" stroke-width="5"/>
<path id="x2 + y2 &#226;&#128;&#147; 1 = 0" d="M1242.71 358.36C1241.13 358.36 1239.96 357.784 1239.19 356.632C1238.47 355.48 1237.85 353.859 1237.34 351.768L1235.61 344.664L1234.9 343.576L1232.92 337.112C1232.36 335.32 1231.81 333.912 1231.26 332.888C1230.74 331.864 1230.08 331.139 1229.27 330.712C1228.5 330.286 1227.48 330.072 1226.2 330.072C1225.86 330.072 1225.52 330.094 1225.18 330.136C1224.88 330.136 1224.51 330.179 1224.09 330.264V328.344L1232.79 327.32H1233.75C1234.52 328.216 1235.2 329.347 1235.8 330.712C1236.44 332.078 1236.97 333.635 1237.4 335.384L1238.3 339.288L1238.94 340.504L1240.47 345.496C1241.37 348.355 1242.18 350.446 1242.9 351.768C1243.63 353.091 1244.52 353.752 1245.59 353.752C1246.44 353.752 1247.21 353.411 1247.9 352.728C1248.62 352.046 1249.37 351.192 1250.14 350.168L1251.48 351.192C1251.05 351.875 1250.54 352.643 1249.94 353.496C1249.35 354.307 1248.68 355.096 1247.96 355.864C1247.23 356.59 1246.42 357.187 1245.53 357.656C1244.67 358.126 1243.74 358.36 1242.71 358.36ZM1223.38 358.296C1222.02 358.296 1221.06 357.976 1220.5 357.336C1219.95 356.654 1219.67 355.95 1219.67 355.224C1219.67 354.499 1219.91 353.859 1220.38 353.304C1220.8 352.75 1221.42 352.472 1222.23 352.472C1222.87 352.472 1223.55 352.622 1224.28 352.92C1225.05 353.176 1225.69 353.304 1226.2 353.304C1226.28 353.304 1226.48 353.262 1226.78 353.176C1227.07 353.048 1227.5 352.728 1228.06 352.216C1228.61 351.704 1229.29 350.851 1230.1 349.656L1235.1 342.424L1236.38 345.304H1235.48L1231.38 351.96C1230.36 353.624 1229.25 355.096 1228.06 356.376C1226.86 357.656 1225.3 358.296 1223.38 358.296ZM1243.03 334.936L1238.74 341.72L1237.53 338.648H1238.36L1241.5 333.272C1242.05 332.291 1242.69 331.331 1243.42 330.392C1244.18 329.454 1245.08 328.664 1246.1 328.024C1247.13 327.384 1248.3 327.064 1249.62 327.064C1250.73 327.064 1251.52 327.32 1251.99 327.832C1252.5 328.302 1252.76 328.963 1252.76 329.816C1252.76 330.883 1252.46 331.672 1251.86 332.184C1251.27 332.654 1250.6 332.888 1249.88 332.888C1249.28 332.888 1248.68 332.782 1248.09 332.568C1247.53 332.355 1246.98 332.248 1246.42 332.248C1245.74 332.248 1245.14 332.483 1244.63 332.952C1244.12 333.379 1243.59 334.04 1243.03 334.936ZM1272.16 341.592H1252.77V339.096L1259.3 332.568C1261.13 330.862 1262.62 329.347 1263.78 328.024C1264.93 326.702 1265.78 325.379 1266.34 324.056C1266.89 322.734 1267.17 321.198 1267.17 319.448C1267.17 317.827 1266.66 316.526 1265.63 315.544C1264.65 314.52 1263.22 314.008 1261.34 314.008C1259.64 314.008 1258.21 314.328 1257.06 314.968C1255.9 315.566 1254.9 316.59 1254.05 318.04L1252.77 317.336C1253.58 315.203 1254.79 313.539 1256.42 312.344C1258.08 311.107 1260.13 310.488 1262.56 310.488C1265.42 310.488 1267.74 311.235 1269.54 312.728C1271.37 314.222 1272.29 316.291 1272.29 318.936C1272.29 320.43 1271.92 321.838 1271.2 323.16C1270.47 324.483 1269.45 325.848 1268.13 327.256C1266.85 328.622 1265.33 330.136 1263.58 331.8L1257.82 337.368V337.688L1261.47 337.496H1267.55C1268.92 337.496 1269.86 337.198 1270.37 336.6C1270.88 335.96 1271.43 334.915 1272.03 333.464H1273.76L1272.16 341.592ZM1315.32 360.344H1310.71V343.384H1293.94V339.032H1310.71V322.072H1315.32V339.032H1332.09V343.384H1315.32V360.344ZM1351.23 371.8C1350.38 371.8 1349.57 371.608 1348.8 371.224C1348.03 370.883 1347.41 370.371 1346.94 369.688C1346.47 369.048 1346.24 368.302 1346.24 367.448C1346.24 366.552 1346.49 365.87 1347.01 365.4C1347.47 364.931 1348.05 364.696 1348.73 364.696C1349.37 364.696 1349.93 364.867 1350.4 365.208C1350.87 365.55 1351.27 365.955 1351.61 366.424C1351.95 366.894 1352.25 367.299 1352.51 367.64C1352.81 367.982 1353.09 368.152 1353.34 368.152C1353.73 368.152 1354.32 367.726 1355.13 366.872C1355.94 366.019 1356.82 364.974 1357.76 363.736C1358.7 362.499 1359.55 361.304 1360.32 360.152C1361.13 359.043 1361.7 358.232 1362.05 357.72L1364.73 352.664H1366.14L1373.5 340.824C1374.27 339.587 1374.8 338.542 1375.1 337.688C1375.44 336.792 1375.61 336.088 1375.61 335.576C1375.61 334.766 1375.36 334.062 1374.85 333.464C1374.33 332.867 1373.8 332.248 1373.25 331.608C1372.73 330.968 1372.48 330.243 1372.48 329.432C1372.48 328.707 1372.71 328.11 1373.18 327.64C1373.65 327.128 1374.33 326.872 1375.23 326.872C1376.34 326.872 1377.3 327.299 1378.11 328.152C1378.92 328.963 1379.33 330.264 1379.33 332.056C1379.33 333.208 1379.11 334.467 1378.69 335.832C1378.26 337.155 1377.55 338.734 1376.57 340.568C1375.76 342.062 1374.8 343.704 1373.69 345.496C1372.58 347.246 1371.47 348.931 1370.37 350.552C1369.26 352.174 1368.3 353.56 1367.49 354.712C1366.72 355.864 1366.25 356.547 1366.08 356.76C1363.77 360.046 1361.77 362.798 1360.06 365.016C1358.4 367.278 1356.86 368.963 1355.45 370.072C1354.09 371.224 1352.68 371.8 1351.23 371.8ZM1365.82 353.688L1361.85 359.32L1358.01 335.768C1357.84 334.702 1357.63 333.72 1357.37 332.824C1357.16 331.886 1356.75 331.139 1356.16 330.584C1355.56 330.03 1354.62 329.752 1353.34 329.752C1353.04 329.752 1352.74 329.774 1352.45 329.816C1352.19 329.816 1351.91 329.838 1351.61 329.88V328.024L1360.19 327.32H1361.15C1361.62 328.131 1362 328.942 1362.3 329.752C1362.6 330.563 1362.86 331.544 1363.07 332.696C1363.28 333.806 1363.52 335.214 1363.77 336.92L1365.18 346.264L1365.82 353.688ZM1400.78 341.592H1381.39V339.096L1387.92 332.568C1389.75 330.862 1391.25 329.347 1392.4 328.024C1393.55 326.702 1394.41 325.379 1394.96 324.056C1395.51 322.734 1395.79 321.198 1395.79 319.448C1395.79 317.827 1395.28 316.526 1394.26 315.544C1393.27 314.52 1391.85 314.008 1389.97 314.008C1388.26 314.008 1386.83 314.328 1385.68 314.968C1384.53 315.566 1383.53 316.59 1382.67 318.04L1381.39 317.336C1382.2 315.203 1383.42 313.539 1385.04 312.344C1386.7 311.107 1388.75 310.488 1391.18 310.488C1394.04 310.488 1396.37 311.235 1398.16 312.728C1399.99 314.222 1400.91 316.291 1400.91 318.936C1400.91 320.43 1400.55 321.838 1399.82 323.16C1399.1 324.483 1398.07 325.848 1396.75 327.256C1395.47 328.622 1393.96 330.136 1392.21 331.8L1386.45 337.368V337.688L1390.1 337.496H1396.18C1397.54 337.496 1398.48 337.198 1398.99 336.6C1399.5 335.96 1400.06 334.915 1400.66 333.464H1402.38L1400.78 341.592ZM1448.68 343.512H1420.52V339.864H1448.68V343.512ZM1492.93 357.72H1470.78V355.928C1473.81 355.928 1475.95 355.608 1477.18 354.968C1478.42 354.328 1479.04 353.219 1479.04 351.64V324.568C1479.04 323.459 1478.89 322.67 1478.59 322.2C1478.29 321.688 1477.74 321.432 1476.93 321.432C1476.5 321.432 1475.9 321.475 1475.14 321.56C1474.37 321.646 1473.56 321.774 1472.7 321.944C1471.85 322.072 1471.08 322.243 1470.4 322.456V320.344L1482.82 316.824H1484.67V351.64C1484.67 353.219 1485.31 354.328 1486.59 354.968C1487.87 355.608 1489.98 355.928 1492.93 355.928V357.72ZM1554.53 335.832H1516.38V331.48H1554.53V335.832ZM1554.53 351H1516.38V346.712H1554.53V351ZM1589.35 358.424C1586.79 358.424 1584.61 357.87 1582.82 356.76C1581.03 355.608 1579.58 354.051 1578.47 352.088C1577.36 350.126 1576.55 347.864 1576.04 345.304C1575.52 342.744 1575.27 340.056 1575.27 337.24C1575.27 333.187 1575.8 329.624 1576.87 326.552C1577.98 323.438 1579.58 321.006 1581.67 319.256C1583.8 317.507 1586.4 316.632 1589.48 316.632C1592.25 316.632 1594.68 317.464 1596.77 319.128C1598.86 320.75 1600.5 323.118 1601.7 326.232C1602.89 329.304 1603.49 333.038 1603.49 337.432C1603.49 340.163 1603.21 342.787 1602.66 345.304C1602.15 347.822 1601.32 350.062 1600.16 352.024C1599.05 353.987 1597.6 355.544 1595.81 356.696C1594.02 357.848 1591.86 358.424 1589.35 358.424ZM1589.35 356.12C1591.86 356.12 1593.81 354.606 1595.17 351.576C1596.58 348.547 1597.28 343.96 1597.28 337.816C1597.28 331.331 1596.6 326.552 1595.24 323.48C1593.91 320.366 1591.93 318.808 1589.28 318.808C1586.77 318.808 1584.82 320.344 1583.46 323.416C1582.09 326.488 1581.41 331.203 1581.41 337.56C1581.41 343.747 1582.09 348.398 1583.46 351.512C1584.82 354.584 1586.79 356.12 1589.35 356.12Z" fill="black"/>
</g>
<g id="Group_14">
<line id="Line 14" x1="686.176" y1="539.556" x2="1234.18" y2="539.556" stroke="#FF0000" stroke-width="5"/>
<g id="&#207;&#128;1(Z)">
<path d="M1028.07 617.296C1026.15 617.296 1024.74 616.592 1023.85 615.184C1022.99 613.776 1022.57 612.027 1022.57 609.936C1022.57 608.102 1022.72 606.118 1023.02 603.984C1023.36 601.808 1023.76 599.611 1024.23 597.392C1024.7 595.131 1025.11 593.019 1025.45 591.056L1028.14 591.376C1028.01 592.016 1027.84 593.147 1027.62 594.768C1027.45 596.39 1027.28 598.182 1027.11 600.144C1026.94 602.064 1026.86 603.856 1026.86 605.52C1026.86 607.782 1027.13 609.574 1027.69 610.896C1028.28 612.176 1029.24 612.816 1030.57 612.816C1031.72 612.816 1032.59 612.646 1033.19 612.304C1033.79 611.92 1034.3 611.515 1034.73 611.088L1035.75 611.984C1035.2 613.051 1034.56 613.99 1033.83 614.8C1033.15 615.611 1032.34 616.23 1031.4 616.656C1030.5 617.083 1029.39 617.296 1028.07 617.296ZM1010.47 616.72H1004.46L1004.26 615.76C1005.67 613.286 1006.89 611.046 1007.91 609.04C1008.98 606.992 1009.87 605.051 1010.6 603.216C1011.32 601.382 1011.92 599.483 1012.39 597.52C1012.86 595.558 1013.22 593.403 1013.48 591.056L1015.85 591.248C1015.8 592.571 1015.66 594.15 1015.4 595.984C1015.14 597.776 1014.82 599.696 1014.44 601.744C1014.06 603.75 1013.63 605.734 1013.16 607.696C1012.69 609.616 1012.22 611.387 1011.75 613.008C1011.28 614.587 1010.86 615.824 1010.47 616.72ZM1002.47 595.216L1001.19 594.576C1002.04 591.632 1003.52 589.563 1005.61 588.368C1007.7 587.174 1010.41 586.576 1013.74 586.576H1036.58V587.6L1035.75 591.696H1014.76C1012.58 591.696 1010.81 591.718 1009.45 591.76C1008.12 591.76 1007.04 591.867 1006.18 592.08C1005.37 592.294 1004.69 592.656 1004.14 593.168C1003.58 593.638 1003.03 594.32 1002.47 595.216ZM1057.12 631.376H1040.99V629.648C1043.25 629.648 1044.76 629.414 1045.53 628.944C1046.3 628.518 1046.68 627.707 1046.68 626.512V606.48C1046.68 605.627 1046.56 605.008 1046.3 604.624C1046.04 604.24 1045.57 604.048 1044.89 604.048C1044.38 604.048 1043.68 604.134 1042.78 604.304C1041.93 604.432 1041.2 604.56 1040.6 604.688V602.768L1049.24 600.464H1051.36V626.512C1051.36 627.707 1051.76 628.518 1052.57 628.944C1053.42 629.414 1054.94 629.648 1057.12 629.648V631.376ZM1079.13 626.832L1078.11 628.624C1072.95 625.979 1068.81 622.16 1065.69 617.168C1062.62 612.219 1061.08 606.224 1061.08 599.184C1061.08 592.187 1062.62 586.235 1065.69 581.328C1068.81 576.379 1072.95 572.603 1078.11 570L1079.13 571.664C1074.48 574.779 1071.17 578.555 1069.21 582.992C1067.29 587.43 1066.33 592.827 1066.33 599.184C1066.33 605.627 1067.29 611.088 1069.21 615.568C1071.17 620.006 1074.48 623.76 1079.13 626.832ZM1113.17 616.72H1080.91L1081.23 614.864L1113.61 577.616V577.36H1101.9C1099.73 577.36 1097.98 577.531 1096.65 577.872C1095.33 578.171 1094.22 578.875 1093.33 579.984C1092.43 581.094 1091.51 582.843 1090.57 585.232H1088.53L1090.89 574.672H1122L1121.61 576.464L1089.36 613.776V614.096H1102.48C1104.91 614.096 1106.81 613.819 1108.17 613.264C1109.58 612.71 1110.75 611.75 1111.69 610.384C1112.67 609.019 1113.76 607.163 1114.96 604.816H1116.88L1113.17 616.72ZM1122.92 628.624L1121.9 626.832C1126.59 623.76 1129.9 620.006 1131.82 615.568C1133.74 611.088 1134.7 605.627 1134.7 599.184C1134.7 592.827 1133.74 587.43 1131.82 582.992C1129.9 578.555 1126.59 574.779 1121.9 571.664L1122.92 570C1128.08 572.603 1132.2 576.379 1135.27 581.328C1138.39 586.235 1139.95 592.187 1139.95 599.184C1139.95 606.224 1138.39 612.219 1135.27 617.168C1132.2 622.16 1128.08 625.979 1122.92 628.624Z" fill="#FF0000"/>
</g>
</g>
</g>
</svg>
