<svg xmlns="http://www.w3.org/2000/svg" width="1920" height="1080" fill="none" viewBox="0 0 1920 1080"><g id="eliminate-one-existential"><rect width="1920" height="1080" fill="#fff"/><g id="∃ x" clip-path="url(#clip0_59_2175)"><g id="page1"><path id="Vector" fill="#000" d="M272.785 397.817C272.785 395.345 272.56 395.12 270.162 395.12H242.063C240.789 395.12 239.44 395.12 239.44 396.619C239.44 398.117 240.789 398.117 242.063 398.117H269.788V419.623H243.112C241.838 419.623 240.489 419.623 240.489 421.121C240.489 422.62 241.838 422.62 243.112 422.62H269.788V444.125H242.063C240.789 444.125 239.44 444.125 239.44 445.624C239.44 447.123 240.789 447.123 242.063 447.123H270.162C272.56 447.123 272.785 446.898 272.785 444.425V397.817Z"/><path id="Vector_2" fill="#000" d="M312.465 416.55C310.068 417 309.168 418.798 309.168 420.222C309.168 422.02 310.592 422.62 311.641 422.62C313.889 422.62 315.463 420.671 315.463 418.648C315.463 415.501 311.866 414.077 308.719 414.077C304.148 414.077 301.6 418.573 300.926 419.997C299.203 414.377 294.557 414.077 293.208 414.077C285.565 414.077 281.519 423.893 281.519 425.542C281.519 425.842 281.818 426.216 282.343 426.216C282.942 426.216 283.092 425.767 283.242 425.467C285.79 417.15 290.81 415.576 292.983 415.576C296.355 415.576 297.03 418.723 297.03 420.522C297.03 422.17 296.58 423.893 295.681 427.49L293.133 437.756C292.009 442.252 289.836 446.373 285.865 446.373C285.49 446.373 283.617 446.373 282.043 445.399C284.741 444.874 285.34 442.626 285.34 441.727C285.34 440.229 284.216 439.329 282.792 439.329C280.994 439.329 279.046 440.903 279.046 443.301C279.046 446.448 282.568 447.872 285.79 447.872C289.386 447.872 291.934 445.024 293.508 441.952C294.707 446.373 298.453 447.872 301.226 447.872C308.869 447.872 312.915 438.056 312.915 436.407C312.915 436.032 312.615 435.733 312.166 435.733C311.491 435.733 311.416 436.107 311.192 436.707C309.168 443.301 304.822 446.373 301.451 446.373C298.828 446.373 297.404 444.425 297.404 441.353C297.404 439.704 297.704 438.505 298.903 433.56L301.525 423.369C302.649 418.873 305.197 415.576 308.644 415.576C308.794 415.576 310.892 415.576 312.465 416.55Z"/></g></g><g id="s^n(x) &lt; s^m(x)" clip-path="url(#clip1_59_2175)"><g id="page1_2"><path id="Vector_3" fill="#000" d="M416.703 420.333C417.977 420.558 420 421.007 420.45 421.082C421.424 421.382 424.796 422.581 424.796 426.177C424.796 428.5 422.698 434.57 414.006 434.57C412.432 434.57 406.812 434.345 405.314 430.224C408.311 430.598 409.81 428.276 409.81 426.627C409.81 425.053 408.761 424.229 407.262 424.229C405.613 424.229 403.44 425.503 403.44 428.875C403.44 433.296 407.936 436.068 413.931 436.068C425.321 436.068 428.692 427.676 428.692 423.78C428.692 422.656 428.692 420.558 426.295 418.16C424.421 416.361 422.623 415.987 418.577 415.162C416.553 414.713 413.331 414.038 413.331 410.667C413.331 409.168 414.68 403.773 421.799 403.773C424.946 403.773 428.018 404.972 428.767 407.669C425.47 407.669 425.321 410.517 425.321 410.592C425.321 412.165 426.744 412.615 427.419 412.615C428.468 412.615 430.566 411.791 430.566 408.643C430.566 405.496 427.718 402.274 421.874 402.274C412.058 402.274 409.435 409.992 409.435 413.064C409.435 418.759 414.98 419.958 416.703 420.333Z"/><path id="Vector_4" fill="#000" d="M444.169 396.187C444.319 395.437 444.818 393.539 444.968 392.79C445.668 390.092 445.668 390.042 446.817 388.394C448.465 385.946 450.813 383.748 454.16 383.748C455.958 383.748 457.007 384.797 457.007 387.145C457.007 389.892 454.909 395.587 453.96 398.035C453.311 399.684 453.311 399.983 453.311 400.633C453.311 403.48 455.659 404.879 457.807 404.879C462.702 404.879 464.75 397.885 464.75 397.236C464.75 396.736 464.351 396.586 464.001 396.586C463.402 396.586 463.302 396.936 463.152 397.436C461.953 401.532 459.855 403.48 457.956 403.48C457.157 403.48 456.758 402.981 456.758 401.832C456.758 400.683 457.157 399.584 457.657 398.335C458.406 396.437 460.604 390.692 460.604 387.894C460.604 384.148 458.006 382.349 454.41 382.349C450.363 382.349 447.766 384.797 446.317 386.695C445.967 383.948 443.769 382.349 441.222 382.349C439.423 382.349 438.174 383.498 437.375 385.047C436.176 387.395 435.677 389.892 435.677 389.992C435.677 390.442 436.026 390.642 436.426 390.642C437.075 390.642 437.125 390.442 437.475 389.143C438.075 386.695 438.974 383.748 441.072 383.748C442.371 383.748 442.67 384.997 442.67 386.096C442.67 386.995 442.421 387.944 442.021 389.593C441.921 389.992 441.172 392.94 440.972 393.639L439.124 401.132C438.924 401.882 438.624 403.13 438.624 403.33C438.624 404.479 439.573 404.879 440.223 404.879C441.122 404.879 441.871 404.279 442.221 403.68C442.371 403.38 442.77 401.682 443.02 400.633L444.169 396.187Z"/><path id="Vector_5" fill="#000" d="M493.859 453.527C493.859 453.302 493.859 453.152 492.585 451.879C485.092 444.311 480.896 431.947 480.896 416.661C480.896 402.124 484.418 389.61 493.11 380.768C493.859 380.094 493.859 379.944 493.859 379.719C493.859 379.27 493.484 379.12 493.185 379.12C492.211 379.12 486.066 384.515 482.395 391.858C478.573 399.426 476.85 407.444 476.85 416.661C476.85 423.33 477.899 432.247 481.795 440.264C486.216 449.256 492.36 454.127 493.185 454.127C493.484 454.127 493.859 453.977 493.859 453.527Z"/><path id="Vector_6" fill="#000" d="M533.555 404.747C531.158 405.197 530.258 406.995 530.258 408.419C530.258 410.217 531.682 410.816 532.731 410.816C534.979 410.816 536.553 408.868 536.553 406.845C536.553 403.698 532.956 402.274 529.809 402.274C525.238 402.274 522.69 406.77 522.016 408.194C520.292 402.574 515.647 402.274 514.298 402.274C506.655 402.274 502.608 412.09 502.608 413.739C502.608 414.038 502.908 414.413 503.433 414.413C504.032 414.413 504.182 413.964 504.332 413.664C506.88 405.346 511.9 403.773 514.073 403.773C517.445 403.773 518.119 406.92 518.119 408.718C518.119 410.367 517.67 412.09 516.771 415.687L514.223 425.953C513.099 430.449 510.926 434.57 506.955 434.57C506.58 434.57 504.707 434.57 503.133 433.596C505.831 433.071 506.43 430.823 506.43 429.924C506.43 428.425 505.306 427.526 503.882 427.526C502.084 427.526 500.136 429.1 500.136 431.498C500.136 434.645 503.658 436.068 506.88 436.068C510.476 436.068 513.024 433.221 514.598 430.149C515.796 434.57 519.543 436.068 522.316 436.068C529.959 436.068 534.005 426.252 534.005 424.604C534.005 424.229 533.705 423.929 533.256 423.929C532.581 423.929 532.506 424.304 532.281 424.904C530.258 431.498 525.912 434.57 522.54 434.57C519.918 434.57 518.494 432.622 518.494 429.549C518.494 427.901 518.794 426.702 519.993 421.756L522.615 411.566C523.739 407.07 526.287 403.773 529.734 403.773C529.884 403.773 531.982 403.773 533.555 404.747Z"/><path id="Vector_7" fill="#000" d="M560.862 416.661C560.862 410.966 560.113 401.674 555.917 392.982C551.496 383.99 545.351 379.12 544.527 379.12C544.227 379.12 543.853 379.27 543.853 379.719C543.853 379.944 543.853 380.094 545.126 381.368C552.62 388.936 556.816 401.3 556.816 416.586C556.816 431.123 553.294 443.636 544.602 452.478C543.853 453.153 543.853 453.302 543.853 453.527C543.853 453.977 544.227 454.127 544.527 454.127C545.501 454.127 551.645 448.732 555.317 441.388C559.139 433.745 560.862 425.653 560.862 416.661Z"/><path id="Vector_8" fill="#000" d="M638.458 398.827C639.807 398.228 639.957 397.703 639.957 397.254C639.957 396.429 639.357 395.83 638.533 395.83C638.383 395.83 638.308 395.905 637.259 396.354L596.721 415.012C595.373 415.612 595.223 416.136 595.223 416.586C595.223 417.11 595.298 417.56 596.721 418.234L637.259 436.892C638.234 437.342 638.383 437.417 638.533 437.417C639.357 437.417 639.957 436.818 639.957 435.993C639.957 435.544 639.807 435.019 638.458 434.42L599.868 416.661L638.458 398.827Z"/><path id="Vector_9" fill="#000" d="M684.044 420.333C685.318 420.558 687.341 421.007 687.791 421.082C688.765 421.382 692.137 422.581 692.137 426.177C692.137 428.5 690.039 434.57 681.347 434.57C679.773 434.57 674.153 434.345 672.655 430.224C675.652 430.598 677.15 428.276 677.15 426.627C677.15 425.053 676.101 424.229 674.603 424.229C672.954 424.229 670.781 425.503 670.781 428.875C670.781 433.296 675.277 436.068 681.272 436.068C692.661 436.068 696.033 427.676 696.033 423.78C696.033 422.656 696.033 420.558 693.635 418.16C691.762 416.361 689.964 415.987 685.917 415.162C683.894 414.713 680.672 414.038 680.672 410.667C680.672 409.168 682.021 403.773 689.14 403.773C692.287 403.773 695.359 404.972 696.108 407.669C692.811 407.669 692.661 410.517 692.661 410.592C692.661 412.165 694.085 412.615 694.759 412.615C695.808 412.615 697.907 411.791 697.907 408.643C697.907 405.496 695.059 402.274 689.214 402.274C679.398 402.274 676.776 409.992 676.776 413.064C676.776 418.759 682.321 419.958 684.044 420.333Z"/><path id="Vector_10" fill="#000" d="M711.51 396.187C711.66 395.437 712.159 393.539 712.309 392.79C712.459 392.29 712.759 391.091 712.859 390.592C712.959 390.342 714.607 387.095 716.805 385.447C718.503 384.148 720.152 383.748 721.551 383.748C723.399 383.748 724.398 384.847 724.398 387.145C724.398 388.344 724.098 389.493 723.549 391.741C723.199 393.04 722.35 396.387 722.05 397.735L721.301 400.733C721.051 401.582 720.701 403.08 720.701 403.33C720.701 404.479 721.651 404.879 722.3 404.879C723.199 404.879 723.949 404.279 724.298 403.68C724.448 403.38 724.848 401.682 725.097 400.633L726.246 396.187C726.396 395.437 726.896 393.539 727.046 392.79C727.745 390.092 727.745 390.042 728.894 388.394C730.543 385.946 732.89 383.748 736.237 383.748C738.036 383.748 739.085 384.797 739.085 387.145C739.085 389.892 736.987 395.637 736.038 398.035C735.538 399.334 735.388 399.684 735.388 400.633C735.388 403.48 737.736 404.879 739.884 404.879C744.78 404.879 746.828 397.885 746.828 397.236C746.828 396.736 746.428 396.586 746.078 396.586C745.479 396.586 745.379 396.936 745.229 397.436C744.03 401.582 741.932 403.48 740.034 403.48C739.235 403.48 738.835 402.981 738.835 401.832C738.835 400.683 739.235 399.584 739.734 398.335C740.483 396.437 742.681 390.692 742.681 387.894C742.681 384.148 740.084 382.349 736.487 382.349C733.04 382.349 730.193 384.148 727.945 387.245C727.545 383.249 724.348 382.349 721.751 382.349C719.453 382.349 716.405 383.149 713.658 386.745C713.308 383.748 710.91 382.349 708.563 382.349C706.814 382.349 705.565 383.398 704.716 385.097C703.517 387.445 703.018 389.892 703.018 389.992C703.018 390.442 703.367 390.642 703.767 390.642C704.416 390.642 704.466 390.442 704.816 389.143C705.415 386.695 706.315 383.748 708.413 383.748C709.711 383.748 710.011 384.997 710.011 386.096C710.011 386.995 709.761 387.944 709.362 389.593C709.262 389.992 708.513 392.94 708.313 393.639L706.464 401.132C706.265 401.882 705.965 403.13 705.965 403.33C705.965 404.479 706.914 404.879 707.563 404.879C708.463 404.879 709.212 404.279 709.562 403.68C709.711 403.38 710.111 401.682 710.361 400.633L711.51 396.187Z"/><path id="Vector_11" fill="#000" d="M775.943 453.527C775.943 453.302 775.943 453.152 774.669 451.879C767.176 444.311 762.98 431.947 762.98 416.661C762.98 402.124 766.502 389.61 775.194 380.768C775.943 380.094 775.943 379.944 775.943 379.719C775.943 379.27 775.568 379.12 775.269 379.12C774.295 379.12 768.15 384.515 764.479 391.858C760.657 399.426 758.934 407.444 758.934 416.661C758.934 423.33 759.983 432.247 763.879 440.264C768.3 449.256 774.444 454.127 775.269 454.127C775.568 454.127 775.943 453.977 775.943 453.527Z"/><path id="Vector_12" fill="#000" d="M815.639 404.747C813.241 405.197 812.342 406.995 812.342 408.419C812.342 410.217 813.766 410.816 814.815 410.816C817.063 410.816 818.637 408.868 818.637 406.845C818.637 403.698 815.04 402.274 811.893 402.274C807.322 402.274 804.774 406.77 804.1 408.194C802.376 402.574 797.731 402.274 796.382 402.274C788.739 402.274 784.692 412.09 784.692 413.739C784.692 414.038 784.992 414.413 785.517 414.413C786.116 414.413 786.266 413.964 786.416 413.664C788.964 405.346 793.984 403.773 796.157 403.773C799.529 403.773 800.203 406.92 800.203 408.718C800.203 410.367 799.754 412.09 798.855 415.687L796.307 425.953C795.183 430.449 793.01 434.57 789.039 434.57C788.664 434.57 786.791 434.57 785.217 433.596C787.915 433.071 788.514 430.823 788.514 429.924C788.514 428.425 787.39 427.526 785.966 427.526C784.168 427.526 782.22 429.1 782.22 431.498C782.22 434.645 785.742 436.068 788.964 436.068C792.56 436.068 795.108 433.221 796.682 430.149C797.88 434.57 801.627 436.068 804.4 436.068C812.043 436.068 816.089 426.252 816.089 424.604C816.089 424.229 815.789 423.929 815.34 423.929C814.665 423.929 814.59 424.304 814.365 424.904C812.342 431.498 807.996 434.57 804.624 434.57C802.002 434.57 800.578 432.622 800.578 429.549C800.578 427.901 800.878 426.702 802.077 421.756L804.699 411.566C805.823 407.07 808.371 403.773 811.818 403.773C811.968 403.773 814.066 403.773 815.639 404.747Z"/><path id="Vector_13" fill="#000" d="M842.946 416.661C842.946 410.966 842.197 401.674 838.001 392.982C833.58 383.99 827.435 379.12 826.611 379.12C826.311 379.12 825.937 379.27 825.937 379.719C825.937 379.944 825.937 380.094 827.21 381.368C834.704 388.936 838.9 401.3 838.9 416.586C838.9 431.123 835.378 443.636 826.686 452.478C825.937 453.153 825.937 453.302 825.937 453.527C825.937 453.977 826.311 454.127 826.611 454.127C827.585 454.127 833.729 448.732 837.401 441.388C841.223 433.745 842.946 425.653 842.946 416.661Z"/></g></g><g id="s^n(x) = s^m(x)" clip-path="url(#clip2_59_2175)"><g id="page1_3"><path id="Vector_14" fill="#000" d="M385.703 616.333C386.977 616.558 389 617.007 389.45 617.082C390.424 617.382 393.796 618.581 393.796 622.177C393.796 624.5 391.698 630.57 383.006 630.57C381.432 630.57 375.812 630.345 374.314 626.224C377.311 626.598 378.81 624.276 378.81 622.627C378.81 621.053 377.761 620.229 376.262 620.229C374.613 620.229 372.44 621.503 372.44 624.875C372.44 629.296 376.936 632.068 382.931 632.068C394.321 632.068 397.692 623.676 397.692 619.78C397.692 618.656 397.692 616.558 395.295 614.16C393.421 612.361 391.623 611.987 387.577 611.162C385.553 610.713 382.331 610.038 382.331 606.667C382.331 605.168 383.68 599.773 390.799 599.773C393.946 599.773 397.018 600.972 397.767 603.669C394.47 603.669 394.321 606.517 394.321 606.592C394.321 608.165 395.744 608.615 396.419 608.615C397.468 608.615 399.566 607.791 399.566 604.643C399.566 601.496 396.718 598.274 390.874 598.274C381.058 598.274 378.435 605.992 378.435 609.064C378.435 614.759 383.98 615.958 385.703 616.333Z"/><path id="Vector_15" fill="#000" d="M413.169 592.187C413.319 591.437 413.818 589.539 413.968 588.79C414.668 586.092 414.668 586.042 415.817 584.394C417.465 581.946 419.813 579.748 423.16 579.748C424.958 579.748 426.007 580.797 426.007 583.145C426.007 585.892 423.909 591.587 422.96 594.035C422.311 595.684 422.311 595.983 422.311 596.633C422.311 599.48 424.659 600.879 426.807 600.879C431.702 600.879 433.75 593.885 433.75 593.236C433.75 592.736 433.351 592.586 433.001 592.586C432.402 592.586 432.302 592.936 432.152 593.436C430.953 597.532 428.855 599.48 426.956 599.48C426.157 599.48 425.758 598.981 425.758 597.832C425.758 596.683 426.157 595.584 426.657 594.335C427.406 592.437 429.604 586.692 429.604 583.894C429.604 580.148 427.006 578.349 423.41 578.349C419.363 578.349 416.766 580.797 415.317 582.695C414.967 579.948 412.769 578.349 410.222 578.349C408.423 578.349 407.174 579.498 406.375 581.047C405.176 583.395 404.677 585.892 404.677 585.992C404.677 586.442 405.026 586.642 405.426 586.642C406.075 586.642 406.125 586.442 406.475 585.143C407.075 582.695 407.974 579.748 410.072 579.748C411.371 579.748 411.67 580.997 411.67 582.096C411.67 582.995 411.421 583.944 411.021 585.593C410.921 585.992 410.172 588.94 409.972 589.639L408.124 597.132C407.924 597.882 407.624 599.13 407.624 599.33C407.624 600.479 408.573 600.879 409.223 600.879C410.122 600.879 410.871 600.279 411.221 599.68C411.371 599.38 411.77 597.682 412.02 596.633L413.169 592.187Z"/><path id="Vector_16" fill="#000" d="M462.859 649.527C462.859 649.302 462.859 649.152 461.585 647.879C454.092 640.311 449.896 627.947 449.896 612.661C449.896 598.124 453.418 585.61 462.11 576.768C462.859 576.094 462.859 575.944 462.859 575.719C462.859 575.27 462.484 575.12 462.185 575.12C461.211 575.12 455.066 580.515 451.395 587.858C447.573 595.426 445.85 603.444 445.85 612.661C445.85 619.33 446.899 628.247 450.795 636.264C455.216 645.256 461.36 650.127 462.185 650.127C462.484 650.127 462.859 649.977 462.859 649.527Z"/><path id="Vector_17" fill="#000" d="M502.555 600.747C500.158 601.197 499.258 602.995 499.258 604.419C499.258 606.217 500.682 606.816 501.731 606.816C503.979 606.816 505.553 604.868 505.553 602.845C505.553 599.698 501.956 598.274 498.809 598.274C494.238 598.274 491.69 602.77 491.016 604.194C489.292 598.574 484.647 598.274 483.298 598.274C475.655 598.274 471.608 608.09 471.608 609.739C471.608 610.038 471.908 610.413 472.433 610.413C473.032 610.413 473.182 609.964 473.332 609.664C475.88 601.346 480.9 599.773 483.073 599.773C486.445 599.773 487.119 602.92 487.119 604.718C487.119 606.367 486.67 608.09 485.771 611.687L483.223 621.953C482.099 626.449 479.926 630.57 475.955 630.57C475.58 630.57 473.707 630.57 472.133 629.596C474.831 629.071 475.43 626.823 475.43 625.924C475.43 624.425 474.306 623.526 472.882 623.526C471.084 623.526 469.136 625.1 469.136 627.498C469.136 630.645 472.658 632.068 475.88 632.068C479.476 632.068 482.024 629.221 483.598 626.149C484.796 630.57 488.543 632.068 491.316 632.068C498.959 632.068 503.005 622.252 503.005 620.604C503.005 620.229 502.705 619.929 502.256 619.929C501.581 619.929 501.506 620.304 501.281 620.904C499.258 627.498 494.912 630.57 491.54 630.57C488.918 630.57 487.494 628.622 487.494 625.549C487.494 623.901 487.794 622.702 488.993 617.756L491.615 607.566C492.739 603.07 495.287 599.773 498.734 599.773C498.884 599.773 500.982 599.773 502.555 600.747Z"/><path id="Vector_18" fill="#000" d="M529.862 612.661C529.862 606.966 529.113 597.674 524.917 588.982C520.496 579.99 514.351 575.12 513.527 575.12C513.227 575.12 512.853 575.27 512.853 575.719C512.853 575.944 512.853 576.094 514.126 577.368C521.62 584.936 525.816 597.3 525.816 612.586C525.816 627.123 522.294 639.636 513.602 648.478C512.853 649.153 512.853 649.302 512.853 649.527C512.853 649.977 513.227 650.127 513.527 650.127C514.501 650.127 520.645 644.732 524.317 637.388C528.139 629.745 529.862 621.653 529.862 612.661Z"/><path id="Vector_19" fill="#000" d="M608.66 607.041C609.709 607.041 611.057 607.041 611.057 605.692C611.057 604.268 609.784 604.268 608.66 604.268H564.525C563.476 604.268 562.127 604.268 562.127 605.617C562.127 607.041 563.401 607.041 564.525 607.041H608.66ZM608.66 620.978C609.709 620.978 611.057 620.978 611.057 619.629C611.057 618.206 609.784 618.206 608.66 618.206H564.525C563.476 618.206 562.127 618.206 562.127 619.554C562.127 620.978 563.401 620.978 564.525 620.978H608.66Z"/><path id="Vector_20" fill="#000" d="M653.044 616.333C654.318 616.558 656.341 617.007 656.791 617.082C657.765 617.382 661.137 618.581 661.137 622.177C661.137 624.5 659.039 630.57 650.347 630.57C648.773 630.57 643.153 630.345 641.655 626.224C644.652 626.598 646.15 624.276 646.15 622.627C646.15 621.053 645.101 620.229 643.603 620.229C641.954 620.229 639.781 621.503 639.781 624.875C639.781 629.296 644.277 632.068 650.272 632.068C661.661 632.068 665.033 623.676 665.033 619.78C665.033 618.656 665.033 616.558 662.635 614.16C660.762 612.361 658.964 611.987 654.917 611.162C652.894 610.713 649.672 610.038 649.672 606.667C649.672 605.168 651.021 599.773 658.14 599.773C661.287 599.773 664.359 600.972 665.108 603.669C661.811 603.669 661.661 606.517 661.661 606.592C661.661 608.165 663.085 608.615 663.759 608.615C664.808 608.615 666.907 607.791 666.907 604.643C666.907 601.496 664.059 598.274 658.214 598.274C648.398 598.274 645.776 605.992 645.776 609.064C645.776 614.759 651.321 615.958 653.044 616.333Z"/><path id="Vector_21" fill="#000" d="M680.51 592.187C680.66 591.437 681.159 589.539 681.309 588.79C681.459 588.29 681.759 587.091 681.859 586.592C681.959 586.342 683.607 583.095 685.805 581.447C687.503 580.148 689.152 579.748 690.551 579.748C692.399 579.748 693.398 580.847 693.398 583.145C693.398 584.344 693.098 585.493 692.549 587.741C692.199 589.04 691.35 592.387 691.05 593.735L690.301 596.733C690.051 597.582 689.701 599.08 689.701 599.33C689.701 600.479 690.651 600.879 691.3 600.879C692.199 600.879 692.949 600.279 693.298 599.68C693.448 599.38 693.848 597.682 694.097 596.633L695.246 592.187C695.396 591.437 695.896 589.539 696.046 588.79C696.745 586.092 696.745 586.042 697.894 584.394C699.543 581.946 701.89 579.748 705.237 579.748C707.036 579.748 708.085 580.797 708.085 583.145C708.085 585.892 705.987 591.637 705.038 594.035C704.538 595.334 704.388 595.684 704.388 596.633C704.388 599.48 706.736 600.879 708.884 600.879C713.78 600.879 715.828 593.885 715.828 593.236C715.828 592.736 715.428 592.586 715.078 592.586C714.479 592.586 714.379 592.936 714.229 593.436C713.03 597.582 710.932 599.48 709.034 599.48C708.235 599.48 707.835 598.981 707.835 597.832C707.835 596.683 708.235 595.584 708.734 594.335C709.483 592.437 711.681 586.692 711.681 583.894C711.681 580.148 709.084 578.349 705.487 578.349C702.04 578.349 699.193 580.148 696.945 583.245C696.545 579.249 693.348 578.349 690.751 578.349C688.453 578.349 685.405 579.149 682.658 582.745C682.308 579.748 679.91 578.349 677.563 578.349C675.814 578.349 674.565 579.398 673.716 581.097C672.517 583.445 672.018 585.892 672.018 585.992C672.018 586.442 672.367 586.642 672.767 586.642C673.416 586.642 673.466 586.442 673.816 585.143C674.415 582.695 675.315 579.748 677.413 579.748C678.711 579.748 679.011 580.997 679.011 582.096C679.011 582.995 678.761 583.944 678.362 585.593C678.262 585.992 677.513 588.94 677.313 589.639L675.464 597.132C675.265 597.882 674.965 599.13 674.965 599.33C674.965 600.479 675.914 600.879 676.563 600.879C677.463 600.879 678.212 600.279 678.562 599.68C678.711 599.38 679.111 597.682 679.361 596.633L680.51 592.187Z"/><path id="Vector_22" fill="#000" d="M744.943 649.527C744.943 649.302 744.943 649.152 743.669 647.879C736.176 640.311 731.98 627.947 731.98 612.661C731.98 598.124 735.502 585.61 744.194 576.768C744.943 576.094 744.943 575.944 744.943 575.719C744.943 575.27 744.568 575.12 744.269 575.12C743.295 575.12 737.15 580.515 733.479 587.858C729.657 595.426 727.934 603.444 727.934 612.661C727.934 619.33 728.983 628.247 732.879 636.264C737.3 645.256 743.444 650.127 744.269 650.127C744.568 650.127 744.943 649.977 744.943 649.527Z"/><path id="Vector_23" fill="#000" d="M784.639 600.747C782.241 601.197 781.342 602.995 781.342 604.419C781.342 606.217 782.766 606.816 783.815 606.816C786.063 606.816 787.637 604.868 787.637 602.845C787.637 599.698 784.04 598.274 780.893 598.274C776.322 598.274 773.774 602.77 773.1 604.194C771.376 598.574 766.731 598.274 765.382 598.274C757.739 598.274 753.692 608.09 753.692 609.739C753.692 610.038 753.992 610.413 754.517 610.413C755.116 610.413 755.266 609.964 755.416 609.664C757.964 601.346 762.984 599.773 765.157 599.773C768.529 599.773 769.203 602.92 769.203 604.718C769.203 606.367 768.754 608.09 767.855 611.687L765.307 621.953C764.183 626.449 762.01 630.57 758.039 630.57C757.664 630.57 755.791 630.57 754.217 629.596C756.915 629.071 757.514 626.823 757.514 625.924C757.514 624.425 756.39 623.526 754.966 623.526C753.168 623.526 751.22 625.1 751.22 627.498C751.22 630.645 754.742 632.068 757.964 632.068C761.56 632.068 764.108 629.221 765.682 626.149C766.88 630.57 770.627 632.068 773.4 632.068C781.043 632.068 785.089 622.252 785.089 620.604C785.089 620.229 784.789 619.929 784.34 619.929C783.665 619.929 783.59 620.304 783.365 620.904C781.342 627.498 776.996 630.57 773.624 630.57C771.002 630.57 769.578 628.622 769.578 625.549C769.578 623.901 769.878 622.702 771.077 617.756L773.699 607.566C774.823 603.07 777.371 599.773 780.818 599.773C780.968 599.773 783.066 599.773 784.639 600.747Z"/><path id="Vector_24" fill="#000" d="M811.946 612.661C811.946 606.966 811.197 597.674 807.001 588.982C802.58 579.99 796.435 575.12 795.611 575.12C795.311 575.12 794.937 575.27 794.937 575.719C794.937 575.944 794.937 576.094 796.21 577.368C803.704 584.936 807.9 597.3 807.9 612.586C807.9 627.123 804.378 639.636 795.686 648.478C794.937 649.153 794.937 649.302 794.937 649.527C794.937 649.977 795.311 650.127 795.611 650.127C796.585 650.127 802.729 644.732 806.401 637.388C810.223 629.745 811.946 621.653 811.946 612.661Z"/></g></g><g id="s^n(x) &lt; t" clip-path="url(#clip3_59_2175)"><g id="page1_4"><path id="Vector_25" fill="#000" d="M1052.7 529.333C1053.98 529.558 1056 530.007 1056.45 530.082C1057.42 530.382 1060.8 531.581 1060.8 535.177C1060.8 537.5 1058.7 543.57 1050.01 543.57C1048.43 543.57 1042.81 543.345 1041.31 539.224C1044.31 539.598 1045.81 537.276 1045.81 535.627C1045.81 534.053 1044.76 533.229 1043.26 533.229C1041.61 533.229 1039.44 534.503 1039.44 537.875C1039.44 542.296 1043.94 545.068 1049.93 545.068C1061.32 545.068 1064.69 536.676 1064.69 532.78C1064.69 531.656 1064.69 529.558 1062.29 527.16C1060.42 525.361 1058.62 524.987 1054.58 524.162C1052.55 523.713 1049.33 523.038 1049.33 519.667C1049.33 518.168 1050.68 512.773 1057.8 512.773C1060.95 512.773 1064.02 513.972 1064.77 516.669C1061.47 516.669 1061.32 519.517 1061.32 519.592C1061.32 521.165 1062.74 521.615 1063.42 521.615C1064.47 521.615 1066.57 520.791 1066.57 517.643C1066.57 514.496 1063.72 511.274 1057.87 511.274C1048.06 511.274 1045.43 518.992 1045.43 522.064C1045.43 527.759 1050.98 528.958 1052.7 529.333Z"/><path id="Vector_26" fill="#000" d="M1080.17 505.187C1080.32 504.437 1080.82 502.539 1080.97 501.79C1081.67 499.092 1081.67 499.042 1082.82 497.394C1084.47 494.946 1086.81 492.748 1090.16 492.748C1091.96 492.748 1093.01 493.797 1093.01 496.145C1093.01 498.892 1090.91 504.587 1089.96 507.035C1089.31 508.684 1089.31 508.983 1089.31 509.633C1089.31 512.48 1091.66 513.879 1093.81 513.879C1098.7 513.879 1100.75 506.885 1100.75 506.236C1100.75 505.736 1100.35 505.586 1100 505.586C1099.4 505.586 1099.3 505.936 1099.15 506.436C1097.95 510.532 1095.85 512.48 1093.96 512.48C1093.16 512.48 1092.76 511.981 1092.76 510.832C1092.76 509.683 1093.16 508.584 1093.66 507.335C1094.41 505.437 1096.6 499.692 1096.6 496.894C1096.6 493.148 1094.01 491.349 1090.41 491.349C1086.36 491.349 1083.77 493.797 1082.32 495.695C1081.97 492.948 1079.77 491.349 1077.22 491.349C1075.42 491.349 1074.17 492.498 1073.38 494.047C1072.18 496.395 1071.68 498.892 1071.68 498.992C1071.68 499.442 1072.03 499.642 1072.43 499.642C1073.08 499.642 1073.13 499.442 1073.48 498.143C1074.07 495.695 1074.97 492.748 1077.07 492.748C1078.37 492.748 1078.67 493.997 1078.67 495.096C1078.67 495.995 1078.42 496.944 1078.02 498.593C1077.92 498.992 1077.17 501.94 1076.97 502.639L1075.12 510.132C1074.92 510.882 1074.62 512.13 1074.62 512.33C1074.62 513.479 1075.57 513.879 1076.22 513.879C1077.12 513.879 1077.87 513.279 1078.22 512.68C1078.37 512.38 1078.77 510.682 1079.02 509.633L1080.17 505.187Z"/><path id="Vector_27" fill="#000" d="M1129.86 562.527C1129.86 562.302 1129.86 562.152 1128.59 560.879C1121.09 553.311 1116.9 540.947 1116.9 525.661C1116.9 511.124 1120.42 498.61 1129.11 489.768C1129.86 489.094 1129.86 488.944 1129.86 488.719C1129.86 488.27 1129.48 488.12 1129.18 488.12C1128.21 488.12 1122.07 493.515 1118.39 500.858C1114.57 508.426 1112.85 516.444 1112.85 525.661C1112.85 532.33 1113.9 541.247 1117.8 549.264C1122.22 558.256 1128.36 563.127 1129.18 563.127C1129.48 563.127 1129.86 562.977 1129.86 562.527Z"/><path id="Vector_28" fill="#000" d="M1169.56 513.747C1167.16 514.197 1166.26 515.995 1166.26 517.419C1166.26 519.217 1167.68 519.816 1168.73 519.816C1170.98 519.816 1172.55 517.868 1172.55 515.845C1172.55 512.698 1168.96 511.274 1165.81 511.274C1161.24 511.274 1158.69 515.77 1158.02 517.194C1156.29 511.574 1151.65 511.274 1150.3 511.274C1142.65 511.274 1138.61 521.09 1138.61 522.739C1138.61 523.038 1138.91 523.413 1139.43 523.413C1140.03 523.413 1140.18 522.964 1140.33 522.664C1142.88 514.346 1147.9 512.773 1150.07 512.773C1153.44 512.773 1154.12 515.92 1154.12 517.718C1154.12 519.367 1153.67 521.09 1152.77 524.687L1150.22 534.953C1149.1 539.449 1146.93 543.57 1142.95 543.57C1142.58 543.57 1140.71 543.57 1139.13 542.596C1141.83 542.071 1142.43 539.823 1142.43 538.924C1142.43 537.425 1141.31 536.526 1139.88 536.526C1138.08 536.526 1136.14 538.1 1136.14 540.498C1136.14 543.645 1139.66 545.068 1142.88 545.068C1146.48 545.068 1149.02 542.221 1150.6 539.149C1151.8 543.57 1155.54 545.068 1158.32 545.068C1165.96 545.068 1170 535.252 1170 533.604C1170 533.229 1169.71 532.929 1169.26 532.929C1168.58 532.929 1168.51 533.304 1168.28 533.904C1166.26 540.498 1161.91 543.57 1158.54 543.57C1155.92 543.57 1154.49 541.622 1154.49 538.549C1154.49 536.901 1154.79 535.702 1155.99 530.756L1158.62 520.566C1159.74 516.07 1162.29 512.773 1165.73 512.773C1165.88 512.773 1167.98 512.773 1169.56 513.747Z"/><path id="Vector_29" fill="#000" d="M1196.86 525.661C1196.86 519.966 1196.11 510.674 1191.92 501.982C1187.5 492.99 1181.35 488.12 1180.53 488.12C1180.23 488.12 1179.85 488.27 1179.85 488.719C1179.85 488.944 1179.85 489.094 1181.13 490.368C1188.62 497.936 1192.82 510.3 1192.82 525.586C1192.82 540.123 1189.29 552.636 1180.6 561.478C1179.85 562.153 1179.85 562.302 1179.85 562.527C1179.85 562.977 1180.23 563.127 1180.53 563.127C1181.5 563.127 1187.65 557.732 1191.32 550.388C1195.14 542.745 1196.86 534.653 1196.86 525.661Z"/><path id="Vector_30" fill="#000" d="M1274.46 507.827C1275.81 507.228 1275.96 506.703 1275.96 506.254C1275.96 505.429 1275.36 504.83 1274.53 504.83C1274.38 504.83 1274.31 504.905 1273.26 505.354L1232.72 524.012C1231.37 524.612 1231.22 525.136 1231.22 525.586C1231.22 526.11 1231.3 526.56 1232.72 527.234L1273.26 545.892C1274.23 546.342 1274.38 546.417 1274.53 546.417C1275.36 546.417 1275.96 545.818 1275.96 544.993C1275.96 544.544 1275.81 544.019 1274.46 543.42L1235.87 525.661L1274.46 507.827Z"/><path id="Vector_31" fill="#000" d="M1318.02 514.196H1324.91C1326.34 514.196 1327.09 514.196 1327.09 512.847C1327.09 512.023 1326.64 512.023 1325.14 512.023H1318.55L1321.32 501.083C1321.62 500.034 1321.62 499.884 1321.62 499.359C1321.62 498.16 1320.64 497.486 1319.67 497.486C1319.07 497.486 1317.35 497.711 1316.75 500.109L1313.83 512.023H1306.78C1305.28 512.023 1304.61 512.023 1304.61 513.447C1304.61 514.196 1305.13 514.196 1306.56 514.196H1313.23L1308.28 533.978C1307.68 536.6 1307.46 537.35 1307.46 538.324C1307.46 541.846 1309.93 545.068 1314.12 545.068C1321.69 545.068 1325.74 534.128 1325.74 533.603C1325.74 533.154 1325.44 532.929 1324.99 532.929C1324.84 532.929 1324.54 532.929 1324.39 533.229C1324.32 533.303 1324.24 533.378 1323.72 534.577C1322.14 538.324 1318.7 543.569 1314.35 543.569C1312.1 543.569 1311.95 541.696 1311.95 540.047C1311.95 539.972 1311.95 538.549 1312.18 537.65L1318.02 514.196Z"/></g></g><g id="s^n(x) = t" clip-path="url(#clip4_59_2175)"><g id="page1_5"><path id="Vector_32" fill="#000" d="M1052.7 673.333C1053.98 673.558 1056 674.007 1056.45 674.082C1057.42 674.382 1060.8 675.581 1060.8 679.177C1060.8 681.5 1058.7 687.57 1050.01 687.57C1048.43 687.57 1042.81 687.345 1041.31 683.224C1044.31 683.598 1045.81 681.276 1045.81 679.627C1045.81 678.053 1044.76 677.229 1043.26 677.229C1041.61 677.229 1039.44 678.503 1039.44 681.875C1039.44 686.296 1043.94 689.068 1049.93 689.068C1061.32 689.068 1064.69 680.676 1064.69 676.78C1064.69 675.656 1064.69 673.558 1062.29 671.16C1060.42 669.361 1058.62 668.987 1054.58 668.162C1052.55 667.713 1049.33 667.038 1049.33 663.667C1049.33 662.168 1050.68 656.773 1057.8 656.773C1060.95 656.773 1064.02 657.972 1064.77 660.669C1061.47 660.669 1061.32 663.517 1061.32 663.592C1061.32 665.165 1062.74 665.615 1063.42 665.615C1064.47 665.615 1066.57 664.791 1066.57 661.643C1066.57 658.496 1063.72 655.274 1057.87 655.274C1048.06 655.274 1045.43 662.992 1045.43 666.064C1045.43 671.759 1050.98 672.958 1052.7 673.333Z"/><path id="Vector_33" fill="#000" d="M1080.17 649.187C1080.32 648.437 1080.82 646.539 1080.97 645.79C1081.67 643.092 1081.67 643.042 1082.82 641.394C1084.47 638.946 1086.81 636.748 1090.16 636.748C1091.96 636.748 1093.01 637.797 1093.01 640.145C1093.01 642.892 1090.91 648.587 1089.96 651.035C1089.31 652.684 1089.31 652.983 1089.31 653.633C1089.31 656.48 1091.66 657.879 1093.81 657.879C1098.7 657.879 1100.75 650.885 1100.75 650.236C1100.75 649.736 1100.35 649.586 1100 649.586C1099.4 649.586 1099.3 649.936 1099.15 650.436C1097.95 654.532 1095.85 656.48 1093.96 656.48C1093.16 656.48 1092.76 655.981 1092.76 654.832C1092.76 653.683 1093.16 652.584 1093.66 651.335C1094.41 649.437 1096.6 643.692 1096.6 640.894C1096.6 637.148 1094.01 635.349 1090.41 635.349C1086.36 635.349 1083.77 637.797 1082.32 639.695C1081.97 636.948 1079.77 635.349 1077.22 635.349C1075.42 635.349 1074.17 636.498 1073.38 638.047C1072.18 640.395 1071.68 642.892 1071.68 642.992C1071.68 643.442 1072.03 643.642 1072.43 643.642C1073.08 643.642 1073.13 643.442 1073.48 642.143C1074.07 639.695 1074.97 636.748 1077.07 636.748C1078.37 636.748 1078.67 637.997 1078.67 639.096C1078.67 639.995 1078.42 640.944 1078.02 642.593C1077.92 642.992 1077.17 645.94 1076.97 646.639L1075.12 654.132C1074.92 654.882 1074.62 656.13 1074.62 656.33C1074.62 657.479 1075.57 657.879 1076.22 657.879C1077.12 657.879 1077.87 657.279 1078.22 656.68C1078.37 656.38 1078.77 654.682 1079.02 653.633L1080.17 649.187Z"/><path id="Vector_34" fill="#000" d="M1129.86 706.527C1129.86 706.302 1129.86 706.152 1128.59 704.879C1121.09 697.311 1116.9 684.947 1116.9 669.661C1116.9 655.124 1120.42 642.61 1129.11 633.768C1129.86 633.094 1129.86 632.944 1129.86 632.719C1129.86 632.27 1129.48 632.12 1129.18 632.12C1128.21 632.12 1122.07 637.515 1118.39 644.858C1114.57 652.426 1112.85 660.444 1112.85 669.661C1112.85 676.33 1113.9 685.247 1117.8 693.264C1122.22 702.256 1128.36 707.127 1129.18 707.127C1129.48 707.127 1129.86 706.977 1129.86 706.527Z"/><path id="Vector_35" fill="#000" d="M1169.56 657.747C1167.16 658.197 1166.26 659.995 1166.26 661.419C1166.26 663.217 1167.68 663.816 1168.73 663.816C1170.98 663.816 1172.55 661.868 1172.55 659.845C1172.55 656.698 1168.96 655.274 1165.81 655.274C1161.24 655.274 1158.69 659.77 1158.02 661.194C1156.29 655.574 1151.65 655.274 1150.3 655.274C1142.65 655.274 1138.61 665.09 1138.61 666.739C1138.61 667.038 1138.91 667.413 1139.43 667.413C1140.03 667.413 1140.18 666.964 1140.33 666.664C1142.88 658.346 1147.9 656.773 1150.07 656.773C1153.44 656.773 1154.12 659.92 1154.12 661.718C1154.12 663.367 1153.67 665.09 1152.77 668.687L1150.22 678.953C1149.1 683.449 1146.93 687.57 1142.95 687.57C1142.58 687.57 1140.71 687.57 1139.13 686.596C1141.83 686.071 1142.43 683.823 1142.43 682.924C1142.43 681.425 1141.31 680.526 1139.88 680.526C1138.08 680.526 1136.14 682.1 1136.14 684.498C1136.14 687.645 1139.66 689.068 1142.88 689.068C1146.48 689.068 1149.02 686.221 1150.6 683.149C1151.8 687.57 1155.54 689.068 1158.32 689.068C1165.96 689.068 1170 679.252 1170 677.604C1170 677.229 1169.71 676.929 1169.26 676.929C1168.58 676.929 1168.51 677.304 1168.28 677.904C1166.26 684.498 1161.91 687.57 1158.54 687.57C1155.92 687.57 1154.49 685.622 1154.49 682.549C1154.49 680.901 1154.79 679.702 1155.99 674.756L1158.62 664.566C1159.74 660.07 1162.29 656.773 1165.73 656.773C1165.88 656.773 1167.98 656.773 1169.56 657.747Z"/><path id="Vector_36" fill="#000" d="M1196.86 669.661C1196.86 663.966 1196.11 654.674 1191.92 645.982C1187.5 636.99 1181.35 632.12 1180.53 632.12C1180.23 632.12 1179.85 632.27 1179.85 632.719C1179.85 632.944 1179.85 633.094 1181.13 634.368C1188.62 641.936 1192.82 654.3 1192.82 669.586C1192.82 684.123 1189.29 696.636 1180.6 705.478C1179.85 706.153 1179.85 706.302 1179.85 706.527C1179.85 706.977 1180.23 707.127 1180.53 707.127C1181.5 707.127 1187.65 701.732 1191.32 694.388C1195.14 686.745 1196.86 678.653 1196.86 669.661Z"/><path id="Vector_37" fill="#000" d="M1275.66 664.041C1276.71 664.041 1278.06 664.041 1278.06 662.692C1278.06 661.268 1276.78 661.268 1275.66 661.268H1231.52C1230.48 661.268 1229.13 661.268 1229.13 662.617C1229.13 664.041 1230.4 664.041 1231.52 664.041H1275.66ZM1275.66 677.978C1276.71 677.978 1278.06 677.978 1278.06 676.629C1278.06 675.206 1276.78 675.206 1275.66 675.206H1231.52C1230.48 675.206 1229.13 675.206 1229.13 676.554C1229.13 677.978 1230.4 677.978 1231.52 677.978H1275.66Z"/><path id="Vector_38" fill="#000" d="M1318.02 658.196H1324.91C1326.34 658.196 1327.09 658.196 1327.09 656.847C1327.09 656.023 1326.64 656.023 1325.14 656.023H1318.55L1321.32 645.083C1321.62 644.034 1321.62 643.884 1321.62 643.359C1321.62 642.16 1320.64 641.486 1319.67 641.486C1319.07 641.486 1317.35 641.711 1316.75 644.109L1313.83 656.023H1306.78C1305.28 656.023 1304.61 656.023 1304.61 657.447C1304.61 658.196 1305.13 658.196 1306.56 658.196H1313.23L1308.28 677.978C1307.68 680.6 1307.46 681.35 1307.46 682.324C1307.46 685.846 1309.93 689.068 1314.12 689.068C1321.69 689.068 1325.74 678.128 1325.74 677.603C1325.74 677.154 1325.44 676.929 1324.99 676.929C1324.84 676.929 1324.54 676.929 1324.39 677.229C1324.32 677.303 1324.24 677.378 1323.72 678.577C1322.14 682.324 1318.7 687.569 1314.35 687.569C1312.1 687.569 1311.95 685.696 1311.95 684.047C1311.95 683.972 1311.95 682.549 1312.18 681.65L1318.02 658.196Z"/></g></g><g id="t &lt; s^n(x)" clip-path="url(#clip5_59_2175)"><g id="page1_6"><path id="Vector_39" fill="#000" d="M1052.85 381.196H1059.75C1061.17 381.196 1061.92 381.196 1061.92 379.847C1061.92 379.023 1061.47 379.023 1059.97 379.023H1053.38L1056.15 368.083C1056.45 367.034 1056.45 366.884 1056.45 366.359C1056.45 365.16 1055.48 364.486 1054.5 364.486C1053.9 364.486 1052.18 364.711 1051.58 367.109L1048.66 379.023H1041.61C1040.11 379.023 1039.44 379.023 1039.44 380.447C1039.44 381.196 1039.96 381.196 1041.39 381.196H1048.06L1043.11 400.978C1042.51 403.6 1042.29 404.35 1042.29 405.324C1042.29 408.846 1044.76 412.068 1048.96 412.068C1056.52 412.068 1060.57 401.128 1060.57 400.603C1060.57 400.154 1060.27 399.929 1059.82 399.929C1059.67 399.929 1059.37 399.929 1059.22 400.229C1059.15 400.303 1059.07 400.378 1058.55 401.577C1056.97 405.324 1053.53 410.569 1049.18 410.569C1046.93 410.569 1046.78 408.696 1046.78 407.047C1046.78 406.972 1046.78 405.549 1047.01 404.65L1052.85 381.196Z"/><path id="Vector_40" fill="#000" d="M1134.48 374.827C1135.83 374.228 1135.98 373.703 1135.98 373.254C1135.98 372.429 1135.38 371.83 1134.56 371.83C1134.41 371.83 1134.33 371.905 1133.28 372.354L1092.74 391.012C1091.39 391.612 1091.25 392.136 1091.25 392.586C1091.25 393.11 1091.32 393.56 1092.74 394.234L1133.28 412.892C1134.26 413.342 1134.41 413.417 1134.56 413.417C1135.38 413.417 1135.98 412.818 1135.98 411.993C1135.98 411.544 1135.83 411.019 1134.48 410.42L1095.89 392.661L1134.48 374.827Z"/><path id="Vector_41" fill="#000" d="M1180.07 396.333C1181.34 396.558 1183.36 397.007 1183.81 397.082C1184.79 397.382 1188.16 398.581 1188.16 402.177C1188.16 404.5 1186.06 410.57 1177.37 410.57C1175.8 410.57 1170.18 410.345 1168.68 406.224C1171.67 406.598 1173.17 404.276 1173.17 402.627C1173.17 401.053 1172.12 400.229 1170.63 400.229C1168.98 400.229 1166.8 401.503 1166.8 404.875C1166.8 409.296 1171.3 412.068 1177.29 412.068C1188.68 412.068 1192.06 403.676 1192.06 399.78C1192.06 398.656 1192.06 396.558 1189.66 394.16C1187.78 392.361 1185.99 391.987 1181.94 391.162C1179.92 390.713 1176.69 390.038 1176.69 386.667C1176.69 385.168 1178.04 379.773 1185.16 379.773C1188.31 379.773 1191.38 380.972 1192.13 383.669C1188.83 383.669 1188.68 386.517 1188.68 386.592C1188.68 388.165 1190.11 388.615 1190.78 388.615C1191.83 388.615 1193.93 387.791 1193.93 384.643C1193.93 381.496 1191.08 378.274 1185.24 378.274C1175.42 378.274 1172.8 385.992 1172.8 389.064C1172.8 394.759 1178.34 395.958 1180.07 396.333Z"/><path id="Vector_42" fill="#000" d="M1207.53 372.187C1207.68 371.437 1208.18 369.539 1208.33 368.79C1209.03 366.092 1209.03 366.042 1210.18 364.394C1211.83 361.946 1214.18 359.748 1217.52 359.748C1219.32 359.748 1220.37 360.797 1220.37 363.145C1220.37 365.892 1218.27 371.587 1217.32 374.035C1216.67 375.684 1216.67 375.983 1216.67 376.633C1216.67 379.48 1219.02 380.879 1221.17 380.879C1226.07 380.879 1228.11 373.885 1228.11 373.236C1228.11 372.736 1227.71 372.586 1227.36 372.586C1226.76 372.586 1226.66 372.936 1226.52 373.436C1225.32 377.532 1223.22 379.48 1221.32 379.48C1220.52 379.48 1220.12 378.981 1220.12 377.832C1220.12 376.683 1220.52 375.584 1221.02 374.335C1221.77 372.437 1223.97 366.692 1223.97 363.894C1223.97 360.148 1221.37 358.349 1217.77 358.349C1213.73 358.349 1211.13 360.797 1209.68 362.695C1209.33 359.948 1207.13 358.349 1204.58 358.349C1202.79 358.349 1201.54 359.498 1200.74 361.047C1199.54 363.395 1199.04 365.892 1199.04 365.992C1199.04 366.442 1199.39 366.642 1199.79 366.642C1200.44 366.642 1200.49 366.442 1200.84 365.143C1201.44 362.695 1202.34 359.748 1204.44 359.748C1205.73 359.748 1206.03 360.997 1206.03 362.096C1206.03 362.995 1205.78 363.944 1205.38 365.593C1205.28 365.992 1204.54 368.94 1204.34 369.639L1202.49 377.132C1202.29 377.882 1201.99 379.13 1201.99 379.33C1201.99 380.479 1202.94 380.879 1203.59 380.879C1204.49 380.879 1205.23 380.279 1205.58 379.68C1205.73 379.38 1206.13 377.682 1206.38 376.633L1207.53 372.187Z"/><path id="Vector_43" fill="#000" d="M1257.22 429.527C1257.22 429.302 1257.22 429.152 1255.94 427.879C1248.45 420.311 1244.26 407.947 1244.26 392.661C1244.26 378.124 1247.78 365.61 1256.47 356.768C1257.22 356.094 1257.22 355.944 1257.22 355.719C1257.22 355.27 1256.84 355.12 1256.54 355.12C1255.57 355.12 1249.43 360.515 1245.75 367.858C1241.93 375.426 1240.21 383.444 1240.21 392.661C1240.21 399.33 1241.26 408.247 1245.15 416.264C1249.58 425.256 1255.72 430.127 1256.54 430.127C1256.84 430.127 1257.22 429.977 1257.22 429.527Z"/><path id="Vector_44" fill="#000" d="M1296.92 380.747C1294.52 381.197 1293.62 382.995 1293.62 384.419C1293.62 386.217 1295.05 386.816 1296.09 386.816C1298.34 386.816 1299.92 384.868 1299.92 382.845C1299.92 379.698 1296.32 378.274 1293.17 378.274C1288.6 378.274 1286.05 382.77 1285.38 384.194C1283.66 378.574 1279.01 378.274 1277.66 378.274C1270.02 378.274 1265.97 388.09 1265.97 389.739C1265.97 390.038 1266.27 390.413 1266.8 390.413C1267.4 390.413 1267.55 389.964 1267.7 389.664C1270.24 381.346 1275.26 379.773 1277.44 379.773C1280.81 379.773 1281.48 382.92 1281.48 384.718C1281.48 386.367 1281.03 388.09 1280.13 391.687L1277.59 401.953C1276.46 406.449 1274.29 410.57 1270.32 410.57C1269.94 410.57 1268.07 410.57 1266.5 409.596C1269.19 409.071 1269.79 406.823 1269.79 405.924C1269.79 404.425 1268.67 403.526 1267.25 403.526C1265.45 403.526 1263.5 405.1 1263.5 407.498C1263.5 410.645 1267.02 412.068 1270.24 412.068C1273.84 412.068 1276.39 409.221 1277.96 406.149C1279.16 410.57 1282.91 412.068 1285.68 412.068C1293.32 412.068 1297.37 402.252 1297.37 400.604C1297.37 400.229 1297.07 399.929 1296.62 399.929C1295.94 399.929 1295.87 400.304 1295.64 400.904C1293.62 407.498 1289.28 410.57 1285.9 410.57C1283.28 410.57 1281.86 408.622 1281.86 405.549C1281.86 403.901 1282.16 402.702 1283.36 397.756L1285.98 387.566C1287.1 383.07 1289.65 379.773 1293.1 379.773C1293.25 379.773 1295.35 379.773 1296.92 380.747Z"/><path id="Vector_45" fill="#000" d="M1324.23 392.661C1324.23 386.966 1323.48 377.674 1319.28 368.982C1314.86 359.99 1308.71 355.12 1307.89 355.12C1307.59 355.12 1307.22 355.27 1307.22 355.719C1307.22 355.944 1307.22 356.094 1308.49 357.368C1315.98 364.936 1320.18 377.3 1320.18 392.586C1320.18 407.123 1316.66 419.636 1307.97 428.478C1307.22 429.153 1307.22 429.302 1307.22 429.527C1307.22 429.977 1307.59 430.127 1307.89 430.127C1308.86 430.127 1315.01 424.732 1318.68 417.388C1322.5 409.745 1324.23 401.653 1324.23 392.661Z"/></g></g></g><defs><clipPath id="clip0_59_2175"><rect width="76.023" height="52.752" fill="#fff" transform="translate(239.44 395.12)"/></clipPath><clipPath id="clip1_59_2175"><rect width="439.507" height="75.007" fill="#fff" transform="translate(403.44 379.12)"/></clipPath><clipPath id="clip2_59_2175"><rect width="439.507" height="75.007" fill="#fff" transform="translate(372.44 575.12)"/></clipPath><clipPath id="clip3_59_2175"><rect width="287.647" height="75.007" fill="#fff" transform="translate(1039.44 488.12)"/></clipPath><clipPath id="clip4_59_2175"><rect width="287.647" height="75.007" fill="#fff" transform="translate(1039.44 632.12)"/></clipPath><clipPath id="clip5_59_2175"><rect width="284.784" height="75.007" fill="#fff" transform="translate(1039.44 355.12)"/></clipPath></defs></svg>